<svg width="132" height="131" viewBox="0 0 132 131" fill="none" xmlns="http://www.w3.org/2000/svg">
<path fill-rule="evenodd" clip-rule="evenodd" d="M23.2051 22.3001C25.437 20.0645 28.4639 18.8086 31.6202 18.8086H95.0906C98.2469 18.8086 101.274 20.0645 103.506 22.3001C105.737 24.5357 106.991 27.5679 106.991 30.7295V65.1676C106.991 67.3622 108.767 69.1413 110.958 69.1413C113.149 69.1413 114.925 67.3622 114.925 65.1676V30.7295C114.925 25.4601 112.835 20.4066 109.116 16.6806C105.396 12.9546 100.351 10.8613 95.0906 10.8613H31.6202C26.3598 10.8613 21.3148 12.9546 17.5951 16.6806C13.8754 20.4066 11.7857 25.4601 11.7857 30.7295V94.3076C11.7857 99.577 13.8754 104.631 17.5951 108.357C21.3148 112.083 26.3598 114.176 31.6202 114.176H66C68.1909 114.176 69.9669 112.397 69.9669 110.202C69.9669 108.008 68.1909 106.229 66 106.229H31.6202C28.4639 106.229 25.437 104.973 23.2051 102.737C20.9733 100.501 19.7195 97.4692 19.7195 94.3076V85.3563L44.9749 60.058C46.8243 58.2853 48.6085 57.6446 50.1324 57.6446C51.6563 57.6446 53.4405 58.2853 55.2899 60.058L71.0641 75.8589C71.0853 75.8812 71.1069 75.9034 71.1288 75.9253C71.1507 75.9472 71.1727 75.9688 71.195 75.9901L76.418 81.2219C77.9671 82.7737 80.4789 82.7737 82.028 81.2219C83.5772 79.6701 83.5772 77.1542 82.028 75.6024L79.5446 73.1147L81.9985 70.6567C84.6099 68.1563 87.1342 67.8078 89.3292 68.6609C91.3717 69.4547 93.6699 68.4396 94.4623 66.3936C95.2548 64.3476 94.2414 62.0455 92.1989 61.2517C86.6579 59.0983 80.9407 60.6519 76.474 64.9525L76.418 65.0075L73.9346 67.4952L60.8712 54.4097L60.8168 54.3562C57.767 51.4164 54.0811 49.6974 50.1324 49.6974C46.1837 49.6974 42.4978 51.4164 39.448 54.3562L39.3936 54.4097L19.7195 74.1171V30.7295C19.7195 27.5679 20.9733 24.5357 23.2051 22.3001ZM79.223 37.3522C77.0321 37.3522 75.2561 39.1313 75.2561 41.3258C75.2561 43.5204 77.0321 45.2995 79.223 45.2995H79.2759C81.4667 45.2995 83.2428 43.5204 83.2428 41.3258C83.2428 39.1313 81.4667 37.3522 79.2759 37.3522H79.223ZM80.5453 99.6058C80.5453 97.4112 82.3213 95.6321 84.5122 95.6321H96.4129V83.7113C96.4129 81.5167 98.1889 79.7376 100.38 79.7376C102.571 79.7376 104.347 81.5167 104.347 83.7113V95.6321H116.247C118.438 95.6321 120.214 97.4112 120.214 99.6058C120.214 101.8 118.438 103.579 116.247 103.579H104.347V115.5C104.347 117.695 102.571 119.474 100.38 119.474C98.1889 119.474 96.4129 117.695 96.4129 115.5V103.579H84.5122C82.3213 103.579 80.5453 101.8 80.5453 99.6058Z" fill="#E9EAF0"/>
</svg>
