<svg width="20" height="20" viewBox="0 0 20 20" fill="none" xmlns="http://www.w3.org/2000/svg">
<path fill-rule="evenodd" clip-rule="evenodd" d="M12.7455 5.23245C13.0555 4.92252 13.558 4.92252 13.8679 5.23245L18.1001 9.46462L18.1007 9.46526C18.3719 9.73646 18.4058 10.1551 18.2024 10.4631C18.1734 10.5072 18.1395 10.5489 18.1007 10.5877L13.8679 14.8205C13.558 15.1304 13.0555 15.1304 12.7455 14.8205C12.4356 14.5105 12.4356 14.008 12.7455 13.6981L15.6235 10.8201H2.46015C2.02183 10.8201 1.6665 10.4648 1.6665 10.0265C1.6665 9.58813 2.02183 9.2328 2.46015 9.2328H15.6235L12.7455 6.35485C12.4356 6.04491 12.4356 5.54239 12.7455 5.23245Z" fill="white"/>
</svg>
