<svg width="20" height="20" viewBox="0 0 20 20" fill="none" xmlns="http://www.w3.org/2000/svg">
<g id="icon/calendar">
<path id="Union" fill-rule="evenodd" clip-rule="evenodd" d="M14.0385 2.30753C14.0385 1.9535 13.7515 1.6665 13.3974 1.6665C13.0434 1.6665 12.7564 1.9535 12.7564 2.30753V3.37591H7.20085V2.30753C7.20085 1.9535 6.91386 1.6665 6.55983 1.6665C6.2058 1.6665 5.9188 1.9535 5.9188 2.30753V3.37591H4.85043C4.22706 3.37591 3.62921 3.62354 3.18842 4.06433C2.74763 4.50512 2.5 5.10296 2.5 5.72633V9.14514V15.9827C2.5 16.6061 2.74763 17.204 3.18842 17.6447C3.62921 18.0855 4.22705 18.3332 4.85043 18.3332H15.1068C15.7302 18.3332 16.328 18.0855 16.7688 17.6447C17.2096 17.204 17.4573 16.6061 17.4573 15.9827V9.14514V5.72633C17.4573 5.10296 17.2096 4.50512 16.7688 4.06433C16.328 3.62354 15.7302 3.37591 15.1068 3.37591H14.0385V2.30753ZM16.1752 8.50411V5.72633C16.1752 5.44298 16.0627 5.17124 15.8623 4.97088C15.6619 4.77052 15.3902 4.65796 15.1068 4.65796H14.0385V5.72633C14.0385 6.08036 13.7515 6.36736 13.3974 6.36736C13.0434 6.36736 12.7564 6.08036 12.7564 5.72633V4.65796H7.20085V5.72633C7.20085 6.08036 6.91386 6.36736 6.55983 6.36736C6.2058 6.36736 5.9188 6.08036 5.9188 5.72633V4.65796H4.85043C4.56708 4.65796 4.29533 4.77052 4.09497 4.97088C3.89461 5.17124 3.78205 5.44298 3.78205 5.72633V8.50411H16.1752ZM3.78205 9.78616H16.1752V15.9827C16.1752 16.2661 16.0627 16.5378 15.8623 16.7382C15.6619 16.9386 15.3902 17.0511 15.1068 17.0511H4.85043C4.56708 17.0511 4.29533 16.9386 4.09497 16.7382C3.89461 16.5378 3.78205 16.2661 3.78205 15.9827V9.78616Z" fill="#5B5B5B"/>
</g>
</svg>
