<svg xmlns="http://www.w3.org/2000/svg" width="20" height="21" viewBox="0 0 20 21" fill="none">
  <path fill-rule="evenodd" clip-rule="evenodd" d="M4.01718 3.86728C3.43103 3.86728 2.9488 4.35017 2.9488 4.9371V13.4957C2.9488 13.7794 3.06136 14.0515 3.26172 14.2521C3.46208 14.4528 3.73382 14.5655 4.01718 14.5655H8.29068C8.64471 14.5655 8.93171 14.8529 8.93171 15.2074C8.93171 15.5619 8.64471 15.8493 8.29068 15.8493H4.01718C3.3938 15.8493 2.79596 15.6013 2.35517 15.1599C1.91438 14.7185 1.66675 14.1199 1.66675 13.4957V4.9371C1.66675 3.64115 2.72298 2.5835 4.01718 2.5835H15.983C16.6064 2.5835 17.2042 2.83146 17.645 3.27285C18.0858 3.71424 18.3334 4.31288 18.3334 4.9371V13.4957C18.333 13.9084 18.2242 14.3144 18.0179 14.6717C17.8116 15.0291 17.5152 15.3258 17.1582 15.5322C16.8516 15.7094 16.4596 15.6042 16.2825 15.2972C16.1055 14.9902 16.2106 14.5976 16.5172 14.4204C16.6794 14.3266 16.8142 14.1917 16.908 14.0293C17.0017 13.8669 17.0512 13.6826 17.0514 13.495V4.9371C17.0514 4.65337 16.9388 4.38125 16.7384 4.18062C16.5381 3.97999 16.2663 3.86728 15.983 3.86728H4.01718ZM12.5641 8.57445C11.7141 8.57445 10.8988 8.91259 10.2978 9.51448C9.69669 10.1164 9.35901 10.9327 9.35901 11.7839C9.35901 12.5946 9.66534 13.3737 10.2138 13.966V17.775C10.2138 18.0181 10.351 18.2404 10.5682 18.3491C10.7853 18.4578 11.0452 18.4344 11.2394 18.2885L12.5642 17.2936L13.889 18.2885C14.0833 18.4344 14.3431 18.4578 14.5603 18.3491C14.7775 18.2404 14.9147 18.0181 14.9147 17.775V13.9658C15.463 13.3735 15.7693 12.5945 15.7693 11.7839C15.7693 10.9327 15.4316 10.1164 14.8305 9.51448C14.2294 8.91259 13.4142 8.57445 12.5641 8.57445ZM13.6326 14.8098C13.2926 14.9302 12.9316 14.9934 12.5641 14.9934C12.1967 14.9934 11.8358 14.9302 11.4959 14.8099V16.4912L12.1796 15.9777C12.4075 15.8065 12.7209 15.8065 12.9488 15.9777L13.6326 16.4912V14.8098ZM11.2043 10.4223C11.565 10.0611 12.0541 9.85823 12.5641 9.85823C13.0742 9.85823 13.5633 10.0611 13.924 10.4223C14.2846 10.7834 14.4872 11.2732 14.4872 11.7839C14.4872 12.2946 14.2846 12.7844 13.924 13.1456C13.5633 13.5067 13.0742 13.7096 12.5641 13.7096C12.0541 13.7096 11.565 13.5067 11.2043 13.1456C10.8437 12.7844 10.6411 12.2946 10.6411 11.7839C10.6411 11.2732 10.8437 10.7834 11.2043 10.4223ZM4.87186 6.0069C4.51783 6.0069 4.23083 6.29428 4.23083 6.64879C4.23083 7.0033 4.51783 7.29068 4.87186 7.29068H15.1283C15.4823 7.29068 15.7693 7.0033 15.7693 6.64879C15.7693 6.29428 15.4823 6.0069 15.1283 6.0069H4.87186ZM4.23083 9.21634C4.23083 8.86183 4.51783 8.57445 4.87186 8.57445H7.43596C7.78999 8.57445 8.07699 8.86183 8.07699 9.21634C8.07699 9.57085 7.78999 9.85823 7.43596 9.85823H4.87186C4.51783 9.85823 4.23083 9.57085 4.23083 9.21634ZM4.87186 11.142C4.51783 11.142 4.23083 11.4294 4.23083 11.7839C4.23083 12.1384 4.51783 12.4258 4.87186 12.4258H6.58126C6.93529 12.4258 7.22229 12.1384 7.22229 11.7839C7.22229 11.4294 6.93529 11.142 6.58126 11.142H4.87186Z" fill="#222D68"/>
</svg>