<svg width="20" height="20" viewBox="0 0 20 20" fill="none" xmlns="http://www.w3.org/2000/svg">
<g id="icon/certificate">
<path id="Union" fill-rule="evenodd" clip-rule="evenodd" d="M4.01705 3.36728C3.43091 3.36728 2.94868 3.85017 2.94868 4.4371V12.9957C2.94868 13.2794 3.06124 13.5515 3.2616 13.7521C3.46196 13.9528 3.7337 14.0655 4.01705 14.0655H8.29056C8.64459 14.0655 8.93158 14.3529 8.93158 14.7074C8.93158 15.0619 8.64459 15.3493 8.29056 15.3493H4.01705C3.39368 15.3493 2.79584 15.1013 2.35505 14.6599C1.91426 14.2185 1.66663 13.6199 1.66663 12.9957V4.4371C1.66663 3.14115 2.72285 2.0835 4.01705 2.0835H15.9829C16.6062 2.0835 17.2041 2.33146 17.6449 2.77285C18.0857 3.21424 18.3333 3.81288 18.3333 4.4371V12.9957C18.3329 13.4084 18.2241 13.8144 18.0178 14.1717C17.8115 14.5291 17.515 14.8258 17.1581 15.0322C16.8515 15.2094 16.4594 15.1042 16.2824 14.7972C16.1054 14.4902 16.2105 14.0976 16.5171 13.9204C16.6793 13.8266 16.8141 13.6917 16.9078 13.5293C17.0016 13.3669 17.0511 13.1826 17.0512 12.995V4.4371C17.0512 4.15337 16.9387 3.88125 16.7383 3.68062C16.538 3.47999 16.2662 3.36728 15.9829 3.36728H4.01705ZM12.5641 8.0745C11.714 8.0745 10.8988 8.41264 10.2977 9.01453C9.69662 9.61642 9.35894 10.4328 9.35894 11.284C9.35894 12.0946 9.66523 12.8737 10.2136 13.466V17.2749C10.2136 17.5181 10.3508 17.7403 10.568 17.849C10.7852 17.9578 11.045 17.9343 11.2393 17.7884L12.5641 16.7935L13.8888 17.7884C14.0831 17.9343 14.343 17.9578 14.5601 17.849C14.7773 17.7403 14.9145 17.5181 14.9145 17.2749V13.466C15.4629 12.8737 15.7692 12.0946 15.7692 11.284C15.7692 10.4328 15.4315 9.61642 14.8304 9.01453C14.2294 8.41264 13.4141 8.0745 12.5641 8.0745ZM13.6324 14.3099C13.2925 14.4302 12.9315 14.4934 12.5641 14.4934C12.1966 14.4934 11.8356 14.4302 11.4957 14.3099V15.9911L12.1794 15.4776C12.4074 15.3065 12.7208 15.3065 12.9487 15.4776L13.6324 15.9911V14.3099ZM11.2042 9.9223C11.5649 9.56117 12.054 9.35828 12.5641 9.35828C13.0741 9.35828 13.5632 9.56117 13.9239 9.9223C14.2845 10.2834 14.4871 10.7732 14.4871 11.284C14.4871 11.7947 14.2845 12.2845 13.9239 12.6456C13.5632 13.0068 13.0741 13.2096 12.5641 13.2096C12.054 13.2096 11.5649 13.0068 11.2042 12.6456C10.8436 12.2845 10.641 11.7947 10.641 11.284C10.641 10.7732 10.8436 10.2834 11.2042 9.9223ZM4.87175 5.5069C4.51772 5.5069 4.23073 5.79428 4.23073 6.14879C4.23073 6.5033 4.51772 6.79068 4.87175 6.79068H15.1282C15.4822 6.79068 15.7692 6.5033 15.7692 6.14879C15.7692 5.79428 15.4822 5.5069 15.1282 5.5069H4.87175ZM4.23073 8.71639C4.23073 8.36189 4.51772 8.0745 4.87175 8.0745H7.43585C7.78988 8.0745 8.07688 8.36189 8.07688 8.71639C8.07688 9.0709 7.78988 9.35828 7.43585 9.35828H4.87175C4.51772 9.35828 4.23073 9.0709 4.23073 8.71639ZM4.87175 10.6421C4.51772 10.6421 4.23073 10.9294 4.23073 11.2839C4.23073 11.6385 4.51772 11.9258 4.87175 11.9258H6.58115C6.93518 11.9258 7.22218 11.6385 7.22218 11.2839C7.22218 10.9294 6.93518 10.6421 6.58115 10.6421H4.87175Z" fill="#5B5B5B"/>
</g>
</svg>
