<svg width="24" height="24" viewBox="0 0 24 24" fill="none" xmlns="http://www.w3.org/2000/svg">
<path fill-rule="evenodd" clip-rule="evenodd" d="M4.82051 4.04054C4.11714 4.04054 3.53846 4.62 3.53846 5.32432V15.5946C3.53846 15.9351 3.67353 16.2616 3.91397 16.5024C4.1544 16.7431 4.48049 16.8784 4.82051 16.8784H9.94872C10.3736 16.8784 10.7179 17.2232 10.7179 17.6486C10.7179 18.0741 10.3736 18.4189 9.94872 18.4189H4.82051C4.07247 18.4189 3.35506 18.1214 2.82611 17.5917C2.29716 17.062 2 16.3436 2 15.5946V5.32432C2 3.76919 3.26747 2.5 4.82051 2.5H19.1795C19.9275 2.5 20.6449 2.79756 21.1739 3.32723C21.7028 3.85689 22 4.57527 22 5.32432V15.5946C21.9995 16.0899 21.8689 16.5771 21.6214 17.0059C21.3739 17.4347 21.0181 17.7908 20.5897 18.0384C20.2218 18.2511 19.7514 18.1249 19.539 17.7565C19.3265 17.3881 19.4526 16.917 19.8205 16.7043C20.0152 16.5917 20.1769 16.4299 20.2894 16.2349C20.402 16.04 20.4613 15.8189 20.4615 15.5938V5.32432C20.4615 4.98384 20.3265 4.65731 20.086 4.41655C19.8456 4.1758 19.5195 4.04054 19.1795 4.04054H4.82051ZM15.0769 9.6892C14.0569 9.6892 13.0786 10.095 12.3573 10.8172C11.636 11.5395 11.2308 12.5191 11.2308 13.5406C11.2308 14.5134 11.5983 15.4482 12.2564 16.159V20.7297C12.2564 21.0215 12.421 21.2882 12.6816 21.4187C12.9422 21.5491 13.2541 21.521 13.4872 21.3459L15.0769 20.152L16.6667 21.3459C16.8998 21.521 17.2116 21.5491 17.4722 21.4187C17.7328 21.2882 17.8974 21.0215 17.8974 20.7297V16.159C18.5555 15.4482 18.9231 14.5134 18.9231 13.5406C18.9231 12.5191 18.5179 11.5395 17.7966 10.8172C17.0753 10.095 16.097 9.6892 15.0769 9.6892ZM16.359 17.1716C15.951 17.3161 15.5179 17.3919 15.0769 17.3919C14.636 17.3919 14.2028 17.3161 13.7949 17.1716V19.1892L14.6154 18.573C14.8889 18.3675 15.265 18.3675 15.5385 18.573L16.359 19.1892V17.1716ZM13.4451 11.9066C13.8779 11.4732 14.4649 11.2297 15.0769 11.2297C15.689 11.2297 16.2759 11.4732 16.7087 11.9066C17.1415 12.3399 17.3846 12.9277 17.3846 13.5406C17.3846 14.1534 17.1415 14.7412 16.7087 15.1745C16.2759 15.6079 15.689 15.8514 15.0769 15.8514C14.4649 15.8514 13.8779 15.6079 13.4451 15.1745C13.0124 14.7412 12.7692 14.1534 12.7692 13.5406C12.7692 12.9277 13.0124 12.3399 13.4451 11.9066ZM5.84615 6.60808C5.42132 6.60808 5.07692 6.95294 5.07692 7.37835C5.07692 7.80376 5.42132 8.14862 5.84615 8.14862H18.1538C18.5787 8.14862 18.9231 7.80376 18.9231 7.37835C18.9231 6.95294 18.5787 6.60808 18.1538 6.60808H5.84615ZM5.07692 10.4595C5.07692 10.0341 5.42132 9.6892 5.84615 9.6892H8.92307C9.34791 9.6892 9.6923 10.0341 9.6923 10.4595C9.6923 10.8849 9.34791 11.2297 8.92307 11.2297H5.84615C5.42132 11.2297 5.07692 10.8849 5.07692 10.4595ZM5.84615 12.7703C5.42132 12.7703 5.07692 13.1151 5.07692 13.5405C5.07692 13.9659 5.42132 14.3108 5.84615 14.3108H7.89743C8.32227 14.3108 8.66666 13.9659 8.66666 13.5405C8.66666 13.1151 8.32227 12.7703 7.89743 12.7703H5.84615Z" fill="#5B5B5B"/>
</svg>
