<svg xmlns="http://www.w3.org/2000/svg" width="20" height="21" viewBox="0 0 20 21" fill="none">
  <path fill-rule="evenodd" clip-rule="evenodd" d="M4.01718 3.44856C3.73382 3.44856 3.46208 3.56112 3.26172 3.76148C3.06136 3.96183 2.9488 4.23358 2.9488 4.51693V16.4827C2.9488 16.7661 3.06136 17.0378 3.26172 17.2382C3.46208 17.4386 3.73382 17.5511 4.01718 17.5511H9.57273C9.92676 17.5511 10.2138 17.8381 10.2138 18.1921C10.2138 18.5462 9.92676 18.8332 9.57273 18.8332H4.01718C3.3938 18.8332 2.79596 18.5855 2.35517 18.1447C1.91438 17.704 1.66675 17.1061 1.66675 16.4827V4.51693C1.66675 3.89356 1.91438 3.29572 2.35517 2.85493C2.79596 2.41414 3.3938 2.1665 4.01718 2.1665H10.0001C10.1701 2.1665 10.3331 2.23404 10.4534 2.35426L14.7269 6.62776C14.8471 6.74798 14.9146 6.91102 14.9146 7.08103V8.79044C14.9146 9.14446 14.6276 9.43146 14.2736 9.43146C13.9196 9.43146 13.6326 9.14446 13.6326 8.79044V7.7915H10.8334C10.4466 7.7915 10.0757 7.63786 9.80222 7.36437C9.52873 7.09088 9.37508 6.71994 9.37508 6.33317V3.44856H4.01718ZM10.6251 4.33908V6.33317C10.6251 6.38842 10.647 6.44141 10.6861 6.48048C10.7252 6.51955 10.7782 6.5415 10.8334 6.5415H12.8275L10.6251 4.33908ZM16.976 14.1324H14.9146V12.0707C15.4114 12.1886 15.8705 12.4423 16.2374 12.8092C16.6045 13.1762 16.8582 13.6354 16.976 14.1324ZM17.144 11.9027C16.3848 11.1435 15.356 10.7161 14.2826 10.7136L14.2736 10.7135L14.2647 10.7136C13.191 10.7158 12.1618 11.1433 11.4025 11.9027C10.6411 12.664 10.2134 13.6967 10.2134 14.7734C10.2134 15.8501 10.6411 16.8828 11.4025 17.6441C12.1639 18.4055 13.1965 18.8332 14.2732 18.8332C15.35 18.8332 16.3826 18.4055 17.144 17.6441C17.9053 16.8828 18.3331 15.8501 18.3331 14.7734C18.3331 13.6967 17.9053 12.664 17.144 11.9027ZM13.6322 12.0706C13.1353 12.1885 12.6761 12.4422 12.309 12.8092C11.7881 13.3301 11.4955 14.0367 11.4955 14.7734C11.4955 15.5101 11.7881 16.2166 12.309 16.7376C12.83 17.2585 13.5365 17.5512 14.2732 17.5512C15.0099 17.5512 15.7165 17.2585 16.2374 16.7376C16.6045 16.3705 16.8582 15.9114 16.976 15.4144H14.2732C13.9192 15.4144 13.6322 15.1274 13.6322 14.7734V12.0706Z" fill="#222D68"/>
</svg>