<svg width="24" height="24" viewBox="0 0 24 24" fill="none" xmlns="http://www.w3.org/2000/svg">
<path fill-rule="evenodd" clip-rule="evenodd" d="M10.5914 2.06619C10.3735 2.00379 10.1453 1.98526 9.92015 2.01167C9.89154 2.01503 9.86314 2.01997 9.83508 2.02647C8.076 2.43414 6.45806 3.30487 5.14907 4.54834C3.84009 5.79182 2.88773 7.36276 2.39079 9.09821C1.89385 10.8337 1.87043 12.6704 2.32294 14.418C2.77546 16.1655 3.68743 17.7602 4.96428 19.0367C6.24112 20.3131 7.83633 21.2248 9.58444 21.6772C11.3326 22.1295 13.1699 22.1061 14.9059 21.6093C16.6419 21.1125 18.2133 20.1605 19.4572 18.8519C20.7011 17.5434 21.5721 15.9259 21.9799 14.1674C21.9933 14.1098 22 14.0508 22 13.9917C22 13.51 21.8086 13.0481 21.468 12.7076C21.1273 12.367 20.6652 12.1757 20.1835 12.1757H13.1249C12.7808 12.1757 12.4508 12.039 12.2075 11.7958C11.9641 11.5525 11.8274 11.2226 11.8274 10.8786V3.61478C11.8274 3.58767 11.826 3.56058 11.8232 3.53361C11.7995 3.30822 11.7314 3.08977 11.6226 2.89091C11.5139 2.69206 11.3667 2.51676 11.1897 2.37519C11.0127 2.23362 10.8093 2.12859 10.5914 2.06619ZM6.22163 5.67668C7.31454 4.63847 8.66198 3.90734 10.1275 3.55672C10.1394 3.55732 10.1512 3.55926 10.1627 3.56255C10.1825 3.56822 10.201 3.57777 10.2171 3.59064C10.2332 3.60351 10.2465 3.61945 10.2564 3.63752C10.2625 3.64866 10.2672 3.66047 10.2704 3.67269V10.8786C10.2704 11.6354 10.5711 12.3613 11.1065 12.8964C11.6418 13.4316 12.3679 13.7322 13.1249 13.7322H20.1835C20.2523 13.7322 20.3183 13.7596 20.367 13.8082C20.4009 13.8422 20.4245 13.8846 20.4357 13.9305C20.0799 15.3741 19.3539 16.701 18.3285 17.7797C17.276 18.887 15.9463 19.6925 14.4774 20.1129C13.0085 20.5333 11.4538 20.5531 9.97463 20.1703C8.49546 19.7875 7.14567 19.0161 6.06526 17.936C4.98485 16.856 4.21318 15.5066 3.83029 14.0279C3.44739 12.5492 3.46721 10.995 3.8877 9.52657C4.30819 8.05811 5.11402 6.72886 6.22163 5.67668ZM15.4596 2.36185C15.2213 2.278 14.9572 2.31488 14.7511 2.46078C14.545 2.60668 14.4225 2.84346 14.4225 3.09594V7.76553C14.4225 8.24715 14.6139 8.70905 14.9545 9.0496C15.2952 9.39016 15.7572 9.58148 16.239 9.58148H20.9101C21.1626 9.58148 21.3995 9.45901 21.5455 9.25296C21.6914 9.04691 21.7283 8.78288 21.6444 8.54474C21.1417 7.11737 20.325 5.82092 19.2546 4.75087C18.1842 3.68083 16.8874 2.86445 15.4596 2.36185ZM15.9795 7.76553V4.27383C16.7806 4.68104 17.5148 5.21288 18.1536 5.85151C18.7925 6.49013 19.3245 7.22406 19.7318 8.02495H16.239C16.1702 8.02495 16.1042 7.99762 16.0555 7.94897C16.0068 7.90032 15.9795 7.83433 15.9795 7.76553Z" fill="#5B5B5B"/>
</svg>
