<svg width="20" height="20" viewBox="0 0 20 20" fill="none" xmlns="http://www.w3.org/2000/svg">
<g id="icon/chart-pie">
<path id="Union" fill-rule="evenodd" clip-rule="evenodd" d="M8.82612 1.72166C8.64451 1.66966 8.45438 1.65422 8.26675 1.67623C8.24291 1.67903 8.21924 1.68315 8.19586 1.68856C6.72996 2.02829 5.38167 2.75389 4.29085 3.79012C3.20003 4.82635 2.4064 6.13547 1.99229 7.58168C1.57817 9.02789 1.55865 10.5585 1.93574 12.0148C2.31284 13.4711 3.07282 14.8 4.13686 15.8637C5.20089 16.9274 6.53023 17.6872 7.98699 18.0641C9.44375 18.4411 10.9749 18.4216 12.4215 18.0076C13.8682 17.5936 15.1777 16.8003 16.2143 15.7098C17.2509 14.6193 17.9767 13.2715 18.3165 11.806C18.3277 11.758 18.3333 11.7089 18.3333 11.6596C18.3333 11.2582 18.1738 10.8733 17.8899 10.5895C17.606 10.3057 17.221 10.1463 16.8195 10.1463H10.9374C10.6506 10.1463 10.3756 10.0324 10.1728 9.82966C9.97007 9.62695 9.85615 9.35201 9.85615 9.06533V3.01216C9.85615 2.98956 9.85497 2.96698 9.85261 2.94451C9.83291 2.75669 9.7761 2.57464 9.68549 2.40893C9.59487 2.24322 9.47225 2.09714 9.32473 1.97916C9.17721 1.86119 9.00773 1.77366 8.82612 1.72166ZM5.18465 4.73041C6.09541 3.86523 7.21828 3.25595 8.43958 2.96377C8.44947 2.96427 8.45929 2.96589 8.46885 2.96863C8.48536 2.97336 8.50076 2.98131 8.51417 2.99204C8.52759 3.00276 8.53873 3.01604 8.54697 3.03111C8.55205 3.04039 8.55595 3.05023 8.55863 3.06041V9.06533C8.55863 9.69603 8.80925 10.3009 9.25536 10.7469C9.70147 11.1928 10.3065 11.4434 10.9374 11.4434H16.8195C16.8769 11.4434 16.9319 11.4661 16.9724 11.5067C17.0007 11.535 17.0204 11.5703 17.0297 11.6086C16.7332 12.8116 16.1282 13.9173 15.2737 14.8163C14.3966 15.739 13.2886 16.4103 12.0645 16.7606C10.8404 17.1109 9.54479 17.1274 8.31215 16.8084C7.07951 16.4894 5.95468 15.8466 5.05434 14.9465C4.15401 14.0465 3.51094 12.922 3.19186 11.6898C2.87278 10.4575 2.8893 9.16236 3.23971 7.93864C3.59011 6.71493 4.26165 5.60722 5.18465 4.73041ZM12.8829 1.96805C12.6844 1.89817 12.4643 1.9289 12.2925 2.05048C12.1208 2.17207 12.0187 2.36939 12.0187 2.57979V6.47111C12.0187 6.87247 12.1782 7.25738 12.4621 7.54117C12.7459 7.82497 13.131 7.98441 13.5325 7.98441H17.425C17.6355 7.98441 17.8329 7.88235 17.9545 7.71064C18.0761 7.53893 18.1069 7.31891 18.037 7.12045C17.618 5.93098 16.9375 4.8506 16.0455 3.9589C15.1535 3.06719 14.0728 2.38688 12.8829 1.96805ZM13.3162 6.47111V3.56136C13.9838 3.9007 14.5956 4.34391 15.128 4.87609C15.6604 5.40828 16.1037 6.01989 16.4431 6.6873H13.5325C13.4751 6.6873 13.4201 6.66452 13.3795 6.62398C13.339 6.58344 13.3162 6.52845 13.3162 6.47111Z" fill="#5B5B5B"/>
</g>
</svg>
