<svg width="16" height="17" viewBox="0 0 16 17" fill="none" xmlns="http://www.w3.org/2000/svg">
<path fill-rule="evenodd" clip-rule="evenodd" d="M5.44845 2.34145C6.25729 2.00642 7.1242 1.83398 7.99967 1.83398C8.87515 1.83398 9.74206 2.00642 10.5509 2.34145C11.3597 2.67649 12.0947 3.16755 12.7137 3.78661C13.3328 4.40566 13.8238 5.14059 14.1589 5.94943C14.4939 6.75827 14.6663 7.62517 14.6663 8.50065C14.6663 9.37613 14.4939 10.243 14.1589 11.0519C13.8238 11.8607 13.3328 12.5956 12.7137 13.2147C12.0947 13.8338 11.3597 14.3248 10.5509 14.6598C9.74206 14.9949 8.87515 15.1673 7.99967 15.1673C7.1242 15.1673 6.25729 14.9949 5.44845 14.6598C4.63961 14.3248 3.90469 13.8338 3.28563 13.2147C2.66657 12.5956 2.17551 11.8607 1.84048 11.0519C1.50545 10.243 1.33301 9.37613 1.33301 8.50065C1.33301 7.62517 1.50545 6.75827 1.84048 5.94943C2.17551 5.14059 2.66657 4.40566 3.28563 3.78661C3.90469 3.16755 4.63961 2.67649 5.44845 2.34145ZM7.99967 2.85963C7.25888 2.85963 6.52535 3.00554 5.84095 3.28902C5.15655 3.57251 4.53468 3.98803 4.01087 4.51184C3.48705 5.03566 3.07153 5.65752 2.78805 6.34192C2.50456 7.02632 2.35865 7.75986 2.35865 8.50065C2.35865 9.24144 2.50456 9.97498 2.78805 10.6594C3.07153 11.3438 3.48705 11.9656 4.01087 12.4895C4.53469 13.0133 5.15655 13.4288 5.84095 13.7123C6.52535 13.9958 7.25888 14.1417 7.99967 14.1417C8.74046 14.1417 9.474 13.9958 10.1584 13.7123C10.8428 13.4288 11.4647 13.0133 11.9885 12.4895C12.5123 11.9656 12.9278 11.3438 13.2113 10.6594C13.4948 9.97498 13.6407 9.24144 13.6407 8.50065C13.6407 7.75986 13.4948 7.02632 13.2113 6.34192C12.9278 5.65752 12.5123 5.03566 11.9885 4.51184C11.4647 3.98803 10.8428 3.57251 10.1584 3.28902C9.474 3.00554 8.74046 2.85963 7.99967 2.85963ZM8.51249 7.98783V5.08185C8.51249 4.79862 8.2829 4.56903 7.99967 4.56903C7.71645 4.56903 7.48685 4.79862 7.48685 5.08185V8.50065C7.48685 8.78387 7.71645 9.01347 7.99967 9.01347C8.00001 9.01347 8.00034 9.01347 8.00067 9.01347H10.3928C10.6761 9.01347 10.9057 8.78387 10.9057 8.50065C10.9057 8.21743 10.6761 7.98783 10.3928 7.98783H8.51249Z" fill="#222D68"/>
</svg>
