<svg width="20" height="20" viewBox="0 0 20 20" fill="none" xmlns="http://www.w3.org/2000/svg">
<path fill-rule="evenodd" clip-rule="evenodd" d="M18.0622 3.24716C18.4238 2.88556 18.4238 2.2993 18.0622 1.9377C17.7006 1.5761 17.1144 1.5761 16.7528 1.9377L10.0001 8.69038L3.2474 1.9377C2.88581 1.5761 2.29954 1.5761 1.93795 1.9377C1.57635 2.2993 1.57635 2.88556 1.93795 3.24716L8.69062 9.99984L1.93795 16.7525C1.57635 17.1141 1.57635 17.7004 1.93795 18.062C2.29954 18.4236 2.88581 18.4236 3.2474 18.062L10.0001 11.3093L16.7528 18.062C17.1144 18.4236 17.7006 18.4236 18.0622 18.062C18.4238 17.7004 18.4238 17.1141 18.0622 16.7525L11.3095 9.99984L18.0622 3.24716Z" fill="#5B5B5B"/>
</svg>
