<svg width="16" height="17" viewBox="0 0 16 17" fill="none" xmlns="http://www.w3.org/2000/svg">
<path fill-rule="evenodd" clip-rule="evenodd" d="M13.5552 8.50065C13.5552 11.5689 11.0679 14.0562 7.99967 14.0562C4.93143 14.0562 2.44412 11.5689 2.44412 8.50065C2.44412 5.4324 4.93143 2.9451 7.99967 2.9451C11.0679 2.9451 13.5552 5.4324 13.5552 8.50065ZM14.6663 8.50065C14.6663 12.1826 11.6816 15.1673 7.99967 15.1673C4.31778 15.1673 1.33301 12.1826 1.33301 8.50065C1.33301 4.81875 4.31778 1.83398 7.99967 1.83398C11.6816 1.83398 14.6663 4.81875 14.6663 8.50065ZM6.91103 6.62633C6.69407 6.40937 6.34231 6.40937 6.12536 6.62633C5.9084 6.84329 5.9084 7.19505 6.12536 7.41201L7.214 8.50065L6.12536 9.58929C5.9084 9.80625 5.9084 10.158 6.12536 10.375C6.34231 10.5919 6.69407 10.5919 6.91103 10.375L7.99967 9.28632L9.08832 10.375C9.30528 10.5919 9.65704 10.5919 9.87399 10.375C10.091 10.158 10.091 9.80625 9.87399 9.58929L8.78535 8.50065L9.87399 7.41201C10.091 7.19505 10.091 6.84329 9.87399 6.62633C9.65704 6.40937 9.30528 6.40937 9.08832 6.62633L7.99967 7.71498L6.91103 6.62633Z" fill="#DF2826"/>
</svg>
