<svg width="188" height="56" viewBox="0 0 188 56" fill="none" xmlns="http://www.w3.org/2000/svg">
<path d="M20.502 26.7089C21.2293 27.3642 22.1966 27.7621 23.2524 27.7621C25.5206 27.7621 27.3612 25.9262 27.3612 23.6638C27.3612 21.4014 25.5232 19.5656 23.2524 19.5656C22.1887 19.5656 21.2189 19.9686 20.4889 20.6317C20.4733 20.6447 20.4576 20.6603 20.442 20.6759C19.712 21.3364 18.7422 21.7395 17.6811 21.7395C16.62 21.7395 15.6476 21.3364 14.9202 20.6759C14.9045 20.6603 14.8889 20.6447 14.8733 20.6317C14.1433 19.9686 13.1734 19.5656 12.1097 19.5656C9.84158 19.5656 8.00098 21.4014 8.00098 23.6638C8.00098 25.9262 9.84158 27.7621 12.1097 27.7621C13.1682 27.7621 14.1328 27.3642 14.8602 26.7089C14.8837 26.6881 14.9071 26.6673 14.9306 26.6439C15.658 25.9886 16.6226 25.5907 17.6811 25.5907C18.7396 25.5907 19.7016 25.9886 20.4316 26.6439C20.455 26.6673 20.4785 26.6881 20.502 26.7089Z" fill="#BEC0D0"/>
<path d="M48.6819 31.9773C48.0197 31.2492 47.6156 30.2819 47.6156 29.2209C47.6156 28.1599 48.0197 27.1926 48.6819 26.4671C48.6976 26.4515 48.7132 26.4359 48.7263 26.4203C49.3911 25.6921 49.7952 24.7248 49.7952 23.6638C49.7952 21.4014 47.9546 19.5656 45.6864 19.5656C43.4182 19.5656 41.5776 21.4014 41.5776 23.6638C41.5776 24.7196 41.9791 25.6817 42.6361 26.4099C42.6544 26.4307 42.6778 26.4541 42.7013 26.4775C43.3583 27.203 43.7572 28.1651 43.7572 29.2209C43.7572 30.2767 43.3583 31.2388 42.7013 31.9643C42.6778 31.9877 42.6544 32.0112 42.6361 32.0346C41.9791 32.7601 41.5776 33.7248 41.5776 34.778C41.5776 37.043 43.4182 38.8763 45.6864 38.8763C47.9546 38.8763 49.7952 37.043 49.7952 34.778C49.7952 33.7196 49.3911 32.7523 48.7263 32.0242C48.7132 32.006 48.6976 31.9929 48.6819 31.9773ZM45.6864 25.2683C44.6905 25.2683 43.8823 24.4621 43.8823 23.4688C43.8823 22.4754 44.6905 21.6693 45.6864 21.6693C46.6823 21.6693 47.4905 22.4754 47.4905 23.4688C47.4905 24.4621 46.6823 25.2683 45.6864 25.2683Z" fill="#DF2826"/>
<path d="M23.2524 8.45142C20.9843 8.45142 19.1437 10.2873 19.1437 12.5497C19.1437 14.812 20.9843 16.6479 23.2524 16.6479C27.1318 16.6479 30.2864 19.797 30.2864 23.6639C30.2864 27.5307 27.1292 30.6798 23.2524 30.6798C20.9843 30.6798 19.1437 32.5157 19.1437 34.778C19.1437 37.0404 20.9843 38.8763 23.2524 38.8763C31.6759 38.8763 38.5039 32.0658 38.5039 23.6639C38.5039 15.2619 31.6759 8.45142 23.2524 8.45142Z" fill="#222D68"/>
<path d="M70.6884 37.8959C70.6884 40.9748 69.8307 43.3542 68.1178 45.0314C66.405 46.7087 63.9595 47.5486 60.7867 47.5486C59.6656 47.5486 58.5368 47.4758 57.4027 47.3328C56.2686 47.1872 55.1476 46.9766 54.0396 46.7009V40.8942C55.1345 41.2452 56.1748 41.5105 57.1576 41.6847C58.1405 41.8615 59.0791 41.9473 59.9733 41.9473C61.7617 41.9473 62.9975 41.6015 63.6779 40.9098C64.3584 40.2181 64.6973 38.8736 64.6973 36.8765V29.8268C64.6973 28.407 64.3923 27.3408 63.7796 26.6309C63.1696 25.921 62.2597 25.5647 61.05 25.5647C60.0411 25.5647 59.2224 25.9132 58.5941 26.6101C57.9632 27.307 57.6504 28.2223 57.6504 29.3535C57.6504 30.4847 57.9815 31.4521 58.6437 32.1438C59.3059 32.8355 60.2079 33.1813 61.355 33.1813C61.6314 33.1813 61.9521 33.1449 62.3197 33.0695C62.6847 32.9941 63.1644 32.8615 63.7562 32.6743V38.7436C63.2139 38.845 62.7264 38.9205 62.291 38.9699C61.8556 39.0193 61.4567 39.0453 61.0917 39.0453C58.3074 39.0453 56.0105 38.1247 54.2038 36.2836C52.3945 34.4425 51.4924 32.1074 51.4924 29.2807C51.4924 26.4541 52.4049 24.1137 54.2325 22.2596C56.06 20.4055 58.3595 19.4797 61.1308 19.4797C63.0575 19.4797 64.7964 19.9686 66.3476 20.949C67.8962 21.9293 69.0616 23.2789 69.8437 25.0004C70.1461 25.6531 70.3625 26.3786 70.4955 27.177C70.6284 27.9753 70.6936 29.2417 70.6936 30.9762V37.8933L70.6884 37.8959Z" fill="#DF2826"/>
<path d="M83.5752 15.1838H89.5845V19.8594H94.3268V25.4581H89.5845V31.4911C89.5845 32.1698 89.7331 32.6482 90.0277 32.9239C90.3223 33.1995 90.8438 33.3374 91.5868 33.3374H94.3268V38.9725H92.0978C89.1752 38.9725 87.0244 38.3354 85.6452 37.0586C84.2661 35.7843 83.5752 33.782 83.5752 31.0542V15.1838Z" fill="#DF2826"/>
<path d="M97.3146 38.9699V11.9775H103.324V21.0998C103.929 20.5589 104.601 20.1533 105.347 19.8828C106.09 19.6124 106.872 19.4771 107.691 19.4771C109.883 19.4771 111.63 20.3197 112.936 22.0022C114.24 23.6872 114.892 25.9782 114.892 28.8829V38.9673H108.9V28.316C108.9 27.424 108.64 26.6985 108.116 26.1394C107.592 25.5803 106.922 25.2995 106.103 25.2995C105.284 25.2995 104.633 25.5803 104.109 26.1394C103.585 26.6985 103.324 27.424 103.324 28.316V38.9673H97.3146V38.9699Z" fill="#DF2826"/>
<path d="M130.651 38.9699V29.8268C130.651 28.42 130.344 27.3564 129.726 26.6413C129.108 25.9262 128.188 25.5673 126.967 25.5673C125.959 25.5673 125.14 25.9158 124.512 26.6127C123.881 27.3096 123.568 28.2249 123.568 29.3561C123.568 30.4873 123.899 31.4547 124.561 32.1464C125.223 32.8381 126.125 33.1839 127.273 33.1839C127.549 33.1839 127.87 33.1475 128.237 33.0721C128.602 32.9967 129.082 32.8641 129.674 32.6769V38.9361C129.184 39.0375 128.717 39.1129 128.276 39.1623C127.836 39.2117 127.426 39.2377 127.048 39.2377C124.251 39.2377 121.946 38.3068 120.132 36.4475C118.317 34.5882 117.41 32.2244 117.41 29.3587C117.41 26.4931 118.317 24.1319 120.132 22.27C121.946 20.4107 124.251 19.4797 127.048 19.4797C128.975 19.4797 130.722 19.9738 132.283 20.9594C133.845 21.9449 135.018 23.2945 135.798 25.003C136.1 25.6557 136.317 26.3812 136.449 27.1796C136.582 27.9779 136.648 29.2443 136.648 30.9788V38.9699H130.657H130.651Z" fill="#DF2826"/>
<path d="M151.307 38.9699V28.3186C151.307 27.4266 151.049 26.7011 150.533 26.142C150.017 25.5829 149.349 25.3021 148.531 25.3021C147.712 25.3021 147.042 25.5829 146.518 26.142C145.994 26.7011 145.733 27.4266 145.733 28.3186V38.9699H139.742V29.2807C139.742 26.2902 140.545 23.9082 142.151 22.1374C143.757 20.3665 145.885 19.4797 148.528 19.4797C149.965 19.4797 151.31 19.797 152.564 20.4315C153.818 21.066 154.871 21.9683 155.729 23.1359C156.284 23.916 156.686 24.7768 156.939 25.7181C157.192 26.6595 157.317 27.8479 157.317 29.2807V38.9699H151.307Z" fill="#DF2826"/>
<path d="M179.957 31.8655C178.948 34.2396 177.537 36.0755 175.723 37.3705C173.908 38.6656 171.849 39.3131 169.544 39.3131C168.272 39.3131 167.046 39.0634 165.868 38.5693C164.689 38.0727 163.647 37.3601 162.739 36.4292C161.796 35.4748 161.079 34.4009 160.594 33.2047C160.109 32.0111 159.866 30.7421 159.866 29.3977C159.866 28.0532 160.109 26.7842 160.594 25.5907C161.079 24.3971 161.793 23.3231 162.739 22.3661C163.647 21.4482 164.682 20.7461 165.847 20.2546C167.012 19.7631 168.243 19.5187 169.541 19.5187C171.481 19.5187 173.225 20.031 174.776 21.0555C176.325 22.0801 177.597 23.5727 178.593 25.5334L169.314 31.8291L166.989 28.3237L172.015 24.8365C171.687 24.6233 171.348 24.4621 170.993 24.3555C170.641 24.2488 170.276 24.1942 169.898 24.1942C168.715 24.1942 167.706 24.6441 166.874 25.5412C166.043 26.441 165.628 27.5436 165.628 28.849C165.628 30.1544 166.037 31.2986 166.856 32.2035C167.675 33.1085 168.676 33.5609 169.862 33.5609C170.97 33.5609 172 33.2281 172.951 32.5624C173.903 31.8967 174.711 30.9293 175.378 29.6603L179.951 31.8655H179.957Z" fill="#DF2826"/>
<path d="M80.0712 31.9773C79.409 31.2492 79.0049 30.2819 79.0049 29.2209C79.0049 28.1599 79.409 27.1926 80.0712 26.4671C80.0895 26.4515 80.1025 26.4359 80.1156 26.4203C80.7804 25.6921 81.1845 24.7248 81.1845 23.6638C81.1845 21.4014 79.3439 19.5656 77.0757 19.5656C74.8075 19.5656 72.9669 21.4014 72.9669 23.6638C72.9669 24.7196 73.3684 25.6817 74.0254 26.4099C74.0437 26.4307 74.0671 26.4541 74.0906 26.4775C74.7476 27.203 75.1464 28.1651 75.1464 29.2209C75.1464 30.2767 74.7476 31.2388 74.0906 31.9643C74.0671 31.9877 74.0437 32.0112 74.0254 32.0346C73.3684 32.7601 72.9669 33.7248 72.9669 34.778C72.9669 37.043 74.8075 38.8763 77.0757 38.8763C79.3439 38.8763 81.1845 37.043 81.1845 34.778C81.1845 33.7196 80.7804 32.7523 80.1156 32.0242C80.1025 32.006 80.0895 31.9929 80.0712 31.9773ZM77.0757 25.2683C76.0798 25.2683 75.2716 24.4621 75.2716 23.4688C75.2716 22.4754 76.0798 21.6693 77.0757 21.6693C78.0716 21.6693 78.8798 22.4754 78.8798 23.4688C78.8798 24.4621 78.0716 25.2683 77.0757 25.2683Z" fill="#DF2826"/>
</svg>
