<svg width="188" height="56" viewBox="0 0 188 56" fill="none" xmlns="http://www.w3.org/2000/svg">
<path d="M20.4678 26.7088C21.1951 27.3641 22.1624 27.7619 23.2182 27.7619C25.4864 27.7619 27.327 25.9261 27.327 23.6637C27.327 21.4013 25.489 19.5654 23.2182 19.5654C22.1546 19.5654 21.1847 19.9685 20.4547 20.6316C20.4391 20.6446 20.4235 20.6602 20.4078 20.6758C19.6778 21.3363 18.708 21.7394 17.6469 21.7394C16.5858 21.7394 15.6134 21.3363 14.886 20.6758C14.8704 20.6602 14.8547 20.6446 14.8391 20.6316C14.1091 19.9685 13.1393 19.5654 12.0756 19.5654C9.8074 19.5654 7.9668 21.4013 7.9668 23.6637C7.9668 25.9261 9.8074 27.7619 12.0756 27.7619C13.134 27.7619 14.0987 27.3641 14.826 26.7088C14.8495 26.688 14.873 26.6672 14.8964 26.6438C15.6238 25.9885 16.5884 25.5906 17.6469 25.5906C18.7054 25.5906 19.6674 25.9885 20.3974 26.6438C20.4208 26.6672 20.4443 26.688 20.4678 26.7088Z" fill="white"/>
<path d="M48.6478 31.9772C47.9856 31.2491 47.5815 30.2818 47.5815 29.2208C47.5815 28.1598 47.9856 27.1925 48.6478 26.4669C48.6634 26.4513 48.6791 26.4357 48.6921 26.4201C49.3569 25.692 49.761 24.7247 49.761 23.6637C49.761 21.4013 47.9204 19.5654 45.6522 19.5654C43.3841 19.5654 41.5435 21.4013 41.5435 23.6637C41.5435 24.7195 41.945 25.6816 42.6019 26.4097C42.6202 26.4305 42.6437 26.4539 42.6671 26.4773C43.3241 27.2029 43.723 28.165 43.723 29.2208C43.723 30.2766 43.3241 31.2387 42.6671 31.9642C42.6437 31.9876 42.6202 32.011 42.6019 32.0344C41.945 32.76 41.5435 33.7247 41.5435 34.7779C41.5435 37.0428 43.3841 38.8761 45.6522 38.8761C47.9204 38.8761 49.761 37.0428 49.761 34.7779C49.761 33.7195 49.3569 32.7521 48.6921 32.024C48.6791 32.0058 48.6634 31.9928 48.6478 31.9772ZM45.6522 25.2681C44.6563 25.2681 43.8481 24.462 43.8481 23.4687C43.8481 22.4753 44.6563 21.6692 45.6522 21.6692C46.6481 21.6692 47.4563 22.4753 47.4563 23.4687C47.4563 24.462 46.6481 25.2681 45.6522 25.2681Z" fill="white"/>
<path d="M23.2181 8.45117C20.95 8.45117 19.1094 10.2871 19.1094 12.5494C19.1094 14.8118 20.95 16.6477 23.2181 16.6477C27.0975 16.6477 30.2521 19.7968 30.2521 23.6636C30.2521 27.5304 27.0949 30.6795 23.2181 30.6795C20.95 30.6795 19.1094 32.5154 19.1094 34.7778C19.1094 37.0402 20.95 38.8761 23.2181 38.8761C31.6416 38.8761 38.4696 32.0656 38.4696 23.6636C38.4696 15.2617 31.6416 8.45117 23.2181 8.45117Z" fill="white"/>
<path d="M70.654 37.8956C70.654 40.9745 69.7963 43.3539 68.0834 45.0312C66.3705 46.7085 63.9251 47.5484 60.7523 47.5484C59.6312 47.5484 58.5024 47.4756 57.3683 47.3326C56.2342 47.1869 55.1131 46.9763 54.0051 46.7007V40.8939C55.1001 41.245 56.1403 41.5102 57.1232 41.6845C58.1061 41.8613 59.0446 41.9471 59.9389 41.9471C61.7273 41.9471 62.9631 41.6012 63.6435 40.9095C64.324 40.2178 64.6629 38.8734 64.6629 36.8763V29.8266C64.6629 28.4067 64.3579 27.3406 63.7452 26.6306C63.1351 25.9207 62.2253 25.5645 61.0156 25.5645C60.0066 25.5645 59.188 25.9129 58.5597 26.6098C57.9288 27.3067 57.6159 28.2221 57.6159 29.3533C57.6159 30.4845 57.947 31.4518 58.6092 32.1435C59.2714 32.8352 60.1735 33.1811 61.3206 33.1811C61.597 33.1811 61.9176 33.1447 62.2852 33.0693C62.6502 32.9939 63.1299 32.8612 63.7217 32.674V38.7434C63.1795 38.8448 62.6919 38.9202 62.2566 38.9696C61.8212 39.019 61.4223 39.045 61.0573 39.045C58.2729 39.045 55.9761 38.1245 54.1694 36.2834C52.3601 34.4423 51.458 32.1071 51.458 29.2805C51.458 26.4538 52.3705 24.1134 54.1981 22.2593C56.0256 20.4052 58.3251 19.4795 61.0964 19.4795C63.023 19.4795 64.762 19.9684 66.3132 20.9487C67.8618 21.9291 69.0272 23.2787 69.8093 25.0002C70.1117 25.6529 70.3281 26.3784 70.4611 27.1767C70.594 27.9751 70.6592 29.2415 70.6592 30.9759V37.893L70.654 37.8956Z" fill="white"/>
<path d="M83.541 15.1841H89.5504V19.8596H94.2926V25.4583H89.5504V31.4913C89.5504 32.17 89.699 32.6485 89.9936 32.9241C90.2882 33.1998 90.8096 33.3376 91.5526 33.3376H94.2926V38.9727H92.0636C89.141 38.9727 86.9902 38.3356 85.611 37.0588C84.2319 35.7846 83.541 33.7823 83.541 31.0544V15.1841Z" fill="white"/>
<path d="M97.2803 38.9699V11.9775H103.29V21.0998C103.894 20.5589 104.567 20.1533 105.313 19.8828C106.056 19.6124 106.838 19.4771 107.656 19.4771C109.849 19.4771 111.596 20.3197 112.902 22.0022C114.205 23.6872 114.857 25.9782 114.857 28.8829V38.9673H108.866V28.316C108.866 27.424 108.605 26.6985 108.081 26.1394C107.557 25.5803 106.887 25.2995 106.069 25.2995C105.25 25.2995 104.598 25.5803 104.074 26.1394C103.55 26.6985 103.29 27.424 103.29 28.316V38.9673H97.2803V38.9699Z" fill="white"/>
<path d="M130.617 38.9696V29.8266C130.617 28.4197 130.309 27.3562 129.692 26.641C129.074 25.9259 128.153 25.5671 126.933 25.5671C125.924 25.5671 125.106 25.9155 124.477 26.6124C123.847 27.3093 123.534 28.2247 123.534 29.3559C123.534 30.4871 123.865 31.4544 124.527 32.1461C125.189 32.8378 126.091 33.1837 127.238 33.1837C127.515 33.1837 127.835 33.1473 128.203 33.0719C128.568 32.9965 129.048 32.8638 129.639 32.6766V38.9358C129.149 39.0372 128.683 39.1126 128.242 39.1621C127.801 39.2115 127.392 39.2375 127.014 39.2375C124.217 39.2375 121.912 38.3065 120.098 36.4472C118.283 34.5879 117.376 32.2241 117.376 29.3585C117.376 26.4928 118.283 24.1316 120.098 22.2697C121.912 20.4104 124.217 19.4795 127.014 19.4795C128.941 19.4795 130.688 19.9736 132.249 20.9591C133.811 21.9447 134.984 23.2943 135.764 25.0028C136.066 25.6555 136.282 26.381 136.415 27.1793C136.548 27.9777 136.613 29.2441 136.613 30.9785V38.9696H130.622H130.617Z" fill="white"/>
<path d="M151.273 38.9696V28.3183C151.273 27.4264 151.015 26.7009 150.499 26.1418C149.983 25.5827 149.315 25.3018 148.496 25.3018C147.678 25.3018 147.008 25.5827 146.484 26.1418C145.96 26.7009 145.699 27.4264 145.699 28.3183V38.9696H139.708V29.2805C139.708 26.29 140.511 23.908 142.117 22.1371C143.723 20.3662 145.85 19.4795 148.494 19.4795C149.93 19.4795 151.276 19.7967 152.53 20.4312C153.784 21.0657 154.837 21.9681 155.695 23.1357C156.25 23.9158 156.651 24.7765 156.904 25.7179C157.157 26.6592 157.282 27.8476 157.282 29.2805V38.9696H151.273Z" fill="white"/>
<path d="M179.922 31.8653C178.913 34.2395 177.503 36.0754 175.688 37.3704C173.874 38.6654 171.814 39.3129 169.51 39.3129C168.237 39.3129 167.012 39.0633 165.834 38.5692C164.655 38.0725 163.612 37.36 162.705 36.4291C161.761 35.4747 161.044 34.4007 160.559 33.2046C160.074 32.011 159.832 30.742 159.832 29.3975C159.832 28.0531 160.074 26.7841 160.559 25.5905C161.044 24.3969 161.759 23.323 162.705 22.366C163.612 21.4481 164.647 20.746 165.813 20.2545C166.978 19.763 168.209 19.5186 169.507 19.5186C171.447 19.5186 173.191 20.0308 174.742 21.0554C176.291 22.08 177.563 23.5726 178.559 25.5333L169.28 31.8289L166.955 28.3236L171.981 24.8364C171.653 24.6232 171.314 24.462 170.959 24.3553C170.607 24.2487 170.242 24.1941 169.864 24.1941C168.68 24.1941 167.672 24.644 166.84 25.5411C166.008 26.4409 165.594 27.5434 165.594 28.8489C165.594 30.1543 166.003 31.2984 166.822 32.2034C167.64 33.1083 168.641 33.5608 169.828 33.5608C170.936 33.5608 171.965 33.228 172.917 32.5623C173.869 31.8965 174.677 30.9292 175.344 29.6602L179.917 31.8653H179.922Z" fill="white"/>
<path d="M80.0369 31.9772C79.3747 31.2491 78.9706 30.2818 78.9706 29.2208C78.9706 28.1598 79.3747 27.1925 80.0369 26.4669C80.0552 26.4513 80.0682 26.4357 80.0813 26.4201C80.7461 25.692 81.1502 24.7247 81.1502 23.6637C81.1502 21.4013 79.3096 19.5654 77.0414 19.5654C74.7732 19.5654 72.9326 21.4013 72.9326 23.6637C72.9326 24.7195 73.3341 25.6816 73.9911 26.4097C74.0094 26.4305 74.0328 26.4539 74.0563 26.4773C74.7133 27.2029 75.1121 28.165 75.1121 29.2208C75.1121 30.2766 74.7133 31.2387 74.0563 31.9642C74.0328 31.9876 74.0094 32.011 73.9911 32.0344C73.3341 32.76 72.9326 33.7247 72.9326 34.7779C72.9326 37.0428 74.7732 38.8761 77.0414 38.8761C79.3096 38.8761 81.1502 37.0428 81.1502 34.7779C81.1502 33.7195 80.7461 32.7521 80.0813 32.024C80.0682 32.0058 80.0552 31.9928 80.0369 31.9772ZM77.0414 25.2681C76.0455 25.2681 75.2373 24.462 75.2373 23.4687C75.2373 22.4753 76.0455 21.6692 77.0414 21.6692C78.0373 21.6692 78.8455 22.4753 78.8455 23.4687C78.8455 24.462 78.0373 25.2681 77.0414 25.2681Z" fill="white"/>
</svg>
