<svg width="24" height="24" viewBox="0 0 24 24" fill="none" xmlns="http://www.w3.org/2000/svg">
<path fill-rule="evenodd" clip-rule="evenodd" d="M12.8143 2.81081C12.8143 2.36301 12.4497 2 12 2C11.5503 2 11.1857 2.36301 11.1857 2.81081V13.8263L7.1472 9.80505C6.8292 9.48841 6.31362 9.48841 5.99562 9.80505C5.67763 10.1217 5.67763 10.6351 5.99562 10.9517L11.4242 16.3571C11.5048 16.4373 11.598 16.4972 11.6975 16.5368C11.791 16.5741 11.8931 16.5946 12 16.5946C12.1139 16.5946 12.2224 16.5713 12.3208 16.5292C12.401 16.4951 12.4767 16.4475 12.5446 16.3865C12.5565 16.3759 12.568 16.365 12.5792 16.3537L18.0043 10.9517C18.3223 10.6351 18.3223 10.1217 18.0043 9.80505C17.6863 9.48841 17.1708 9.48841 16.8528 9.80505L12.8143 13.8263V2.81081ZM3.31429 16.0541C3.764 16.0541 4.12857 16.4171 4.12857 16.8649V19.0271C4.12857 19.3855 4.27156 19.7292 4.52607 19.9826C4.78058 20.236 5.12578 20.3784 5.48571 20.3784H18.5143C18.8742 20.3784 19.2194 20.236 19.4739 19.9826C19.7284 19.7292 19.8714 19.3855 19.8714 19.0271V16.8649C19.8714 16.4171 20.236 16.0541 20.6857 16.0541C21.1354 16.0541 21.5 16.4171 21.5 16.8649V19.0271C21.5 19.8155 21.1854 20.5717 20.6255 21.1293C20.0656 21.6868 19.3061 22 18.5143 22H5.48571C4.69385 22 3.93443 21.6868 3.3745 21.1293C2.81457 20.5717 2.5 19.8155 2.5 19.0271V16.8649C2.5 16.4171 2.86457 16.0541 3.31429 16.0541Z" fill="#222D68"/>
</svg>
