<svg width="20" height="20" viewBox="0 0 20 20" fill="none" xmlns="http://www.w3.org/2000/svg">
<path fill-rule="evenodd" clip-rule="evenodd" d="M14.9216 1.8565C15.2209 1.73139 15.5417 1.66699 15.8656 1.66699C16.1896 1.66699 16.5104 1.73139 16.8097 1.8565C17.1091 1.98161 17.381 2.165 17.6101 2.39618C17.8392 2.62736 18.0209 2.90181 18.1449 3.20386C18.2689 3.50591 18.3327 3.82965 18.3327 4.15658C18.3327 4.48352 18.2689 4.80725 18.1449 5.10931C18.0209 5.41136 17.8392 5.68581 17.6101 5.91699L16.9232 6.61022L16.9207 6.61273L16.9182 6.61523L10.3712 13.2221C10.2742 13.3199 10.1427 13.3749 10.0056 13.3749H7.2479C6.96233 13.3749 6.73083 13.1413 6.73083 12.8531V10.0702C6.73083 9.93183 6.78531 9.79911 6.88228 9.70125L13.4318 3.09192L14.1212 2.39618C14.3503 2.165 14.6222 1.98161 14.9216 1.8565ZM16.8789 5.17906L16.555 5.50584L14.5286 3.46088L14.8524 3.1341C14.9855 2.99983 15.1434 2.89331 15.3173 2.82065C15.4911 2.74798 15.6775 2.71057 15.8656 2.71057C16.0538 2.71057 16.2401 2.74798 16.414 2.82065C16.5878 2.89331 16.7458 2.99983 16.8789 3.1341C17.0119 3.26837 17.1175 3.42778 17.1895 3.60322C17.2615 3.77865 17.2986 3.96669 17.2986 4.15658C17.2986 4.34647 17.2615 4.53451 17.1895 4.70994C17.1175 4.88538 17.0119 5.04479 16.8789 5.17906ZM7.76496 10.2863L13.7974 4.1988L15.8238 6.24376L9.7914 12.3313H7.76496V10.2863ZM4.08832 5.4447C3.44588 5.4447 2.82976 5.70224 2.37549 6.16066C1.92122 6.61908 1.66602 7.24084 1.66602 7.88914V15.8891C1.66602 16.5375 1.92122 17.1592 2.37549 17.6176C2.82976 18.076 3.44588 18.3336 4.08832 18.3336H12.0159C12.6583 18.3336 13.2744 18.076 13.7287 17.6176C14.183 17.1592 14.4382 16.5375 14.4382 15.8891V15.0003C14.4382 14.6321 14.1424 14.3336 13.7775 14.3336C13.4127 14.3336 13.1169 14.6321 13.1169 15.0003V15.8891C13.1169 16.1838 13.0009 16.4664 12.7944 16.6748C12.5879 16.8832 12.3079 17.0003 12.0159 17.0003H4.08832C3.7963 17.0003 3.51625 16.8832 3.30976 16.6748C3.10327 16.4664 2.98727 16.1838 2.98727 15.8891V7.88914C2.98727 7.59446 3.10327 7.31184 3.30976 7.10347C3.51625 6.8951 3.7963 6.77803 4.08832 6.77803H4.96916C5.33401 6.77803 5.62978 6.47956 5.62978 6.11137C5.62978 5.74318 5.33401 5.4447 4.96916 5.4447H4.08832Z" fill="#2E2E2E"/>
</svg>
