<svg width="20" height="20" viewBox="0 0 20 20" fill="none" xmlns="http://www.w3.org/2000/svg">
<g id="icon/facebook">
<path id="Vector (Stroke)" fill-rule="evenodd" clip-rule="evenodd" d="M9.00353 3.10642C9.92519 2.18477 11.1752 1.66699 12.4786 1.66699H15.0427C15.3968 1.66699 15.6838 1.95399 15.6838 2.30802V5.72682C15.6838 6.08085 15.3968 6.36785 15.0427 6.36785H12.4786C12.422 6.36785 12.3676 6.39036 12.3275 6.43043C12.2875 6.4705 12.265 6.52485 12.265 6.58152V7.6499H15.0427C15.2401 7.6499 15.4265 7.74084 15.548 7.89643C15.6695 8.05202 15.7125 8.2549 15.6646 8.4464L14.8099 11.8652C14.7386 12.1506 14.4822 12.3508 14.188 12.3508H12.265V17.6926C12.265 18.0467 11.978 18.3337 11.6239 18.3337H8.20513C7.8511 18.3337 7.5641 18.0467 7.5641 17.6926V12.3508H5.64103C5.287 12.3508 5 12.0638 5 11.7097V8.29092C5 7.9369 5.287 7.6499 5.64103 7.6499H7.5641V6.58152C7.5641 5.27811 8.08188 4.02808 9.00353 3.10642ZM12.4786 2.94904C11.5152 2.94904 10.5913 3.33175 9.91008 4.01297C9.22886 4.69419 8.84615 5.61813 8.84615 6.58152V8.29092C8.84615 8.64495 8.55916 8.93195 8.20513 8.93195H6.28205V11.0687H8.20513C8.55916 11.0687 8.84615 11.3557 8.84615 11.7097V17.0516H10.9829V11.7097C10.9829 11.3557 11.2699 11.0687 11.6239 11.0687H13.6875L14.2217 8.93195H11.6239C11.2699 8.93195 10.9829 8.64495 10.9829 8.29092V6.58152C10.9829 6.18483 11.1405 5.80439 11.421 5.52388C11.7015 5.24338 12.0819 5.0858 12.4786 5.0858H14.4017V2.94904H12.4786Z" fill="#222D68"/>
</g>
</svg>
