<svg width="24" height="24" viewBox="0 0 24 24" fill="none" xmlns="http://www.w3.org/2000/svg">
<path fill-rule="evenodd" clip-rule="evenodd" d="M5.92631 3.91397C6.1683 3.67353 6.49649 3.53846 6.83871 3.53846H13V7C13 7.46413 13.1844 7.90925 13.5126 8.23744C13.8408 8.56563 14.2859 8.75 14.75 8.75H18.4516V19.1795C18.4516 19.5195 18.3157 19.8456 18.0737 20.086C17.8317 20.3265 17.5035 20.4615 17.1613 20.4615H6.83871C6.4965 20.4615 6.1683 20.3265 5.92631 20.086C5.68433 19.8456 5.54839 19.5195 5.54839 19.1795V4.82051C5.54839 4.48049 5.68433 4.1544 5.92631 3.91397ZM17.4793 7.25L14.5 4.28978V7C14.5 7.0663 14.5263 7.12989 14.5732 7.17678C14.6201 7.22366 14.6837 7.25 14.75 7.25H17.4793ZM6.83871 2C6.08584 2 5.3638 2.29716 4.83144 2.82611C4.29908 3.35506 4 4.07247 4 4.82051V19.1795C4 19.9275 4.29908 20.6449 4.83144 21.1739C5.3638 21.7028 6.08584 22 6.83871 22H17.1613C17.9142 22 18.6362 21.7028 19.1686 21.1739C19.7009 20.6449 20 19.9275 20 19.1795V7.89744C20 7.69342 19.9184 7.49777 19.7732 7.35351L14.612 2.2253C14.4668 2.08104 14.2698 2 14.0645 2H6.83871Z" fill="#5B5B5B"/>
</svg>
