<svg width="32" height="32" viewBox="0 0 32 32" fill="none" xmlns="http://www.w3.org/2000/svg">
<g clip-path="url(#clip0_1868_10651)">
<path d="M11.4491 10.9821L3.70591 12.0984L3.56876 12.1261C3.36115 12.1809 3.17189 12.2895 3.0203 12.4408C2.86871 12.5921 2.76022 12.7807 2.70592 12.9874C2.65162 13.194 2.65345 13.4113 2.71122 13.617C2.76899 13.8227 2.88064 14.0095 3.03475 14.1582L8.64429 19.5873L7.3214 27.256L7.30562 27.3887C7.29292 27.6022 7.3375 27.8152 7.43482 28.0059C7.53213 28.1967 7.67868 28.3583 7.85946 28.4742C8.04024 28.5901 8.24875 28.6561 8.46364 28.6655C8.67853 28.675 8.89208 28.6275 9.08242 28.5278L16.0076 24.9077L22.9169 28.5278L23.0383 28.5834C23.2386 28.6618 23.4564 28.6859 23.6691 28.6531C23.8819 28.6202 24.082 28.5317 24.2491 28.3966C24.4161 28.2615 24.5439 28.0847 24.6195 27.8842C24.6951 27.6838 24.7157 27.4669 24.6792 27.256L23.3551 19.5873L28.967 14.157L29.0617 14.0544C29.1969 13.8888 29.2856 13.6906 29.3187 13.4798C29.3517 13.269 29.328 13.0533 29.2499 12.8546C29.1719 12.656 29.0422 12.4814 28.8742 12.3488C28.7062 12.2161 28.5058 12.1301 28.2935 12.0996L20.5503 10.9821L17.0889 4.0073C16.9888 3.80521 16.8337 3.63504 16.6413 3.51605C16.4489 3.39705 16.2269 3.33398 16.0003 3.33398C15.7737 3.33398 15.5516 3.39705 15.3592 3.51605C15.1669 3.63504 15.0118 3.80521 14.9116 4.0073L11.4491 10.9821Z" fill="#F3934D"/>
</g>
<defs>
<clipPath id="clip0_1868_10651">
<rect width="32" height="32" fill="white"/>
</clipPath>
</defs>
</svg>
