<svg width="80" height="80" viewBox="0 0 80 80" fill="none" xmlns="http://www.w3.org/2000/svg">
<path fill-rule="evenodd" clip-rule="evenodd" d="M53.2258 65.5927C67.688 63.0976 76.1414 48.7927 76.5894 34.9634C76.9005 25.3661 72.3334 14.279 61.1716 14.4079C58.7876 14.4363 56.7743 15.3821 54.6249 16.3154C52.7103 17.1456 51.0436 18.4967 49.6703 20.0665C47.1405 22.9599 45.2463 26.5999 45.7094 30.5492C46.7778 39.639 57.0783 41.855 63.2578 37.7092C63.8747 47.9074 60.1511 58.3723 53.2258 65.5927Z" fill="#DF2826"/>
<path fill-rule="evenodd" clip-rule="evenodd" d="M10.2045 65.2665C26.7654 65.2665 33.897 48.7927 34.345 34.9634C34.6552 25.3661 30.0881 14.279 18.9263 14.4079C16.5423 14.4363 14.529 15.3821 12.3797 16.3154C10.4659 17.1456 8.79832 18.4967 7.42498 20.0665C4.89521 22.9599 3.00098 26.5999 3.46498 30.5492C4.53165 39.639 16.2792 41.1563 22.4597 37.0105C23.0765 47.2087 17.1316 58.0461 10.2054 65.2665H10.2045Z" fill="#DF2826"/>
</svg>
