<svg width="16" height="16" viewBox="0 0 16 16" fill="none" xmlns="http://www.w3.org/2000/svg">
<g clip-path="url(#clip0_704_9022)">
<path d="M5.72453 5.49083L1.85295 6.04893L1.78438 6.06281C1.68058 6.09021 1.58594 6.14451 1.51015 6.22017C1.43435 6.29582 1.38011 6.39013 1.35296 6.49344C1.32581 6.59676 1.32673 6.70539 1.35561 6.80825C1.3845 6.9111 1.44032 7.00448 1.51738 7.07887L4.32215 9.79339L3.6607 13.6277L3.65281 13.6941C3.64646 13.8009 3.66875 13.9074 3.71741 14.0027C3.76607 14.0981 3.83934 14.1789 3.92973 14.2368C4.02012 14.2948 4.12437 14.3278 4.23182 14.3325C4.33926 14.3372 4.44604 14.3135 4.54121 14.2637L8.00379 12.4536L11.4585 14.2637L11.5192 14.2914C11.6193 14.3307 11.7282 14.3427 11.8346 14.3263C11.9409 14.3099 12.041 14.2656 12.1245 14.1981C12.208 14.1305 12.272 14.0421 12.3098 13.9419C12.3475 13.8416 12.3578 13.7332 12.3396 13.6277L11.6775 9.79339L14.4835 7.07827L14.5309 7.02698C14.5985 6.94418 14.6428 6.84504 14.6593 6.73966C14.6759 6.63427 14.664 6.52642 14.625 6.42708C14.5859 6.32774 14.5211 6.24046 14.4371 6.17414C14.3531 6.10782 14.2529 6.06482 14.1467 6.04954L10.2752 5.49083L8.54447 2.0034C8.49439 1.90236 8.41687 1.81728 8.32067 1.75778C8.22447 1.69828 8.11344 1.66675 8.00015 1.66675C7.88685 1.66675 7.77582 1.69828 7.67962 1.75778C7.58343 1.81728 7.5059 1.90236 7.45582 2.0034L5.72453 5.49083Z" fill="#222D68"/>
</g>
<defs>
<clipPath id="clip0_704_9022">
<rect width="16" height="16" fill="white"/>
</clipPath>
</defs>
</svg>
