<svg width="200" height="200" viewBox="0 0 200 200" fill="none" xmlns="http://www.w3.org/2000/svg">
<path d="M185.087 60.177C185.087 60.177 184.577 65.999 177.205 67.838C176.921 67.9034 176.668 68.0621 176.485 68.2888C176.302 68.5154 176.201 68.7969 176.197 69.088V94.61C176.199 94.7296 176.226 94.8474 176.278 94.9554C176.33 95.0633 176.404 95.1589 176.496 95.2354C176.588 95.312 176.695 95.3677 176.811 95.3989C176.926 95.4301 177.047 95.4359 177.165 95.416L177.971 95.275C179.965 94.9058 181.767 93.8517 183.067 92.2947C184.366 90.7378 185.081 88.7759 185.087 86.748V60.177Z" fill="#314EEA"/>
<path d="M155.634 151.42C155.641 151.205 155.639 150.291 155.856 150.291C155.997 150.291 156.25 150.677 156.481 151.44C158.381 157.709 158.627 175.173 157.106 180.289C156.631 181.889 156.369 181.619 156.279 180.047C156.178 178.28 155.511 154.973 155.634 151.42Z" fill="#191919"/>
<path d="M123.519 70.721C122.405 70.721 122.844 70.532 115.758 70.559C113.198 70.569 110.558 70.612 107.958 70.398C107.755 70.3816 107.567 70.2855 107.434 70.1307C107.302 69.9759 107.237 69.775 107.252 69.572C107.268 69.3672 107.364 69.1768 107.518 69.0413C107.673 68.9057 107.874 68.8357 108.079 68.846C114.372 69.219 118.931 68.786 123.579 69.168C123.679 69.1759 123.777 69.2036 123.867 69.2496C123.957 69.2955 124.036 69.3588 124.101 69.4356C124.166 69.5125 124.216 69.6015 124.246 69.6975C124.277 69.7935 124.288 69.8946 124.279 69.995C124.264 70.1885 124.179 70.3698 124.038 70.5039C123.898 70.638 123.713 70.7153 123.519 70.721Z" fill="#314EEA"/>
<path d="M170.028 111.887C169.921 111.601 169.871 111.296 169.882 110.991C169.893 110.686 169.964 110.386 170.092 110.108C170.219 109.83 170.401 109.58 170.625 109.373C170.85 109.166 171.113 109.005 171.4 108.9C178.288 106.417 185.657 105.562 192.931 106.4C193.233 106.433 193.526 106.525 193.792 106.671C194.059 106.817 194.294 107.014 194.484 107.251C194.675 107.487 194.816 107.759 194.902 108.051C194.987 108.343 195.014 108.648 194.981 108.95C194.948 109.252 194.856 109.545 194.71 109.811C194.564 110.078 194.367 110.313 194.131 110.503C193.894 110.694 193.622 110.835 193.33 110.921C193.039 111.006 192.733 111.033 192.431 111C185.881 110.156 179.223 110.924 173.037 113.238C172.751 113.35 172.446 113.404 172.139 113.396C171.832 113.389 171.529 113.32 171.249 113.194C170.969 113.069 170.716 112.888 170.507 112.664C170.297 112.439 170.134 112.175 170.028 111.887Z" fill="#314EEA"/>
<path d="M142.449 181.418C142.035 181.418 141.627 181.309 141.27 181.1C140.912 180.891 140.616 180.59 140.413 180.229C129.306 160.229 135.313 132.511 153.779 118.237C154.266 117.875 154.877 117.719 155.478 117.802C156.08 117.886 156.624 118.202 156.994 118.683C157.365 119.165 157.531 119.772 157.458 120.375C157.384 120.978 157.077 121.528 156.602 121.906C140.102 134.506 134.592 160.196 144.465 177.971C144.667 178.322 144.773 178.721 144.771 179.126C144.77 179.531 144.661 179.929 144.457 180.279C144.252 180.629 143.959 180.919 143.606 181.119C143.253 181.319 142.854 181.422 142.449 181.418Z" fill="#314EEA"/>
<path d="M53.5249 63.7659C52.9527 63.5361 52.4952 63.0884 52.2531 62.5213C52.011 61.9542 52.0041 61.3142 52.2339 60.7419C52.4637 60.1697 52.9114 59.7123 53.4785 59.4702C54.0456 59.228 54.6857 59.2211 55.2579 59.4509C59.8491 61.3419 64.8254 62.1092 69.7729 61.6889C70.3878 61.6359 70.9986 61.8293 71.4709 62.2266C71.9432 62.6239 72.2384 63.1925 72.2914 63.8074C72.3444 64.4224 72.151 65.0331 71.7538 65.5055C71.3565 65.9778 70.7878 66.2729 70.1729 66.3259C64.5 66.778 58.7999 65.9015 53.5249 63.7659Z" fill="#314EEA"/>
<path d="M76.849 62.7169C76.7336 62.435 76.6751 62.133 76.6765 61.8284C76.678 61.5237 76.7395 61.2223 76.8576 60.9415C76.9756 60.6606 77.1479 60.4058 77.3645 60.1916C77.5811 59.9773 77.8378 59.8079 78.12 59.693C92.594 53.806 101.728 36.293 98.12 21.45C97.9729 20.8532 98.0689 20.2225 98.3869 19.6966C98.7048 19.1706 99.2187 18.7925 99.8154 18.6455C100.412 18.4984 101.043 18.5944 101.569 18.9124C102.095 19.2303 102.473 19.7442 102.62 20.341C106.858 37.597 96.72 57.336 79.859 64.007C79.2884 64.2314 78.6524 64.2218 78.0889 63.9803C77.5254 63.7388 77.0799 63.2849 76.849 62.7169Z" fill="#314EEA"/>
<path d="M92.776 151.723C93.522 149.123 93.884 152.388 93.884 159C93.884 165.593 93.784 173.052 93.34 175.713C92.896 178.374 92.04 175.188 91.727 168.536C91.414 161.863 92.03 154.323 92.776 151.723Z" fill="#191919"/>
<path d="M10.3221 104.831C11.8678 107.008 13.7203 108.95 15.8221 110.597L15.1201 72.515C15.1128 72.2467 15.025 71.9869 14.8679 71.7692C14.7109 71.5516 14.492 71.3864 14.2397 71.295C13.9873 71.2036 13.7134 71.1903 13.4534 71.2568C13.1934 71.3233 12.9595 71.4666 12.7821 71.668C3.1921 82.5 3.3001 94.99 10.3221 104.831Z" fill="#314EEA"/>
<path d="M48.283 120.374C48.2837 120.184 48.2435 119.996 48.1649 119.823C48.0863 119.65 47.9713 119.496 47.8277 119.372C47.6841 119.248 47.5154 119.156 47.333 119.103C47.1506 119.049 46.9589 119.036 46.771 119.064C34.887 120.771 22.437 122.815 10.947 110.234C5.866 104.67 5 99.8311 5 99.8311L7.883 133.176C18.527 150.856 42.576 149.089 47.678 148.457C47.9969 148.417 48.2901 148.262 48.502 148.02C48.7138 147.779 48.8295 147.467 48.827 147.146L48.283 120.374ZM44.594 133.135C43.766 134.425 40.945 134.466 39.594 133.035L24.894 139.486C24.8811 140.009 24.6903 140.512 24.3531 140.912C24.0158 141.312 23.5523 141.585 23.039 141.686C22.7325 141.667 22.4334 141.584 22.1606 141.443C21.8878 141.302 21.6472 141.106 21.454 140.867C21.2608 140.628 21.1192 140.352 21.0381 140.056C20.957 139.76 20.9383 139.45 20.983 139.146C21.122 138.852 21.3666 138.622 21.668 138.501L13.06 123.201C12.7445 123.309 12.4087 123.345 12.0773 123.307C11.746 123.269 11.4274 123.157 11.145 122.979C10.8721 122.769 10.6457 122.505 10.4801 122.203C10.3145 121.901 10.2133 121.568 10.1829 121.225C10.1526 120.882 10.1937 120.537 10.3037 120.211C10.4137 119.884 10.5902 119.585 10.822 119.33C11.822 118.678 14.411 120.318 14.592 121.588L38.985 129.712C39.0764 129.513 39.1989 129.329 39.348 129.168C40.366 128.13 42.048 128.458 42.997 129.007C44.517 129.883 45.319 132.006 44.594 133.135Z" fill="#314EEA"/>
<path d="M38.768 130.454L14.415 122.354C14.2407 122.577 14.0293 122.767 13.79 122.918L22.438 138.3C22.8276 138.194 23.2366 138.181 23.6322 138.261C24.0278 138.342 24.3991 138.514 24.716 138.764L39.13 132.414C38.7983 131.818 38.6711 131.129 38.768 130.454Z" fill="#314EEA"/>
<path d="M36.0461 75.4999C36.2521 76.4259 36.5461 76.6059 36.8931 75.6409C38.7201 70.5699 35.3331 63.0049 31.3931 59.6739C30.6501 59.0459 30.3471 59.1289 30.6271 60.0569C31.9231 64.3679 33.7251 65.0539 36.0461 75.4999Z" fill="#191919"/>
<path d="M39.7999 67.5349C40.7773 71.277 41.3186 75.1195 41.4129 78.9859C41.4549 79.9339 41.7229 80.1599 42.2189 79.2859C44.1189 75.9509 43.4619 67.3689 39.5189 62.6129C37.8239 60.5789 39.0659 64.9809 39.7999 67.5349Z" fill="#191919"/>
<path d="M26.2481 67.475C27.9291 70.556 29.0781 73.882 30.7241 76.99C31.1291 77.755 31.4461 77.837 31.5711 76.95C32.2161 72.371 29.0981 65.67 25.1191 63.181C24.3751 62.715 24.0881 62.86 24.3941 63.645C24.9293 64.9601 25.5486 66.2394 26.2481 67.475Z" fill="#191919"/>
<path d="M88.9859 163.214C83.0139 166.081 77.7159 168.389 70.8619 168.838C57.3759 169.723 47.1829 160.774 40.5419 148.82C39.7149 148.82 38.8679 148.779 37.9609 148.739C48.3139 168.074 65.3159 176.422 85.2159 165.939C86.954 165.131 88.5802 164.101 90.0539 162.875C90.0939 162.73 89.7329 162.855 88.9859 163.214Z" fill="#191919"/>
<path d="M50.1001 110.839C50.2211 111.262 50.3191 111.666 50.4421 112.089C53.5231 122.706 61.2651 132.73 70.0781 139.304C70.8104 139.959 71.6582 140.471 72.5781 140.816C72.7391 140.756 72.1781 140.148 70.8841 138.861C57.3541 125.386 53.7001 117.08 49.6941 100.073C49.2101 98.017 47.8621 94.853 48.8071 92.796C50.7841 88.496 52.5741 85.274 51.8721 80.861C51.7439 80.1688 51.5055 79.5016 51.1661 78.885C51.0401 78.685 51.0251 78.543 50.7831 78.502C50.6021 78.902 50.7831 79.127 50.8431 79.571C50.8841 79.871 50.9241 80.236 50.9851 80.659C51.063 83.1154 50.5366 85.5535 49.4521 87.759C48.6931 89.435 47.3681 90.84 46.7521 92.597C46.0381 94.63 46.9101 96.897 47.3161 98.927C47.9771 102.234 48.7481 105.741 49.6951 109.327C44.8371 110.859 34.5951 113.391 30.7651 111.464C30.3651 111.264 30.7651 106.484 30.7651 105.859C30.7651 103.884 30.7891 101.928 30.7451 99.952C30.6707 91.4738 28.8737 83.0992 25.4631 75.337C23.9761 72.069 22.8631 70.415 22.6631 70.337C22.4431 70.252 23.1431 71.729 24.4371 75.115C26.6281 80.9412 28.0184 87.0378 28.5701 93.238C28.9043 97.84 28.9851 102.457 28.8121 107.068C28.7931 108.096 28.3881 119.913 29.2351 120.01C29.9611 120.094 30.6871 120.172 31.4121 120.21C31.0674 117.873 30.8671 115.516 30.8121 113.154C35.6801 114.811 45.1771 112.369 50.1001 110.839ZM48.2431 93.7C48.2231 93.639 48.2021 93.559 48.2231 93.579C48.2441 93.599 48.2431 93.642 48.2431 93.7Z" fill="#191919"/>
<path d="M191.276 160.452C190.812 134.196 177.334 117.852 159.101 112.532C155.268 111.493 151.296 111.058 147.328 111.242C147.886 110.611 148.207 109.806 148.235 108.964C148.255 108.682 147.888 106.593 148.578 106.988C149.94 107.769 152.956 108.788 153.94 103.521C154.709 99.4089 152.609 98.8949 151.219 98.9849C151.157 98.9891 151.094 98.9743 151.041 98.9424C150.987 98.9104 150.944 98.8629 150.918 98.8062C150.892 98.7494 150.883 98.686 150.894 98.6243C150.904 98.5627 150.933 98.5057 150.977 98.4609C151.79 97.6806 152.294 96.6335 152.398 95.5115C152.501 94.3896 152.197 93.2679 151.541 92.3519C149.685 89.1879 144.99 93.5009 144.99 93.5009C143.796 90.5378 143.226 87.3603 143.316 84.1669C143.568 83.8061 143.77 83.4129 143.916 82.9979C144.549 81.1659 144.316 76.9679 141.436 77.2979C140.487 77.4049 140.328 77.9979 140.348 78.0639C140.166 77.5639 142.422 78.1059 142.686 78.3859C143.547 79.2999 143.378 81.0859 143.069 82.1969C142.995 82.5953 142.834 82.9724 142.597 83.3009C142.36 83.6295 142.053 83.9013 141.698 84.0969C140.915 84.3859 140.084 83.9119 139.279 84.3589C137.946 85.0989 137.693 87.2429 137.384 88.5719C136.558 92.3249 136.029 96.137 135.8 99.9729C135.387 103.575 135.373 107.212 135.759 110.818C135.94 112.008 137.111 112.529 138.118 112.818C138.542 112.938 140.218 113.544 140.557 113.141C134.957 119.552 123.357 116.83 117.132 113C118.362 112.455 120.132 111.769 120.438 110.278C120.996 107.555 120.505 104.129 120.196 101.388C120.153 100.948 120.086 100.51 119.996 100.077C124.674 99.5929 128.683 96.7879 132.354 94.0289C134.127 92.6969 134.212 92.3029 132.092 93.2029C129.073 94.4839 126.292 96.2899 123.121 97.2949C119.05 98.5889 114.336 97.8159 111.691 94.2509C109.981 91.8624 108.805 89.134 108.243 86.2509C108.098 85.5659 107.134 77.9449 107.316 77.9649C108.263 78.0049 109.416 78.0459 110.844 78.0859C111.089 78.0895 111.332 78.0325 111.55 77.92C111.768 77.8075 111.955 77.6429 112.094 77.4409C113.094 76.2589 115.368 76.7899 116.408 77.6219C116.804 78.0065 117.329 78.2294 117.88 78.2469C121.848 78.2809 130.947 78.5579 133.967 78.3279C134.551 78.2829 135.685 78.2899 136.023 77.6829C136.987 75.9586 137.908 74.2107 138.785 72.4409C139.294 71.6066 139.681 70.7038 139.934 69.7599C140.095 68.7319 139.022 67.2429 138.564 66.4129C136.953 63.4999 135.237 59.5589 131.387 59.4579L104.917 58.7329C103.766 58.6988 102.633 59.0215 101.673 59.6567C100.713 60.2919 99.9728 61.2085 99.5541 62.2809L97.9421 66.3529C97.6374 67.1189 97.5063 67.9429 97.5581 68.7656C97.61 69.5883 97.8436 70.3893 98.2421 71.1109C99.5711 73.5819 102.072 77.7469 103.524 77.8239C103.924 77.8449 104.874 77.9239 106.81 77.9849C106.729 78.2269 106.625 78.5079 106.528 78.8919C105.843 82.638 106.163 86.4986 107.455 90.0809L105.983 100.06C105.983 100.06 100.789 97.9039 100.318 102.379C100.156 103.204 100.323 104.059 100.783 104.763C101.242 105.467 101.958 105.964 102.778 106.148C102.832 106.163 102.88 106.196 102.914 106.241C102.948 106.286 102.967 106.341 102.967 106.398C102.967 106.454 102.948 106.509 102.914 106.554C102.88 106.6 102.832 106.632 102.778 106.648C101.114 107.073 98.9301 108.24 100.278 110.963C101.995 114.429 104.796 113.113 106.245 112.152C106.293 112.123 106.349 112.11 106.405 112.114C106.461 112.118 106.514 112.139 106.558 112.174C106.601 112.209 106.633 112.257 106.649 112.311C106.664 112.365 106.663 112.422 106.645 112.475C106.452 112.969 106.362 113.497 106.382 114.027C106.336 115.084 93.9701 114.742 81.4451 123.22C78.543 125.162 75.8656 127.42 73.4621 129.953C72.3291 131.159 71.7881 131.909 71.8291 132.07C71.9901 132.717 79.0721 125.664 89.1461 121.244C97.7931 117.45 107.746 116.694 115.414 113.744C119.916 116.708 125.165 118.338 130.554 118.444C134.106 118.577 138.207 117.615 140.614 115.178C140.914 114.878 141.944 113.319 142.408 113.343C147.39 113.603 152.508 113.343 157.427 114.311C161.278 115.174 164.948 116.702 168.273 118.827C182.167 127.308 188.495 143.403 189.622 159.046C189.943 164.551 189.956 170.07 189.662 175.577C189.489 177.514 189.469 179.462 189.602 181.403C189.92 181.862 191.45 170.305 191.276 160.452ZM100.134 63.4999C101.034 61.5419 102.553 59.7309 104.892 59.7909L131.362 60.5169C132.058 60.5537 132.735 60.7506 133.342 61.0923C133.949 61.434 134.469 61.9112 134.861 62.4868C135.253 63.0624 135.507 63.7208 135.603 64.4106C135.699 65.1005 135.634 65.8032 135.414 66.4639L133.962 70.4999C133.646 71.3778 133.061 72.1334 132.289 72.6584C131.518 73.1834 130.601 73.451 129.668 73.4229L103.057 72.7169C102.342 72.6997 101.642 72.5092 101.017 72.1617C100.392 71.8142 99.8609 71.3201 99.4691 70.7219C98.1001 68.6819 99.1001 65.7449 100.134 63.4999ZM103.521 76.5639C103.121 76.4429 102.13 75.1329 101.081 73.4799C101.702 73.7424 102.364 73.8924 103.037 73.9229L129.789 74.6289C130.942 74.6303 132.067 74.2743 133.009 73.6099C133.952 72.9455 134.665 72.0054 135.051 70.9189C136.586 66.6029 136.672 66.5439 136.805 65.6189C137.603 66.8402 138.265 68.1449 138.78 69.5099C138.631 70.4099 135.491 76.1669 135.051 76.9489C133.703 77.4229 123.178 77.0719 117.895 77.0299C117.095 77.0229 116.861 75.5779 113.822 75.5779C111.388 75.5779 111.322 76.8779 110.879 76.8679C107.733 76.8289 105.275 76.6879 103.521 76.5669V76.5639Z" fill="#191919"/>
<path d="M114.185 77.5149C114.185 77.5149 111.616 79.0439 111.262 80.0749C110.908 81.1059 113.198 83.5829 114.262 84.0459C115.326 84.5089 115.762 82.7309 115.411 82.3929C115.06 82.0549 113.111 80.8799 113.052 80.6589C112.98 80.3999 114.548 78.4999 114.185 77.5149Z" fill="#191919"/>
<path d="M140.937 68.523C142.873 68.6307 144.712 69.4084 146.137 70.723C146.419 71.005 147.326 69.251 147.366 69.17C148.515 66.529 148.56 63.546 148.536 60.723C148.641 58.7146 148.073 56.7286 146.923 55.079C146.107 54.0951 145.105 53.2822 143.973 52.687C142.842 52.0919 141.604 51.7262 140.331 51.611C139.749 50.2179 138.828 48.9923 137.652 48.0453C136.476 47.0983 135.082 46.4599 133.597 46.188C128.516 45.228 115.756 45.079 111.663 57.941L131.178 58.441C136.455 58.61 138.506 64.444 140.937 68.523ZM127.43 50.3C125.013 50.9655 122.648 51.8077 120.354 52.82C119.467 53.2981 118.551 53.7222 117.613 54.09C115.566 54.67 118.679 49.914 124.104 49.19C125.25 48.9883 126.429 49.0784 127.531 49.452C128.171 49.747 128.054 50.033 127.43 50.3Z" fill="#191919"/>
<path d="M117.693 85.357C116.018 86.057 115.799 88.199 115.939 89.348C116.139 91.021 117.329 92.886 118.802 92.917C121.023 92.962 122.961 89.617 121.987 87.393C121.317 85.863 119.344 84.666 117.693 85.357ZM118.842 91.747C118.096 91.712 117.23 90.457 117.088 89.207C116.988 88.32 117.171 86.833 118.137 86.425C118.695 86.301 119.279 86.3764 119.787 86.638C120.295 86.8995 120.696 87.3309 120.919 87.857C121.631 89.506 119.916 91.8 118.842 91.747Z" fill="#191919"/>
<path d="M139.627 73.6241C139.549 73.8169 139.512 74.0239 139.52 74.2318C139.528 74.4396 139.579 74.6434 139.671 74.83C139.763 75.0166 139.893 75.1816 140.053 75.3143C140.213 75.447 140.4 75.5444 140.6 75.6001C142.351 76.0921 144.652 78.1201 145.236 78.1201C146.144 78.1201 146.361 74.0091 146.063 72.7781C145.863 71.9321 143.786 70.1671 142.293 69.9781C141.97 69.9366 141.643 70.0031 141.362 70.1672C141.082 70.3313 140.863 70.5837 140.741 70.8851L139.627 73.6241Z" fill="#314EEA"/>
<path d="M183.394 56.9921C183.225 54.5549 182.188 52.259 180.471 50.5211C168.718 38.2431 149.384 40.8041 144.909 40.9211C144.609 40.922 144.32 41.0334 144.096 41.2341C143.873 41.4348 143.732 41.7107 143.699 42.0091L143.941 51.4441C146.36 52.1901 150.251 54.2261 150.251 59.6691C150.351 62.3901 150.066 65.1116 149.405 67.7531C158.053 67.5111 166.863 67.8941 174.665 74.6081V68.1811C174.662 67.7974 174.777 67.422 174.993 67.1049C175.208 66.7878 175.516 66.544 175.874 66.4061C182.27 64.0821 183.552 60.1171 183.394 56.9921ZM172.165 49.5731C172.044 49.6541 171.679 49.4961 171.096 49.1901C163.875 45.4041 156.202 45.0781 148.618 44.4121C147.307 44.2971 147.387 43.9651 148.659 43.5451C153.653 41.8971 159.749 42.8731 164.625 44.4521C167.225 45.2951 169.996 46.4011 171.742 48.6051C172.187 49.1681 172.286 49.4921 172.165 49.5731Z" fill="#314EEA"/>
</svg>
