<?xml version="1.0" encoding="UTF-8"?>
<svg xmlns="http://www.w3.org/2000/svg" xmlns:xlink="http://www.w3.org/1999/xlink" viewBox="0 0 600 450">
  <defs>
    <style>
      .cls-1 {
        fill: url(#linear-gradient-38);
      }

      .cls-1, .cls-2, .cls-3, .cls-4, .cls-5, .cls-6, .cls-7, .cls-8, .cls-9, .cls-10, .cls-11, .cls-12, .cls-13, .cls-14, .cls-15, .cls-16, .cls-17, .cls-18, .cls-19, .cls-20, .cls-21, .cls-22, .cls-23, .cls-24, .cls-25, .cls-26, .cls-27, .cls-28, .cls-29, .cls-30, .cls-31, .cls-32, .cls-33, .cls-34, .cls-35, .cls-36, .cls-37, .cls-38, .cls-39, .cls-40, .cls-41, .cls-42, .cls-43, .cls-44, .cls-45, .cls-46, .cls-47, .cls-48, .cls-49, .cls-50, .cls-51, .cls-52, .cls-53, .cls-54, .cls-55, .cls-56, .cls-57, .cls-58, .cls-59, .cls-60, .cls-61, .cls-62, .cls-63, .cls-64, .cls-65, .cls-66, .cls-67, .cls-68, .cls-69, .cls-70, .cls-71, .cls-72, .cls-73, .cls-74, .cls-75, .cls-76, .cls-77, .cls-78, .cls-79, .cls-80, .cls-81, .cls-82, .cls-83, .cls-84, .cls-85, .cls-86, .cls-87, .cls-88, .cls-89, .cls-90, .cls-91, .cls-92, .cls-93, .cls-94, .cls-95, .cls-96, .cls-97 {
        stroke-width: 0px;
      }

      .cls-2 {
        fill: url(#linear-gradient-12);
      }

      .cls-3 {
        fill: url(#linear-gradient-17);
      }

      .cls-4 {
        fill: url(#linear-gradient-88);
      }

      .cls-5 {
        fill: url(#linear-gradient-19);
      }

      .cls-6 {
        fill: url(#linear-gradient-33);
      }

      .cls-7 {
        fill: url(#linear-gradient);
      }

      .cls-8 {
        fill: url(#linear-gradient-62);
      }

      .cls-9 {
        fill: url(#linear-gradient-92);
      }

      .cls-10 {
        fill: url(#linear-gradient-98);
      }

      .cls-11 {
        fill: url(#linear-gradient-67);
      }

      .cls-12 {
        fill: url(#linear-gradient-57);
      }

      .cls-98 {
        stroke: url(#linear-gradient-90);
      }

      .cls-98, .cls-99, .cls-100, .cls-101, .cls-102, .cls-103, .cls-42, .cls-104 {
        fill: #fff;
      }

      .cls-98, .cls-99, .cls-100, .cls-101, .cls-102, .cls-103, .cls-104 {
        stroke-miterlimit: 10;
        stroke-width: .5px;
      }

      .cls-13 {
        fill: url(#linear-gradient-71);
      }

      .cls-13, .cls-16, .cls-18, .cls-27, .cls-37, .cls-54, .cls-55, .cls-59, .cls-84, .cls-86, .cls-94 {
        mix-blend-mode: multiply;
      }

      .cls-13, .cls-54, .cls-86, .cls-94 {
        opacity: .3;
      }

      .cls-14 {
        fill: url(#linear-gradient-21);
      }

      .cls-99 {
        stroke: url(#linear-gradient-47);
      }

      .cls-15 {
        fill: url(#linear-gradient-6);
      }

      .cls-16 {
        fill: url(#linear-gradient-30);
      }

      .cls-16, .cls-18, .cls-55, .cls-59, .cls-84 {
        opacity: .5;
      }

      .cls-17 {
        fill: url(#linear-gradient-76);
      }

      .cls-100 {
        stroke: url(#linear-gradient-54);
      }

      .cls-18 {
        fill: url(#linear-gradient-79);
      }

      .cls-101 {
        stroke: url(#linear-gradient-86);
      }

      .cls-105 {
        isolation: isolate;
      }

      .cls-19 {
        fill: url(#linear-gradient-42);
      }

      .cls-20 {
        fill: url(#linear-gradient-95);
      }

      .cls-21 {
        fill: url(#linear-gradient-15);
      }

      .cls-22 {
        fill: url(#linear-gradient-11);
      }

      .cls-102 {
        stroke: url(#linear-gradient-85);
      }

      .cls-23 {
        fill: url(#linear-gradient-101);
      }

      .cls-24 {
        fill: url(#linear-gradient-81);
      }

      .cls-25 {
        fill: url(#linear-gradient-73);
      }

      .cls-26 {
        fill: url(#linear-gradient-91);
      }

      .cls-27 {
        fill: url(#linear-gradient-16);
      }

      .cls-27, .cls-37 {
        opacity: .87;
      }

      .cls-28 {
        fill: url(#linear-gradient-31);
      }

      .cls-29 {
        fill: url(#linear-gradient-58);
      }

      .cls-30 {
        fill: url(#linear-gradient-63);
      }

      .cls-31 {
        fill: url(#linear-gradient-34);
      }

      .cls-32 {
        fill: url(#linear-gradient-41);
      }

      .cls-33 {
        fill: url(#linear-gradient-89);
      }

      .cls-34 {
        fill: url(#linear-gradient-40);
      }

      .cls-35 {
        fill: url(#linear-gradient-13);
      }

      .cls-36 {
        fill: url(#linear-gradient-23);
      }

      .cls-37 {
        fill: url(#linear-gradient-5);
      }

      .cls-103 {
        stroke: url(#linear-gradient-53);
      }

      .cls-38 {
        fill: url(#linear-gradient-25);
      }

      .cls-39 {
        fill: url(#linear-gradient-43);
      }

      .cls-40 {
        fill: url(#linear-gradient-22);
      }

      .cls-41 {
        fill: url(#linear-gradient-55);
      }

      .cls-43 {
        fill: url(#linear-gradient-35);
      }

      .cls-44 {
        fill: url(#linear-gradient-50);
      }

      .cls-45 {
        fill: url(#linear-gradient-32);
      }

      .cls-46 {
        fill: url(#linear-gradient-60);
      }

      .cls-47 {
        fill: url(#linear-gradient-59);
      }

      .cls-48 {
        fill: url(#linear-gradient-20);
      }

      .cls-49 {
        fill: url(#linear-gradient-14);
      }

      .cls-50 {
        fill: url(#linear-gradient-2);
      }

      .cls-51 {
        fill: #f8b2ac;
      }

      .cls-52 {
        fill: url(#linear-gradient-45);
      }

      .cls-53 {
        fill: url(#linear-gradient-93);
      }

      .cls-54 {
        fill: url(#linear-gradient-66);
      }

      .cls-55 {
        fill: url(#linear-gradient-56);
      }

      .cls-56 {
        fill: url(#linear-gradient-7);
      }

      .cls-57 {
        fill: url(#linear-gradient-39);
      }

      .cls-58 {
        fill: url(#linear-gradient-3);
      }

      .cls-59 {
        fill: url(#linear-gradient-96);
      }

      .cls-60 {
        fill: url(#linear-gradient-77);
      }

      .cls-61 {
        fill: url(#linear-gradient-69);
      }

      .cls-62 {
        fill: url(#linear-gradient-94);
      }

      .cls-63 {
        fill: url(#linear-gradient-9);
      }

      .cls-64 {
        fill: url(#linear-gradient-27);
      }

      .cls-104 {
        stroke: url(#linear-gradient-52);
      }

      .cls-65 {
        fill: url(#linear-gradient-100);
      }

      .cls-66 {
        fill: url(#linear-gradient-82);
      }

      .cls-67 {
        fill: url(#linear-gradient-83);
      }

      .cls-68 {
        fill: url(#linear-gradient-65);
      }

      .cls-69 {
        fill: url(#linear-gradient-36);
      }

      .cls-70 {
        fill: url(#linear-gradient-48);
      }

      .cls-71 {
        fill: url(#linear-gradient-49);
      }

      .cls-72 {
        fill: url(#linear-gradient-8);
      }

      .cls-73 {
        fill: url(#linear-gradient-24);
      }

      .cls-74 {
        fill: url(#linear-gradient-26);
      }

      .cls-75 {
        fill: url(#linear-gradient-18);
      }

      .cls-76 {
        fill: url(#linear-gradient-51);
      }

      .cls-77 {
        fill: url(#linear-gradient-84);
      }

      .cls-78 {
        fill: url(#linear-gradient-97);
      }

      .cls-79 {
        fill: url(#linear-gradient-68);
      }

      .cls-80 {
        fill: url(#linear-gradient-72);
      }

      .cls-81 {
        fill: url(#linear-gradient-29);
      }

      .cls-82 {
        fill: url(#linear-gradient-46);
      }

      .cls-83 {
        fill: url(#linear-gradient-64);
      }

      .cls-84 {
        fill: url(#linear-gradient-44);
      }

      .cls-85 {
        fill: url(#linear-gradient-28);
      }

      .cls-86 {
        fill: url(#linear-gradient-61);
      }

      .cls-87 {
        fill: url(#linear-gradient-99);
      }

      .cls-88 {
        fill: url(#linear-gradient-10);
      }

      .cls-89 {
        fill: url(#linear-gradient-87);
      }

      .cls-90 {
        fill: url(#linear-gradient-70);
      }

      .cls-91 {
        fill: url(#linear-gradient-78);
      }

      .cls-92 {
        fill: url(#linear-gradient-74);
      }

      .cls-93 {
        fill: url(#linear-gradient-102);
      }

      .cls-94 {
        fill: url(#linear-gradient-4);
      }

      .cls-95 {
        fill: url(#linear-gradient-37);
      }

      .cls-96 {
        fill: url(#linear-gradient-80);
      }

      .cls-97 {
        fill: url(#linear-gradient-75);
      }
    </style>
    <linearGradient id="linear-gradient" x1="459.72" y1="336.45" x2="521.31" y2="336.45" gradientUnits="userSpaceOnUse">
      <stop offset=".02" stop-color="#dbb86f"/>
      <stop offset=".06" stop-color="#d9b16d"/>
      <stop offset=".12" stop-color="#d3a06a"/>
      <stop offset=".2" stop-color="#ca8465"/>
      <stop offset=".27" stop-color="#be5d5e"/>
      <stop offset=".34" stop-color="#b33858"/>
      <stop offset=".62" stop-color="#56285b"/>
      <stop offset=".71" stop-color="#4b1f4c"/>
      <stop offset=".88" stop-color="#3b1338"/>
      <stop offset=".99" stop-color="#360f31"/>
    </linearGradient>
    <linearGradient id="linear-gradient-2" x1="509.02" y1="183.97" x2="559.83" y2="350.33" gradientUnits="userSpaceOnUse">
      <stop offset=".02" stop-color="#dbb86f"/>
      <stop offset=".06" stop-color="#d9b16d"/>
      <stop offset=".12" stop-color="#d3a06a"/>
      <stop offset=".2" stop-color="#ca8465"/>
      <stop offset=".27" stop-color="#be5d5e"/>
      <stop offset=".34" stop-color="#b33858"/>
      <stop offset=".67" stop-color="#56285b"/>
      <stop offset=".77" stop-color="#522455"/>
      <stop offset=".88" stop-color="#461b46"/>
      <stop offset=".99" stop-color="#360f31"/>
    </linearGradient>
    <linearGradient id="linear-gradient-3" x1="489.44" y1="371.71" x2="489.44" y2="245.99" xlink:href="#linear-gradient-2"/>
    <linearGradient id="linear-gradient-4" x1="523.73" y1="182.39" x2="537.28" y2="347.99" xlink:href="#linear-gradient-2"/>
    <linearGradient id="linear-gradient-5" x1="283.04" y1="375.98" x2="283.04" y2="400.35" gradientUnits="userSpaceOnUse">
      <stop offset=".02" stop-color="#905c95"/>
      <stop offset=".02" stop-color="#905c95" stop-opacity=".98"/>
      <stop offset=".12" stop-color="#905c95" stop-opacity=".72"/>
      <stop offset=".22" stop-color="#905c95" stop-opacity=".5"/>
      <stop offset=".33" stop-color="#905c95" stop-opacity=".31"/>
      <stop offset=".46" stop-color="#905c95" stop-opacity=".17"/>
      <stop offset=".59" stop-color="#905c95" stop-opacity=".08"/>
      <stop offset=".75" stop-color="#905c95" stop-opacity=".02"/>
      <stop offset="1" stop-color="#905c95" stop-opacity="0"/>
    </linearGradient>
    <linearGradient id="linear-gradient-6" x1="113.54" y1="113.51" x2="135.83" y2="324.72" gradientUnits="userSpaceOnUse">
      <stop offset="0" stop-color="#fff"/>
      <stop offset=".19" stop-color="#f3e7ef"/>
      <stop offset=".6" stop-color="#d7a9c8"/>
      <stop offset="1" stop-color="#b9679e"/>
    </linearGradient>
    <linearGradient id="linear-gradient-7" x1="134.43" y1="143.7" x2="426.44" y2="379.42" xlink:href="#linear-gradient-6"/>
    <linearGradient id="linear-gradient-8" x1="264.77" y1="135.68" x2="293.75" y2="222.06" xlink:href="#linear-gradient-2"/>
    <linearGradient id="linear-gradient-9" x1="389.84" y1="351.97" x2="173.12" y2="195.52" gradientUnits="userSpaceOnUse">
      <stop offset="0" stop-color="#170f36"/>
      <stop offset=".13" stop-color="#1b143d"/>
      <stop offset=".31" stop-color="#262151"/>
      <stop offset=".38" stop-color="#2c285b"/>
      <stop offset=".66" stop-color="#7e38b3"/>
      <stop offset=".67" stop-color="#8039b1"/>
      <stop offset=".76" stop-color="#a75b94"/>
      <stop offset=".85" stop-color="#c37380"/>
      <stop offset=".93" stop-color="#d48273"/>
      <stop offset=".98" stop-color="#db886f"/>
    </linearGradient>
    <linearGradient id="linear-gradient-10" x1="270.28" y1="356.83" x2="270.28" y2="180.3" xlink:href="#linear-gradient-2"/>
    <linearGradient id="linear-gradient-11" x1="338.48" y1="161.4" x2="206.58" y2="409.96" gradientUnits="userSpaceOnUse">
      <stop offset=".34" stop-color="#b9679e"/>
      <stop offset=".4" stop-color="#c684b1"/>
      <stop offset=".51" stop-color="#dab0cc"/>
      <stop offset=".61" stop-color="#ead2e2"/>
      <stop offset=".7" stop-color="#f5ebf2"/>
      <stop offset=".79" stop-color="#fcf9fb"/>
      <stop offset=".86" stop-color="#fff"/>
    </linearGradient>
    <linearGradient id="linear-gradient-12" x1="195.08" y1="232.34" x2="353.9" y2="376.12" xlink:href="#linear-gradient-6"/>
    <linearGradient id="linear-gradient-13" x1="272.7" y1="352.26" x2="655.03" y2="392.34" xlink:href="#linear-gradient-6"/>
    <linearGradient id="linear-gradient-14" x1="278.27" y1="360.06" x2="478.23" y2="360.06" gradientUnits="userSpaceOnUse">
      <stop offset="0" stop-color="#fff"/>
      <stop offset=".43" stop-color="#e2c0d6"/>
      <stop offset="1" stop-color="#b9679e"/>
    </linearGradient>
    <linearGradient id="linear-gradient-15" x1="342.23" y1="360.06" x2="429.27" y2="360.06" xlink:href="#linear-gradient-6"/>
    <linearGradient id="linear-gradient-16" x1="122.86" y1="398.71" x2="122.86" y2="415.66" xlink:href="#linear-gradient-5"/>
    <linearGradient id="linear-gradient-17" x1="258.07" y1="370.37" x2="51.55" y2="370.37" xlink:href="#linear-gradient-2"/>
    <linearGradient id="linear-gradient-18" x1="221.92" y1="370.37" x2="-145.85" y2="370.37" xlink:href="#linear-gradient-2"/>
    <linearGradient id="linear-gradient-19" x1="288.86" y1="382.93" x2="-135.4" y2="382.93" xlink:href="#linear-gradient-2"/>
    <linearGradient id="linear-gradient-20" x1="288.86" y1="395.68" x2="-135.4" y2="395.68" xlink:href="#linear-gradient-2"/>
    <linearGradient id="linear-gradient-21" x1="288.86" y1="395.83" x2="-135.4" y2="395.83" xlink:href="#linear-gradient-2"/>
    <linearGradient id="linear-gradient-22" x1="288.86" y1="395.65" x2="-135.4" y2="395.65" xlink:href="#linear-gradient-2"/>
    <linearGradient id="linear-gradient-23" x1="288.87" y1="395.6" x2="-135.43" y2="395.6" xlink:href="#linear-gradient-2"/>
    <linearGradient id="linear-gradient-24" x1="288.86" y1="395.63" x2="-135.41" y2="395.63" xlink:href="#linear-gradient-2"/>
    <linearGradient id="linear-gradient-25" x1="288.86" y1="395.7" x2="-135.4" y2="395.7" xlink:href="#linear-gradient-2"/>
    <linearGradient id="linear-gradient-26" x1="288.86" y1="395.78" x2="-135.4" y2="395.78" xlink:href="#linear-gradient-2"/>
    <linearGradient id="linear-gradient-27" x1="288.87" y1="395.8" x2="-135.42" y2="395.8" xlink:href="#linear-gradient-2"/>
    <linearGradient id="linear-gradient-28" x1="288.85" y1="395.73" x2="-135.39" y2="395.73" xlink:href="#linear-gradient-2"/>
    <linearGradient id="linear-gradient-29" x1="288.85" y1="395.75" x2="-135.37" y2="395.75" xlink:href="#linear-gradient-2"/>
    <linearGradient id="linear-gradient-30" x1="124.8" y1="280.07" x2="176.19" y2="280.07" gradientUnits="userSpaceOnUse">
      <stop offset=".02" stop-color="#db886f"/>
      <stop offset=".07" stop-color="#d48273"/>
      <stop offset=".15" stop-color="#c37380"/>
      <stop offset=".24" stop-color="#a75b94"/>
      <stop offset=".33" stop-color="#8039b1"/>
      <stop offset=".34" stop-color="#7e38b3"/>
      <stop offset=".62" stop-color="#2c285b"/>
      <stop offset=".69" stop-color="#262151"/>
      <stop offset=".87" stop-color="#1b143d"/>
      <stop offset=".99" stop-color="#170f36"/>
    </linearGradient>
    <linearGradient id="linear-gradient-31" x1="112.08" y1="215.08" x2="214.28" y2="378.6" gradientUnits="userSpaceOnUse">
      <stop offset="0" stop-color="#fff"/>
      <stop offset=".2" stop-color="#fdfbfc"/>
      <stop offset=".37" stop-color="#f8f1f6"/>
      <stop offset=".51" stop-color="#f1e1eb"/>
      <stop offset=".65" stop-color="#e6c9dc"/>
      <stop offset=".78" stop-color="#d8abc9"/>
      <stop offset=".91" stop-color="#c786b1"/>
      <stop offset="1" stop-color="#b9679e"/>
    </linearGradient>
    <linearGradient id="linear-gradient-32" x1="135.66" y1="155.42" x2="146.6" y2="324.91" xlink:href="#linear-gradient-2"/>
    <linearGradient id="linear-gradient-33" x1="120.77" y1="165.93" x2="167.34" y2="345.41" xlink:href="#linear-gradient-31"/>
    <linearGradient id="linear-gradient-34" x1="110.61" y1="176.69" x2="121.95" y2="305.96" gradientTransform="translate(32.38 -12.55) rotate(7.09)" xlink:href="#linear-gradient-31"/>
    <linearGradient id="linear-gradient-35" x1="122.63" y1="175.63" x2="133.97" y2="304.9" gradientTransform="translate(33.54 -14.45) rotate(7.33)" xlink:href="#linear-gradient-31"/>
    <linearGradient id="linear-gradient-36" x1="133.78" y1="174.66" x2="145.12" y2="303.93" gradientTransform="translate(41.77 -18.98) rotate(9.05)" xlink:href="#linear-gradient-31"/>
    <linearGradient id="linear-gradient-37" x1="144.1" y1="173.75" x2="155.44" y2="303.02" gradientTransform="translate(47.09 -22.64) rotate(10.14)" xlink:href="#linear-gradient-31"/>
    <linearGradient id="linear-gradient-38" x1="154.2" y1="172.86" x2="165.54" y2="302.13" gradientTransform="translate(43.5 -22.9) rotate(9.38)" xlink:href="#linear-gradient-31"/>
    <linearGradient id="linear-gradient-39" x1="163.54" y1="172.04" x2="174.88" y2="301.32" gradientTransform="translate(38.82 -22.2) rotate(8.39)" xlink:href="#linear-gradient-31"/>
    <linearGradient id="linear-gradient-40" x1="129.37" y1="340.67" x2="154.02" y2="189.12" xlink:href="#linear-gradient-2"/>
    <linearGradient id="linear-gradient-41" x1="120.29" y1="282.27" x2="175.13" y2="282.27" xlink:href="#linear-gradient-2"/>
    <linearGradient id="linear-gradient-42" x1="120.98" y1="290.38" x2="175.82" y2="290.38" xlink:href="#linear-gradient-2"/>
    <linearGradient id="linear-gradient-43" x1="122.15" y1="298.5" x2="176.99" y2="298.5" xlink:href="#linear-gradient-2"/>
    <linearGradient id="linear-gradient-44" x1="368.68" y1="316.23" x2="440.27" y2="316.23" xlink:href="#linear-gradient-30"/>
    <linearGradient id="linear-gradient-45" x1="427.23" y1="261.16" x2="427.23" y2="398.65" xlink:href="#linear-gradient-31"/>
    <linearGradient id="linear-gradient-46" x1="513.18" y1="208.8" x2="264.88" y2="393.04" xlink:href="#linear-gradient-2"/>
    <linearGradient id="linear-gradient-47" x1="395.22" y1="302.31" x2="414.99" y2="302.31" xlink:href="#linear-gradient-2"/>
    <linearGradient id="linear-gradient-48" x1="398.53" y1="193.51" x2="398.53" y2="376.33" xlink:href="#linear-gradient-2"/>
    <linearGradient id="linear-gradient-49" x1="418.47" y1="293.66" x2="459.42" y2="293.66" xlink:href="#linear-gradient-2"/>
    <linearGradient id="linear-gradient-50" x1="419.19" y1="300.02" x2="460.15" y2="300.02" xlink:href="#linear-gradient-2"/>
    <linearGradient id="linear-gradient-51" x1="419.92" y1="306.38" x2="460.88" y2="306.38" xlink:href="#linear-gradient-2"/>
    <linearGradient id="linear-gradient-52" x1="425.42" y1="294.94" x2="430.56" y2="294.94" xlink:href="#linear-gradient-2"/>
    <linearGradient id="linear-gradient-53" x1="431.46" y1="301.76" x2="436.6" y2="301.76" xlink:href="#linear-gradient-2"/>
    <linearGradient id="linear-gradient-54" x1="440.49" y1="308.2" x2="445.63" y2="308.2" xlink:href="#linear-gradient-2"/>
    <linearGradient id="linear-gradient-55" x1="429.35" y1="226.49" x2="429.35" y2="373.99" xlink:href="#linear-gradient-31"/>
    <linearGradient id="linear-gradient-56" x1="373.42" y1="211.64" x2="429.87" y2="211.64" xlink:href="#linear-gradient-30"/>
    <linearGradient id="linear-gradient-57" x1="455.12" y1="149.31" x2="455.12" y2="362.55" xlink:href="#linear-gradient-6"/>
    <linearGradient id="linear-gradient-58" x1="424.51" y1="213.32" x2="621.92" y2="63.34" xlink:href="#linear-gradient-2"/>
    <linearGradient id="linear-gradient-59" x1="424.51" y1="213.31" x2="621.92" y2="63.33" xlink:href="#linear-gradient-2"/>
    <linearGradient id="linear-gradient-60" x1="424.5" y1="213.3" x2="621.91" y2="63.32" xlink:href="#linear-gradient-2"/>
    <linearGradient id="linear-gradient-61" x1="397.29" y1="192.23" x2="499.51" y2="192.23" xlink:href="#linear-gradient-30"/>
    <linearGradient id="linear-gradient-62" x1="441.19" y1="149.31" x2="441.19" y2="362.55" xlink:href="#linear-gradient-6"/>
    <linearGradient id="linear-gradient-63" x1="364.65" y1="275.16" x2="459.85" y2="155.27" xlink:href="#linear-gradient-2"/>
    <linearGradient id="linear-gradient-64" x1="366.61" y1="276.72" x2="461.8" y2="156.82" xlink:href="#linear-gradient-2"/>
    <linearGradient id="linear-gradient-65" x1="368.56" y1="278.27" x2="463.76" y2="158.38" xlink:href="#linear-gradient-2"/>
    <linearGradient id="linear-gradient-66" x1="392.68" y1="186.65" x2="473.46" y2="186.65" xlink:href="#linear-gradient-30"/>
    <linearGradient id="linear-gradient-67" x1="429.45" y1="149.31" x2="429.45" y2="362.55" xlink:href="#linear-gradient-6"/>
    <linearGradient id="linear-gradient-68" x1="407.23" y1="214.28" x2="458.18" y2="104.16" xlink:href="#linear-gradient-30"/>
    <linearGradient id="linear-gradient-69" x1="411.02" y1="216.03" x2="461.96" y2="105.91" xlink:href="#linear-gradient-30"/>
    <linearGradient id="linear-gradient-70" x1="414.81" y1="217.78" x2="465.75" y2="107.66" xlink:href="#linear-gradient-30"/>
    <linearGradient id="linear-gradient-71" x1="391.61" y1="186.41" x2="441.07" y2="186.41" xlink:href="#linear-gradient-30"/>
    <linearGradient id="linear-gradient-72" x1="412.72" y1="147.31" x2="412.72" y2="358.21" gradientUnits="userSpaceOnUse">
      <stop offset="0" stop-color="#fff"/>
      <stop offset=".15" stop-color="#fcfafc"/>
      <stop offset=".31" stop-color="#f6ecf3"/>
      <stop offset=".48" stop-color="#ecd5e4"/>
      <stop offset=".67" stop-color="#ddb6d0"/>
      <stop offset=".85" stop-color="#ca8db6"/>
      <stop offset="1" stop-color="#b9679e"/>
    </linearGradient>
    <linearGradient id="linear-gradient-73" x1="395.56" y1="185.9" x2="523.51" y2="315.44" xlink:href="#linear-gradient-2"/>
    <linearGradient id="linear-gradient-74" x1="385.87" y1="166.15" x2="510.47" y2="290.45" xlink:href="#linear-gradient-2"/>
    <linearGradient id="linear-gradient-75" x1="391.13" y1="160.87" x2="515.74" y2="285.17" xlink:href="#linear-gradient-2"/>
    <linearGradient id="linear-gradient-76" x1="393.27" y1="158.73" x2="517.87" y2="283.03" xlink:href="#linear-gradient-2"/>
    <linearGradient id="linear-gradient-77" x1="395.35" y1="156.64" x2="519.96" y2="280.94" xlink:href="#linear-gradient-2"/>
    <linearGradient id="linear-gradient-78" x1="430.05" y1="41.77" x2="430.05" y2="230.88" xlink:href="#linear-gradient-9"/>
    <linearGradient id="linear-gradient-79" x1="188.15" y1="278.34" x2="364.86" y2="278.34" xlink:href="#linear-gradient-30"/>
    <linearGradient id="linear-gradient-80" x1="321.98" y1="215.83" x2="175.81" y2="435.33" gradientUnits="userSpaceOnUse">
      <stop offset="0" stop-color="#fff"/>
      <stop offset=".14" stop-color="#fcf9fb"/>
      <stop offset=".3" stop-color="#f5eaf1"/>
      <stop offset=".49" stop-color="#ead1e2"/>
      <stop offset=".69" stop-color="#daaecb"/>
      <stop offset=".89" stop-color="#c582af"/>
      <stop offset="1" stop-color="#b9679e"/>
    </linearGradient>
    <linearGradient id="linear-gradient-81" x1="219.91" y1="276.69" x2="565.72" y2="-17.08" xlink:href="#linear-gradient-2"/>
    <linearGradient id="linear-gradient-82" x1="287.59" y1="246.16" x2="420.46" y2="409.64" xlink:href="#linear-gradient-2"/>
    <linearGradient id="linear-gradient-83" x1="300.49" y1="329.93" x2="311.11" y2="244.45" xlink:href="#linear-gradient-30"/>
    <linearGradient id="linear-gradient-84" x1="293.59" y1="217.57" x2="293.59" y2="369.89" xlink:href="#linear-gradient-2"/>
    <linearGradient id="linear-gradient-85" x1="247.57" y1="286.3" x2="247.57" y2="291.23" gradientTransform="translate(19.19 -15.41) rotate(3.71)" xlink:href="#linear-gradient-2"/>
    <linearGradient id="linear-gradient-86" x1="339.62" y1="283.84" x2="339.62" y2="288.77" gradientTransform="translate(19.23 -21.37) rotate(3.71)" xlink:href="#linear-gradient-2"/>
    <linearGradient id="linear-gradient-87" x1="290.74" y1="217.57" x2="290.74" y2="369.89" gradientTransform="translate(16.33 -18.21) rotate(3.69)" xlink:href="#linear-gradient-2"/>
    <linearGradient id="linear-gradient-88" x1="250.19" y1="240.72" x2="250.19" y2="278.14" xlink:href="#linear-gradient-30"/>
    <linearGradient id="linear-gradient-89" x1="331.3" y1="240.72" x2="331.3" y2="278.14" xlink:href="#linear-gradient-30"/>
    <linearGradient id="linear-gradient-90" x1="290.74" y1="240.49" x2="290.74" y2="248" gradientTransform="translate(39.33 -40.32) rotate(8.51)" xlink:href="#linear-gradient-2"/>
    <linearGradient id="linear-gradient-91" x1="262.37" y1="303.66" x2="339.05" y2="303.66" xlink:href="#linear-gradient-2"/>
    <linearGradient id="linear-gradient-92" x1="262.37" y1="303.66" x2="339.05" y2="303.66" xlink:href="#linear-gradient-2"/>
    <linearGradient id="linear-gradient-93" x1="262.37" y1="303.66" x2="339.05" y2="303.66" xlink:href="#linear-gradient-2"/>
    <linearGradient id="linear-gradient-94" x1="262.37" y1="303.66" x2="339.05" y2="303.66" xlink:href="#linear-gradient-2"/>
    <linearGradient id="linear-gradient-95" x1="262.37" y1="303.66" x2="339.05" y2="303.66" xlink:href="#linear-gradient-2"/>
    <linearGradient id="linear-gradient-96" x1="212.17" y1="186.65" x2="251.13" y2="186.65" xlink:href="#linear-gradient-30"/>
    <linearGradient id="linear-gradient-97" x1="254.67" y1="63.15" x2="189.06" y2="372.82" xlink:href="#linear-gradient-2"/>
    <linearGradient id="linear-gradient-98" x1="330.37" y1="56.92" x2="228.24" y2="200.39" xlink:href="#linear-gradient-30"/>
    <linearGradient id="linear-gradient-99" x1="306.57" y1="85.9" x2="180.73" y2="253.08" xlink:href="#linear-gradient-30"/>
    <linearGradient id="linear-gradient-100" x1="138.5" y1="225.07" x2="138.5" y2="278.33" gradientTransform="translate(-50.54 -65.23) rotate(-18.46)" xlink:href="#linear-gradient-80"/>
    <linearGradient id="linear-gradient-101" x1="499.15" y1="184.33" x2="499.15" y2="215.06" gradientTransform="translate(63.21 -88.53) rotate(17.2)" xlink:href="#linear-gradient-80"/>
    <linearGradient id="linear-gradient-102" x1="134.95" y1="620.41" x2="134.95" y2="651.19" gradientTransform="translate(-235.89 -212.25) rotate(-20.11)" xlink:href="#linear-gradient-80"/>
  </defs>
  <g class="cls-105">
    <g id="katman_1" data-name="katman 1">
      <g>
        <g>
          <g>
            <path class="cls-7" d="m516.97,317.86l-6.02-1.13s-18.39-.19-23.59,3.49c-8.91,6.31,1.43,25.28-15.28,35.38,0,0,16.35,1.12,20.92.21,4.57-.92,21.39-1.79,23.98-37.95Z"/>
            <path class="cls-50" d="m510.94,316.73s6.71-18.47,11.78-104.33c1.56-26.51,20.68-37.4,23.72-31.85,5.85,10.7-5.02,71.39-29.48,137.3l-6.02-1.13Z"/>
          </g>
          <path class="cls-58" d="m504.17,341.42c1.19-5.26-3.52-6.57-9.05-1.92-5.53,4.65-10.16,4.87-9.08.02,1.08-4.85-3.2-5.58-3.2-5.58h0c-.52,7.47-1.36,15.97-10.77,21.66,0,0,16.35,1.12,20.92.21,2.45-.49,8.42-.98,13.83-6.89,0,0-3.83-2.23-2.65-7.49Z"/>
          <path class="cls-94" d="m546.45,180.55c-1.09-2-4.28-1.86-7.98.37,4.43,11.9-4.41,62.72-24.29,120.59-1.91,11.56-3.24,15.22-3.24,15.22l6.02,1.13c24.47-65.92,35.33-126.61,29.48-137.3Z"/>
        </g>
        <g>
          <polygon class="cls-37" points="537.75 376.85 373.87 400.95 28.32 400.95 168.77 378.73 537.75 376.85"/>
          <g>
            <path class="cls-15" d="m127.8,341.69l-19.29-152.68c-.53-4.18.66-8.39,3.28-11.69h0c2.94-3.68,7.38-5.84,12.1-5.87l6.4-.03,21.74,183.76-11.36-.06h0c-6.78-1.15-12.01-6.61-12.87-13.43Z"/>
            <path class="cls-56" d="m440.9,355.12l-17.21-176.53c-.48-4.96-4.67-8.74-9.65-8.71l-286.65,1.55c-5.81.03-10.27,5.15-9.51,10.91l21.7,164.39c.63,4.8,4.72,8.38,9.56,8.38"/>
            <path class="cls-72" d="m283.68,177.65c0,2.67-2.16,4.83-4.83,4.83s-4.83-2.16-4.83-4.83,2.16-4.83,4.83-4.83,4.83,2.16,4.83,4.83Z"/>
            <path class="cls-63" d="m433.62,355.12l-14.85-152.26c-1.12-11.52-10.89-20.26-22.47-20.08l-269.28,3.96,22.58,171.1,284.02-2.72Z"/>
            <polygon class="cls-88" points="129.41 204.55 413.1 199.35 411.81 187.75 127.45 189.73 129.41 204.55"/>
            <g>
              <path class="cls-42" d="m147.48,196.38c-.05,1.83-1.57,3.27-3.4,3.22-1.83-.05-3.27-1.57-3.22-3.4s1.57-3.27,3.4-3.22,3.27,1.57,3.22,3.4Z"/>
              <path class="cls-42" d="m157.64,196.24c-.05,1.83-1.57,3.27-3.4,3.22s-3.27-1.57-3.22-3.4,1.57-3.27,3.4-3.22c1.83.05,3.27,1.57,3.22,3.4Z"/>
              <path class="cls-42" d="m167.8,196.09c-.05,1.83-1.57,3.27-3.4,3.22-1.83-.05-3.27-1.57-3.22-3.4s1.57-3.27,3.4-3.22c1.83.05,3.27,1.57,3.22,3.4Z"/>
            </g>
            <g>
              <path class="cls-22" d="m412.38,192.82l18.01,162.36,3.24-.06-16.01-164.12c-.47-4.82-4.55-8.47-9.39-8.4l-281.15,4.14.39,2.99,279.24-1.94c2.9-.02,5.35,2.15,5.66,5.04Z"/>
              <polygon class="cls-51" points="150.71 357.83 150.71 357.84 194.27 357.42 150.71 357.83"/>
            </g>
            <path class="cls-2" d="m140.67,355.12h396.34l-4.12,8.69c-4.11,8.69-12.87,14.22-22.48,14.22H154.57c-6.38,0-11.75-4.77-12.5-11.11l-1.4-11.81Z"/>
            <path class="cls-35" d="m261.11,355.12l5.43,12.41c2.79,6.38,9.09,10.5,16.06,10.5h232.48c6.77,0,12.94-3.9,15.84-10.02l6.11-12.9h-275.91Z"/>
            <polygon class="cls-49" points="343.54 355.12 347.57 365 450.22 365 454.58 355.12 343.54 355.12"/>
            <polygon class="cls-21" points="438.08 355.12 435.99 365 450.22 365 454.58 355.12 438.08 355.12"/>
          </g>
        </g>
        <g>
          <polygon class="cls-27" points="235.29 399.32 121.27 416.08 10.43 416.08 108.14 400.62 235.29 399.32"/>
          <g>
            <path class="cls-3" d="m111.68,386.13l-.1,14.55,122.3-1.37-1.09-16.15-6.03.15c-2.04-7.88-13.29-42.97-51.94-43.25-41.75-.3-56.4,42.4-57.54,45.93l-5.6.14Zm90.36-10.94l-57.53,1.22s4.81-21.86,27.86-21.46c22.12.39,29.66,20.24,29.66,20.24Z"/>
            <path class="cls-75" d="m106.84,386.06l-.1,14.67,122.3-1.37-1.09-16.26-6.03.15c-2.04-7.88-13.29-42.97-51.94-43.25-41.75-.3-56.4,42.4-57.54,45.93l-5.6.14Zm90.36-10.94l-57.53,1.22s4.81-21.86,27.86-21.46c22.12.39,29.66,20.24,29.66,20.24Z"/>
            <polygon class="cls-5" points="221.91 383.25 112.43 385.93 220.94 379.94 221.91 383.25"/>
            <g>
              <polygon class="cls-48" points="185.9 391.5 186.72 391.51 186.66 399.84 185.84 399.85 185.9 391.5"/>
              <polygon class="cls-14" points="112.43 390.98 113.24 390.98 113.18 400.66 112.36 400.67 112.43 390.98"/>
              <polygon class="cls-40" points="198.09 399.71 198.15 391.59 198.97 391.59 198.91 399.7 198.09 399.71"/>
              <polygon class="cls-36" points="222.59 399.44 222.64 391.76 223.46 391.77 223.41 399.43 222.59 399.44"/>
              <polygon class="cls-73" points="210.34 399.58 210.4 391.68 211.21 391.68 211.16 399.57 210.34 399.58"/>
              <polygon class="cls-38" points="173.66 391.41 174.48 391.42 174.42 399.98 173.6 399.99 173.66 391.41"/>
              <polygon class="cls-74" points="136.92 391.15 137.74 391.16 137.67 400.39 136.85 400.4 136.92 391.15"/>
              <polygon class="cls-64" points="124.6 400.53 124.67 391.07 125.49 391.07 125.42 400.53 124.6 400.53"/>
              <polygon class="cls-85" points="161.41 391.33 162.23 391.33 162.17 400.11 161.35 400.12 161.41 391.33"/>
              <polygon class="cls-81" points="149.16 391.24 149.98 391.25 149.92 400.25 149.1 400.26 149.16 391.24"/>
            </g>
          </g>
        </g>
        <g>
          <polygon class="cls-16" points="136.76 325.47 176.19 324.51 166.67 244.53 169.12 244.53 167.87 234.68 124.8 234.82 136.76 325.47"/>
          <g>
            <g>
              <polygon class="cls-28" points="184.77 314.68 173.5 220.08 105.54 220.29 117 316.22 184.77 314.68"/>
              <polygon class="cls-45" points="174.81 230.45 173.5 220.08 105.54 220.29 106.88 230.92 174.81 230.45"/>
              <path class="cls-42" d="m117.48,225.5c0,1.2-.97,2.17-2.17,2.17s-2.17-.97-2.17-2.17.97-2.17,2.17-2.17,2.17.97,2.17,2.17Z"/>
            </g>
            <g>
              <polygon class="cls-6" points="115.3 237.53 168.39 236.94 173.11 269.64 119.24 272.59 115.3 237.53"/>
              <g>
                <rect class="cls-31" x="116.93" y="237.39" width="1.12" height="35.33" transform="translate(-30.59 16.45) rotate(-7.09)"/>
                <rect class="cls-43" x="128.98" y="236.79" width="1.12" height="35.34" transform="translate(-31.42 18.61) rotate(-7.33)"/>
                <rect class="cls-69" x="140.21" y="237.08" width="1.12" height="34.54" transform="translate(-38.26 25.31) rotate(-9.05)"/>
                <rect class="cls-95" x="150.58" y="236.93" width="1.12" height="34.22" transform="translate(-42.37 30.58) rotate(-10.14)"/>
                <rect class="cls-1" x="160.73" y="236.71" width="1.12" height="33.91" transform="translate(-39.19 29.68) rotate(-9.38)"/>
                <rect class="cls-57" x="170.12" y="236.76" width="1.12" height="33.37" transform="translate(-35.16 27.62) rotate(-8.39)"/>
              </g>
              <g>
                <path class="cls-34" d="m122.13,268.99l-1.14-.35c.05-.16,5.09-16.09,24.04-15.66,7.66.21,13.45-1.94,16.77-6.14,2.49-3.14,2.73-6.35,2.73-6.38l1.19.08c0,.14-1.16,13.63-19.76,13.63-.31,0-.63,0-.96-.01-17.99-.44-22.83,14.67-22.87,14.82Z"/>
                <circle class="cls-42" cx="144.93" cy="253.63" r="1.42"/>
                <path class="cls-42" d="m122.99,268.82c0,.79-.64,1.42-1.42,1.42s-1.42-.64-1.42-1.42.64-1.42,1.42-1.42,1.42.64,1.42,1.42Z"/>
                <path class="cls-42" d="m166.49,240.51c0,.79-.64,1.42-1.42,1.42s-1.42-.64-1.42-1.42.64-1.42,1.42-1.42,1.42.64,1.42,1.42Z"/>
              </g>
            </g>
            <g>
              <path class="cls-32" d="m121.56,285.11c-.67,0-1.23-.52-1.27-1.19-.04-.7.49-1.3,1.19-1.34l52.3-3.13c.69-.04,1.3.49,1.34,1.19.04.7-.49,1.3-1.19,1.34l-52.3,3.13s-.05,0-.08,0Z"/>
              <path class="cls-19" d="m122.25,293.22c-.67,0-1.23-.52-1.27-1.19-.04-.7.49-1.3,1.19-1.34l52.3-3.13c.69-.04,1.3.49,1.34,1.19.04.7-.49,1.3-1.19,1.34l-52.3,3.13s-.05,0-.08,0Z"/>
              <path class="cls-39" d="m123.42,301.33c-.67,0-1.23-.52-1.27-1.19-.04-.7.49-1.3,1.19-1.34l52.3-3.13c.69-.04,1.3.49,1.34,1.19.04.7-.49,1.3-1.19,1.34l-52.3,3.13s-.05,0-.08,0Z"/>
              <circle class="cls-42" cx="156.88" cy="281.73" r="1.92"/>
              <circle class="cls-42" cx="165.91" cy="289.47" r="1.92"/>
              <path class="cls-42" d="m148.78,298.71c0,1.06-.86,1.92-1.92,1.92s-1.92-.86-1.92-1.92.86-1.92,1.92-1.92,1.92.86,1.92,1.92Z"/>
            </g>
          </g>
        </g>
        <g>
          <g>
            <polygon class="cls-84" points="433.54 280.56 368.68 280.76 377.67 351.9 440.27 349.57 433.54 280.56"/>
            <polygon class="cls-52" points="475.15 340.68 466.22 269.86 379.3 270.13 388.3 341.27 475.15 340.68"/>
            <polygon class="cls-82" points="467.58 280.64 466.22 269.86 379.3 270.13 380.91 282.87 467.58 280.64"/>
            <circle class="cls-42" cx="390.24" cy="275.75" r="2.91"/>
          </g>
          <g>
            <polygon class="cls-99" points="414.7 309.5 412.55 294.57 395.51 294.65 397.73 310.04 414.7 309.5"/>
            <polygon class="cls-70" points="408.12 303.98 405.97 289.05 388.93 289.13 391.15 304.52 408.12 303.98"/>
          </g>
          <g>
            <g>
              <path class="cls-71" d="m420.21,295.59c-.95,0-1.73-.77-1.74-1.73,0-.96.76-1.75,1.73-1.76l37.47-.36h.02c.95,0,1.73.77,1.74,1.73,0,.96-.76,1.75-1.73,1.76l-37.47.36h-.02Z"/>
              <path class="cls-44" d="m420.94,301.94c-.95,0-1.73-.77-1.74-1.73,0-.96.76-1.75,1.73-1.76l37.47-.36h.02c.95,0,1.73.77,1.74,1.73,0,.96-.76,1.75-1.73,1.76l-37.47.36h-.02Z"/>
              <path class="cls-76" d="m421.66,308.3c-.95,0-1.73-.77-1.74-1.73,0-.96.76-1.75,1.73-1.76l37.47-.36h.02c.95,0,1.73.77,1.74,1.73,0,.96-.76,1.75-1.73,1.76l-37.47.36h-.02Z"/>
            </g>
            <polygon class="cls-104" points="425.67 295.36 427.52 293.18 430.11 295.02 430.28 296.61 425.67 296.78 425.67 295.36"/>
            <polygon class="cls-103" points="431.71 302.17 433.56 300 436.15 301.84 436.32 303.42 431.71 303.6 431.71 302.17"/>
            <polygon class="cls-100" points="440.74 308.62 442.59 306.44 445.18 308.28 445.36 309.86 440.74 310.04 440.74 308.62"/>
          </g>
          <polygon class="cls-41" points="393.15 319.51 464.1 318.83 465.54 331.55 394.93 332.48 393.15 319.51"/>
        </g>
        <g>
          <path class="cls-55" d="m423.69,178.6c-.48-4.96-4.67-8.74-9.65-8.71l-40.61.22,2.33,33.89h-.15s1.67,22.21,1.67,22.21l1.67,24.28,33.13-1.37,2.97,4.12,2.3-1.75,2.58,1.89,1.41-2.16.07.03.17-.25,2.64.81.72-2.49h.18s.22-.75.22-.75l3.04-.13-.2-5.17,1.7-1.29-6.18-63.39Z"/>
          <g>
            <g>
              <polygon class="cls-12" points="513.78 179.14 482.22 135.86 396.46 200.96 427.79 244.42 513.78 179.14"/>
              <g>
                <polygon class="cls-29" points="487.32 199.23 455.99 155.77 472.28 143.4 503.62 186.86 487.32 199.23"/>
                <polygon class="cls-47" points="465.62 215.71 434.28 172.25 450.58 159.88 481.91 203.33 465.62 215.71"/>
                <polygon class="cls-46" points="443.91 232.18 412.58 188.73 428.87 176.36 460.21 219.81 443.91 232.18"/>
              </g>
            </g>
            <g>
              <polygon class="cls-86" points="474.83 141.47 400.92 197.58 397.29 202.11 421.49 235.68 429.68 242.98 437.49 237.05 499.51 159.57 499.17 159.1 474.83 141.47"/>
              <polygon class="cls-8" points="492.59 153.12 446.73 126.23 389.78 213.13 432.67 244.56 492.59 153.12"/>
              <g>
                <polygon class="cls-30" points="474.24 181.26 430.52 151.1 441.83 133.83 485.55 164 474.24 181.26"/>
                <polygon class="cls-83" points="459.18 204.25 415.46 174.09 426.77 156.82 470.49 186.98 459.18 204.25"/>
                <polygon class="cls-68" points="444.11 227.24 400.39 197.08 411.7 179.81 455.42 209.97 444.11 227.24"/>
              </g>
            </g>
            <g>
              <path class="cls-54" d="m434.15,242.43l5.29-8.07,34.02-92.86-5.6-3.29-24.08-7.35-50.73,77.42c-.42,2.24-.48,4.49-.19,6.67l33.31,24.41,7.99,3.08Z"/>
              <path class="cls-11" d="m467.54,137.36l-51.56-11.73-23.79,82.17c-3.16,10.93,2.91,22.43,13.56,25.67l31.21,9.51,30.58-105.62Z"/>
              <g>
                <polygon class="cls-79" points="458.3 169.9 407.8 154.51 413.57 134.57 464.07 149.96 458.3 169.9"/>
                <polygon class="cls-61" points="450.61 196.46 400.11 181.07 405.88 161.13 456.39 176.52 450.61 196.46"/>
                <polygon class="cls-90" points="442.93 223.01 392.42 207.62 398.2 187.68 448.7 203.07 442.93 223.01"/>
              </g>
            </g>
            <g>
              <path class="cls-13" d="m440.17,232.53l.9-100.23-27.07.17-21.55,75.08c-3.16,10.93,2.91,22.43,13.56,25.67l22.21,6.77,9.64.52,2.31-7.98Z"/>
              <polygon class="cls-80" points="436.86 132.92 384.37 135.86 391.64 241.67 441.07 239.62 436.86 132.92"/>
              <polygon class="cls-25" points="439.29 193.07 388.36 195.18 390.03 217.39 440.2 216.25 439.29 193.07"/>
              <polygon class="cls-92" points="413.41 177.61 392.5 178.48 392.93 189.21 413.84 188.34 413.41 177.61"/>
              <g>
                <polygon class="cls-97" points="406.89 167.64 392.1 168.26 392.2 170.89 406.99 170.28 406.89 167.64"/>
                <polygon class="cls-17" points="404.28 162.01 391.87 162.53 391.98 165.16 404.39 164.65 404.28 162.01"/>
                <polygon class="cls-60" points="401.5 156.39 391.65 156.8 391.75 159.43 401.61 159.02 401.5 156.39"/>
              </g>
            </g>
            <path class="cls-91" d="m433.9,228.95c.09,2.18-1.57,4.03-3.7,4.11s-3.92-1.61-4.01-3.79c-.09-2.18,1.57-4.03,3.7-4.11,2.13-.09,3.92,1.61,4.01,3.79Z"/>
          </g>
        </g>
        <g>
          <g>
            <polygon class="cls-18" points="364.86 327.49 355.12 227.62 188.15 230.09 201.21 329.06 364.86 327.49"/>
            <polygon class="cls-96" points="375.48 316.86 365.75 216.99 198.78 219.46 211.84 318.43 375.48 316.86"/>
            <polygon class="cls-24" points="199.69 231.06 367.15 227.98 365.98 216.36 198.11 218.84 199.69 231.06"/>
            <circle class="cls-42" cx="209.32" cy="224.3" r="2.85"/>
          </g>
          <g>
            <g>
              <path class="cls-66" d="m292.17,251.52l10.14,13.76.81-.6s-7.75-10.44-9.79-13.8c-1.8-2.97.79-3.11,2.18-1.94,1.39,1.18-.21,2.16-.21,2.16,0,0,2.91,3.29,13.37,7.66-1.43,5.13,0,9.69,0,9.69l-4.04,2.86s-5.83-2.56-9.46-2.53c-.4-8.37-3.2-15.39-3.2-15.39,0,0-1.53,1.98-2.32-.36-.79-2.34,1.2-3.22,2.53-1.52Z"/>
              <polygon class="cls-67" points="301.78 272.66 310.16 265.28 313.83 269.52 304.4 276.1 301.78 272.66"/>
            </g>
            <g>
              <path class="cls-77" d="m248.15,288.9l-1.16-.26c.09-.43,9.78-42.79,43.71-44.99,33.97-2.19,49.33,42.02,49.48,42.46l-1.13.38c-.15-.44-15.22-43.82-48.28-41.66-33.05,2.14-42.54,43.64-42.63,44.06Z"/>
              <rect class="cls-102" x="245.5" y="286.7" width="4.14" height="4.14" transform="translate(-18.16 16.62) rotate(-3.71)"/>
              <rect class="cls-101" x="337.55" y="284.23" width="4.14" height="4.14" transform="translate(-17.81 22.56) rotate(-3.71)"/>
              <g>
                <rect class="cls-89" x="250.1" y="243.65" width="81.28" height="1.19" transform="translate(-15.12 19.23) rotate(-3.69)"/>
                <path class="cls-4" d="m252,246.75c.06,1-.69,1.87-1.7,1.93-1,.06-1.87-.69-1.93-1.7s.69-1.87,1.7-1.93c1-.06,1.87.69,1.93,1.7Z"/>
                <path class="cls-33" d="m333.11,241.5c.06,1-.69,1.87-1.7,1.93s-1.87-.69-1.93-1.7.69-1.87,1.7-1.93c1-.06,1.87.69,1.93,1.7Z"/>
              </g>
              <rect class="cls-98" x="287.69" y="241.19" width="6.1" height="6.1" transform="translate(-32.93 45.7) rotate(-8.51)"/>
            </g>
          </g>
          <g>
            <polygon class="cls-26" points="262.63 299.55 274.01 299.55 274.29 307.78 262.92 307.78 262.63 299.55"/>
            <polygon class="cls-9" points="278.13 299.55 289.51 299.55 289.79 307.78 278.42 307.78 278.13 299.55"/>
            <polygon class="cls-53" points="293.63 299.55 305.01 299.55 305.3 307.78 293.92 307.78 293.63 299.55"/>
            <polygon class="cls-62" points="309.14 299.55 320.51 299.55 320.8 307.78 309.42 307.78 309.14 299.55"/>
            <polygon class="cls-20" points="324.97 299.55 336.34 299.55 336.63 307.78 325.25 307.78 324.97 299.55"/>
          </g>
        </g>
        <g>
          <g>
            <path class="cls-59" d="m216.16,193.16l2.95-.29c.85,3.38,1.75,6.87,1.75,6.87,0,0,12.1,7.52,24.94-2.1l1.1-7.46,3.33-.32.9-15.85-4.73.46c.29-1.14.69-2.38,1.21-3.71l-33.15.18c1.22,2.1,2.25,4.21,2.99,6.33l-5.28.51,3.99,15.37Z"/>
            <g>
              <path class="cls-78" d="m233.65,169.85l28.58-2.77s-7.08-9.41,11.94-32.36c17.34-20.92.28-66.22-32.6-62.37-27.8,3.26-36.56,29.57-34,45.75,2.56,16.17,29.85,33.44,26.07,51.75Z"/>
              <path class="cls-42" d="m273.15,104.53s-4.75-21.89-19.72-26.16l-7.69,6.46s15.33,4.77,22.99,22.82l4.43-3.12Z"/>
              <path class="cls-42" d="m269.87,110.97l4.8-2.25s1.83,4.66.96,9.87l-4.49-.08-1.27-7.54Z"/>
              <g>
                <rect class="cls-42" x="233.48" y="143.61" width="48.22" height="1.28" transform="translate(69.04 371.43) rotate(-79.56)"/>
                <rect class="cls-42" x="235.62" y="124.95" width="1.28" height="45.05" transform="translate(-33.67 78.88) rotate(-17.71)"/>
                <path class="cls-42" d="m232.38,138.76c-2.59.25-4.41-.41-5.61-1.15-1.99-1.24-2.82-3.08-2.92-4.29-.17-2.05.94-3.82,2.98-4.75,2.24-1.02,4.89-.7,6.31.75l-.92.89c-1.03-1.06-3.12-1.27-4.86-.48-.73.33-2.42,1.35-2.24,3.48.08.98.83,2.38,2.32,3.31,1.52.95,4.26,1.71,8.7-.02,1.17-.45,2.08-1.15,2.79-1.97-2.15-1.2-3.9-3.49-4.96-6.66-1.67-4.95-1.33-11.53,1.84-13.42.88-.53,1.86-.5,2.77.07,2.71,1.71,4.61,8.1,4.08,13.66-.22,2.28-.82,4.23-1.76,5.8.75.21,1.59.29,2.51.18,2.09-.23,4.08-1.56,5.81-3.48-1.34-3.84-1.51-9-.83-13.01.84-4.96,2.81-7.76,5.29-7.51,1.11.11,2.98.92,3,5.03.02,4.29-2.25,11.2-5.98,15.74.84,2.02,2.03,3.45,3.55,3.82,5.07,1.21,10.49-3.03,12.15-6.6.46-1,1.02-2.82-.39-3.86-.91-.67-1.85-.91-2.87-.73-2.78.48-5.1,3.84-5.12,3.87l-1.06-.72c.11-.16,2.65-3.85,5.96-4.41,1.36-.23,2.66.09,3.84.96,1.57,1.15,1.85,3.13.79,5.42-1.84,3.97-7.9,8.66-13.6,7.3-1.87-.45-3.24-1.94-4.2-3.99-1.81,1.88-3.9,3.18-6.2,3.44-1.2.15-2.33,0-3.4-.37-.95,1.18-2.13,2.07-3.53,2.61-1.59.62-3,.95-4.23,1.07Zm4.63-23.4c-.18.02-.37.08-.55.19-2.31,1.38-2.92,7.06-1.28,11.92.53,1.59,1.87,4.66,4.51,6.05,1.15-1.83,1.55-3.97,1.7-5.44.52-5.45-1.45-11.17-3.49-12.46-.31-.19-.6-.28-.88-.25Zm16.21-3.92c-1.57.15-2.92,2.57-3.58,6.46-.66,3.91-.45,8.29.54,11.62,3.14-4.12,5.22-10.1,5.2-14.31,0-1.34-.25-3.61-1.85-3.77-.11-.01-.22-.01-.32,0Z"/>
              </g>
              <path class="cls-10" d="m232.85,168.63c.05.51,3.26,13.06,3.26,13.06,0,0,12.1,7.52,24.94-2.1l2.69-18.28-30.89,7.32Z"/>
              <polygon class="cls-87" points="227.42 159.73 266.39 155.96 265.48 171.8 231.42 175.1 227.42 159.73"/>
            </g>
          </g>
          <g>
            <rect class="cls-42" x="224.12" y="46.31" width="1.28" height="21.47" transform="translate(-2.39 103.65) rotate(-25.84)"/>
            <rect class="cls-42" x="195.68" y="73.51" width="1.28" height="23.9" transform="translate(79.12 264.64) rotate(-80.34)"/>
            <rect class="cls-42" x="190.93" y="125.95" width="13.48" height="1.28" transform="translate(-34.85 94.44) rotate(-24.76)"/>
            <rect class="cls-42" x="259.15" y="55.3" width="26.96" height="1.28" transform="translate(87.43 263.68) rotate(-59.88)"/>
            <rect class="cls-42" x="287.28" y="93.31" width="18.06" height="1.28" transform="translate(-9.58 38.67) rotate(-7.35)"/>
            <rect class="cls-42" x="297.27" y="119.45" width="1.28" height="12.93" transform="translate(126.16 399.97) rotate(-80.83)"/>
          </g>
        </g>
        <g>
          <path class="cls-65" d="m167.23,117.32l8.47,1.53-5.86,6.31c-2.01,2.16-3.35,4.86-3.88,7.76l-1.53,8.47-6.31-5.86c-2.16-2.01-4.86-3.35-7.76-3.88l-8.47-1.53,5.86-6.31c2.01-2.16,3.35-4.86,3.88-7.76l1.53-8.47,6.31,5.86c2.16,2.01,4.86,3.35,7.76,3.88Z"/>
          <path class="cls-23" d="m488.28,246.35l3.46,3.57-4.87.99c-1.67.34-3.21,1.15-4.43,2.33l-3.57,3.46-.99-4.87c-.34-1.67-1.15-3.21-2.33-4.43l-3.46-3.57,4.87-.99c1.67-.34,3.21-1.15,4.43-2.33l3.57-3.46.99,4.87c.34,1.67,1.15,3.21,2.33,4.43Z"/>
          <path class="cls-93" d="m113.14,331.1l4.92.74-3.28,3.74c-1.12,1.28-1.86,2.86-2.11,4.55l-.74,4.92-3.74-3.28c-1.28-1.12-2.86-1.86-4.55-2.11l-4.92-.74,3.28-3.74c1.12-1.28,1.86-2.86,2.11-4.55l.74-4.92,3.74,3.28c1.28,1.12,2.86,1.86,4.55,2.11Z"/>
        </g>
      </g>
    </g>
  </g>
</svg>