<svg width="20" height="20" viewBox="0 0 20 20" fill="none" xmlns="http://www.w3.org/2000/svg">
<path fill-rule="evenodd" clip-rule="evenodd" d="M4.06457 2.35517C4.50536 1.91438 5.10321 1.66675 5.72658 1.66675C6.34995 1.66675 6.94779 1.91438 7.38858 2.35517C7.82937 2.79596 8.077 3.3938 8.077 4.01718C8.077 4.64055 7.82937 5.23839 7.38858 5.67918C6.94779 6.11997 6.34995 6.3676 5.72658 6.3676C5.10321 6.3676 4.50536 6.11997 4.06457 5.67918C3.62378 5.23839 3.37615 4.64055 3.37615 4.01718C3.37615 3.3938 3.62378 2.79596 4.06457 2.35517ZM5.72658 2.9488C5.44323 2.9488 5.17148 3.06136 4.97112 3.26172C4.77076 3.46208 4.6582 3.73382 4.6582 4.01718C4.6582 4.30053 4.77076 4.57227 4.97112 4.77263C5.17148 4.97299 5.44323 5.08555 5.72658 5.08555C6.00993 5.08555 6.28167 4.97299 6.48203 4.77263C6.68239 4.57227 6.79495 4.30053 6.79495 4.01718C6.79495 3.73382 6.68239 3.46208 6.48203 3.26172C6.28167 3.06136 6.00993 2.9488 5.72658 2.9488ZM12.6116 2.35517C13.0524 1.91438 13.6502 1.66675 14.2736 1.66675C14.897 1.66675 15.4948 1.91438 15.9356 2.35517C16.3764 2.79596 16.624 3.3938 16.624 4.01718C16.624 4.64055 16.3764 5.23839 15.9356 5.67918C15.4948 6.11997 14.897 6.3676 14.2736 6.3676C13.6502 6.3676 13.0524 6.11997 12.6116 5.67918C12.1708 5.23839 11.9232 4.64055 11.9232 4.01718C11.9232 3.3938 12.1708 2.79596 12.6116 2.35517ZM14.2736 2.9488C13.9902 2.9488 13.7185 3.06136 13.5181 3.26172C13.3178 3.46208 13.2052 3.73382 13.2052 4.01718C13.2052 4.30053 13.3178 4.57227 13.5181 4.77263C13.7185 4.97299 13.9902 5.08555 14.2736 5.08555C14.5569 5.08555 14.8287 4.97299 15.029 4.77263C15.2294 4.57227 15.342 4.30053 15.342 4.01718C15.342 3.73382 15.2294 3.46208 15.029 3.26172C14.8287 3.06136 14.5569 2.9488 14.2736 2.9488ZM10.0001 8.50436C9.37671 8.50436 8.77887 8.75199 8.33808 9.19278C7.89729 9.63357 7.64965 10.2314 7.64965 10.8548C7.64965 11.4782 7.89729 12.076 8.33808 12.5168C8.77887 12.9576 9.37671 13.2052 10.0001 13.2052C10.6235 13.2052 11.2213 12.9576 11.6621 12.5168C12.1029 12.076 12.3505 11.4782 12.3505 10.8548C12.3505 10.2314 12.1029 9.63357 11.6621 9.19278C11.2213 8.75199 10.6235 8.50436 10.0001 8.50436ZM9.24463 10.0993C9.44499 9.89897 9.71673 9.78641 10.0001 9.78641C10.2834 9.78641 10.5552 9.89897 10.7555 10.0993C10.9559 10.2997 11.0685 10.5714 11.0685 10.8548C11.0685 11.1381 10.9559 11.4099 10.7555 11.6102C10.5552 11.8106 10.2834 11.9232 10.0001 11.9232C9.71673 11.9232 9.44499 11.8106 9.24463 11.6102C9.04427 11.4099 8.93171 11.1381 8.93171 10.8548C8.93171 10.5714 9.04427 10.2997 9.24463 10.0993ZM7.53522 16.0822C7.73558 15.8819 8.00733 15.7693 8.29068 15.7693H11.7095C11.9928 15.7693 12.2646 15.8819 12.4649 16.0822C12.6653 16.2826 12.7779 16.5543 12.7779 16.8377V17.6924C12.7779 18.0464 13.0649 18.3334 13.4189 18.3334C13.7729 18.3334 14.0599 18.0464 14.0599 17.6924V16.8377C14.0599 16.2143 13.8123 15.6165 13.3715 15.1757C12.9307 14.7349 12.3329 14.4873 11.7095 14.4873H8.29068C7.66731 14.4873 7.06947 14.7349 6.62868 15.1757C6.18789 15.6165 5.94025 16.2143 5.94025 16.8377V17.6924C5.94025 18.0464 6.22725 18.3334 6.58128 18.3334C6.93531 18.3334 7.2223 18.0464 7.2223 17.6924V16.8377C7.2223 16.5543 7.33486 16.2826 7.53522 16.0822ZM14.2736 7.64965C13.9196 7.64965 13.6326 7.93665 13.6326 8.29068C13.6326 8.64471 13.9196 8.93171 14.2736 8.93171H15.983C16.2663 8.93171 16.5381 9.04427 16.7384 9.24463C16.9388 9.44499 17.0514 9.71673 17.0514 10.0001V10.8548C17.0514 11.2088 17.3384 11.4958 17.6924 11.4958C18.0464 11.4958 18.3334 11.2088 18.3334 10.8548V10.0001C18.3334 9.37671 18.0858 8.77887 17.645 8.33808C17.2042 7.89729 16.6064 7.64965 15.983 7.64965H14.2736ZM3.26172 9.24463C3.46208 9.04427 3.73382 8.93171 4.01718 8.93171H5.72658C6.08061 8.93171 6.3676 8.64471 6.3676 8.29068C6.3676 7.93665 6.08061 7.64965 5.72658 7.64965H4.01718C3.3938 7.64965 2.79596 7.89729 2.35517 8.33808C1.91438 8.77887 1.66675 9.37671 1.66675 10.0001V10.8548C1.66675 11.2088 1.95375 11.4958 2.30777 11.4958C2.6618 11.4958 2.9488 11.2088 2.9488 10.8548V10.0001C2.9488 9.71673 3.06136 9.44499 3.26172 9.24463Z" fill="#222D68"/>
</svg>
