<svg width="18" height="18" viewBox="0 0 18 18" fill="none" xmlns="http://www.w3.org/2000/svg">
<path fill-rule="evenodd" clip-rule="evenodd" d="M8.59207 1.66898C8.81737 1.44367 9.18266 1.44367 9.40796 1.66898L16.331 8.59205C16.496 8.75705 16.5454 9.0052 16.4561 9.22078C16.3668 9.43636 16.1564 9.57692 15.9231 9.57692H14.9616V14.3846C14.9616 14.9457 14.7387 15.4837 14.342 15.8804C13.9453 16.2771 13.4072 16.5 12.8462 16.5H11.3077H6.69233H5.15386C4.59283 16.5 4.05477 16.2771 3.65806 15.8804C3.26135 15.4837 3.03848 14.9457 3.03848 14.3846V9.57692H2.07694C1.8436 9.57692 1.63323 9.43636 1.54393 9.22078C1.45464 9.0052 1.50399 8.75705 1.66899 8.59205L8.59207 1.66898ZM7.26925 15.3462H10.7308V11.3077C10.7308 11.0527 10.6295 10.8081 10.4492 10.6278C10.2688 10.4475 10.0243 10.3462 9.76925 10.3462H8.23079C7.97577 10.3462 7.7312 10.4475 7.55088 10.6278C7.37055 10.8081 7.26925 11.0527 7.26925 11.3077V15.3462ZM11.8846 15.3462V11.3077C11.8846 10.7467 11.6618 10.2086 11.2651 9.81189C10.8683 9.41518 10.3303 9.19231 9.76925 9.19231H8.23079C7.66975 9.19231 7.1317 9.41518 6.73498 9.81189C6.33827 10.2086 6.1154 10.7467 6.1154 11.3077V15.3462H5.15386C4.89885 15.3462 4.65428 15.2448 4.47395 15.0645C4.29363 14.8842 4.19233 14.6396 4.19233 14.3846L4.19232 9C4.19232 8.68137 3.93403 8.42308 3.6154 8.42308H3.46976L9.00002 2.89282L14.5303 8.42308H14.3846C14.066 8.42308 13.8077 8.68137 13.8077 9V14.3846C13.8077 14.6396 13.7064 14.8842 13.5261 15.0645C13.3458 15.2448 13.1012 15.3462 12.8462 15.3462H11.8846Z" fill="#9E9E9E"/>
</svg>
