<svg width="20" height="20" viewBox="0 0 20 20" fill="none" xmlns="http://www.w3.org/2000/svg">
<path fill-rule="evenodd" clip-rule="evenodd" d="M6.19044 3.09556C5.36953 3.09556 4.58224 3.42167 4.00177 4.00214C3.4213 4.58261 3.0952 5.36989 3.0952 6.1908V13.8098C3.0952 14.6308 3.4213 15.418 4.00177 15.9985C4.58224 16.579 5.36953 16.9051 6.19044 16.9051H13.8095C14.6304 16.9051 15.4177 16.579 15.9981 15.9985C16.5786 15.418 16.9047 14.6308 16.9047 13.8098V6.1908C16.9047 5.36989 16.5786 4.58261 15.9981 4.00214C15.4177 3.42167 14.6304 3.09556 13.8095 3.09556H6.19044ZM2.99162 2.99199C3.84 2.14361 4.99065 1.66699 6.19044 1.66699H13.8095C15.0093 1.66699 16.1599 2.14361 17.0083 2.99199C17.8567 3.84036 18.3333 4.99101 18.3333 6.1908V13.8098C18.3333 15.0096 17.8567 16.1603 17.0083 17.0087C16.1599 17.857 15.0093 18.3337 13.8095 18.3337H6.19044C4.99065 18.3337 3.84 17.857 2.99162 17.0087C2.14324 16.1603 1.66663 15.0096 1.66663 13.8098V6.1908C1.66663 4.99101 2.14324 3.84036 2.99162 2.99199ZM7.47458 7.47494C8.14435 6.80517 9.05276 6.4289 9.99996 6.4289C10.9472 6.4289 11.8556 6.80517 12.5253 7.47494C13.1951 8.14472 13.5714 9.05312 13.5714 10.0003C13.5714 10.9475 13.1951 11.8559 12.5253 12.5257C11.8556 13.1955 10.9472 13.5718 9.99996 13.5718C9.05276 13.5718 8.14435 13.1955 7.47458 12.5257C6.80481 11.8559 6.42853 10.9475 6.42853 10.0003C6.42853 9.05312 6.80481 8.14472 7.47458 7.47494ZM9.99996 7.85747C9.43164 7.85747 8.88659 8.08323 8.48473 8.4851C8.08287 8.88696 7.8571 9.432 7.8571 10.0003C7.8571 10.5686 8.08287 11.1137 8.48473 11.5156C8.88659 11.9174 9.43164 12.1432 9.99996 12.1432C10.5683 12.1432 11.1133 11.9174 11.5152 11.5156C11.9171 11.1137 12.1428 10.5686 12.1428 10.0003C12.1428 9.432 11.9171 8.88696 11.5152 8.4851C11.1133 8.08323 10.5683 7.85747 9.99996 7.85747ZM15 5.71461C15 5.32012 14.6802 5.00033 14.2857 5.00033C13.8912 5.00033 13.5714 5.32012 13.5714 5.71461V5.72414C13.5714 6.11862 13.8912 6.43842 14.2857 6.43842C14.6802 6.43842 15 6.11862 15 5.72414V5.71461Z" fill="#222D68"/>
</svg>
