<svg width="20" height="20" viewBox="0 0 20 20" fill="none" xmlns="http://www.w3.org/2000/svg">
<g id="icon/logout">
<path id="Union" fill-rule="evenodd" clip-rule="evenodd" d="M2.35517 3.18842C2.79596 2.74763 3.3938 2.5 4.01718 2.5H10.0001C10.6235 2.5 11.2213 2.74763 11.6621 3.18842C12.1029 3.62921 12.3505 4.22706 12.3505 4.85043V6.55983C12.3505 6.91386 12.0635 7.20086 11.7095 7.20086C11.3555 7.20086 11.0685 6.91386 11.0685 6.55983V4.85043C11.0685 4.56708 10.9559 4.29533 10.7555 4.09497C10.5552 3.89461 10.2834 3.78205 10.0001 3.78205H4.01718C3.73382 3.78205 3.46208 3.89461 3.26172 4.09497C3.06136 4.29533 2.9488 4.56708 2.9488 4.85043V15.1068C2.9488 15.3902 3.06136 15.6619 3.26172 15.8623C3.46208 16.0627 3.73382 16.1752 4.01718 16.1752H10.0001C10.2834 16.1752 10.5552 16.0627 10.7555 15.8623C10.9559 15.6619 11.0685 15.3902 11.0685 15.1068V13.3974C11.0685 13.0434 11.3555 12.7564 11.7095 12.7564C12.0635 12.7564 12.3505 13.0434 12.3505 13.3974V15.1068C12.3505 15.7302 12.1029 16.3281 11.6621 16.7688C11.2213 17.2096 10.6235 17.4573 10.0001 17.4573H4.01718C3.3938 17.4573 2.79596 17.2096 2.35517 16.7688C1.91438 16.3281 1.66675 15.7302 1.66675 15.1068V4.85043C1.66675 4.22706 1.91438 3.62921 2.35517 3.18842ZM14.675 6.96126C14.9254 6.71092 15.3312 6.71092 15.5816 6.96126L18.1457 9.52536C18.3848 9.76447 18.3955 10.1455 18.1778 10.3973C18.1665 10.4105 18.1546 10.4232 18.1422 10.4353L15.5816 12.996C15.3312 13.2463 14.9254 13.2463 14.675 12.996C14.4247 12.7457 14.4247 12.3398 14.675 12.0895L16.1448 10.6197H7.43598C7.08195 10.6197 6.79495 10.3327 6.79495 9.97863C6.79495 9.6246 7.08195 9.33761 7.43598 9.33761H16.1448L14.675 7.8678C14.4247 7.61747 14.4247 7.21159 14.675 6.96126Z" fill="#5B5B5B"/>
</g>
</svg>
