<?xml version="1.0" encoding="UTF-8"?>
<svg xmlns="http://www.w3.org/2000/svg" xmlns:xlink="http://www.w3.org/1999/xlink" viewBox="0 0 160 160">
  <defs>
    <style>
      .cls-1 {
        fill: url(#New_swatch_448-6);
      }

      .cls-1, .cls-2, .cls-3, .cls-4, .cls-5, .cls-6, .cls-7, .cls-8, .cls-9, .cls-10, .cls-11, .cls-12, .cls-13, .cls-14, .cls-15, .cls-16, .cls-17, .cls-18, .cls-19, .cls-20, .cls-21, .cls-22, .cls-23, .cls-24, .cls-25, .cls-26, .cls-27, .cls-28, .cls-29, .cls-30, .cls-31, .cls-32, .cls-33, .cls-34, .cls-35, .cls-36, .cls-37, .cls-38, .cls-39, .cls-40, .cls-41, .cls-42, .cls-43 {
        stroke-width: 0px;
      }

      .cls-2, .cls-6 {
        fill: url(#New_swatch_379);
      }

      .cls-3 {
        fill: url(#linear-gradient-7);
      }

      .cls-3, .cls-4, .cls-8, .cls-12, .cls-17, .cls-18, .cls-20, .cls-33 {
        mix-blend-mode: screen;
      }

      .cls-3, .cls-18, .cls-33 {
        opacity: .83;
      }

      .cls-4 {
        fill: url(#New_swatch_432-2);
      }

      .cls-44, .cls-35 {
        fill: #fcf2eb;
      }

      .cls-5 {
        fill: url(#New_swatch_241-2);
      }

      .cls-6, .cls-21, .cls-27, .cls-28, .cls-30, .cls-37, .cls-40 {
        mix-blend-mode: multiply;
      }

      .cls-7 {
        fill: url(#New_swatch_241-5);
      }

      .cls-8 {
        fill: #e5f0ff;
        opacity: .56;
      }

      .cls-9 {
        fill: url(#New_swatch_457-5);
      }

      .cls-10 {
        fill: url(#New_swatch_432);
      }

      .cls-11 {
        fill: url(#New_swatch_448-2);
      }

      .cls-45 {
        isolation: isolate;
      }

      .cls-12 {
        fill: url(#New_swatch_432-5);
      }

      .cls-13 {
        fill: url(#New_swatch_448-4);
      }

      .cls-14 {
        fill: url(#New_swatch_432-4);
      }

      .cls-15 {
        fill: url(#linear-gradient-5);
      }

      .cls-16 {
        fill: url(#New_swatch_241);
      }

      .cls-17 {
        fill: url(#New_swatch_316-2);
      }

      .cls-17, .cls-20 {
        opacity: .39;
      }

      .cls-18 {
        fill: url(#linear-gradient-6);
      }

      .cls-19 {
        fill: #fff;
      }

      .cls-20 {
        fill: url(#New_swatch_316);
      }

      .cls-21 {
        fill: url(#New_swatch_432-6);
      }

      .cls-21, .cls-37 {
        opacity: .68;
      }

      .cls-22 {
        fill: url(#linear-gradient-2);
      }

      .cls-23 {
        fill: url(#New_swatch_241-4);
      }

      .cls-24 {
        fill: url(#New_swatch_379-2);
      }

      .cls-25 {
        fill: url(#New_swatch_448);
      }

      .cls-26 {
        fill: url(#linear-gradient-3);
      }

      .cls-27 {
        fill: url(#linear-gradient);
      }

      .cls-46 {
        clip-path: url(#clippath);
      }

      .cls-28 {
        fill: url(#New_swatch_379-3);
        opacity: .83;
      }

      .cls-29 {
        fill: url(#New_swatch_448-5);
      }

      .cls-30 {
        fill: url(#New_swatch_451-2);
      }

      .cls-31 {
        fill: url(#New_swatch_457-4);
      }

      .cls-32 {
        fill: url(#New_swatch_448-7);
      }

      .cls-33 {
        fill: url(#linear-gradient-8);
      }

      .cls-34 {
        fill: url(#New_swatch_379-4);
      }

      .cls-36 {
        fill: url(#New_swatch_457);
      }

      .cls-37 {
        fill: url(#New_swatch_432-3);
      }

      .cls-38 {
        fill: url(#New_swatch_457-2);
      }

      .cls-39 {
        fill: url(#linear-gradient-4);
      }

      .cls-40 {
        fill: url(#New_swatch_451);
      }

      .cls-41 {
        fill: url(#New_swatch_448-3);
      }

      .cls-42 {
        fill: url(#New_swatch_457-3);
      }

      .cls-43 {
        fill: url(#New_swatch_241-3);
      }
    </style>
    <clipPath id="clippath">
      <circle class="cls-35" cx="80" cy="79.57" r="116"/>
    </clipPath>
    <linearGradient id="New_swatch_379" data-name="New swatch 379" x1="262.89" y1="-22.28" x2="258.44" y2="12.5" gradientTransform="translate(-177.82 111.7) rotate(-2.57)" gradientUnits="userSpaceOnUse">
      <stop offset="0" stop-color="#febd3e"/>
      <stop offset=".09" stop-color="#febd3e"/>
      <stop offset="1" stop-color="#f29242"/>
    </linearGradient>
    <linearGradient id="New_swatch_241" data-name="New swatch 241" x1="292.58" y1="-27.18" x2="284.28" y2="-12.47" gradientTransform="translate(-177.82 111.7) rotate(-2.57)" gradientUnits="userSpaceOnUse">
      <stop offset="0" stop-color="#ffceaa"/>
      <stop offset="1" stop-color="#f69e80"/>
    </linearGradient>
    <linearGradient id="New_swatch_451" data-name="New swatch 451" x1="291.52" y1="-22.91" x2="283.51" y2="-12.93" gradientTransform="translate(-177.82 111.7) rotate(-2.57)" gradientUnits="userSpaceOnUse">
      <stop offset="0" stop-color="#ffceaa" stop-opacity="0"/>
      <stop offset="1" stop-color="#f69e80"/>
    </linearGradient>
    <linearGradient id="New_swatch_241-2" data-name="New swatch 241" x1="223.71" y1="-29.91" x2="234.65" y2="-17.44" xlink:href="#New_swatch_241"/>
    <linearGradient id="New_swatch_241-3" data-name="New swatch 241" x1="234.54" y1="-23.31" x2="235.72" y2="-21.96" xlink:href="#New_swatch_241"/>
    <linearGradient id="New_swatch_451-2" data-name="New swatch 451" x1="234" y1="-23.07" x2="228.95" y2="-16.79" xlink:href="#New_swatch_451"/>
    <linearGradient id="New_swatch_241-4" data-name="New swatch 241" x1="258.17" y1="60.41" x2="258.17" y2="14.57" xlink:href="#New_swatch_241"/>
    <linearGradient id="linear-gradient" x1="258.89" y1=".82" x2="257.29" y2="47.44" gradientTransform="translate(-177.82 111.7) rotate(-2.57)" gradientUnits="userSpaceOnUse">
      <stop offset="0" stop-color="#ffceaa"/>
      <stop offset=".27" stop-color="#fdc7a4"/>
      <stop offset=".65" stop-color="#fab493"/>
      <stop offset="1" stop-color="#f69e80"/>
    </linearGradient>
    <linearGradient id="linear-gradient-2" x1="261.09" y1="-51.98" x2="255.76" y2="103.33" xlink:href="#linear-gradient"/>
    <linearGradient id="linear-gradient-3" x1="270.79" y1="-19.99" x2="274.83" y2="-35.22" xlink:href="#linear-gradient"/>
    <linearGradient id="linear-gradient-4" x1="245.95" y1="-21.66" x2="246.98" y2="-39.81" xlink:href="#linear-gradient"/>
    <linearGradient id="New_swatch_457" data-name="New swatch 457" x1="279.75" y1="-38.12" x2="266.84" y2="-28.91" gradientTransform="translate(-177.82 111.7) rotate(-2.57)" gradientUnits="userSpaceOnUse">
      <stop offset="0" stop-color="#2f84a8"/>
      <stop offset="1" stop-color="#003d55"/>
    </linearGradient>
    <linearGradient id="New_swatch_457-2" data-name="New swatch 457" x1="231.66" y1="-21.65" x2="234.58" y2="-52.32" xlink:href="#New_swatch_457"/>
    <linearGradient id="New_swatch_457-3" data-name="New swatch 457" x1="284.5" y1="-14.98" x2="290.03" y2="-46.47" xlink:href="#New_swatch_457"/>
    <linearGradient id="New_swatch_448" data-name="New swatch 448" x1="284.61" y1="-26.5" x2="285.05" y2="-24.12" gradientTransform="translate(-177.82 111.7) rotate(-2.57)" gradientUnits="userSpaceOnUse">
      <stop offset="0" stop-color="#3d3535"/>
      <stop offset="1" stop-color="#1c1c1c"/>
    </linearGradient>
    <linearGradient id="New_swatch_448-2" data-name="New swatch 448" x1="232.3" y1="-29.77" x2="232.92" y2="-26.49" xlink:href="#New_swatch_448"/>
    <linearGradient id="New_swatch_241-5" data-name="New swatch 241" x1="259.48" y1="-32.61" x2="258.24" y2="-9.91" xlink:href="#New_swatch_241"/>
    <linearGradient id="New_swatch_432" data-name="New swatch 432" x1="267.71" y1="-22.57" x2="275.49" y2="-22.57" gradientTransform="translate(-177.82 111.7) rotate(-2.57)" gradientUnits="userSpaceOnUse">
      <stop offset="0" stop-color="#715675"/>
      <stop offset="1" stop-color="#39263a"/>
    </linearGradient>
    <linearGradient id="New_swatch_432-2" data-name="New swatch 432" x1="-1604.7" y1="433.22" x2="-1611.08" y2="431.64" gradientTransform="translate(-1399.38 -661.18) rotate(-168.69) scale(1 -1)" xlink:href="#New_swatch_432"/>
    <linearGradient id="New_swatch_432-3" data-name="New swatch 432" x1="-1605.82" y1="431.33" x2="-1609.42" y2="430.44" gradientTransform="translate(-1399.38 -661.18) rotate(-168.69) scale(1 -1)" xlink:href="#New_swatch_432"/>
    <linearGradient id="New_swatch_448-3" data-name="New swatch 448" x1="272.45" y1="-27.49" x2="273.85" y2="-20.05" xlink:href="#New_swatch_448"/>
    <linearGradient id="New_swatch_432-4" data-name="New swatch 432" x1="4926.2" y1="297.8" x2="4918.5" y2="296.74" gradientTransform="translate(4995.63 233.93) rotate(-174.71) scale(1 -1)" xlink:href="#New_swatch_432"/>
    <linearGradient id="New_swatch_432-5" data-name="New swatch 432" x1="-6202.85" y1="-372.22" x2="-6196.29" y2="-371.52" gradientTransform="translate(6252.58 -479.96) rotate(-8.58)" xlink:href="#New_swatch_432"/>
    <linearGradient id="New_swatch_432-6" data-name="New swatch 432" x1="-6201.28" y1="-373.83" x2="-6197.58" y2="-373.44" gradientTransform="translate(6252.58 -479.96) rotate(-8.58)" xlink:href="#New_swatch_432"/>
    <linearGradient id="New_swatch_379-2" data-name="New swatch 379" x1="6.79" y1="154.25" x2="6.79" y2="154.38" gradientTransform="matrix(1,0,0,1,0,0)" xlink:href="#New_swatch_379"/>
    <linearGradient id="linear-gradient-5" x1="256.22" y1="-37.96" x2="256.22" y2="68.05" gradientTransform="translate(-177.82 111.7) rotate(-2.57)" gradientUnits="userSpaceOnUse">
      <stop offset="0" stop-color="#febd3e"/>
      <stop offset=".09" stop-color="#febd3e"/>
      <stop offset=".81" stop-color="#f29242"/>
    </linearGradient>
    <linearGradient id="New_swatch_379-3" data-name="New swatch 379" x1="257.47" y1="9.13" x2="257.47" y2="41.04" xlink:href="#New_swatch_379"/>
    <linearGradient id="New_swatch_448-4" data-name="New swatch 448" x1="4923.23" y1="292.25" x2="4924.63" y2="299.69" gradientTransform="translate(4995.63 233.93) rotate(-174.71) scale(1 -1)" xlink:href="#New_swatch_448"/>
    <linearGradient id="New_swatch_457-4" data-name="New swatch 457" x1="49.14" y1="-54.99" x2="63.06" y2="-44.83" gradientTransform="translate(16.73 113.3) rotate(-2.81) scale(.93 1) skewX(-.51)" xlink:href="#New_swatch_457"/>
    <linearGradient id="New_swatch_457-5" data-name="New swatch 457" x1="263.47" y1="-76.7" x2="259.03" y2="-39.99" xlink:href="#New_swatch_457"/>
    <linearGradient id="linear-gradient-6" x1="252.32" y1="-84.9" x2="246.03" y2="-49.38" gradientTransform="translate(-177.82 111.7) rotate(-2.57)" gradientUnits="userSpaceOnUse">
      <stop offset="0" stop-color="#2f84a8"/>
      <stop offset="1" stop-color="#003d55" stop-opacity="0"/>
    </linearGradient>
    <linearGradient id="linear-gradient-7" x1="274.89" y1="-75.41" x2="268.52" y2="-45.33" gradientTransform="translate(-177.82 111.7) rotate(-2.57)" gradientUnits="userSpaceOnUse">
      <stop offset="0" stop-color="#2f84a8"/>
      <stop offset="1" stop-color="#003d55" stop-opacity=".01"/>
    </linearGradient>
    <linearGradient id="linear-gradient-8" x1="285.44" y1="-61.99" x2="285.44" y2="-44.41" xlink:href="#linear-gradient-6"/>
    <linearGradient id="New_swatch_379-4" data-name="New swatch 379" x1="257.2" y1="22.93" x2="257.2" y2="68.57" xlink:href="#New_swatch_379"/>
    <linearGradient id="New_swatch_316" data-name="New swatch 316" x1="158.17" y1="956.19" x2="172.4" y2="956.19" gradientTransform="translate(-41 -1036.26) rotate(3.04) scale(1.17 1.15)" gradientUnits="userSpaceOnUse">
      <stop offset="0" stop-color="#d3d5f2"/>
      <stop offset=".01" stop-color="#d1d4f1"/>
      <stop offset=".36" stop-color="#bbc3e6"/>
      <stop offset=".7" stop-color="#aeb9df"/>
      <stop offset="1" stop-color="#aab6dd"/>
    </linearGradient>
    <linearGradient id="New_swatch_316-2" data-name="New swatch 316" x1="135.06" y1="957.17" x2="149.28" y2="957.17" xlink:href="#New_swatch_316"/>
    <linearGradient id="New_swatch_448-5" data-name="New swatch 448" x1="139.1" y1="41.73" x2="143.88" y2="63.12" gradientTransform="translate(-48.94 25.72) rotate(-.61)" xlink:href="#New_swatch_448"/>
    <linearGradient id="New_swatch_448-6" data-name="New swatch 448" x1="243.52" y1="-35.48" x2="247.57" y2="-13.94" xlink:href="#New_swatch_448"/>
    <linearGradient id="New_swatch_448-7" data-name="New swatch 448" x1="128.03" y1="47.5" x2="128.63" y2="50.17" gradientTransform="translate(-48.94 25.72) rotate(-.61)" xlink:href="#New_swatch_448"/>
  </defs>
  <g class="cls-45">
    <g id="katman_1" data-name="katman 1">
      <g>
        <circle class="cls-44" cx="80" cy="79.57" r="116"/>
        <g class="cls-46">
          <g>
            <path class="cls-2" d="m57.31,112.78c15.68-2.66,31.54-2.04,47.11,1.23-4.72,4.87-9.66,9.9-16.03,12.22-4.6,1.68-9.64,1.82-14.5,1.2-3.8-.48-7.62-1.44-10.83-3.51s-5.47-5.69-5.74-11.14Z"/>
            <path class="cls-6" d="m57.31,112.78c15.68-2.66,31.54-2.04,47.11,1.23-4.72,4.87-9.66,9.9-16.03,12.22-4.6,1.68-9.64,1.82-14.5,1.2-3.8-.48-7.62-1.44-10.83-3.51s-5.47-5.69-5.74-11.14Z"/>
            <path class="cls-16" d="m104.24,83.81c1.5-4.17,3.13-12.29,6.02-11.56,2.17.84,3.26,3.89,2.91,6.49s-1.78,4.81-3.28,6.78c-1.82,2.39-3.82,4.6-5.97,6.6.55-2.75,1.1-5.51.32-8.31Z"/>
            <path class="cls-40" d="m104.91,82.37c1.94-2.61,4.04-5.11,6.29-7.47-.03.84-.07,1.67-.1,2.51-1.38.85-2.63,1.94-3.66,3.2,1.15-1.06,2.52-1.87,3.99-2.38-.91,2.92-1.95,6.05-4.41,7.87-.52.39-1.27.69-1.79.3-.3-.23-.41-.63-.47-1-.21-1.31-.07-2.73.15-3.02Z"/>
            <path class="cls-5" d="m56.67,80.15c-.87-1-1.2-2.26-1.57-3.46s-.83-2.45-1.86-3.33-2.82-1.27-4.05-.55c-1.04.61-1.36,1.77-1.49,2.82-.36,2.91.11,5.91,1.59,8.54,1.48,2.63,4,4.86,7.16,6.07.41.16.91.29,1.3.09.48-.25.46-.83.38-1.3-.64-3.74-1.28-7.49-1.92-11.23l.46,2.36Z"/>
            <path class="cls-43" d="m56.68,80.15s-.05-.06-.07-.09c-.13-.76-.26-1.52-.39-2.27l.46,2.36Z"/>
            <path class="cls-30" d="m55.31,80.43c-1.74-2.17-3.66-4.24-5.74-6.16-.22,1.01-.25,2.06-.09,3.09,1.05.05,2.05.69,2.45,1.57-.75-.35-1.61-.51-2.44-.45.23,1.82.47,3.66,1.24,5.36s2.17,3.26,4.08,3.92c.4.14.89.23,1.24,0,.44-.27.42-.86.35-1.34-.38-2.33-1.04-4.63-1.08-6Z"/>
            <path class="cls-23" d="m95.22,99.52c.1,2.21.16,7.73.22,13.34.06,6.08.13,12.27.23,14.48-4.47,3-9.66,4.78-14.88,4.81-5.22.03-10.43-1.68-14.62-4.8.03-3.76.12-7.52.27-11.27.17-4.25.4-8.5.72-12.74-.02.29-.04.59-.06.88,5.23,2.96,11.13,2.1,16.54,1.16,2.21-.38,4.44-.77,6.51-1.64,2.07-.87,3.99-2.26,5.06-4.23Z"/>
            <path class="cls-27" d="m95.22,99.52c.1,2.21.16,7.73.22,13.34-.8,1.25-1.75,2.51-2.9,3.76-3.32,3.61-8.17,5.74-13.06,5.46-4.88-.28-10.25-3.79-12.95-8,.17-4.25.32-6.49.63-10.73-.02.29-.04.59-.06.88,5.23,2.96,11.13,2.1,16.54,1.16,2.21-.38,4.44-.77,6.51-1.64,2.07-.87,3.99-2.26,5.06-4.23Z"/>
            <path class="cls-22" d="m55.08,49.24c-.34,11.03-1.28,17.9-1.87,26.24-.59,8.35-.43,17.03,2.99,24.67,2.3,5.14,6.02,9.59,10.44,13.09,2.91,2.3,6.19,4.23,9.81,5,8.2,1.75,16.8-2.71,21.85-9.39,6.59-8.71,7.61-18.39,8.29-29.45.52-8.36.5-18.68,1.29-25.94,2.13-2.5.29.76-1.87-1.72-2.15-2.49-5.38-3.74-8.54-4.67-15.35-4.51-31.62-4.45-42.42,2.17Z"/>
            <path class="cls-26" d="m85.55,80.17c.16-4.28.32-8.56.47-12.85-.13.24.4.42.44.15,5.09-1.78,10.63-2.26,15.94-1.37-.19,4.12-.83,8.23-1.91,12.21-4.53.84-9.06,1.69-14.94,1.85Z"/>
            <path class="cls-39" d="m59.16,76.9c-.49-5.13-.42-10.31.22-15.43,5.33-1.56,11.4-.3,15.68,3.24.41,5.07.07,10.19-1,15.16-4.6-.89-9.2-1.79-14.9-2.98Z"/>
            <path class="cls-36" d="m84.01,70.82c.55-2.56,1.1-5.11,1.65-7.67.33,1.31.65,2.61.98,3.92l.83-3.63c3.86.42,7.77.22,11.56-.58,1.11-.24,2.4-.48,3.28.3.87.76,1.42,2.95,1.4,4.15-7.09-.79-14.89.12-19.7,3.52Z"/>
            <path class="cls-38" d="m53.05,79.33c.18-9.37-.44-18.75-1.86-28.01,2.1-.68,4.11-1.68,5.91-2.95-.71,10.36-1.86,20.68-4.05,30.96Z"/>
            <path class="cls-42" d="m106.32,83.46c-1.37-10.92-1.39-20.55.35-30.67,2.16-.45,4.32-.89,6.47-1.34-3.04,9.47-5.58,19.45-6.83,32.01Z"/>
            <path class="cls-25" d="m108.09,73.46c-.21.3-.41.64-.6,1.01-1.38.09-2.75.35-4.07.77.04-.11.07-.22.11-.33-.02-.66-.07-1.32-.12-1.98,1.56.17,3.12.35,4.68.52Z"/>
            <path class="cls-11" d="m56.24,73.86c.03.11.06.22.09.33-1-.37-2.03-.64-3.08-.82,0,0-.01-.01-.02-.02-.9-.77-2.36-1.16-3.54-.78,0-.08-.01-.16-.02-.24,2.26-.15,4.51-.29,6.77-.44-.08.65-.16,1.31-.21,1.97Z"/>
            <path class="cls-7" d="m77.72,68.97c.07,5.33.12,8.34-1.57,13.8-.51,1.63-1.37,2.77-1.16,4.61s1.85,5.79,5.16,5.81c1.89.01,4.1-3.12,4.39-5.66.19-1.68-.81-3.09-1.2-4.43-1.43-5.01-1.42-10.01-.68-15.17-1.86.02-2.57-.1-4.94,1.05Z"/>
            <path class="cls-19" d="m99.93,77.95c-1.57.98-3.31,1.68-5.17,2.11-1.15.27-2.35.43-3.59.49-1.89.09-3.88-.05-5.91-.43.93-2.5,2.4-4.8,4.29-6.69-.12.18-.24.36-.36.54.37-.12.74-.21,1.11-.28,1.63-.31,3.34-.17,4.9.39.02,0,.03.01.05.02,1.93.71,3.61,2.09,4.69,3.84Z"/>
            <g>
              <path class="cls-10" d="m96.31,77.66c-.2,1.01-.77,1.85-1.55,2.4-1.15.27-2.35.43-3.59.49-1.78-.64-2.86-2.51-2.48-4.42.2-1.03.8-1.88,1.6-2.44,1.63-.31,3.34-.17,4.9.39.93.89,1.39,2.22,1.12,3.57Z"/>
              <path class="cls-4" d="m89.27,76.25c-.36,1.79.8,3.52,2.59,3.88s3.52-.8,3.88-2.59c.02-.12.04-.25.05-.37-.36-.12-.72-.23-1.09-.34,0,.05-.01.09-.02.14-.25,1.23-1.45,2.04-2.68,1.79s-2.03-1.44-1.79-2.66c-.3-.02-.59-.03-.89-.03-.01.06-.03.12-.04.18Z"/>
              <circle class="cls-37" cx="92.58" cy="76.49" r="1.86"/>
              <ellipse class="cls-19" cx="95.22" cy="76.1" rx=".92" ry=".93" transform="translate(1.94 154.55) rotate(-78.7)"/>
            </g>
            <path class="cls-41" d="m100.27,78.15c-1.49-1.62-3.47-2.79-5.61-3.33s-4.43-.44-6.52.28c.4-.72.8-1.44,1.21-2.16,2.08.03,4.2.09,6.19.71s3.87,1.86,4.73,4.5Z"/>
            <path class="cls-19" d="m59.35,76.35c1.52,1.05,3.23,1.84,5.07,2.35,1.14.32,2.33.54,3.56.66,1.89.18,3.87.13,5.93-.14-.81-2.54-2.17-4.91-3.96-6.89.11.19.23.37.34.56-.36-.13-.73-.25-1.1-.33-1.61-.38-3.33-.33-4.91.16-.02,0-.03.01-.05.02-1.96.62-3.71,1.91-4.87,3.61Z"/>
            <g>
              <path class="cls-14" d="m62.99,76.23c.15,1.02.69,1.88,1.43,2.47,1.14.32,2.33.54,3.56.66,1.81-.56,2.98-2.37,2.69-4.29-.16-1.04-.71-1.92-1.49-2.51-1.61-.38-3.33-.33-4.91.16-.97.84-1.5,2.15-1.29,3.51Z"/>
              <path class="cls-12" d="m70.09,75.16c.27,1.8-.97,3.48-2.77,3.75-1.8.27-3.48-.97-3.75-2.77-.02-.13-.03-.25-.03-.37.36-.11.73-.2,1.1-.28,0,.05,0,.09.02.14.19,1.24,1.35,2.1,2.59,1.91s2.1-1.34,1.92-2.58c.3,0,.6,0,.89.01.01.06.02.12.03.18Z"/>
              <circle class="cls-21" cx="66.77" cy="75.24" r="1.86"/>
              <ellipse class="cls-19" cx="64.15" cy="74.72" rx=".93" ry=".92" transform="translate(-10.43 10.4) rotate(-8.58)"/>
            </g>
            <path class="cls-24" d="m6.76,154.33s.06.03.09.05c-.1.03-.13.02-.09-.05Z"/>
            <path class="cls-15" d="m152.08,157.08c-9.35,7.64-19.39,21.01-31.14,23.8-11.75,2.79-24.96,2.69-37.02,3.09-12.78.42-32.42-7.04-44.55-11.1-12.09-4.05-19.18-9.79-30.05-15.34,1.71-.7,23.87-18.33,43.24-25.01.29-.1.57-.19.86-.29,16.82-5.54,35.41,2.47,53.42-.07.76.36,1.53.72,2.32,1.09,13.78,6.43,31.77,14.31,42.92,23.84Z"/>
            <path class="cls-28" d="m109.16,133.23c-3.59,5.16-9.12,8.99-15.14,10.94-7.65,2.47-16.01,2.13-23.8.14-3.97-1.02-7.88-2.48-11.26-4.82-2.62-1.81-4.9-4.19-6.4-6.98.29-.1.57-.19.86-.29,16.82-5.54,35.41,2.47,53.42-.07.76.36,1.53.72,2.32,1.09Z"/>
            <path class="cls-13" d="m59.01,76.54c1.57-1.55,3.6-2.63,5.76-3.06s4.45-.23,6.5.59c-.37-.74-.73-1.48-1.1-2.21-2.08-.07-4.2-.11-6.21.42s-3.95,1.68-4.94,4.27Z"/>
            <path class="cls-31" d="m76.36,65.5c-.51-2.09-1.06-5.35-1.56-7.44l.08,3.08-1.74-2.51c-3.42.71-5.53-.43-9.46-.96-1.62-.22-3.34-.07-4.72.83s-2.32,2.63-1.99,4.29c1.23-1.26,3.2-1.19,4.91-.95,4.43.61,8.79,1.72,14.5,3.66Z"/>
            <path class="cls-19" d="m66.72,95.72c8.12,1.78,18.64,2.22,26.3-1.03-3.1,3.27-6.9,6.1-11.32,6.99s-11.36-1.82-14.97-5.95Z"/>
            <path class="cls-9" d="m117.17,42.27c.01,1.14-.08,2.28-.28,3.4h0c-.12.69-.28,1.36-.48,2.03-.66-1.62-1.9-2.97-3.43-3.81h0c-.89-.49-1.87-.81-2.87-.91.15.11.29.22.44.33h0c3.22,2.61,4.74,7.19,3.65,11.2-.34,1.27-1.34,2.71-2.63,2.42-1.7-.38-2.68-3.1-4.37-2.67-.1.18-1.33.3-3.23.36-2.69.09-6.75.09-10.96,0h0c-2.03-.04-4.09-.1-6.05-.18-1.59-.06-3.12-.14-4.51-.22-2.32-.14-4.69-.31-7.07-.53-1.48-.13-2.97-.29-4.45-.48-5.14-.65-10.24-1.65-14.95-3.35-.55-.2-4.23,1.91-4.8,1.47-3.49-2.72-6.78-12.96-6.74-17.21.04-4.66,2.57-9.22,6.5-11.73-.45,1.27-.9,2.6-.75,3.94.15,1.34,1.08,2.7,2.42,2.87,1.59.2,2.86-1.23,3.88-2.46,7.01-8.43,17.45-13.92,28.37-14.91-.65,1.61-2.16,2.84-3.87,3.17.82-.14,1.64-.24,2.46-.31.89-.07,1.78-.09,2.67-.07,8.62.19,17.17,4.46,22.27,11.45-.38.04-.75.04-1.13-.02.92.49,1.8,1.05,2.63,1.69,0,0,0,0,0,0h0c.24.19.49.38.72.58,0,0,0,0,0,0,1.9,1.61,3.48,3.6,4.6,5.82,1.26,2.52,1.91,5.33,1.94,8.14Z"/>
            <path class="cls-18" d="m86.14,14.61c-4.45,1.07-8.74,2.81-12.38,5.55-4.56,3.42-8.03,8.55-8.61,14.23-.68,6.64,2.51,13,5.8,18.82-5.14-.65-10.24-1.65-14.95-3.35-.06.16-.12.32-.17.49-.66-1.17-4.5-8.6-3.82-12.66,1.62-9.61,17.34-20.38,31.48-23.01.89-.07,1.78-.09,2.67-.07Z"/>
            <path class="cls-3" d="m110.63,28.31c-4.31-1.73-9.08-2.35-13.69-1.73-2.89.39-5.81,1.29-8.03,3.19-3.9,3.33-4.91,9.03-4.33,14.12.41,3.59,1.48,7.05,2.38,10.55-1.59-.06-3.12-.14-4.51-.22-2.32-.14-4.69-.31-7.07-.53-.83-4.27-1.83-10.08-1.97-13.69-.15-3.97-.36-6.32,5.45-10.58,3.24-2.37,8.99-4.39,12.88-5.36,3.8-.94,7.85-.43,11.56.8,2.28.75,4.46,1.76,6.59,2.86,0,0,0,0,0,0h0c.24.19.49.38.72.58Z"/>
            <path class="cls-33" d="m117.17,42.27c.01,1.14-.08,2.28-.28,3.4-1.26-.72-2.56-1.34-3.91-1.78h0c-.89-.49-1.87-.81-2.87-.91.15.11.29.22.44.33-.28-.04-.57-.07-.86-.09-2.09-.16-4.48.39-5.54,2.2-.73,1.26-.65,2.81-.54,4.26.12,1.65.25,3.29.37,4.94-2.69.09-6.75.09-10.96,0h0c-.43-5.29-.27-11.8,3.7-15.42,3.84-3.49,9.4-1.95,14.31-.27,2.2.75,4.33,1.88,6.15,3.34Z"/>
            <path class="cls-34" d="m108.13,133.96c-4.66,5.5-15.85,10.37-25.42,10.63-.36.01-.71.01-1.06.01-.71,0-1.41-.03-2.1-.06-18.33-.96-26.41-12.04-26.41-12.04,0,0-.9,1.49,4.17-19.72,7.01,3.79,14.85,5.87,22.73,6.2.95.04,1.91.06,2.86.04,7.44-.08,14.84-1.73,21.52-4.95.92,7.58,2.8,12.3,3.71,19.89Z"/>
            <path class="cls-8" d="m83.13,193.75c-.56-.49-1.14-.99-1.82-1.11-.67-.12-1.45.28-1.62,1.09-1-15.88.05-46.05-.14-49.19,0-.12-.01-.2-.02-.24-.38-8.57.1-17.14.5-25.32.95.04,1.91.06,2.86.04.36,8.65-.13,20.6-.2,25.04,0,.03,0,.21.02.53.23,5.17-.21,46.43.42,49.16Z"/>
            <path class="cls-20" d="m84.14,82.23c.36-.52,10.72-16.36,10.72-16.36,0,0,5.21,2.05,6.55,3.78.04.2-10.79,16.22-10.78,16.63-2.94-.61-4.97-2.46-6.49-4.06Z"/>
            <path class="cls-17" d="m57.19,81.93c.36-.52,10.72-16.36,10.72-16.36,0,0,5.21,2.05,6.55,3.78.04.2-10.79,16.22-10.78,16.63-2.94-.61-4.97-2.46-6.49-4.06Z"/>
            <path class="cls-29" d="m92.99,65.68c-6.05.06-10.9,5.02-10.84,11.07s5.02,10.9,11.07,10.84,10.9-5.02,10.84-11.07-5.02-10.9-11.07-10.84Zm.22,21.02c-5.56.06-10.12-4.4-10.18-9.96s4.4-10.12,9.96-10.18,10.12,4.4,10.18,9.96-4.4,10.12-9.96,10.18Z"/>
            <path class="cls-1" d="m66.26,65.08c-6.05.06-10.9,5.02-10.84,11.07.06,6.05,5.02,10.9,11.07,10.84,6.05-.06,10.9-5.02,10.84-11.07s-5.02-10.9-11.07-10.84Zm.22,21.02c-5.56.06-10.12-4.4-10.18-9.96-.06-5.56,4.4-10.12,9.96-10.18,5.56-.06,10.12,4.4,10.18,9.96.06,5.56-4.4,10.12-9.96,10.18Z"/>
            <path class="cls-32" d="m76.26,72.84c2.21-1.12,4.95-1.1,7.15.04-.1.25-.3.71-.4.97-2.08-1.15-4.56-1.31-6.42.13-.04-.41-.25-.66-.33-1.14Z"/>
          </g>
        </g>
      </g>
    </g>
  </g>
</svg>