<svg width="20" height="20" viewBox="0 0 20 20" fill="none" xmlns="http://www.w3.org/2000/svg">
<path fill-rule="evenodd" clip-rule="evenodd" d="M1.66675 4.04778C1.66675 3.65329 1.98654 3.3335 2.38103 3.3335H17.6191C18.0136 3.3335 18.3334 3.65329 18.3334 4.04778C18.3334 4.44227 18.0136 4.76207 17.6191 4.76207H2.38103C1.98654 4.76207 1.66675 4.44227 1.66675 4.04778ZM1.66675 9.76207C1.66675 9.36758 1.98654 9.04778 2.38103 9.04778H17.6191C18.0136 9.04778 18.3334 9.36758 18.3334 9.76207C18.3334 10.1566 18.0136 10.4764 17.6191 10.4764H2.38103C1.98654 10.4764 1.66675 10.1566 1.66675 9.76207ZM2.38103 14.7621C1.98654 14.7621 1.66675 15.0819 1.66675 15.4764C1.66675 15.8708 1.98654 16.1906 2.38103 16.1906H17.6191C18.0136 16.1906 18.3334 15.8708 18.3334 15.4764C18.3334 15.0819 18.0136 14.7621 17.6191 14.7621H2.38103Z" fill="#5B5B5B"/>
</svg>
