<svg xmlns="http://www.w3.org/2000/svg" width="23" height="45" viewBox="0 0 33 75" fill="none">
    <path d="M28.08 47.9702C25.54 45.1702 23.99 41.4502 23.99 37.3702C23.99 33.2902 25.54 29.5702 28.08 26.7802C28.15 26.7202 28.2 26.6602 28.25 26.6002C30.8 23.8002 32.35 20.0802 32.35 16.0002C32.35 7.30024 25.29 0.240234 16.59 0.240234C7.89 0.240234 0.829987 7.30024 0.829987 16.0002C0.829987 20.0602 2.37001 23.7602 4.89001 26.5602C4.96001 26.6402 5.05001 26.7302 5.14001 26.8202C7.66001 29.6102 9.19 33.3102 9.19 37.3702C9.19 41.4302 7.66001 45.1302 5.14001 47.9202C5.05001 48.0102 4.96001 48.1002 4.89001 48.1902C2.37001 50.9802 0.829987 54.6902 0.829987 58.7402C0.829987 67.4502 7.89 74.5002 16.59 74.5002C25.29 74.5002 32.35 67.4502 32.35 58.7402C32.35 54.6702 30.8 50.9502 28.25 48.1502C28.2 48.0802 28.15 48.0302 28.08 47.9702ZM16.59 22.1702C12.77 22.1702 9.67001 19.0702 9.67001 15.2502C9.67001 11.4302 12.77 8.33024 16.59 8.33024C20.41 8.33024 23.51 11.4302 23.51 15.2502C23.51 19.0702 20.41 22.1702 16.59 22.1702Z"
          fill="#DF2826"/>
</svg>