<svg width="24" height="24" viewBox="0 0 24 24" fill="none" xmlns="http://www.w3.org/2000/svg">
<path fill-rule="evenodd" clip-rule="evenodd" d="M5.79487 3.53846C5.72687 3.53846 5.66165 3.56548 5.61356 3.61356C5.56548 3.66165 5.53846 3.72687 5.53846 3.79487V18.1538C5.53846 18.2219 5.56548 18.2871 5.61356 18.3352C5.66165 18.3832 5.72687 18.4103 5.79487 18.4103H8.10256V3.53846H5.79487ZM5.79487 2C5.31884 2 4.86231 2.1891 4.52571 2.52571C4.1891 2.86231 4 3.31884 4 3.79487V18.1538C4 18.6299 4.1891 19.0864 4.52571 19.423C4.86231 19.7596 5.31884 19.9487 5.79487 19.9487H8.10256V21.2308C8.10256 21.6556 8.44696 22 8.8718 22C9.29663 22 9.64103 21.6556 9.64103 21.2308V19.9487H17.0769C17.825 19.9487 18.5424 19.6516 19.0713 19.1226C19.6003 18.5937 19.8974 17.8763 19.8974 17.1282V4.82051C19.8974 4.07247 19.6003 3.35506 19.0713 2.82611C18.5424 2.29716 17.825 2 17.0769 2H5.79487ZM9.64103 3.53846V18.4103H17.0769C17.4169 18.4103 17.743 18.2752 17.9835 18.0348C18.2239 17.7943 18.359 17.4682 18.359 17.1282V4.82051C18.359 4.48049 18.2239 4.1544 17.9835 3.91397C17.743 3.67353 17.4169 3.53846 17.0769 3.53846H9.64103ZM12.2051 6.8718C12.2051 6.44696 12.5495 6.10256 12.9744 6.10256H15.0256C15.4505 6.10256 15.7949 6.44696 15.7949 6.8718C15.7949 7.29663 15.4505 7.64103 15.0256 7.64103H12.9744C12.5495 7.64103 12.2051 7.29663 12.2051 6.8718ZM12.9744 10.2051C12.5495 10.2051 12.2051 10.5495 12.2051 10.9744C12.2051 11.3992 12.5495 11.7436 12.9744 11.7436H15.0256C15.4505 11.7436 15.7949 11.3992 15.7949 10.9744C15.7949 10.5495 15.4505 10.2051 15.0256 10.2051H12.9744Z" fill="#5B5B5B"/>
</svg>
