<svg width="20" height="20" viewBox="0 0 20 20" fill="none" xmlns="http://www.w3.org/2000/svg">
<path fill-rule="evenodd" clip-rule="evenodd" d="M9.22324 3.26148C9.42359 3.06112 9.69534 2.94856 9.97869 2.94856C10.262 2.94856 10.5338 3.06112 10.7341 3.26148C10.9345 3.46183 11.0471 3.73358 11.0471 4.01693C11.0471 4.26481 11.19 4.49048 11.4141 4.59644C12.2905 5.01084 13.0375 5.6559 13.5753 6.46251C14.1103 7.26506 14.418 8.19742 14.4659 9.1606V11.7092C14.4659 11.735 14.4674 11.7607 14.4705 11.7863C14.5469 12.4173 14.7704 13.0215 15.1229 13.5504C15.1413 13.5779 15.16 13.6053 15.179 13.6323L12.5428 13.6323H7.41458L4.77837 13.6323C4.79738 13.6053 4.81607 13.5779 4.83444 13.5504C5.18701 13.0215 5.41049 12.4173 5.48687 11.7863C5.48996 11.7607 5.49151 11.735 5.49151 11.7092V9.1606C5.53936 8.19742 5.84707 7.26506 6.3821 6.46251C6.91984 5.6559 7.66693 5.01084 8.54331 4.59644C8.7674 4.49048 8.91032 4.26481 8.91032 4.01693C8.91032 3.73358 9.02288 3.46183 9.22324 3.26148ZM6.77356 14.9144H3.14108C2.84996 14.9144 2.59539 14.7182 2.52121 14.4367C2.44704 14.1551 2.57189 13.859 2.82522 13.7155C3.20365 13.5012 3.52647 13.2011 3.76771 12.8392C4.00216 12.4876 4.15318 12.0871 4.20946 11.6686V9.14514C4.20946 9.13511 4.2097 9.12509 4.21017 9.11508C4.26653 7.91433 4.64858 6.75154 5.31537 5.75135C5.91346 4.85422 6.72042 4.11823 7.66458 3.60527C7.74828 3.1348 7.97417 2.69745 8.31669 2.35493C8.75748 1.91414 9.35532 1.6665 9.97869 1.6665C10.6021 1.6665 11.1999 1.91414 11.6407 2.35493C11.9832 2.69745 12.2091 3.1348 12.2928 3.60528C13.237 4.11824 14.0439 4.85422 14.642 5.75135C15.3088 6.75154 15.6909 7.91433 15.7472 9.11508C15.7477 9.12509 15.7479 9.13511 15.7479 9.14514V11.6686C15.8042 12.0871 15.9552 12.4876 16.1897 12.8392C16.4309 13.2011 16.7537 13.5012 17.1322 13.7155C17.3855 13.859 17.5103 14.1551 17.4362 14.4367C17.362 14.7182 17.1074 14.9144 16.8163 14.9144H13.1838V15.128C13.1838 15.9781 12.8461 16.7933 12.2451 17.3944C11.644 17.9955 10.8287 18.3332 9.97869 18.3332C9.12863 18.3332 8.3134 17.9955 7.71232 17.3944C7.11124 16.7933 6.77356 15.9781 6.77356 15.128V14.9144ZM11.9018 14.9144V15.128C11.9018 15.6381 11.6992 16.1272 11.3385 16.4879C10.9779 16.8485 10.4887 17.0511 9.97869 17.0511C9.46865 17.0511 8.97951 16.8485 8.61886 16.4879C8.25822 16.1272 8.05561 15.6381 8.05561 15.128V14.9144H11.9018Z" fill="#5B5B5B"/>
</svg>
