<svg width="24" height="25" viewBox="0 0 24 25" fill="none" xmlns="http://www.w3.org/2000/svg">
<path fill-rule="evenodd" clip-rule="evenodd" d="M12 17.8077C8.77183 17.8077 5.99349 16.0989 3.67241 12.4231C5.99349 8.74722 8.77183 7.03846 12 7.03846C15.2282 7.03846 18.0065 8.74722 20.3276 12.4231C18.0065 16.0989 15.2282 17.8077 12 17.8077ZM12 5.5C7.95726 5.5 4.66322 7.77131 2.10962 12.0273C1.96346 12.2709 1.96346 12.5752 2.10962 12.8188C4.66322 17.0748 7.95726 19.3462 12 19.3462C16.0427 19.3462 19.3368 17.0748 21.8904 12.8188C22.0365 12.5752 22.0365 12.2709 21.8904 12.0273C19.3368 7.77131 16.0427 5.5 12 5.5ZM12 9.60256C11.252 9.60256 10.5345 9.89973 10.0056 10.4287C9.47665 10.9576 9.17949 11.675 9.17949 12.4231C9.17949 13.1711 9.47665 13.8885 10.0056 14.4175C10.5345 14.9464 11.252 15.2436 12 15.2436C12.748 15.2436 13.4655 14.9464 13.9944 14.4175C14.5234 13.8885 14.8205 13.1711 14.8205 12.4231C14.8205 11.675 14.5234 10.9576 13.9944 10.4287C13.4655 9.89973 12.748 9.60256 12 9.60256ZM11.0935 11.5165C11.3339 11.2761 11.66 11.141 12 11.141C12.34 11.141 12.6661 11.2761 12.9065 11.5165C13.147 11.757 13.2821 12.0831 13.2821 12.4231C13.2821 12.7631 13.147 13.0892 12.9065 13.3296C12.6661 13.5701 12.34 13.7051 12 13.7051C11.66 13.7051 11.3339 13.5701 11.0935 13.3296C10.853 13.0892 10.7179 12.7631 10.7179 12.4231C10.7179 12.0831 10.853 11.757 11.0935 11.5165Z" fill="#5B5B5B"/>
</svg>
