<svg width="16" height="16" viewBox="0 0 16 16" fill="none" xmlns="http://www.w3.org/2000/svg">
<path fill-rule="evenodd" clip-rule="evenodd" d="M7.99992 1.66675C8.17719 1.66675 8.3391 1.76693 8.41755 1.92516L10.2254 5.57147L14.2676 6.1546C14.4432 6.17992 14.589 6.30229 14.6438 6.4702C14.6986 6.63811 14.6528 6.82242 14.5257 6.94556L11.5965 9.7837L12.2872 13.7915C12.3172 13.9655 12.2453 14.1413 12.1017 14.245C11.9582 14.3487 11.7679 14.3623 11.611 14.28L8.00402 12.388L4.38841 14.2802C4.2315 14.3623 4.04136 14.3486 3.89794 14.2449C3.75452 14.1412 3.6827 13.9654 3.71267 13.7915L4.40335 9.7837L1.47414 6.94556C1.34705 6.82242 1.30126 6.63811 1.35604 6.4702C1.41082 6.30229 1.55666 6.17992 1.73219 6.1546L5.77441 5.57147L7.58229 1.92516C7.66074 1.76693 7.82264 1.66675 7.99992 1.66675ZM7.99992 3.1778L6.50126 6.20044C6.43339 6.33732 6.30219 6.43217 6.15043 6.45406L2.80095 6.93725L5.22865 9.28947C5.33857 9.39598 5.38875 9.54954 5.36282 9.70003L4.79026 13.0224L7.78754 11.4538C7.92335 11.3827 8.08563 11.3828 8.22138 11.454L11.2094 13.0213L10.637 9.70003C10.6111 9.54954 10.6613 9.39598 10.7712 9.28947L13.1989 6.93725L9.84941 6.45406C9.69765 6.43217 9.56644 6.33732 9.49858 6.20044L7.99992 3.1778Z" fill="#222D68"/>
</svg>
