<svg width="24" height="24" viewBox="0 0 24 24" fill="none" xmlns="http://www.w3.org/2000/svg">
<path fill-rule="evenodd" clip-rule="evenodd" d="M12 2.5C12.2659 2.5 12.5088 2.65027 12.6264 2.88762L15.3383 8.35709L21.4016 9.23178C21.6649 9.26976 21.8837 9.45331 21.9658 9.70518C22.048 9.95705 21.9793 10.2335 21.7887 10.4182L17.3949 14.6754L18.4309 20.6871C18.4759 20.9481 18.368 21.2118 18.1527 21.3674C17.9374 21.5229 17.652 21.5433 17.4167 21.4198L12.0061 18.5819L6.58274 21.4201C6.34738 21.5433 6.06216 21.5228 5.84703 21.3672C5.6319 21.2116 5.52416 20.948 5.56912 20.6871L6.60515 14.6754L2.21133 10.4182C2.02069 10.2335 1.95201 9.95705 2.03418 9.70518C2.11635 9.45331 2.33511 9.26976 2.59841 9.23178L8.66173 8.35709L11.3736 2.88762C11.4912 2.65027 11.7341 2.5 12 2.5ZM12 4.76658L9.75201 9.30054C9.65021 9.50586 9.4534 9.64813 9.22576 9.68097L4.20154 10.4058L7.84309 13.9341C8.00798 14.0938 8.08325 14.3242 8.04435 14.5499L7.18551 19.5334L11.6814 17.1806C11.8852 17.074 12.1286 17.0741 12.3322 17.1809L16.8142 19.5318L15.9557 14.5499C15.9167 14.3242 15.992 14.0938 16.1569 13.9341L19.7985 10.4058L14.7742 9.68097C14.5466 9.64813 14.3498 9.50586 14.248 9.30054L12 4.76658Z" fill="#5B5B5B"/>
</svg>
