<svg width="14" height="14" viewBox="0 0 14 14" fill="none" xmlns="http://www.w3.org/2000/svg">
<g id="icon/percent">
<path id="Union" fill-rule="evenodd" clip-rule="evenodd" d="M1.6097 1.60995C1.89332 1.32633 2.27799 1.16699 2.67909 1.16699C3.08019 1.16699 3.46486 1.32633 3.74848 1.60995C4.0321 1.89357 4.19144 2.27824 4.19144 2.67934C4.19144 3.08044 4.0321 3.46511 3.74848 3.74873C3.46486 4.03235 3.08019 4.19168 2.67909 4.19168C2.27799 4.19168 1.89332 4.03235 1.6097 3.74873C1.32608 3.46511 1.16675 3.08044 1.16675 2.67934C1.16675 2.27824 1.32608 1.89357 1.6097 1.60995ZM2.67909 2.46329C2.62179 2.46329 2.56684 2.48605 2.52632 2.52657C2.48581 2.56709 2.46304 2.62204 2.46304 2.67934C2.46304 2.73664 2.48581 2.79159 2.52632 2.83211C2.56684 2.87263 2.62179 2.89539 2.67909 2.89539C2.73639 2.89539 2.79135 2.87263 2.83186 2.83211C2.87238 2.79159 2.89514 2.73664 2.89514 2.67934C2.89514 2.62204 2.87238 2.56709 2.83186 2.52657C2.79135 2.48605 2.73639 2.46329 2.67909 2.46329ZM10.2517 10.2519C10.5353 9.9683 10.92 9.80897 11.3211 9.80897C11.7222 9.80897 12.1068 9.9683 12.3905 10.2519C12.6741 10.5355 12.8334 10.9202 12.8334 11.3213C12.8334 11.7224 12.6741 12.1071 12.3905 12.3907C12.1068 12.6743 11.7222 12.8337 11.3211 12.8337C10.92 12.8337 10.5353 12.6743 10.2517 12.3907C9.96806 12.1071 9.80872 11.7224 9.80872 11.3213C9.80872 10.9202 9.96806 10.5355 10.2517 10.2519ZM11.3211 11.1053C11.2638 11.1053 11.2088 11.128 11.1683 11.1685C11.1278 11.2091 11.105 11.264 11.105 11.3213C11.105 11.3786 11.1278 11.4336 11.1683 11.4741C11.2088 11.5146 11.2638 11.5374 11.3211 11.5374C11.3784 11.5374 11.4333 11.5146 11.4738 11.4741C11.5144 11.4336 11.5371 11.3786 11.5371 11.3213C11.5371 11.264 11.5144 11.2091 11.4738 11.1685C11.4333 11.128 11.3784 11.1053 11.3211 11.1053ZM12.6436 2.27345C12.8967 2.02033 12.8967 1.60995 12.6436 1.35683C12.3905 1.10371 11.9801 1.10371 11.727 1.35683L1.35659 11.7272C1.10347 11.9803 1.10347 12.3907 1.35659 12.6438C1.6097 12.8969 2.02009 12.8969 2.27321 12.6438L12.6436 2.27345Z" fill="#418C1D"/>
</g>
</svg>
