<svg width="24" height="24" viewBox="0 0 24 24" fill="none" xmlns="http://www.w3.org/2000/svg">
<g id="icon/play">
<path id="Union" fill-rule="evenodd" clip-rule="evenodd" d="M12 2C9.34784 2 6.8043 3.05357 4.92893 4.92893C3.05357 6.8043 2 9.34784 2 12C2 14.6522 3.05357 17.1957 4.92893 19.0711C6.8043 20.9464 9.34784 22 12 22C14.6522 22 17.1957 20.9464 19.0711 19.0711C20.9464 17.1957 22 14.6522 22 12C22 9.34784 20.9464 6.8043 19.0711 4.92893C17.1957 3.05357 14.6522 2 12 2ZM6.01679 6.01679C7.60364 4.42994 9.75586 3.53846 12 3.53846C14.2441 3.53846 16.3964 4.42994 17.9832 6.01679C19.5701 7.60364 20.4615 9.75586 20.4615 12C20.4615 14.2441 19.5701 16.3964 17.9832 17.9832C16.3964 19.5701 14.2441 20.4615 12 20.4615C9.75586 20.4615 7.60364 19.5701 6.01679 17.9832C4.42994 16.3964 3.53846 14.2441 3.53846 12C3.53846 9.75586 4.42994 7.60364 6.01679 6.01679ZM17.48 12.6448C17.7222 12.5085 17.8721 12.2522 17.8721 11.9743C17.8721 11.6964 17.7222 11.4401 17.48 11.3039L9.27484 6.68851C9.03665 6.55453 8.74527 6.55698 8.50937 6.69494C8.27347 6.83291 8.12848 7.08567 8.12848 7.35895L8.12848 16.5897C8.12848 16.863 8.27347 17.1158 8.50937 17.2537C8.74527 17.3917 9.03665 17.3941 9.27484 17.2602L17.48 12.6448ZM9.66694 15.2745L9.66694 8.67422L15.5338 11.9743L9.66694 15.2745Z" fill="#5B5B5B"/>
</g>
</svg>
