<svg width="20" height="20" viewBox="0 0 20 20" fill="none" xmlns="http://www.w3.org/2000/svg">
<g id="icon/play">
<path id="Union" fill-rule="evenodd" clip-rule="evenodd" d="M17.0833 9.99984C17.0833 13.9119 13.912 17.0832 9.99996 17.0832C6.08794 17.0832 2.91663 13.9119 2.91663 9.99984C2.91663 6.08782 6.08794 2.9165 9.99996 2.9165C13.912 2.9165 17.0833 6.08782 17.0833 9.99984ZM18.3333 9.99984C18.3333 14.6022 14.6023 18.3332 9.99996 18.3332C5.39759 18.3332 1.66663 14.6022 1.66663 9.99984C1.66663 5.39746 5.39759 1.6665 9.99996 1.6665C14.6023 1.6665 18.3333 5.39746 18.3333 9.99984ZM7.70668 6.30474C7.57772 6.23104 7.41929 6.23157 7.29082 6.30612C7.16236 6.38068 7.08329 6.51797 7.08329 6.6665V13.3332C7.08329 13.4817 7.16236 13.619 7.29082 13.6935C7.41929 13.7681 7.57772 13.7686 7.70668 13.6949L13.54 10.3616C13.6698 10.2874 13.75 10.1494 13.75 9.99984C13.75 9.85031 13.6698 9.71225 13.54 9.63807L7.70668 6.30474ZM12.4935 9.99984L7.91663 12.6152V7.3845L12.4935 9.99984Z" fill="#5B5B5B"/>
</g>
</svg>
