<svg width="24" height="25" viewBox="0 0 24 25" fill="none" xmlns="http://www.w3.org/2000/svg">
<path fill-rule="evenodd" clip-rule="evenodd" d="M10.1481 5.61111C10.1481 4.99746 9.65069 4.5 9.03704 4.5C8.42339 4.5 7.92593 4.99746 7.92593 5.61111V18.9444C7.92593 19.5581 8.42339 20.0556 9.03704 20.0556C9.65069 20.0556 10.1481 19.5581 10.1481 18.9444V5.61111ZM14.963 8.94444C15.5766 8.94444 16.0741 9.44191 16.0741 10.0556V18.9444C16.0741 19.5581 15.5766 20.0556 14.963 20.0556C14.3493 20.0556 13.8519 19.5581 13.8519 18.9444V10.0556C13.8519 9.44191 14.3493 8.94444 14.963 8.94444ZM22 11.537C22 10.9234 21.5025 10.4259 20.8889 10.4259C20.2752 10.4259 19.7778 10.9234 19.7778 11.537V18.9444C19.7778 19.5581 20.2752 20.0556 20.8889 20.0556C21.5025 20.0556 22 19.5581 22 18.9444V11.537ZM4.22222 14.5C4.22222 13.8863 3.72476 13.3889 3.11111 13.3889C2.49746 13.3889 2 13.8863 2 14.5V18.9444C2 19.5581 2.49746 20.0556 3.11111 20.0556C3.72476 20.0556 4.22222 19.5581 4.22222 18.9444V14.5Z" fill="white"/>
</svg>
