<svg width="20" height="20" viewBox="0 0 20 20" fill="none" xmlns="http://www.w3.org/2000/svg">
<path fill-rule="evenodd" clip-rule="evenodd" d="M7.64809 2.94856H7.43443C7.0804 2.94856 6.7934 2.66156 6.7934 2.30753C6.7934 1.9535 7.0804 1.6665 7.43443 1.6665H8.28912H11.7079H12.5626C12.9167 1.6665 13.2037 1.9535 13.2037 2.30753C13.2037 2.66156 12.9167 2.94856 12.5626 2.94856H12.3489V7.3228L15.719 16.5906C15.7925 16.752 15.8305 16.9275 15.8303 17.1052C15.8301 17.2971 15.7853 17.4863 15.6995 17.658C15.6136 17.8296 15.4891 17.979 15.3357 18.0943C15.1823 18.2097 15.0043 18.2878 14.8155 18.3226C14.7772 18.3296 14.7383 18.3332 14.6994 18.3332H5.29766C5.25871 18.3332 5.21983 18.3296 5.18152 18.3226C4.99279 18.2878 4.81471 18.2097 4.66132 18.0943C4.50793 17.979 4.38341 17.8296 4.29759 17.658C4.21176 17.4863 4.16697 17.2971 4.16675 17.1052C4.16654 16.9275 4.20455 16.752 4.27799 16.5906L7.64809 7.3228V2.94856ZM8.93014 2.94856V6.79471H11.0669V2.94856H8.93014ZM11.2589 8.07676H8.73811L5.47471 17.0511H14.5223L11.2589 8.07676Z" fill="#F29E51"/>
</svg>
