<svg width="20" height="20" viewBox="0 0 20 20" fill="none" xmlns="http://www.w3.org/2000/svg">
<g id="icon/user">
<path id="Union" fill-rule="evenodd" clip-rule="evenodd" d="M9.93586 1.6665C8.85912 1.6665 7.82649 2.09423 7.06512 2.8556C6.30376 3.61697 5.87603 4.6496 5.87603 5.72633C5.87603 6.80307 6.30376 7.8357 7.06512 8.59707C7.82649 9.35843 8.85912 9.78616 9.93586 9.78616C11.0126 9.78616 12.0452 9.35843 12.8066 8.59707C13.568 7.8357 13.9957 6.80307 13.9957 5.72633C13.9957 4.6496 13.568 3.61697 12.8066 2.8556C12.0452 2.09423 11.0126 1.6665 9.93586 1.6665ZM7.97167 3.76215C8.49261 3.24121 9.19914 2.94856 9.93586 2.94856C10.6726 2.94856 11.3791 3.24121 11.9 3.76215C12.421 4.28308 12.7136 4.98962 12.7136 5.72633C12.7136 6.46305 12.421 7.16958 11.9 7.69052C11.3791 8.21145 10.6726 8.50411 9.93586 8.50411C9.19914 8.50411 8.49261 8.21145 7.97167 7.69052C7.45074 7.16958 7.15808 6.46305 7.15808 5.72633C7.15808 4.98962 7.45074 4.28308 7.97167 3.76215ZM6.26227 14.0186C6.7832 13.4976 7.48974 13.205 8.22646 13.205H11.6453C12.382 13.205 13.0885 13.4976 13.6094 14.0186C14.1304 14.5395 14.423 15.246 14.423 15.9827V17.6921C14.423 18.0462 14.71 18.3332 15.0641 18.3332C15.4181 18.3332 15.7051 18.0462 15.7051 17.6921V15.9827C15.7051 14.906 15.2774 13.8734 14.516 13.112C13.7546 12.3506 12.722 11.9229 11.6453 11.9229H8.22646C7.14972 11.9229 6.11709 12.3506 5.35572 13.112C4.59436 13.8734 4.16663 14.906 4.16663 15.9827V17.6921C4.16663 18.0462 4.45362 18.3332 4.80765 18.3332C5.16168 18.3332 5.44868 18.0462 5.44868 17.6921V15.9827C5.44868 15.246 5.74134 14.5395 6.26227 14.0186Z" fill="#5B5B5B"/>
</g>
</svg>
