<svg width="24" height="24" viewBox="0 0 24 24" fill="none" xmlns="http://www.w3.org/2000/svg">
<path fill-rule="evenodd" clip-rule="evenodd" d="M10.0439 3.55501C10.4608 3.45867 10.722 3.03689 10.6273 2.61294C10.5325 2.18898 10.1177 1.9234 9.70075 2.01974C8.46153 2.30608 7.28722 2.82955 6.24046 3.56223C5.88826 3.80875 5.79929 4.2989 6.04174 4.65701C6.2842 5.01513 6.76626 5.10559 7.11846 4.85907C8.00342 4.23964 8.99621 3.79709 10.0439 3.55501ZM13.2467 2.6121C13.3419 2.18826 13.757 1.92313 14.1738 2.01993C16.3971 2.53623 18.3822 3.80474 19.8039 5.61778C21.2257 7.43082 22 9.68095 22 11.9998C22 14.3186 21.2257 16.5688 19.8039 18.3818C18.3822 20.1948 16.3971 21.4633 14.1738 21.9796C13.757 22.0764 13.3419 21.8113 13.2467 21.3875C13.1514 20.9636 13.4122 20.5415 13.829 20.4447C15.7104 20.0079 17.3902 18.9344 18.5933 17.4002C19.7964 15.8661 20.4516 13.962 20.4516 11.9998C20.4516 10.0376 19.7964 8.13352 18.5933 6.59933C17.3902 5.06513 15.7104 3.99172 13.829 3.55482C13.4122 3.45802 13.1514 3.03595 13.2467 2.6121ZM6.64114 19.8033C6.85431 19.4264 7.3276 19.2966 7.69826 19.5134C8.42992 19.9412 9.22046 20.2553 10.0436 20.4452C10.4606 20.5413 10.722 20.963 10.6274 21.387C10.5328 21.811 10.1181 22.0767 9.70108 21.9806C8.72723 21.756 7.79193 21.3844 6.92629 20.8782C6.55564 20.6614 6.42797 20.1802 6.64114 19.8033ZM3.75346 14.4068C3.63471 13.9891 3.20545 13.7484 2.79469 13.8692C2.38392 13.9899 2.1472 14.4264 2.26595 14.844C2.56486 15.8953 3.02833 16.8908 3.63857 17.7923C3.881 18.1504 4.36305 18.2409 4.71527 17.9944C5.06749 17.7479 5.15649 17.2578 4.91406 16.8996C4.39808 16.1374 4.0062 15.2957 3.75346 14.4068ZM4.25308 6.60927C4.62709 6.81999 4.76228 7.29909 4.55505 7.67937L4.38512 7.9912C3.97859 8.7826 3.68868 9.64548 3.53779 10.5564C3.46678 10.9851 3.0674 11.2741 2.64575 11.2019C2.2241 11.1297 1.93986 10.7237 2.01087 10.2949C2.18981 9.21469 2.53432 8.19105 3.01752 7.25279L3.02619 7.23643L3.20064 6.9163C3.40788 6.53602 3.87907 6.39856 4.25308 6.60927Z" fill="#5B5B5B"/>
</svg>
