<?xml version="1.0" encoding="UTF-8"?>
<svg xmlns="http://www.w3.org/2000/svg" xmlns:xlink="http://www.w3.org/1999/xlink" viewBox="0 0 2843 2000">
  <defs>
    <style>
      .cls-1 {
        fill: #592d24;
      }

      .cls-1, .cls-2, .cls-3, .cls-4, .cls-5, .cls-6, .cls-7, .cls-8, .cls-9, .cls-10, .cls-11, .cls-12, .cls-13, .cls-14, .cls-15, .cls-16, .cls-17, .cls-18, .cls-19, .cls-20, .cls-21, .cls-22, .cls-23, .cls-24, .cls-25, .cls-26, .cls-27, .cls-28, .cls-29, .cls-30 {
        strokeWidth: 0px;
      }

      .cls-1, .cls-9, .cls-20 {
        mix-blend-mode: screen;
      }

      .cls-2 {
        fill: #355389;
      }

      .cls-3 {
        fill: #dd513a;
      }

      .cls-4 {
        fill: url(#linear-gradient);
      }

      .cls-5 {
        fill: #0e2e35;
      }

      .cls-6 {
        fill: #c1dae3;
      }

      .cls-6, .cls-12, .cls-15, .cls-18 {
        mix-blend-mode: multiply;
      }

      .cls-7 {
        fill: #00aeef;
      }

      .cls-8 {
        fill: #b75742;
      }

      .cls-31 {
        isolation: isolate;
      }

      .cls-9 {
        fill: #7a7a7a;
      }

      .cls-10 {
        fill: #13375b;
      }

      .cls-11 {
        fill: #f7a491;
      }

      .cls-12 {
        fill: #ebd6ac;
      }

      .cls-13 {
        fill: #50bfa5;
      }

      .cls-14 {
        fill: #f38b80;
      }

      .cls-15 {
        opacity: .3;
      }

      .cls-15, .cls-30 {
        fill: #184655;
      }

      .cls-16 {
        fill: #878583;
      }

      .cls-17 {
        fill: #fff;
      }

      .cls-18 {
        fill: #d1cfcb;
      }

      .cls-19 {
        fill: #e0973f;
      }

      .cls-20 {
        fill: #858585;
      }

      .cls-21 {
        fill: #cce6ff;
      }

      .cls-22 {
        fill: #07345a;
      }

      .cls-23 {
        fill: #a34b3d;
      }

      .cls-24 {
        fill: #466eb6;
      }

      .cls-25 {
        fill: #f7cc7f;
      }

      .cls-26, .cls-28 {
        fill: #f47458;
      }

      .cls-27 {
        fill: #5184ce;
      }

      .cls-28 {
        opacity: .5;
      }

      .cls-29 {
        fill: #1f4752;
      }
    </style>
    <linearGradient id="linear-gradient" x1="1366.52" y1="651.33" x2="1567.15" y2="651.33" gradientTransform="translate(2069.32 -836.24) rotate(88.11)" gradientUnits="userSpaceOnUse">
      <stop offset="0" stop-color="#1f90f2"/>
      <stop offset="1" stop-color="#a3d6ff"/>
    </linearGradient>
  </defs>
  <g class="cls-31">
    <g id="Layer_1" data-name="Layer 1">
      <g>
        <g>
          <path class="cls-25" d="m1954.61,553.21c-37,145.59,51.35,294.14,196.94,331.14,145.59,37,294.14-51.35,331.14-196.94,37-145.59-51.35-294.14-196.94-331.14-145.59-37-294.14,51.35-331.14,196.94Zm67.29,7.89h0c32.7-108.66,147.29-170.24,255.96-137.55h0c108.66,32.7,170.24,147.29,137.54,255.96h0c-32.7,108.66-147.29,170.24-255.96,137.55h0c-108.66-32.7-170.24-147.29-137.55-255.96Z"/>
          <path class="cls-25" d="m1765.83,553.63c1.28,6.51,7.17,8.78,21.7,14.54,26,10.31,52,20.63,77.62,31.84,4.03,1.76,8.06,8.05,8.56,12.62,2.96,27.21,4.28,54.61,7.51,81.79,1,8.42.18,12.9-7.38,17.65-30.25,19.01-59.97,38.86-89.56,58.19,7.4,31.73,44.66,103.04,64.58,122.98,31.38-13.2,63.64-26.21,95.35-40.45,9.87-4.43,14.91-3.58,23.13,4.28,19.08,18.24,39.88,34.79,60.89,50.83,8.51,6.49,13.04,11.58,10.29,23.29-7.15,30.33-12.45,61.09-19.09,91.55-1.78,8.19-.23,13.3,7.86,15.81,38.02,11.77,76.06,23.49,114.09,35.25,9.35,2.89,10.79-4.8,13.12-10.3,11.81-27.86,23.78-55.67,34.65-83.9,4.08-10.6,9.55-14.09,21.07-14.45,30.48-.95,60.89-3.9,93.66-6.22,19.39,29.44,40.79,61.93,62.8,95.34,44.17-14.63,83.95-36.53,121.62-65.49-14.92-35.85-29.84-71.71-43-103.31,22.56-28.58,44.05-54.59,63.95-81.76,5.76-7.86,10.28-9.16,18.92-7.26,30,6.59,60.21,12.25,90.26,18.63,6.5,1.38,11.26,1.63,14.59-5.47,16.81-35.86,30.38-72.66,35.86-112.21,1.22-8.82-1.94-12.3-9.21-15.3-29.23-12.07-58.24-24.71-87.52-36.66-7.09-2.9-10.06-5.91-10.71-14.56-2.23-30.01-5.77-59.97-10.06-89.77-1.1-7.61,1.32-10.57,6.68-14.1,29.85-19.66,59.55-39.54,90.07-59.85-15.48-43.47-35.23-83.82-63.52-120.93-36.57,15.22-72.9,30.34-107.66,44.81-29.29-24.3-57.66-47.82-88.01-73,5.38-26.83,11.8-57.7,17.69-88.67,4.84-25.42,8.48-22.07-17.05-32.79-2.44-1.02-4.5-2.93-6.74-4.42-22.84-6.87-45.67-13.74-68.51-20.62-5.34-.61-10.94-.38-15.96-1.98-13.07-4.14-20.44-1.17-25.64,12.83-10.85,29.18-23.54,57.69-36.16,86.17-1.65,3.73-7.08,7.62-11.18,8.14-26.72,3.38-53.81,4.46-80.25,9.22-12.94,2.33-18.38-1.21-24.76-11.29-18.11-28.61-37.39-56.47-58.1-87.45-40.96,21.51-80.92,42.49-121.33,63.71,3.17,8.05,4.93,12.72,6.84,17.31,11.8,28.35,23.35,56.81,35.66,84.94,3.5,7.99,1.71,12.48-3.75,18.98-18.79,22.33-36.14,45.87-54.79,68.33-2.89,3.48-10.04,5.93-14.57,5.14-24.82-4.31-49.39-9.99-74.13-14.8-20.01-3.89-27.46-5.26-33.8,1.27l-36.58,121.57Zm179.42-2.8c18.56-73.03,64.44-134.45,129.2-172.97,64.76-38.52,140.64-49.51,213.67-30.95,73.03,18.56,134.46,64.44,172.97,129.2,38.52,64.76,49.51,140.64,30.95,213.67-18.56,73.03-64.44,134.45-129.2,172.97-64.76,38.51-140.64,49.51-213.67,30.95-73.03-18.56-134.45-64.44-172.97-129.2-38.52-64.76-49.51-140.64-30.95-213.67Z"/>
        </g>
        <path class="cls-13" d="m226.67,930.63c4.2,3.28,8.97,1.56,20.82-2.58,21.21-7.4,42.42-14.81,63.87-21.47,3.38-1.05,9.12.65,11.83,3.17,16.1,14.97,31.31,30.91,47.56,45.71,5.04,4.59,6.89,7.74,4.8,14.6-8.38,27.45-15.99,55.13-23.79,82.42,21.17,15.38,81.29,39.09,103.86,40.73,12.11-24.51,24.87-49.37,36.63-74.69,3.66-7.88,7.17-10.01,16.3-9.56,21.17,1.04,42.5.16,63.7-1.15,8.58-.53,14.01.18,18.49,8.73,11.6,22.17,24.55,43.64,36.53,65.62,3.22,5.91,6.86,8.2,13.08,5.47,29.28-12.84,58.54-25.72,87.81-38.57,7.2-3.16,4.03-8.58,2.55-13.15-7.47-23.13-14.82-46.31-23.07-69.17-3.09-8.58-1.61-13.58,5.2-19.85,18-16.6,34.92-34.38,53.61-53.01,27.25,7.68,57.33,16.16,88.25,24.88,19.13-32.1,31.77-66.31,39.42-103.7-27.9-13.92-55.82-27.85-80.42-40.13-1.32-29.22-1.95-56.31-4.15-83.27-.64-7.8,1.43-10.96,7.67-14.35,21.68-11.77,43-24.22,64.6-36.14,4.67-2.58,7.7-4.93,5.99-10.99-8.64-30.62-19.75-60.09-37.21-86.99-3.89-6-7.64-6.44-13.63-4.45-24.1,8.04-48.35,15.61-72.42,23.75-5.83,1.97-9.21,1.7-14.15-3.21-17.13-17.05-35.03-33.38-53.3-49.22-4.67-4.05-4.75-7.12-3.36-12.07,7.79-27.63,15.38-55.32,23.23-83.69-32.26-18.26-65.46-32.38-102.14-40.04-14.2,28.46-28.32,56.74-41.82,83.81-30.56.65-60.15,1.27-91.82,1.94-10.84-19.12-23.17-41.24-35.87-63.14-10.42-17.98-6.45-17.86-27.59-10.95-2.02.66-4.27.59-6.42.86-17.48,7.83-34.96,15.67-52.44,23.5-3.56,2.44-6.84,5.52-10.73,7.19-10.12,4.36-13.02,10.03-8.83,21.27,8.75,23.42,16.03,47.41,23.34,71.34.96,3.13-.29,8.35-2.51,10.82-14.45,16.1-30.33,30.99-43.89,47.79-6.63,8.22-11.8,8.93-20.97,6.16-26.03-7.85-52.39-14.63-81.25-22.56-13.57,34.6-26.8,68.34-40.19,102.47,6.16,3.22,9.68,5.13,13.26,6.92,22.07,11.01,44.05,22.22,66.31,32.83,6.32,3.01,7.6,6.68,7.7,13.5.33,23.44,2.16,46.85,2.65,70.29.08,3.63-2.98,8.88-6.14,10.78-17.34,10.43-35.25,19.9-52.8,29.98-14.2,8.16-19.44,11.24-19.85,18.54l41.69,93.05Zm107.48-96.02c-27.12-54.1-31.55-115.52-12.47-172.95,19.08-57.43,59.38-104,113.48-131.12,54.1-27.12,115.52-31.55,172.95-12.47,57.43,19.08,104,59.38,131.12,113.48,27.12,54.1,31.55,115.52,12.47,172.95-19.08,57.43-59.38,104-113.48,131.12-54.1,27.12-115.52,31.55-172.95,12.47-57.43-19.08-104-59.38-131.12-113.48Z"/>
        <path class="cls-25" d="m546.72,316.67l8.62-15.82-8.11-16.09c-.92-1.83.65-3.93,2.66-3.55l17.67,3.33,12.75-12.71c1.45-1.45,3.93-.6,4.19,1.44l2.3,17.88,15.99,8.24c1.82.94,1.78,3.56-.07,4.44l-16.24,7.72-2.87,17.8c-.33,2.03-2.83,2.8-4.23,1.31l-12.34-13.11-17.76,2.76c-2.02.31-3.53-1.83-2.55-3.64Z"/>
        <path class="cls-22" d="m1229.91,355.67l7.36-11.95-5.91-2.4c-1.29-.52-1.92-2-1.39-3.29h0c.52-1.29,2-1.92,3.29-1.39l6.81,2.76,6.58-10.73-6.31-2.56c-1.29-.52-1.92-2-1.39-3.29h0c.52-1.29,2-1.92,3.29-1.39l7.22,2.93,7.64-12.29c.65-1.04,1.96-1.47,3.09-1.01l1.1.45c1.45.59,2.02,2.33,1.2,3.66l-7.11,11.6,10.46,4.24,7.64-12.29c.65-1.04,1.96-1.47,3.1-1.01l1.2.49c1.45.59,2.02,2.33,1.2,3.66l-7.11,11.6,5.91,2.4c1.29.52,1.92,2,1.39,3.29h0c-.52,1.29-2,1.92-3.29,1.39l-6.81-2.76-6.48,10.77,6.31,2.56c1.29.52,1.92,2,1.39,3.29h0c-.52,1.29-2,1.92-3.29,1.39l-7.22-2.93-7.8,12.67c-.65,1.05-1.96,1.48-3.1,1.02l-1.29-.52c-1.45-.59-2.02-2.33-1.2-3.67l7.36-11.95-10.46-4.24-7.8,12.67c-.65,1.05-1.96,1.48-3.1,1.02l-1.29-.52c-1.45-.59-2.02-2.33-1.2-3.67Zm26.66-9.57l6.58-10.73-10.46-4.24-6.58,10.73,10.46,4.24Z"/>
        <path class="cls-7" d="m430.76,1141.2l-32.79,42.74c-.47,2.78,1.53,4.56,6.43,9.03,8.77,8,17.54,16,26.01,24.3,1.33,1.31,1.99,4.4,1.5,6.3-2.92,11.24-6.51,22.32-9.31,33.59-.87,3.49-1.87,5.15-5.58,5.9-14.86,3-29.64,6.41-44.29,9.63-1.83,13.7,2.23,47.6,7.14,58.51,14.44-.52,29.19-.83,43.92-1.72,4.58-.28,6.46.82,8.54,5.18,4.83,10.11,10.6,19.8,16.52,29.33,2.4,3.86,3.43,6.56.58,10.79-7.4,10.96-14.13,22.37-21.34,33.46-1.94,2.98-2.09,5.25.74,7.45,13.32,10.39,26.65,20.76,39.98,31.14,3.27,2.55,5-.28,6.76-2.12,8.88-9.28,17.81-18.52,26.37-28.09,3.21-3.59,5.91-4.16,10.53-2.57,12.24,4.2,24.75,7.61,38.1,11.62,3.27,14.6,6.88,30.71,10.59,47.28,19.73.84,38.81-1.87,58.11-7.7-.53-16.47-1.06-32.94-1.53-47.46,13.25-7.95,25.69-15.04,37.67-22.83,3.47-2.25,5.45-2.09,8.6-.04,10.92,7.13,22.05,13.91,33.02,20.96,2.37,1.52,4.22,2.34,6.61.02,12.06-11.7,22.98-24.27,31.1-39.14,1.81-3.31,1.08-5.17-1.35-7.45-9.79-9.19-19.4-18.56-29.22-27.71-2.38-2.22-3.11-3.86-2.06-7.39,3.63-12.25,6.73-24.66,9.51-37.13.71-3.19,2.11-4,4.77-4.59,14.8-3.31,29.58-6.74,44.74-10.21.39-19.58-1.38-38.56-7.03-57.54-16.8.54-33.49,1.08-49.46,1.59-7.97-14.05-15.69-27.65-23.95-42.2,6.17-9.84,13.36-21.12,20.35-32.53,5.74-9.36,6.68-7.48-1.84-15.58-.81-.77-1.35-1.84-2.01-2.77-8.03-6.16-16.06-12.32-24.09-18.48-2.03-1.04-4.28-1.8-6.04-3.18-4.57-3.61-7.93-3.54-12.11,1.24-8.69,9.95-18.02,19.35-27.31,28.76-1.22,1.23-3.96,1.96-5.66,1.55-11.11-2.68-22.02-6.32-33.23-8.41-5.48-1.02-7.11-3.24-8.13-8.2-2.88-14.07-6.35-28.03-9.91-43.44-19.49,2.38-38.5,4.7-57.73,7.04.05,3.67.04,5.79.11,7.9.42,13.03.73,26.06,1.38,39.07.19,3.7-1.2,5.21-4.34,6.97-10.81,6.04-21.24,12.77-32.01,18.88-1.67.95-4.87.84-6.55-.15-9.2-5.44-18.1-11.39-27.19-17.02-7.36-4.55-10.11-6.22-13.6-4.58Zm67.7,84.2c29.31-38.2,84.05-45.41,122.25-16.1h0c38.2,29.31,45.41,84.05,16.1,122.25h0c-29.31,38.21-84.05,45.41-122.25,16.1h0c-38.2-29.31-45.41-84.05-16.1-122.25h0Z"/>
        <polygon class="cls-2" points="977.24 234.95 1008.59 238.73 995.21 214.4 977.24 234.95"/>
        <path class="cls-26" d="m1151.11,573.15c-.98,10.59,8.13,20.27,18.23,22.04,10.46,1.83,19.79-4.99,23.38-14.63,7.1-19.01-13.7-34.01-24.99-22.51-10.53,10.74-7.2,26.7,4.17,26.7,4.29,0,11.19-3.59,8.45-8.8-.61-1.17-2.34-1.08-2.98,0-1.38,2.35-1.27,2.43-1.92,2.96-1.02.82-2.45,1.1-3.72,1.08-11.58-.2-3.88-26.69,9.77-20.27,7.49,3.52,9.7,12.05,7.1,19.48-2.5,7.16-9.22,12.71-16.99,12.21-9.28-.6-17.07-9.13-17.67-18.27-.12-1.84-2.67-1.81-2.84,0h0Z"/>
        <path class="cls-13" d="m1768.17,254.63l9.37,4.02s15.65-3.49,17.4-6.43c1.75-2.94,2.77-10.37,4.96-10.37,2.19,0,6.33,1.08,6.92,6.28.43,3.78-5.92,13.99-5.15,15.21.48.76,5.8,3.23,9.72,4.97,2.58,1.14,4.3,3.62,4.49,6.44h0c.12,1.91-1.1,3.65-2.93,4.16l-2.85.8.66,2.91c.49,2.17-.86,4.32-3.01,4.83l-2.2.51.55,1.79c.71,2.3-.74,4.7-3.1,5.16l-1.91.37.04.5c.16,2.09-1.31,3.95-3.37,4.29l-1.9.31-24.96-10.72c-2.34-1-4.45-2.48-6.2-4.33l-8.16-5.23c-.88-.56-1.21-1.68-.79-2.63l9.69-21.76c.47-1.05,1.69-1.53,2.75-1.08Z"/>
        <g>
          <rect class="cls-27" x="1344.54" y="627.41" width="232.17" height="118.28" rx="31.39" ry="31.39"/>
          <polygon class="cls-24" points="1320.92 1793.34 1141.52 1876.04 1141.52 1894.35 1780.45 1894.35 1780.45 1876.04 1599.42 1793.34 1320.92 1793.34"/>
          <rect class="cls-24" x="1320.92" y="1438.9" width="278.61" height="354.59"/>
          <path class="cls-24" d="m2303.29,1550.14v-799.6c0-37.99-30.8-68.79-68.79-68.79H684.15c-37.99,0-68.79,30.8-68.79,68.79v799.6h1687.93Z"/>
          <rect class="cls-15" x="1141.52" y="1876.04" width="638.93" height="18.32"/>
          <rect class="cls-15" x="1320.92" y="1751.73" width="278.5" height="41.61"/>
          <path class="cls-27" d="m615.36,1550.14v128.13c0,26.65,17.62,48.26,39.35,48.26h1609.23c21.73,0,39.35-21.61,39.35-48.26v-128.13H615.36Z"/>
          <path class="cls-30" d="m1477.66,658.82c0,8.65-7.02,15.67-15.67,15.67s-15.67-7.02-15.67-15.67,7.02-15.67,15.67-15.67,15.67,7.02,15.67,15.67Z"/>
          <path class="cls-21" d="m2263.78,1515.42v-762.74c0-19.99-16.79-36.2-37.51-36.2H692.38c-20.71,0-37.51,16.21-37.51,36.2v762.74h1608.91Z"/>
          <path class="cls-17" d="m1554.47,1204.9h-176.57c-25.52,137.24-98.34,243.54-231.25,310.51h639.08c-140.75-67.97-210.64-175.49-231.25-310.51Z"/>
          <rect class="cls-5" x="291.65" y="1891.42" width="2251.75" height="13.44"/>
        </g>
        <g>
          <g>
            <path class="cls-16" d="m1357.64,1142.3h217.09v54.48c0,4.49-3.64,8.13-8.13,8.13h-200.83c-4.49,0-8.13-3.64-8.13-8.13v-54.48h0Z"/>
            <g>
              <path class="cls-26" d="m1296.98,839.25s-81.88,109.07-140.09,176.15c-78.56,90.52-57.69,102.06,12.67,353.13,179.07-120.59,102.68-294.58,166.98-329.63,117.33-63.97-39.56-199.64-39.56-199.64Z"/>
              <path class="cls-26" d="m1635.38,839.25s81.88,109.07,140.09,176.15c78.56,90.52,57.69,102.06-12.67,353.13-179.07-120.59-102.68-294.58-166.98-329.63-117.33-63.97,39.56-199.64,39.56-199.64Z"/>
            </g>
            <path class="cls-7" d="m1688.89,753.22c0-210.26-121.51-397.98-184.42-481.07-18.74-24.76-55.76-25.31-75.25-1.13-64.08,79.54-185.75,258.65-185.75,471.98,0,86.19,59.07,330.99,89.86,393.37,7.38,14.95,22.56,24.46,39.23,24.46h191.94c16.67,0,31.85-9.51,39.23-24.46,30.79-62.38,85.16-296.96,85.16-383.15Z"/>
            <path class="cls-25" d="m1603.73,1136.37c30.79-62.38,85.16-296.96,85.16-383.15,0-128.06-45.08-247.76-94.53-340.56-38.53-19.85-80.95-30.85-125.51-30.85-49.29,0-95.97,13.46-137.65,37.47-46.84,87.93-87.71,200.07-87.71,323.72,0,86.19,59.07,330.99,89.86,393.37,7.38,14.95,22.56,24.46,39.23,24.46h191.94c16.67,0,31.85-9.51,39.23-24.46Z"/>
            <g>
              <circle class="cls-12" cx="1474.71" cy="653.06" r="136.73" transform="translate(-29.85 1234.05) rotate(-45)"/>
              <circle class="cls-5" cx="1466.84" cy="651.33" r="136.73"/>
              <path class="cls-29" d="m1336.24,653.36c0-75.52,61.22-136.73,136.73-136.73,13.89,0,27.29,2.09,39.93,5.94-14.4-5.15-29.9-7.98-46.06-7.98-75.52,0-136.73,61.22-136.73,136.73,0,61.62,40.77,113.71,96.81,130.79-52.85-18.91-90.67-69.41-90.67-128.76Z"/>
              <circle class="cls-18" cx="1468.67" cy="770.45" r="10.32" transform="translate(348.05 1993.06) rotate(-75.17)"/>
              <circle class="cls-18" cx="1468.02" cy="535.68" r="10.32"/>
              <circle class="cls-18" cx="1556.3" cy="574.91" r="10.32" transform="translate(49.31 1268.86) rotate(-45)"/>
              <circle class="cls-18" cx="1384.68" cy="737.07" r="10.32"/>
              <circle class="cls-18" cx="1556.3" cy="732.51" r="10.32" transform="translate(-62.13 1315.02) rotate(-45)"/>
              <path class="cls-18" d="m1390.87,573.27c0,5.7-4.62,10.32-10.32,10.32s-10.32-4.62-10.32-10.32,4.62-10.32,10.32-10.32,10.32,4.62,10.32,10.32Z"/>
              <circle class="cls-18" cx="1586.82" cy="653.36" r="10.32" transform="translate(2.77 1313.42) rotate(-45)"/>
              <circle class="cls-18" cx="1348.55" cy="653.36" r="10.32" transform="translate(-149.89 640.88) rotate(-25.37)"/>
              <circle class="cls-4" cx="1466.84" cy="651.33" r="100.31" transform="translate(767.38 2095.83) rotate(-88.11)"/>
              <path class="cls-6" d="m1378.03,663.69c0-55.4,44.91-100.31,100.31-100.31,25.96,0,49.61,9.86,67.42,26.04-18.37-23.38-46.89-38.4-78.93-38.4-55.4,0-100.31,44.91-100.31,100.31,0,29.44,12.68,55.92,32.89,74.27-13.39-17.05-21.38-38.55-21.38-61.91Z"/>
              <g>
                <circle class="cls-16" cx="1466.83" cy="768.84" r="10.32" transform="translate(-114.03 1262.4) rotate(-45)"/>
                <path class="cls-20" d="m1466.84,774.57c-3.16,0-5.73-2.57-5.73-5.73s2.57-5.73,5.73-5.73,5.73,2.57,5.73,5.73-2.57,5.73-5.73,5.73Z"/>
                <circle class="cls-16" cx="1466.18" cy="534.07" r="10.32"/>
                <path class="cls-20" d="m1466.18,539.8c-3.16,0-5.73-2.57-5.73-5.73s2.57-5.73,5.73-5.73,5.73,2.57,5.73,5.73-2.57,5.73-5.73,5.73Z"/>
                <circle class="cls-16" cx="1554.47" cy="573.3" r="10.32" transform="translate(717.04 2002.9) rotate(-79.88)"/>
                <path class="cls-20" d="m1554.47,579.03c-3.16,0-5.73-2.57-5.73-5.73s2.57-5.73,5.73-5.73,5.73,2.57,5.73,5.73-2.57,5.73-5.73,5.73Z"/>
                <path class="cls-16" d="m1393.17,735.46c0,5.7-4.62,10.32-10.32,10.32s-10.32-4.62-10.32-10.32,4.62-10.32,10.32-10.32,10.32,4.62,10.32,10.32Z"/>
                <path class="cls-20" d="m1382.84,741.2c-3.16,0-5.73-2.57-5.73-5.73s2.57-5.73,5.73-5.73,5.73,2.57,5.73,5.73-2.57,5.73-5.73,5.73Z"/>
                <circle class="cls-16" cx="1554.47" cy="730.9" r="10.32" transform="translate(561.89 2132.82) rotate(-79.88)"/>
                <path class="cls-20" d="m1554.47,736.64c-3.16,0-5.73-2.57-5.73-5.73s2.57-5.73,5.73-5.73,5.73,2.57,5.73,5.73-2.57,5.73-5.73,5.73Z"/>
                <circle class="cls-16" cx="1378.71" cy="571.67" r="10.32"/>
                <path class="cls-20" d="m1378.71,577.4c-3.16,0-5.73-2.57-5.73-5.73s2.57-5.73,5.73-5.73,5.73,2.57,5.73,5.73-2.57,5.73-5.73,5.73Z"/>
                <circle class="cls-16" cx="1584.98" cy="651.76" r="10.32" transform="translate(3.37 1311.65) rotate(-45)"/>
                <path class="cls-20" d="m1584.98,657.49c-3.16,0-5.73-2.57-5.73-5.73s2.57-5.73,5.73-5.73,5.73,2.57,5.73,5.73-2.57,5.73-5.73,5.73Z"/>
                <circle class="cls-16" cx="1346.71" cy="651.76" r="10.32" transform="translate(-146.67 561.1) rotate(-22.35)"/>
                <path class="cls-20" d="m1346.71,657.49c-3.16,0-5.73-2.57-5.73-5.73s2.57-5.73,5.73-5.73,5.73,2.57,5.73,5.73-2.57,5.73-5.73,5.73Z"/>
              </g>
              <path class="cls-9" d="m1529.37,654.81c-11.33,43.75-55.98,70.02-99.72,58.7-13.47-3.49-25.28-10.15-34.85-18.96,10.91,18.88,29.09,33.55,51.86,39.45,45.09,11.68,91.11-15.41,102.79-60.5,9.55-36.89-6.85-74.4-37.83-93.22,17.26,19.68,24.81,47.28,17.75,74.53Z"/>
            </g>
          </g>
          <path class="cls-26" d="m1494.67,1127.87c0,132.91-13.19,218.68-28.49,240.66-15.83-22.89-28.49-107.75-28.49-240.66s28.49-240.66,28.49-240.66c0,0,28.49,107.75,28.49,240.66Z"/>
          <path class="cls-1" d="m1271.34,788.81c0-222.16,130.56-408.68,199.33-491.51.06-.08.13-.15.19-.23,6.43-7.66-1.75-18.66-11.21-15.01-7.32,2.83-14.05,7.48-19.45,13.98-64.08,77.19-185.75,251-185.75,458.02,0,82.45,53.06,286.33,84.19,350.92-32.74-102.31-67.3-245.86-67.3-316.18Z"/>
        </g>
        <path class="cls-17" d="m2263.78,1515.42v-239.37c-6.82-1.14-13.82-1.74-20.96-1.74-69.98,0-126.71,79.14-126.71,149.12,0,4.52.24,8.99.7,13.39-1.15-.04-2.3-.07-3.46-.07-11.32,0-22.2,1.87-32.35,5.3-15.52-44.34-57.72-76.14-107.35-76.14-57.45,0-104.95,42.61-112.62,97.96-6.79-1.94-13.94-3-21.35-3-34.84,0-64.32,22.94-74.16,54.54h498.26Z"/>
        <path class="cls-17" d="m1106.68,1438.9c-32.64,0-61.05,18.11-75.75,44.82-11.25-12.27-27.41-19.97-45.37-19.97-15.78,0-30.16,5.94-41.06,15.71-8.83-54.02-55.72-95.25-112.24-95.25-9.29,0-18.31,1.12-26.95,3.22.02-1.07.04-2.14.04-3.22,0-77.08-62.49-139.57-139.57-139.57-3.67,0-7.32.14-10.92.42v270.36h537.64c-4.9-43.06-41.45-76.51-85.83-76.51Z"/>
        <g>
          <path class="cls-23" d="m930.38,412.39c1.94.08,7.24,1.85,14.99,16.51,9.9,18.71,24.38,75.25,24.38,75.25l-43.2,16.09-5.55-11.8-9.14-90.85s17.99-5.23,18.52-5.2Z"/>
          <path class="cls-8" d="m873.27,404.24c12.35.02,42.92,3.62,57.11,8.15,0,0,10.42,89.58-9.38,157.65-4.43,15.24,3.67,63.16,3.67,63.16l-128.01-1.69s15.17-115.87,9.45-134.58c-5.71-18.72-5.85-83.94-5.85-83.94,0,0,.88-.14,28.76-4.96,13.01-2.25,31.07-3.82,44.26-3.8Z"/>
          <path class="cls-11" d="m858.35,799.47s2.83,32.69,8.04,41.74c5.21,9.05-.27,24.44-.55,26.55-.27,2.11-10.96,5.13-27.95,3.32-16.99-1.81-16.72-5.73-15.35-12.07,1.37-6.34,10.41-14.48,10.96-20.52.55-6.03-5.21-27.76-5.21-27.76l30.05-11.26Z"/>
          <path class="cls-19" d="m910.22,606.23s88.37-4.91,108.1,7.04c19.73,11.95-14.02,70.6-14.02,70.6,0,0-61.49-2.83-181.93,4.12-28.52,1.65-30.98-74.37-25.65-80.66,5.33-6.29,113.5-1.11,113.5-1.11Z"/>
          <path class="cls-3" d="m835.77,873.62c-17.5-1.86-15.33-10.46-13.92-16.99.88-4.09,5.9-8.9,8.9-13.46,1.56,1.25,4.11,3.45,11.71,5.69,7.89,2.33,18.71-2.28,25.6-5.17,2.46,9.14,2.57,20.8,2.34,22.57-.28,2.17-17.12,9.22-34.62,7.35Z"/>
          <path class="cls-25" d="m845.43,669.45c3.53,26.72,21.01,159.71,21.01,159.71l-40.56,5.03s-49.88-173.59-47.32-200.14c2.56-26.55,21.23-28.79,21.23-28.79,0,0,36.3-6.53,45.64,64.19Z"/>
          <path class="cls-11" d="m798.86,422.95c11.97-4.49,17.82,103.35,19.44,147.74,21.2,2.04,58.14.02,67.34-.68,4.33-.32,14.3-3.98,18.6-4.54,4.41-.58,8.41-.88,10.57-.5.8.14,22.89,9.17,24.78,11.15,2.34,2.46,8.68,8.66,7.61,11.34-1.07,2.68-12.19-7.47-12.19-7.47l-5.43-3.05c6.76,6.61,19.66,15.31,17.81,18.48-1.81,3.09-13.45-5.74-21.74-11.76,7.11,6.43,15.95,17.92,13.92,19.72-1.83,1.61-11.88-11.7-22.63-15.53-3.98-1.42-7.95,2.51-11.08,2.99-2.3.35-5.86,1.09-8.11.45l-11.63-3.3c-3.96.36-4.06,2.7-8.06,3.55-4.65.99-12.27,2.03-18.18,3.48-34.07,8.32-45.43,12.19-55.86,12.18-31.59-.02-33.43-173.64-5.14-184.25Z"/>
          <path class="cls-23" d="m776.14,524.2c-2.24-45.47-1.91-101.51,23.57-111.07,10.06-3.77,27.79,18.91,24.6,112-13.61,1.12-33.58,2.03-48.17-.92Z"/>
          <path class="cls-11" d="m981.2,831.17s-5.86,10.34-1.25,19.02c4.61,8.67,28.79,21.43,31.31,26.14,2.52,4.7,1.53,8.03,1.53,8.03l-71.81-17.6,5.5-21.65,6.72-14.96,28,1.03Z"/>
          <path class="cls-3" d="m983.65,854.81s-20.19,3.5-28.19-2.89c-8.01-6.38-7.47-7.56-10.42-6.46-1.9.71-4.79,9.33-6.61,15.39-.97,3.23.97,6.61,4.25,7.42l74.78,18.48c5.68,1.09,9.44-2.45,5.62-7.01-2.62-3.12-5.91-5.55-7.72-7.18-5.57-5.02-31.7-17.76-31.7-17.76Z"/>
          <path class="cls-25" d="m974.16,627.17c5.71-12.02,18.7-27.67,41.56-18.25,21.8,8.99,27.65,31.09,20.77,53.71-6.88,22.63-52.16,155.64-53.74,173.93l-36.16.24s6.57-105.32,8.18-130.78c1.55-24.5,9.49-58.05,19.38-78.86Z"/>
          <path class="cls-30" d="m1032.86,504.67h-120.87c-3.2,0-6.08,1.94-7.29,4.91l-37.22,91.08h-66.63c-1.86,0-3.37,1.51-3.37,3.38h0c0,1.87,1.51,3.38,3.37,3.38h189.65c5.21,0,9.94-3.07,12.08-7.84l37.47-83.76c2.34-5.23-1.47-11.15-7.19-11.15Z"/>
          <path class="cls-17" d="m967.78,557.7c-.82,4.09-4.37,6.83-7.94,6.11-3.57-.72-5.8-4.61-4.99-8.7.82-4.09,4.37-6.83,7.94-6.11,3.57.72,5.8,4.61,4.99,8.7Z"/>
          <g>
            <path class="cls-5" d="m901.99,294.83c-3.64-1.23-7.23-2.61-10.69-4.28-3.91-1.89-8.99-4.1-12.19-4.59-6.75-1.04-18.33-.35-24.73,6.59-7.97,8.65-22.14,1.56-19.29,46.86,3.23,51.27,31.74,45.64,32.43,44.77.69-.87,25.42-32.8,25.42-32.8,0,0,8.65,18.92,8.65,18.22s44.16-60.04.4-74.77Z"/>
            <path class="cls-11" d="m880.35,387.97l2.46,18.32s5.51,26.39-1.58,31.48c-7.09,5.09-30.16-32.23-30.16-32.23l2.44-46.42,26.84,28.85Z"/>
            <path class="cls-26" d="m852.72,374.16c5.86,15.83,19.81,25.57,29.72,29.34l-2.09-15.53-26.84-28.85-.79,15.04Z"/>
            <path class="cls-11" d="m878.89,308.6c15.03-2.43,28.51,9.66,28.13,24.7-.16,6.54-.7,14.7-2.06,23.5-3.27,21.15-17.7,39.77-27.24,38.11-9.54-1.66-33.54-19.9-29.32-50,2.61-18.58,14.71-33.76,30.48-36.31Z"/>
            <path class="cls-11" d="m855.04,348.5c-.81,4.65-4.53,7.89-8.32,7.22-3.79-.66-6.21-4.97-5.4-9.62.81-4.65,4.53-7.88,8.32-7.22,3.79.66,6.21,4.97,5.4,9.62Z"/>
            <path class="cls-5" d="m849.63,338.88s11.53,2.87,15.82-4.55c4.28-7.42,19.59-23.43,39.04-16.79,19.46,6.64-17.12-16.14-18.68-16.14s-20.24-.13-20.24-.13c0,0-14.4,11.84-14.92,13.15-.52,1.3-4.67,15.49-4.67,15.49l3.64,8.98Z"/>
          </g>
          <path class="cls-17" d="m870.73,369.84l20.99,4.01s-2,7.91-11.28,6.41c-11.32-1.83-9.71-10.42-9.71-10.42Z"/>
        </g>
        <g>
          <path class="cls-11" d="m2279.05,1813.45s3.88,27.1,10.57,35.85c2.24,2.94,6.34,6.65,9.03,11.95,4.19,8.26,1.87,20.55-1.22,27.32-1.58,3.48.11,3.47-3.5,4.59-10.69,3.32-22.06-2.27-26.62-12.57-2.54-5.75-4.77-13.43-5.22-23.09-1.14-24.61-8.75-37.12-8.75-37.12l25.7-6.93Z"/>
          <path class="cls-11" d="m2162.12,1823.98s-2.4,30.56-.45,40.49c1.04,5.32,6.85,16.27,4.19,21.27-2.66,5-5.71,6.26-5.71,6.26l-69.03,1.12c-3.76.06-1.28-2.37,1.76-4.61,4.96-3.67,8.97-6.09,24.82-13.81,1.03-.5,4.8-2.91,6.16-3.74,3.44-2.11,6.9-5.44,9.87-8.77,4.96-5.55,5.39-32.46,5.39-32.46l23.01-5.74Z"/>
          <path class="cls-7" d="m2108.17,1417.75s-8.69,49.62-2.99,82.15c5.71,32.53,33.1,334.06,33.1,334.06l30.44,1.73s6.38-125.96,5.24-143.47c-1.14-17.52-10.17-46.83-10.17-46.83l3.03-101.7-38.41-133.6-20.24,7.66Z"/>
          <path class="cls-7" d="m2197.63,1407.31s23.97,36.28,29.68,66.31c5.71,30.03-4.19,122.31,6.79,161.66,5.94,21.3,28.47,54.2,31.89,81.72,3.42,27.53,16.86,99.63,16.86,99.63l-30.43,6.07-70.72-180.07-55.47-162.76-14.21-83.82,85.61,11.26Z"/>
          <path class="cls-25" d="m2265.25,1875.18c16.58,3.04,27.62-6.71,33.36-14.02,4.21,8.27,6.27,20.62,3.17,27.42-2.73,5.99-10.71,5.81-16.99,6.05-6.64.25-11.78-3.46-15.08-9.28-1.54-2.72-3.13-6.1-4.46-10.17Z"/>
          <path class="cls-25" d="m2123.85,1870.95c18.25,4.71,31.75,1.51,39.3-1.55,1.95,5.55,4.53,12.51,3.16,16.52-1.68,4.91-4.06,6.03-6.17,6.08-16.67.44-61.08,1.04-73.79,1.21-1.78.02-2.75-2.06-1.61-3.43,3.15-3.79,37.76-17.99,39.12-18.82Z"/>
          <path class="cls-14" d="m1998.91,1332.04c-1.27-2.7,12.14-6.38,12.57-9.3.43-2.91-17.54-1.27-18.45-3.7-1.66-4.47,19.58-3.01,18.94-5.11-.63-2.11-22.46-4.69-20.54-8.62,1.92-3.92,22.35,5.04,22.68,2.48.32-2.56-19.75-6.63-19.97-12.15-.12-2.95,33.43,11.3,36.94,9.33,3.51-1.97-5.55-14.96-2.83-17.3,2.72-2.35,14.49,24.8,16.61,25.59,2.12.79,48.15,14.71,63.8,17.01,1.32-5.3,13.09-34.46,14.22-39.46,9.19,5.2,20.9-1.06,30.31,3.58-4.73,16.7-15.37,71.69-19.61,74.17-12.94,7.54-80.99-28.41-92.24-34.77-11.26-6.37-17.01-3.33-24.35-4.95-7.33-1.62-16.82,5.91-18.09,3.2Z"/>
          <path class="cls-5" d="m2120.01,1170.04c-3.42-15.56-6.78-31.22,2.25-48.32,7.3-13.83,19.93-21.79,34.54-23.53,41.4-4.91,32.55,33.74,90.42,42.11,17.98,2.6,34.69,5.1,49.7,14.04,27.11,16.15,37.34,42.05,19.36,84.25-44.02,103.33-149.35,13.54-165.42-4.74-15.94-18.14-28.65-53.8-30.85-63.81Z"/>
          <path class="cls-25" d="m2185.17,1219.15s20.91,2.37,33.41,15.97c12.5,13.6-20.21,122.94-22.49,140.25-2.27,17.31,21.74,65.23,21.74,65.23,0,0-81.64,16.23-102.86,2.21,0,0-1.87-133.81.41-146.17,2.27-12.37,21.22-62.66,25.77-67.6,4.55-4.95,44.01-9.89,44.01-9.89Z"/>
          <path class="cls-11" d="m2174.65,1177s.16.93.46,2.51c1.41,7.59,6.84,32.74,10.5,39.66,4.43,8.36-15.17,35.02-34.03,31.76-5.62-.97,4.75-24.49,4.25-26.99-.95-4.77-2.25-11.28-3.57-17.95-.75-3.76-1.5-7.58-2.21-11.17-2.02-10.19-3.66-18.53-3.66-18.53l28.27.7Z"/>
          <path class="cls-28" d="m2175.11,1179.51c-.29-1.58-.46-2.51-.46-2.51l-28.27-.7s1.65,8.34,3.66,18.53c.71,3.57,1.46,7.36,2.2,11.1,4.36-.64,8.92-2.76,13.5-6.75,4.98-4.36,8.25-9.59,10.22-15.17-.35-1.78-.64-3.32-.86-4.5Z"/>
          <path class="cls-11" d="m2157.65,1109.82s11.53,1.6,19.88,12.38c8.35,10.78,17.35,44.12-3.39,62.24s-41.24-2.39-44.28-24.14c-3.04-21.75-2.42-51.26,27.8-50.47Z"/>
          <path class="cls-11" d="m2123.8,1154.93c1.31,5.24,4.74,8.79,7.67,7.91s4.24-5.83,2.94-11.08c-1.31-5.24-4.74-8.79-7.67-7.91s-4.24,5.83-2.94,11.08Z"/>
          <path class="cls-5" d="m2144.84,1109.92s27.09,31.1,39.82,32.57c12.73,1.46,14.41,18.31,14.41,18.31,0,0-4.55-38.81-17.16-46.3-12.61-7.49-37.07-4.58-37.07-4.58Z"/>
          <path class="cls-11" d="m2180.5,1150.04c-1.04,5.63,1.05,10.79,4.65,11.53,3.6.74,7.37-3.23,8.4-8.86,1.04-5.63-1.05-10.79-4.65-11.53-3.61-.74-7.37,3.22-8.4,8.85Z"/>
          <path class="cls-30" d="m2180.89,1307.89l-87.54,12.81c-2.63.38-4.45,2.83-4.07,5.46l17.08,116.79c.39,2.63,2.83,4.45,5.46,4.07l87.54-12.81c2.63-.38,4.45-2.83,4.07-5.46l-17.08-116.79c-.39-2.63-2.83-4.45-5.46-4.07Z"/>
          <path class="cls-10" d="m2115.6,1313.57c-.08-.53.29-1.03.83-1.11l36.51-5.34c.53-.08,1.03.29,1.11.82l.55,3.79-38.45,5.62-.56-3.79Z"/>
          <path class="cls-10" d="m2129.09,1311.78c.46,3.18,3.42,5.38,6.6,4.92,3.18-.46,5.38-3.42,4.92-6.6-.46-3.18-3.42-5.38-6.6-4.92-3.18.47-5.38,3.42-4.92,6.6Zm2.07-.3c-.3-2.04,1.11-3.94,3.15-4.23,2.04-.3,3.94,1.11,4.23,3.15.3,2.04-1.11,3.94-3.15,4.23-2.04.3-3.94-1.11-4.23-3.15Z"/>
          <path class="cls-2" d="m2116.06,1312.59c-.33.2-.52.58-.46.98l.56,3.79,38.45-5.62c.38,2.63-1.43,5.07-4.06,5.46l-28.92,4.23c-2.63.38-5.07-1.43-5.46-4.06l-.56-3.79c-.06-.4.13-.78.46-.98Z"/>
          <path class="cls-17" d="m2142.82,1171.07l19.7-.1s-.41,7.49-9.08,7.78c-10.56.36-10.62-7.68-10.62-7.68Z"/>
          <path class="cls-11" d="m2242.31,1337.75l-31.72,3.24s.52,26.92-.03,30.01c0,0-54.24,15.04-76.91,19.11,0,0-10.32-5.85-14.5-7.71-4.18-1.86-15.4-3.89-17.88-4.21-2.48-.32-1.63,2.4.5,3.35,2.13.95,7.65,3.55,9.21,6.73,0,0-4.48.49-6.85-.57-2.37-1.06-5.63-3.29-5.68-4.45-.05-1.16-.59-3.95-1.37-3.8-.2.04-.46.96-.73,1.91-.25.91-.52,1.85-.74,2.77-.4,1.65-.86,4.06-1.04,5.15-.41,2.47,1.11,9.29,1.32,11.71.39,4.42,1.65,6.38,3.98,7.51,3.76,1.31,7.75,2.15,13.63,2.76,10.79,1.12,20.71-1.99,25.03-2.48,4.33-.49,73.39-7.34,73.39-7.34,0,0,27.46-3.95,29.28-8.68,1.82-4.72,1.09-55.02,1.09-55.02Z"/>
          <path class="cls-25" d="m2214.75,1231.18s10.01,4.75,18.81,25.25c8.36,19.48,10.82,116.72,10.82,116.72l-33.18-5.53-16.86-45.34c-12.02-27.13-8.91-58.73,8.59-82.69,4.67-6.39,8.97-10.25,11.81-8.41Z"/>
        </g>
      </g>
    </g>
  </g>
</svg>