<?xml version="1.0" encoding="UTF-8"?>
<svg xmlns="http://www.w3.org/2000/svg" xmlns:xlink="http://www.w3.org/1999/xlink" viewBox="0 0 600 450">
  <defs>
    <style>
      .cls-1, .cls-2, .cls-3, .cls-4, .cls-5, .cls-6, .cls-7, .cls-8, .cls-9, .cls-10, .cls-11, .cls-12, .cls-13, .cls-14, .cls-15, .cls-16, .cls-17, .cls-18, .cls-19, .cls-20, .cls-21, .cls-22, .cls-23, .cls-24, .cls-25, .cls-26, .cls-27, .cls-28, .cls-29, .cls-30, .cls-31, .cls-32, .cls-33, .cls-34, .cls-35, .cls-36, .cls-37, .cls-38, .cls-39, .cls-40, .cls-41, .cls-42, .cls-43 {
        stroke-width: 0px;
      }

      .cls-1, .cls-29 {
        fill: #0b1116;
      }

      .cls-1, .cls-44 {
        mix-blend-mode: multiply;
        opacity: .46;
      }

      .cls-2 {
        fill: url(#linear-gradient-12);
      }

      .cls-3 {
        fill: #1a2632;
      }

      .cls-4 {
        fill: url(#linear-gradient-17);
      }

      .cls-5 {
        fill: url(#linear-gradient-19);
      }

      .cls-6 {
        fill: url(#linear-gradient);
      }

      .cls-7 {
        fill: url(#linear-gradient-21);
      }

      .cls-8 {
        fill: url(#linear-gradient-6);
      }

      .cls-9 {
        fill: #fcbd3f;
      }

      .cls-10 {
        fill: #feb292;
      }

      .cls-11 {
        fill: #f9b4aa;
      }

      .cls-45 {
        clip-path: url(#clippath-2);
      }

      .cls-46 {
        isolation: isolate;
      }

      .cls-12 {
        fill: #29235c;
      }

      .cls-13 {
        fill: #bd96c0;
      }

      .cls-14 {
        fill: #f78dab;
      }

      .cls-15 {
        fill: url(#linear-gradient-15);
      }

      .cls-16 {
        fill: url(#linear-gradient-11);
      }

      .cls-17 {
        fill: #10bcf9;
      }

      .cls-18 {
        fill: url(#linear-gradient-5);
      }

      .cls-19 {
        fill: none;
      }

      .cls-20 {
        fill: #b70449;
      }

      .cls-21 {
        fill: #93033e;
      }

      .cls-47 {
        clip-path: url(#clippath-1);
      }

      .cls-22 {
        fill: #07a6d1;
      }

      .cls-23 {
        fill: url(#linear-gradient-13);
      }

      .cls-24 {
        fill: url(#linear-gradient-16);
      }

      .cls-25 {
        fill: url(#linear-gradient-22);
      }

      .cls-26 {
        fill: #fff;
      }

      .cls-27 {
        fill: #af0848;
      }

      .cls-28 {
        fill: url(#linear-gradient-20);
      }

      .cls-30 {
        fill: url(#linear-gradient-14);
      }

      .cls-31 {
        fill: url(#linear-gradient-2);
      }

      .cls-32 {
        fill: #5be8c3;
      }

      .cls-33 {
        fill: #f27f20;
      }

      .cls-34 {
        fill: url(#linear-gradient-7);
      }

      .cls-35 {
        fill: url(#linear-gradient-3);
      }

      .cls-48 {
        clip-path: url(#clippath);
      }

      .cls-36 {
        fill: url(#linear-gradient-9);
      }

      .cls-37 {
        fill: #fca39a;
      }

      .cls-38 {
        fill: url(#linear-gradient-8);
      }

      .cls-39 {
        fill: url(#linear-gradient-18);
      }

      .cls-40 {
        fill: #d60b52;
      }

      .cls-41 {
        fill: url(#linear-gradient-10);
      }

      .cls-42 {
        fill: url(#linear-gradient-4);
      }

      .cls-43 {
        fill: #80f9dc;
      }
    </style>
    <linearGradient id="linear-gradient" x1="27.23" y1="217.78" x2="115.72" y2="217.78" gradientUnits="userSpaceOnUse">
      <stop offset="0" stop-color="#36ffe1"/>
      <stop offset=".31" stop-color="#009fe3" stop-opacity=".5"/>
      <stop offset="1" stop-color="#fff" stop-opacity="0"/>
    </linearGradient>
    <linearGradient id="linear-gradient-2" x1="35.32" y1="200.75" x2="123.81" y2="200.75" gradientUnits="userSpaceOnUse">
      <stop offset="0" stop-color="#fff" stop-opacity="0"/>
      <stop offset=".7" stop-color="#36ffe1" stop-opacity=".5"/>
      <stop offset="1" stop-color="#009fe3"/>
    </linearGradient>
    <linearGradient id="linear-gradient-3" x1="64.42" y1="441.93" x2="122.15" y2="441.93" gradientTransform="translate(51.35 -184.97) rotate(1.53) scale(1.06 1.1) skewX(3.14)" xlink:href="#linear-gradient-2"/>
    <linearGradient id="linear-gradient-4" x1="1446.66" y1="1366.88" x2="1536.93" y2="1366.88" gradientTransform="translate(1486.24 -1334.58) rotate(79.61)" gradientUnits="userSpaceOnUse">
      <stop offset="0" stop-color="#36ffe1"/>
      <stop offset="1" stop-color="#009fe3"/>
    </linearGradient>
    <linearGradient id="linear-gradient-5" x1="491.59" y1="749.44" x2="528.05" y2="749.44" gradientTransform="translate(166.49 -499.33) rotate(20.15)" xlink:href="#linear-gradient-4"/>
    <linearGradient id="linear-gradient-6" x1="469.43" y1="676.28" x2="488.31" y2="676.28" gradientTransform="translate(166.49 -499.33) rotate(20.15)" gradientUnits="userSpaceOnUse">
      <stop offset="0" stop-color="#e6457e"/>
      <stop offset="1" stop-color="#3127c9"/>
    </linearGradient>
    <linearGradient id="linear-gradient-7" x1="482.9" y1="688.91" x2="524.34" y2="688.91" xlink:href="#linear-gradient-6"/>
    <linearGradient id="linear-gradient-8" x1="485.75" y1="688.06" x2="502.1" y2="688.06" xlink:href="#linear-gradient-6"/>
    <linearGradient id="linear-gradient-9" x1="467.84" y1="643.33" x2="498.33" y2="643.33" gradientTransform="translate(166.49 -499.33) rotate(20.15)" gradientUnits="userSpaceOnUse">
      <stop offset="0" stop-color="#662483"/>
      <stop offset="1" stop-color="#2d2e83"/>
    </linearGradient>
    <linearGradient id="linear-gradient-10" x1="473.53" y1="659.57" x2="487.08" y2="659.57" xlink:href="#linear-gradient-9"/>
    <linearGradient id="linear-gradient-11" x1="1395.6" y1="-94.44" x2="1466.1" y2="-94.44" gradientTransform="translate(1643.52 5.1) rotate(164.29) scale(1 -1)" xlink:href="#linear-gradient-4"/>
    <linearGradient id="linear-gradient-12" x1="195.38" y1="331.66" x2="232.2" y2="331.66" gradientTransform="matrix(1,0,0,1,0,0)" xlink:href="#linear-gradient-4"/>
    <linearGradient id="linear-gradient-13" x1="1405.33" y1="543.2" x2="1443.15" y2="543.2" gradientTransform="translate(1718.21 1.66) rotate(-168.52) scale(1 -1)" gradientUnits="userSpaceOnUse">
      <stop offset="0" stop-color="#f9b233"/>
      <stop offset="1" stop-color="#d60b52"/>
    </linearGradient>
    <clipPath id="clippath">
      <path class="cls-19" d="m228.25,274.12h0c.19,1.1.38,2.31-.17,3.28-.44.8-1.29,1.27-2.1,1.68-8.8,4.39-19.36,5.12-28.69,1.99-.37-.13-.76-.27-1.03-.57-.34-.39-.39-.94-.42-1.46-.34-6.15-.5-12.31-.46-18.47.03-4.4.15-8.81.68-13.18,1.15-9.64,4.27-19.05,9.1-27.48.45-.78.94-1.58,1.73-2.02.56-.31,1.21-.41,1.85-.41,2.59,0,4.75,1.39,7.02,2.42,2.93,1.32,4.56,1.18,7.56,1.34,3,.16,2.34-.29,2.35,2.8,0,3.24-.41,6.54-.48,9.8-.28,13.48.75,26.99,3.06,40.27Z"/>
    </clipPath>
    <linearGradient id="linear-gradient-14" x1="1411.77" y1="489.22" x2="1442.23" y2="489.22" gradientTransform="translate(1718.21 1.66) rotate(-168.52) scale(1 -1)" xlink:href="#linear-gradient-9"/>
    <linearGradient id="linear-gradient-15" x1="365.32" y1="206.06" x2="448.27" y2="206.06" gradientTransform="matrix(1,0,0,1,0,0)" xlink:href="#linear-gradient-9"/>
    <linearGradient id="linear-gradient-16" x1="-86.07" y1="148.08" x2="-51.38" y2="148.08" gradientTransform="translate(312.85 -12.43) rotate(13.24)" xlink:href="#linear-gradient-9"/>
    <linearGradient id="linear-gradient-17" x1="-749.38" y1="514.7" x2="-733.21" y2="514.7" gradientTransform="translate(1124 235.31) rotate(41.63)" xlink:href="#linear-gradient-4"/>
    <linearGradient id="linear-gradient-18" x1="-142.92" y1="229.2" x2="-67.27" y2="229.2" gradientTransform="translate(312.85 -12.43) rotate(13.24)" xlink:href="#linear-gradient-6"/>
    <clipPath id="clippath-1">
      <path class="cls-19" d="m177.21,163.77h0c-5.31,3.72-8.78,9.49-11.83,15.22-3.84,7.21-7.25,14.64-10.23,22.25-.4,1.02-1.02,2.22-2.11,2.27-1.01.05-1.74-.93-2.28-1.78-3.83-6.03-8.49-11.52-13.82-16.28-3.14-2.8-6.67-5.43-10.81-6.19-2.13-.39-4.8.04-5.63,2.04-.63,1.54.13,3.26.92,4.72,6.22,11.53,14.87,21.73,25.22,29.76,2.61,2.02,5.62,4,8.91,3.76,3.06-.22,5.62-2.29,7.96-4.27,11.17-9.51,22.22-19.35,31.05-31.07,2.49-3.31,4.86-6.91,5.46-11,1.93-13.18-14.51-15.24-22.81-9.42Z"/>
    </clipPath>
    <linearGradient id="linear-gradient-19" x1="-92.03" y1="252.4" x2="-62.05" y2="252.4" gradientTransform="translate(312.85 -12.43) rotate(13.24)" xlink:href="#linear-gradient-6"/>
    <clipPath id="clippath-2">
      <path class="cls-19" d="m174.96,172.81c-2.12,5.3-1.77,11.21-1.39,16.9.6,8.95,1.21,17.95,3.24,26.69.94,4.03,2.18,8.11,1.67,12.22-.6,4.89-3.59,9.08-5.81,13.47-4.09,8.07-5.74,17.35-4.69,26.34.13,1.1.31,2.24.93,3.16.62.92,1.78,1.57,2.84,1.25.83-.25,1.39-.99,1.89-1.69,7.76-10.98,13.07-23.53,16.93-36.41,3.86-12.88,6.31-26.13,8.76-39.35,1.18-6.39,2.37-12.86,1.89-19.34-.28-3.84-1.21-7.76-3.55-10.82h0c-7.24-9.5-19.28-.99-22.72,7.59Z"/>
    </clipPath>
    <linearGradient id="linear-gradient-20" x1="-59.51" y1="124.18" x2="-53.26" y2="124.18" gradientTransform="translate(312.85 -12.43) rotate(13.24)" xlink:href="#linear-gradient-9"/>
    <linearGradient id="linear-gradient-21" x1="-105.01" y1="149.28" x2="-50.78" y2="149.28" gradientTransform="translate(312.85 -12.43) rotate(13.24)" xlink:href="#linear-gradient-9"/>
    <linearGradient id="linear-gradient-22" x1="767.46" y1="215.97" x2="786.25" y2="215.97" gradientTransform="translate(-598.81 161.66) rotate(-17.63)" xlink:href="#linear-gradient-4"/>
  </defs>
  <g class="cls-46">
    <g id="katman_1" data-name="katman 1">
      <path class="cls-6" d="m27.42,238.01c2.22,4.83,23.74-.31,48.08-11.48,24.33-11.17,42.26-24.15,40.04-28.98-2.22-4.83-23.74.31-48.08,11.48-24.33,11.17-42.26,24.15-40.04,28.98Z"/>
      <path class="cls-31" d="m35.51,220.98c2.22,4.83,23.74-.31,48.08-11.48,24.33-11.17,42.26-24.15,40.04-28.98-2.22-4.83-23.74.31-48.08,11.48-24.33,11.17-42.26,24.15-40.04,28.98Z"/>
      <path class="cls-35" d="m132.54,319.61c2.42,5.28,17.74,3.43,34.22-4.13,16.47-7.56,27.86-17.98,25.44-23.26-2.42-5.28-17.74-3.43-34.22,4.13-16.47,7.56-27.86,17.98-25.44,23.26Z"/>
      <g>
        <path class="cls-40" d="m386.36,429.66c-.03.39-.07.79-.23,1.15-.27.58-.83.98-1.41,1.25-1.46.68-3.13.72-4.75.75-3.34.06-6.7.11-10.02-.26-.48-.05-1.07-.21-1.15-.69-.04-.22.05-.44.14-.63.5-1.01,1.4-1.83,2.45-2.24,1.49-.58,3.19-.35,4.72-.83,2.1-.66,3.66-2.74,3.7-4.94,0-.3,0-.64.22-.84.15-.14.37-.18.57-.21h0c2.16-.31,4.44-4.96,5.58-2.75.8,1.56.31,8.55.19,10.25Z"/>
        <path class="cls-40" d="m423.93,426.42c.09.95.13,2.03-.54,2.71-.4.4-.98.56-1.53.69-4.97,1.21-10.12,1.7-15.23,1.44-.35-.02-.73-.05-.97-.31-.41-.44-.07-1.17.37-1.58,1.37-1.27,3.41-1.39,5.25-1.71,1.5-.26,3.02-.73,4.19-1.7,1.17-.97,1.94-2.54,1.64-4.04h0c-.48-2.36,3.42-6.24,5.28-5.22,2.1,1.15,1.35,7.69,1.53,9.72Z"/>
        <path class="cls-42" d="m411.81,378.74c-.22,1.13-.43,2.28-.27,3.42.18,1.34.86,2.56,1.51,3.75,5.26,9.77,9.87,23.68,11.79,34.61.12.71.23,1.47-.11,2.1-.22.4-8.48.83-8.96.64-.39-.16-.65-.52-.88-.86-2.42-3.62-9.95-21.81-11.78-26.95-1.04-2.93-1.82-5.95-2.6-8.96-4.06-15.79-8.12-32.15-5.42-48.23.11-.66.26-1.37.77-1.8.42-.35.99-.44,1.53-.52,0,0,0,0,0,0,3.69-.52,7.38-1.04,11.06-1.55,1.29-.18,4.24-1.19,5.44-.72,1.41.56,1.23,1.9,1.59,3.26.59,2.24,1.31,3.96,1.15,6.33-.24,3.56-3.83,30.48-4.81,35.48Z"/>
        <path class="cls-18" d="m368.21,378.2c-2.88,6.7-.58,14.38,1.74,21.29,2.52,7.49,5.03,14.97,7.55,22.46.19.56.17,3.55.68,3.86.6.37,1.38.18,2.06-.01,2.24-.65,5.25.69,7.49.04-1.71-12.38-3.94-29.12-5.64-41.5-.06-.43-.12-.87,0-1.29.26-.93,19.1-11.46,25.78-18.5,2.13-2.24,6.77-5.52,7.23-8.58.75-4.99,1.86-14.29,1.47-14.56-.31-.22-6.33.77-6.7.77-6.33,0-15.68-.19-19.65,5.77-5.22,7.83-20.77,27.4-21.99,30.25Z"/>
        <path class="cls-10" d="m356.01,293.88h0c-2.27-.66-4.44-1.61-6.7-2.3-5.03-1.53-10.47-1.82-15.16-4.19-2.85-1.44-5.31-3.61-8.26-4.81-2.95-1.21-6.81-1.17-8.84,1.3-.35.43-.65.99-.52,1.53.2.85,1.29,1.15,2.15,1,.86-.16,1.66-.6,2.53-.63,2.63-.06,3.89,3.46,6.38,4.3.98.33,2.07.2,3.03.56.86.31,1.54.97,2.22,1.59,2.65,2.41,5.69,4.39,8.97,5.84,2.79,1.24,5.73,2.09,8.69,2.84,6.82,1.73,13.77,2.94,20.76,3.62,2.49.24,5.48.19,6.86-1.89,1.18-1.79.52-4.39-.56-6.08-1.45-2.28-3.01-1.65-5.56-1.49-5.35.35-10.81.35-15.99-1.17Z"/>
        <circle class="cls-33" cx="330.58" cy="299.92" r="34.4"/>
        <circle class="cls-9" cx="326.32" cy="299.37" r="34.4"/>
        <path class="cls-37" d="m375.7,294.97l-2.27-.05-.59,2.91c-.31,1.56-.31,3.16.01,4.72l.43,2.06,3.06-.55-.64-9.1Z"/>
        <path class="cls-10" d="m382.35,324.49c-.71,1.14-1.44,2.31-2.51,3.12-1.08.81-2.86,1.41-4.15,1.06-6.09-1.64-10.48-2.62-16.75-3.87-1.8-.36-4.29-.39-5.68-1.58-1.39-1.18-2.46-2.17-3.38-4.07-.32-.65-.45-1.91-1.16-1.82-.72.1-1.36.84-1.14,1.54.18.57.81,1.22.35,1.6-2.16-.62-4.05-1.87-6.28-1.62-1.05.12-2.19.39-2.85,1.22s-.3,2.04.59,2.61c10.86,6.85,22.07,9.54,34.64,13.5,3.4,1.07,7.15,1.1,10.29-.57,3.14-1.68,5.57-4.48,7.36-7.56.34-.57.66-1.22.55-1.87-.09-.52-.44-.96-.78-1.36h0c-1.09-1.32-3.36-4.54-5.3-4.59-1.96-.05-2.86,2.77-3.79,4.27Z"/>
        <path class="cls-37" d="m384.66,320.36l-1.51,2.92s1.36,3.13,4.25,4.58c2.9,1.45,3.25,1.8,3.25,1.8l2.18-2.75-8.17-6.55Z"/>
        <path class="cls-8" d="m390.83,294.57h0c2.15.86,3.08,3.64,2.38,5.85s-2.65,3.83-4.77,4.78c-3.81,1.7-8.16,1.55-12.32,1.28-.46-.03-.96-.08-1.26-.42-.23-.25-.29-.6-.34-.94-.56-3.7-.23-7.52.94-11.07.07-.23.16-.46.35-.61.21-.17.5-.19.77-.19,4.12-.1,10.35-.22,14.25,1.33Z"/>
        <path class="cls-34" d="m386.8,313.55h0c.98,2.43,2.42,4.65,3.32,7.11,1.25,3.45,1.36,7.2,1.85,10.84.54,4-1.75,13.45-1.35,14,1.1,1.5,8,1.19,9.85.95,4.12-.55,8.19-1.56,12.08-3.02.85-.31,3.5-1.26,4-2.01.39-.58-6.69-34.32-7.25-36.31-.85-3.02-1.57-3.76-3.01-6.54-1.05-2.03-3.38-5.01-5.3-7.07-.56-.61-1.84.68-2.64.91-2.13.62-4.26,1.24-6.38,1.87-.71.21-1.45.43-2,.92-.53.47-.84,1.14-1.14,1.78-2.13,4.68-4.03,11.63-2.04,16.59Z"/>
        <path class="cls-38" d="m391.66,308.95h0c2.54-1.66,5.75-2.26,8.72-1.62.48.1.96.24,1.37.5,1.05.68,1.42,2.03,1.46,3.28.1,3.4-1.69,6.57-3.74,9.29-2.05,2.72-4.43,5.25-5.82,8.36-3-.32-5.4-2.57-7.42-4.81-1.99-2.2-3.24-4.93-1.39-7.59,1.7-2.44,4.35-5.8,6.83-7.41Z"/>
        <path class="cls-10" d="m391.1,295.6h0c-.24,1.03-.93,2.78-.08,3.4.71.51,2.32.08,3.09-.35,1.83-1.01,7.65-5.55,7.94-5.98,0,0-.52-2.89-.55-4.27-.03-1.54.18-6.2-1.03-6.52-.69-.19-3.39.7-4.05.98-1.49.62-3.99,4.02-4.75,5.29-.83,1.37-.15,5.65-.57,7.46Z"/>
        <path class="cls-37" d="m401.32,285.96s-4.16,5.09-7.73,4.55c-3.57-.53-1.92-2.38-1.92-2.38l9.65-2.18Z"/>
        <path class="cls-3" d="m384.67,281.37c-.07.23.02,3.16.02,3.16l.99.06.48-2.75-1.5-.47Z"/>
        <path class="cls-10" d="m382.98,277.39c-.26.44-.76,1.21-.13,1.51.83.4,1.23.52,2.1.89.05.7-.05,1.88-.24,3.21-.19,1.33-.61,2.68.23,4.11.63,1.08,6.03,1.33,6.93,1.27,5.91-.37,7.93-5.03,8.29-5.99.43-1.15-.61,1.03,0,0,1-1.69,3.26-1.86,3.46-3.82.27-2.57.53-5.25-.33-7.69-1.08-3.06-3.77-5.28-6.61-6.86-1.3-.73-2.69-1.37-4.17-1.58-1.48-.22-3.07.02-4.27.91-1.2.89-1.09-.68-1.53,2.76,0,0-.44,3.31-.61,5.43-.1,1.27-1.26,2.74-3.13,5.84Z"/>
        <path class="cls-36" d="m392.25,266.46c-.1.89-.81,1.62-1.63,1.95-.82.34-1.75.34-2.64.25-1.21-.13-2.52-.5-3.19-1.51-.69-1.04-.47-2.51.26-3.52.74-1.01,2.1-1.67,3.27-1.23-.7-1.76-.04-3.96,1.52-5.04,1.55-1.08,3.84-.95,5.25.31.21.19.41.41.53.67.23.53.07,1.15-.09,1.71.34-1.4,1.97-2.08,3.41-2.16,1.49-.09,3.08.27,4.17,1.29,1.09,1.02,1.54,2.8.76,4.08,1.2-.24,2.43-.47,3.64-.28,1.76.28,3.38,1.59,3.77,3.33s-.66,3.75-2.38,4.21c1.1.7,2.23,1.42,3.03,2.46.79,1.04,1.2,2.47.68,3.67-.37.86-1.17,1.49-2.06,1.79-.89.3-1.85.29-2.78.13.82,1.6.75,3.61-.17,5.16-.92,1.54-2.66,2.56-4.45,2.61-1,.03-2.07-.27-2.71-1.05-.51-.62-.68-1.46-.7-2.26.91-.22,1.76-.81,2.17-1.65.41-.84.34-1.93-.28-2.64-.62-.71-1.78-.91-2.54-.36.14-2.44.2-4.87.19-7.31-.87.87-2.26.95-3.46.67-1.13-.27-2.22-.85-2.93-1.76-.71-.92-.99-2.21-.55-3.29"/>
        <path class="cls-12" d="m389.6,276.47c-.14.44,0,.89.32.98.32.1.69-.18.83-.63.14-.44,0-.89-.32-.98-.32-.1-.69.18-.83.63Z"/>
        <path class="cls-1" d="m399.38,277.91s2-2.56,4.89-.4c2.89,2.16.25,7.4-4.17,5.77l1.54-4.95-2.27-.42Z"/>
        <path class="cls-10" d="m403.87,277.97c.79.84.99,2.17.53,3.3s-1.54,1.99-2.72,2.21-2.41-.2-3.18-1.05c-.2-.22.73-2.1.71-2.63s-.12-1.07.04-1.58h0c.56-1.76,3.77-1.15,4.62-.24Z"/>
        <path class="cls-41" d="m396.63,287.02c-.15-.14-.4-.13-.62-.08h0s-5.49.38-6.03-.33c-.54-.71.54-1.85.52-2.95,0,0,0,0,0-.01.06-.45.04-.9-.09-1.34-.35-1.15-1.41-2-2.58-2.25-.42-.09-1.08.08-1.51.06-.4-.02-.46-.45-1.07-.21-.71.36-.77,2.01-.3,2.18,2.27.83,3.08.37,3.25.51.27.22.28.33.18.67-.1.33-.36.6-.66.79-.67.43-1.55.5-2.28.18-.22-.1-.51-.22-.67-.04-.06.06-.08.15-.1.23-.04.15-.07.29-.11.44-.2.8-.39,1.72.1,2.39.31.42.81.63,1.29.83.56.23,1.12.46,1.72.56.45.08.92.09,1.38.1.44.01.88.02,1.32.03.25,0,.49.01.74.01h0s0,0,0,0c1.14.01,2.29-.02,3.39-.34.7-.2,1.36-.51,1.98-.9.22-.13.34-.35.14-.54Z"/>
        <path class="cls-12" d="m389.36,276.02s1.15-.66,2.3.95c0,0-.47-1.36-1.12-1.5-.64-.14-1.18.55-1.18.55Z"/>
        <path class="cls-12" d="m388.71,273c.12.16.33.23.52.29.86.24,1.77.28,2.65.48.88.19,1.77.57,2.28,1.31.08.12.16.25.27.34.12.09.29.12.4.03.12-.09.12-.27.1-.41-.13-1-.88-1.84-1.77-2.32s-1.9-.67-2.9-.85c-.34-.06-.68-.12-1.02-.19-.14-.03-.3-.05-.43,0h0c-.3.12-.3,1.1-.12,1.33Z"/>
      </g>
      <g>
        <polygon class="cls-40" points="259.69 339.41 259.69 370.05 237.48 370.05 237.48 400.69 215.27 400.69 215.27 431.32 259.69 431.32 297.07 431.32 326.34 431.32 326.34 339.41 259.69 339.41"/>
        <g>
          <path class="cls-9" d="m280.64,338.06h0c2.9.83,6,1.08,8.68,2.46.64.33,1.34.92,1.16,1.62-.15.61-.88.86-1.49.99-5.41,1.18-11.03,1.43-16.53.73-.29-.04-.59-.08-.83-.25-.32-.23-.47-.63-.58-1.01-.38-1.27-.68-2.56-.88-3.87-.23-1.44-4.02-11.25-3.39-12.56,2.2-4.59,10.64,10.97,13.86,11.88Z"/>
          <path class="cls-9" d="m227.9,395.86h0c2.8,1.11,5.86,1.68,8.39,3.32.61.39,1.24,1.06,1,1.73-.22.59-.96.76-1.58.84-5.5.63-11.12.31-16.52-.93-.28-.07-.58-.14-.8-.33-.3-.26-.4-.67-.48-1.06-.25-1.3-.42-2.62-.49-3.94-.08-1.46-2.87-11.6-2.11-12.84,2.65-4.35,9.48,11.98,12.59,13.22Z"/>
          <path class="cls-16" d="m268.2,271.4c3.96,6.73,5.03,32.32,6.17,48.1.08,1.05,2.14,9.26,1.78,10.25-1.29,3.55-6.53,3.35-9.32,5.9-3.42-12.7-8.85-32.51-12.27-45.21-.13-.5-.31-1.05-.77-1.28-.36-.19-.8-.11-1.2-.03-9.26,1.78-18.61,3.06-28.01,3.82-2.53.21-5.08.37-7.61.15-7.1-.63-13.84-4.54-17.92-10.38-.59-.84-1.14-1.77-1.21-2.79-.14-1.98,1.51-3.6,3.1-4.79,5.12-3.82,11.07-6.32,16.96-8.79,5.98-2.51,47.12-.33,50.29,5.06Z"/>
          <path class="cls-2" d="m210.8,324.6h0c1.76,3.11,2.34,7.89,3.41,11.3,2.93,9.38-.11,17.54-1.21,27.31-.61,5.38-.18,19.81,1.26,25.03.17.61.38,1.27.9,1.64.46.33,1.06.36,1.63.38,3.57.13,7.15.26,10.72.4.56-15.21,1.13-39.4,3.47-54.44.59-3.8,1.3-7.61,1.2-11.46-.09-3.5-.85-6.94-1.61-10.35-2.05-9.23-4.09-18.46-6.14-27.69-.67-3.02-1.43-6.22-3.63-8.41-1.82-1.81-4.36-2.66-6.82-3.36-3.88-1.1-13.9-4.01-17.48-.87-2.96,2.59.73,11.41,1.52,14.82,2.86,12.33,6.49,24.63,12.77,35.7Z"/>
          <path class="cls-40" d="m250.34,235.74c2.2,1.11,4.47,2.21,6.92,2.51,3.35.41,7.63.04,10.99-.14,5.74-.31,14.55-.48,15.04-.01.34.33.52.78.68,1.22.71,1.89,1.43,3.78,2.14,5.67-8.47,2.72-14.74,4.22-23.4,5.03-4.19.39-8.89-.15-12.34-1.83-9.19-4.47-19.32-6.73-28.51-11.2-1.86-.9-2.96-4.19-3.6-6.15-.62-1.9.31-3.97,1.56-5.54h0c1.32-1.66,2.89-4.18,5.09-4.06,2.18.11,6.37,3.96,8.29,5.1,5.6,3.34,11.31,6.48,17.13,9.42Z"/>
          <path class="cls-23" d="m228.25,274.12h0c.19,1.1.38,2.31-.17,3.28-.44.8-1.29,1.27-2.1,1.68-8.8,4.39-19.36,5.12-28.69,1.99-.37-.13-.76-.27-1.03-.57-.34-.39-.39-.94-.42-1.46-.34-6.15-.5-12.31-.46-18.47.03-4.4.15-8.81.68-13.18,1.15-9.64,3.09-16.91,7.92-25.33.45-.78.38-1.16,2.1-3.18.41-.49,3.73-1.84,4.59-2.69,1.85-1.81,2.81,2.69,5.08,3.72,2.93,1.32,4.56,1.18,7.56,1.34,3,.16,2.34-.29,2.35,2.8,0,3.24-.41,6.54-.48,9.8-.28,13.48.75,26.99,3.06,40.27Z"/>
          <g class="cls-48">
            <g>
              <path class="cls-26" d="m223.16,221.88c.02-.12.03-.24.05-.36.1-.75,1.2-.57,1.15.17-.01.18-.04.36-.07.52-1.26,9.63-1.1,19.7-.51,29.37.58,9.51,2.77,18.92,4.5,28.27.14.74-1.02.88-1.16.14-1.78-9.65-4.03-19.35-4.55-29.16-.46-8.73-.64-17.77.3-26.51"/>
              <g>
                <path class="cls-26" d="m208.73,230.04s.02,0,.03,0c.26.04.49-.14.53-.4.12-.89.19-1.38.19-1.38.04-.25-.14-.5-.39-.53-.26-.04-.49.14-.53.39,0,0-.07.49-.2,1.39-.03.25.13.47.37.52Z"/>
                <path class="cls-26" d="m204.22,278.67c-.02-.86-.03-1.79-.03-2.75,0-.26.21-.47.47-.46.26,0,.47.21.46.47,0,.95,0,1.87.03,2.73,0,.26-.2.47-.46.48-.04,0-.07,0-.1,0-.21-.04-.37-.22-.37-.45Zm.01-5.5c.02-.9.05-1.81.09-2.74.01-.26.23-.46.48-.45.26,0,.46.23.45.48-.04.93-.07,1.84-.09,2.73,0,.26-.22.46-.48.46-.03,0-.06,0-.08,0-.22-.04-.38-.24-.37-.47Zm.22-5.49c.05-.9.1-1.82.16-2.74.02-.26.24-.45.49-.44.26.02.45.24.44.49-.06.92-.11,1.83-.16,2.73-.01.26-.23.45-.49.44-.02,0-.05,0-.07,0-.22-.05-.38-.25-.37-.48Zm.35-5.48c.07-.91.14-1.82.21-2.74.02-.26.25-.45.5-.43.25.02.45.25.43.5-.07.91-.14,1.82-.21,2.73-.02.26-.24.45-.5.43-.02,0-.04,0-.06,0-.23-.05-.39-.25-.37-.49Zm.44-5.47c.08-.91.16-1.82.25-2.73.02-.26.25-.44.51-.42.25.02.44.25.42.51-.09.9-.17,1.81-.25,2.72-.02.26-.25.45-.51.42-.02,0-.04,0-.05,0-.23-.05-.39-.26-.37-.5Zm.52-5.46c.09-.92.19-1.83.28-2.73.03-.26.26-.44.51-.41.26.02.44.26.41.51-.09.9-.19,1.8-.28,2.72-.03.26-.25.44-.51.42-.02,0-.03,0-.05,0-.23-.05-.4-.26-.37-.5Zm.58-5.45c.1-.93.21-1.84.31-2.72.03-.26.26-.44.52-.41.26.02.44.26.41.52-.1.88-.2,1.79-.31,2.72-.03.26-.26.44-.52.41-.01,0-.03,0-.04,0-.23-.05-.4-.27-.37-.51Zm.63-5.45c.11-.95.22-1.86.33-2.72.03-.26.26-.44.52-.41.25.03.44.27.41.52-.11.86-.22,1.77-.33,2.72-.03.26-.26.44-.52.41-.01,0-.03,0-.04,0-.24-.05-.4-.27-.37-.51Zm.68-5.44c.13-1,.25-1.91.36-2.72.03-.26.27-.43.52-.4.25.04.43.27.4.52-.11.81-.23,1.72-.36,2.71-.03.26-.27.44-.52.4-.01,0-.02,0-.03,0-.24-.05-.4-.27-.37-.52Z"/>
                <path class="cls-26" d="m204.81,283.21s.09.01.13,0c.26-.02.45-.25.42-.51-.04-.44-.08-.91-.1-1.38-.02-.26-.24-.45-.49-.44-.26.02-.45.24-.44.49.03.49.07.96.11,1.41.02.21.17.38.37.42Z"/>
              </g>
            </g>
          </g>
          <path class="cls-11" d="m289.35,236.62c2.34.01,4.65,1.01,6.27,2.69.35.36.65.99.27,1.31-.11.09-.25.13-.39.16-.81.18-1.65.22-2.47.11-1.28-.18-2.73-.67-3.75.13-.47.37-.73.94-1.06,1.43-.65.96-1.65,1.69-2.76,2-.16.05-.34.08-.5.03-.2-.07-.32-.25-.42-.44h0c-.64-1.23-1.72-4.26-.79-5.42,1.15-1.44,3.88-2.01,5.6-1.99Z"/>
          <g>
            <polygon class="cls-22" points="300.27 286.98 235.74 273.88 249.29 207.18 254.4 206.24 313.81 220.28 305.83 283.87 300.27 286.98"/>
            <rect class="cls-17" x="247.19" y="212.13" width="65.84" height="65.84" transform="translate(54.37 -50.84) rotate(11.48)"/>
          </g>
          <path class="cls-10" d="m270.17,249.63c2.26-.14,4.63.49,6.32,2.01.39.35.76.9.5,1.35-.15.27-.47.39-.76.45-2.1.44-4.45-1-6.32.04-.79.44-1.32,1.25-2.13,1.64h0c-1.87.92-4.38-1.14-3.48-3.15.79-1.76,4.2-2.25,5.87-2.35Z"/>
          <path class="cls-40" d="m214.9,225.85c-2.99-1.23-6.81-.93-9.02,1.44-1.86,2-2.23,5.05-1.55,7.7.68,2.64,2.26,4.96,3.91,7.13,6.74,8.86,15.18,16.26,23.55,23.59,1.3,1.14,2.72,2.33,4.44,2.45,1.09.08,2.17-.29,3.2-.66,8.06-2.85,16.1-5.73,24.14-8.64,1.86-.68,3.98-1.62,4.46-3.55.54-2.21-2.42-5.2-4.11-5.16-2.57.06-4.53.55-6.78.87-6.26.88-18.98,3.31-20.42,2.63-1.23-.58-9.8-10.59-12.17-16.25-2.02-4.82-4.45-9.41-9.65-11.55Z"/>
          <path class="cls-10" d="m213.5,205.6c1.14,1.15-2.93,10.21-4.76,11.9,1.74,1.86,15.09,6.38,16.45,3.13-2.69-6.83.33-6.48,1.64-8.02-3.17-3.19-8.32-6.37-12.78-6.89"/>
          <path class="cls-37" d="m224.13,215.81c-1.65-.33-7.57-3.75-9.43-2.82-.82.41-3.05.1-3.03-.39.02-.39,1.29-4.52,1.25-5.24-.05-1.09,2.87,1.25,3.92.92.59-.19,1.24-.3,1.83-.11,1.02.33,1.92.2,2.4,1.15.67,1.31,1.17.79,2.59,1.16.46.12,3.31,2.57,3.06,2.59-2.53.18-2.61,2.75-2.61,2.75Z"/>
          <path class="cls-10" d="m235.29,204.18c.24.52,1.04,1.85-.04,2.47-.8.46-1.79.02-2.79-.01-.22.75-.11,1.39-.7,2.64-.65,1.38-.51,1.7-.84,3.15-.19.82-.96,2.12-2.54,2.63-2.83.9-9.15-2.12-11.73-4.39-2.32-2.04-.15-4.67-.18-5.72-.07-2.19-3.51-1.75-3.26-3.92.33-2.86.7-5.83,2.23-8.27,1.92-3.06,5.38-4.81,8.85-5.84,1.59-.47,3.25-.83,4.91-.7,1.66.12,1.55.38,2.64,1.64,1.09,1.26,2.78,7.7,2.49,10.06-.29,2.33-.69,2.67.96,6.26Z"/>
          <path class="cls-13" d="m218.86,200.03h0c-.08,0-.17.02-.25-.02-.14-.06-.18-.23-.21-.37-.25-1.32-.24-2.68-.6-3.97.84.12,1.69.17,2.54.14.15,0,.31,0,.41.1.05.05.07.12.09.18.24.78.79,2.32.48,3.13-.31.81-1.75.73-2.45.81Z"/>
          <path class="cls-12" d="m229.95,200.22c-.11.56-.53.95-.93.87-.4-.08-.63-.6-.52-1.17.11-.56.53-.95.93-.87.4.08.63.6.52,1.17Z"/>
          <path class="cls-12" d="m230.48,199.87s-.86-1.39-3.04-.34c0,0,1.32-1.19,2.1-.96.78.24.95,1.3.95,1.3Z"/>
          <path class="cls-12" d="m233.3,196.01c.1.55.16,1.22-.27,1.57-.35.29-.86.22-1.31.17-1.98-.25-4.02-.01-5.9.68-.14.05-.3.11-.44.06-.18-.05-.28-.25-.28-.43s.09-.36.19-.51c.34-.51.88-.86,1.46-1.08.58-.21,1.19-.3,1.8-.37,1.5-.17,3-.23,4.51-.19l.24.1Z"/>
          <path class="cls-27" d="m209.33,216.94s-2.74.57-.39,3.28c1.49,1.72,10.09,5.17,12.75,4.97s2.64-3.73,2.64-3.73c0,0,1.35,1.98,1.77,1.95.42-.03-.05-3.06-.68-3.3-.62-.24.17,5.37-16.09-3.17Z"/>
          <path class="cls-30" d="m206.91,197.8s.59,3.01,1.82,5.46c.49,1.29,1.19,2.51,1.88,3.7.21.36.42.72.62,1.08.4.7.84,1.43,1.53,1.84.66.39,1.47.44,2.24.47.33.02.67.03.99-.06.01.26.06.53.17.78.38.91,1.33,1.42,2.22,1.86,1.36.68,2.72,1.35,4.07,2.03,2.04,1.02,4.25,2.06,6.5,1.68,2.57-.44,4.6-2.96,4.49-5.57-.07-1.71-1.15-3.46-2.8-3.9-1.52-.4-3.16.34-4.7-.01-1.32-.3-2.37-1.38-2.94-2.61-.46-.98-.66-2.05-.79-3.13.02-.03.03-.06.04-.09.22-.56-.28-3.07-.75-4.97,2.64-.78,5.49-.64,8.26-.73,3.04-.1,6.3-.63,8.48-2.75,1.26-1.22,1.48-4.81,1.14-6.53-.69-3.55-4.94-5.82-7.24-5.75-6.42.18-9.2,6.86-11.78,7.83-5.18,1.93-6.72.26-10.58,3.44-1.76,1.45-2.98,3.64-2.86,5.93Zm8.61,3.03c.74-1.14,1.7-2.14,2.81-2.93.26,1.29.29,2.63.54,3.93,0,0,0,0,0,0-.27,1.89-1.03,3.7-1.89,5.42-.08-1.47-.02-3.16-.5-4.48-.25-.67-.57-1.33-.96-1.95Z"/>
          <g class="cls-44">
            <path class="cls-29" d="m213.81,195.63c-1.06.79-1.59,2.23-1.33,3.55.26,1.31,1.27,2.45,2.54,2.89,1.26.44,2.73.18,3.78-.63.27-.21.53-.53.42-.85-.07-.19-.24-.31-.38-.46-.4-.45-.38-1.13-.24-1.71s.37-1.16.3-1.75h0c-.23-2.04-3.93-1.9-5.09-1.04Z"/>
          </g>
          <path class="cls-10" d="m214.38,196.1c-1.06.79-1.59,2.23-1.33,3.55s1.27,2.45,2.54,2.89c1.26.44,2.73.18,3.78-.63.27-.21.53-.53.42-.85-.07-.19-.24-.31-.38-.46-.4-.45-.38-1.13-.24-1.71s.37-1.16.3-1.75h0c-.23-2.04-3.93-1.9-5.09-1.04Z"/>
        </g>
      </g>
      <g>
        <g>
          <path class="cls-10" d="m378.58,173.76c-4.08-.59-13.63-1.31-16.38-1.59-1.48-.15-2.93-.55-4.41-.69-3.34-.33-4.93-.28-7.55,1.81-.73.58-2.69,4-2.01,4.82.76.93,1.72.07,2.74-.57,1.83-1.15,5.8-.68,5.13-.03-1.78,1.72-1.08,2.52-.14,2.23.94-.29,1.64-1.05,2.46-1.6,3.19-2.13,7.7-.38,11.48.26,9.87,1.67,19.09,5.04,29.17,5.55,1.33.07.89-.47,1.9-1.33,4.62-3.91.17-5.79-1.88-6.21-5.28-1.08-17.67-2.25-20.51-2.66Z"/>
          <g>
            <polygon class="cls-21" points="347.63 159.28 398.55 159.28 373.09 203.37 347.63 247.47 339.27 253.19 322.17 203.37 288.35 165 296.71 159.28 347.63 159.28"/>
            <polygon class="cls-20" points="339.27 165 390.19 165 364.73 209.09 339.27 253.19 313.81 209.09 288.35 165 339.27 165"/>
          </g>
          <path class="cls-10" d="m377.28,210.35h0c-6.48-1.36-12.96-2.71-19.45-4.07-1.38-.29-5.78-1.04-7.69-2.57-1.4-1.12-4.63-2.6-5.06-2.09-.82.97,1.07,1.19,1.25,1.97-1.29.73-3.7-.47-5.15-.13-1.72.4-1.57,2.63-.5,4.03,1.25,1.63,2.29,2.04,4.04,2.24s2.92.19,4.79.14c11.71-.31,22.05,8.48,33.73,7.71,2.35-.16,5.06-1.44,5.03-3.79-.14-11.3-8.22-2.86-11-3.44Z"/>
          <path class="cls-37" d="m382.59,208.45l-1.36.59s-2.55,6.69-.29,8.57l2.31-.03.59-7.33-1.25-1.8Z"/>
          <path class="cls-11" d="m550.78,207.29c.2-.09.42-.19.62-.12.19.06.31.24.42.42.53.86,1.03,1.73,1.51,2.62.14.25.28.54.22.82-.05.25-.24.45-.44.62-1.34,1.22-2.94,2.14-4.67,2.69-.24.08-.48.14-.73.12-.39-.03-.72-.27-1.02-.53h0c-3.95-3.4,1.52-5.44,4.08-6.65Z"/>
          <path class="cls-11" d="m521.59,272.11c.17,0,.34.02.48.1.3.18.33.6.32.95-.02,1-.04,2.01-.06,3.01,0,.21-.02.45-.19.58-.11.09-.25.1-.39.12-2.32.25-4.67.21-6.98-.11-.13-.02-.28-.04-.37-.15-.08-.09-.09-.23-.1-.35h0c-.11-1.9-.8-3.83,1.07-4.55,1.39-.53,4.66.31,6.2.38Z"/>
          <path class="cls-17" d="m554.97,205.22c.37.03.71.23,1.01.45,2.04,1.51,2.94,4.1,4.56,6.06,1.35,1.64,3.34,3.13,3.31,5.25,0,.3-.08.64-.35.77-.3.15-.64-.05-.91-.23-3-2.05-6.01-4.09-9.01-6.14,0,0,0,0,0,0-1.3-.88-3.92-2.41-2.99-4.27.43-.86,3.53-1.97,4.39-1.89Z"/>
          <path class="cls-17" d="m525.52,272.73c.28.24.44.6.56.95.79,2.41.03,5.05.22,7.58.16,2.12.92,4.48-.33,6.19-.17.24-.43.47-.73.43-.33-.05-.5-.41-.61-.72-1.27-3.4-2.55-6.81-3.82-10.21,0,0,0,0,0,0-.55-1.47-1.81-4.23.03-5.21.84-.45,4.02.43,4.68.99Z"/>
          <path class="cls-9" d="m431.55,206.29c7.34-6.65,18.53-7.34,28.08-4.69,9.55,2.65,18.01,8.12,26.78,12.73,5.13,2.7,9.09,6.73,14.89,6.55,3.75-.11,10.61-5.16,14.14-6.42,10.56-3.77,19.55-5.75,30.76-5.99.82-.02,1.69,0,2.37.47,1.71,1.17,3.13,4.23,1.92,5.91-4.66,6.49-13.92,10.7-21.34,13.67-7.42,2.97-15.36,4.41-23.27,5.56-2.28.33-4.58.64-6.89.56-3.19-.11-12.08-1.05-15.22-1.58-8.99-1.52-25.09-7.42-30.78-8.36,3.68,2.06,7.22,10.16,9.68,17.15,2.23,6.33,8.47,16.96,10.64,19.85,1.21,1.61,2.81,3.44,4.81,3.23,10.42-1.05,20.81.97,31.17,2.52,10.21,1.53,8.81,5.72,7.95,10.36-11.57,3.68-24.64,3.47-36.63,1.6-14.23-2.22-15.95-3.93-20.79-7.16-4.57-3.05-8.38-7.11-11.76-11.43-6.67-8.54-12.22-17.9-17.34-27.46-2.31-4.31-4.59-8.81-5-13.69-.41-4.88,1.47-10.26,5.75-12.64"/>
          <path class="cls-33" d="m416.47,179.3l1.35.75c.95.56,1.9,1.22,2.42,2.19.78,1.46,6.66,9.4,10.28,10.94,5.19,2.22,8.34,4.43,13.96,3.91,1.09-.1,2.19-.3,3.27-.13,1.08.18,2.17.84,2.46,1.9.3,1.1-.37,2.29-1.32,2.93-.95.64-2.11.87-3.23,1.08,1.34,1.16,1.81,3.22,1.09,4.84-.72,1.62-2.55,2.67-4.31,2.45,1.25,1.65,1.34,4.09.21,5.83-1.13,1.73-3.41,2.64-5.42,2.15,1.1,1.51.98,3.79-.28,5.18-1.25,1.39-3.5,1.75-5.12.81.92,2.28.82,5.58-1.5,6.4-1.43.5-3.04-.3-4.01-1.46-.97-1.17-1.46-2.64-2.06-4.03-2.35-5.42-5.54-7.22-11.78-9.96-2.63-1.16-12.09-2.98-15.77-1.12-2.46,1.24-9.11,4.08-12.35,4.41-3.25.33-3.22-2.68-2.49-6.14.5-2.38-.56-4.9,4.56-5.73,3.11-.51,6.22-1.6,9.05-2.99.7-.34,2.04-1.63,2.25-2.14,3.26-7.97-4.86-8.77,7.6-16.91-2.01-.76-4.19-.19-6.31-.5-3.18-.46-1.12-3.27,0-5.94,1.11-2.63,1.94-2.84,4.79-2.48,5.08.63,8.2,1.11,12.67,3.74Z"/>
          <path class="cls-20" d="m419.06,233.55c5.24,1.5,11.24-3.5,14.65-6.88,5.02-4.98,9.04-11.48,12.04-17.84,2.79-5.92,5.09-13.16,3.66-19.76-1.08-4.99-5.22-9.67-10.74-8.85-6.19.92-10.48,8.59-13.67,13.29-3.68,5.43-6.81,11.28-8.85,17.53-2.17,6.63-5.64,19.06,2.93,22.51,3.31,1.33,4.75-4.03,1.48-5.35-3.78-1.52.09-13.05.95-15.68,2.57-7.91,7.16-15.15,12.28-21.65.85-1.09,2.08-3.22,3.39-3.89,7.07-3.66,7.33,4.62,6.96,8.34-.48,4.95-2.46,9.67-4.82,13.98-2.09,3.83-4.45,7.63-7.25,10.98-2.04,2.44-7.75,8.99-11.5,7.92-3.44-.98-4.91,4.37-1.48,5.35Z"/>
          <path class="cls-11" d="m401.57,186.47h0c.28.02.59.07.75.3.19.28.02.65-.14.95-1.23,2.2-2.46,4.4-3.69,6.6-2.34-.65-4.61-1.56-6.75-2.72-.3-.16-.62-.36-.74-.68-.09-.25-.03-.53.04-.79,1.56-5.74,5.76-4.03,10.54-3.65Z"/>
          <path class="cls-11" d="m393.7,182.97h0c.85.88,1.59,1.89,1.94,3.06.57,1.88,0,4.02-1.31,5.5s-3.26,2.3-5.22,2.39c-.83.04-1.66-.05-2.48-.18-3.08-.51-6.16-1.85-8.06-4.33-2.36-3.08-2.42-8.95,1.75-10.4,4.48-1.56,10.25.74,13.37,3.97Z"/>
          <path class="cls-15" d="m366.23,192.5c2.08,4.89,6.79,8.05,11.25,10.94,4.46,2.89,9.15,6.1,11.16,11.02,1.39,3.4,1.32,7.27,2.72,10.67,2.52,6.14,9.11,9.4,15.16,12.13,1.09.49,2.25,1,3.45.91,2.7-.2,4.18-3.1,5.84-5.24,2.49-3.19,6.42-5.21,10.47-5.37,2.72-.11,5.43.58,8.15.43,5.54-.31,10.55-4.31,12.63-9.45,2.08-5.14,1.41-11.18-1.2-16.07-1.07-2.01-2.46-3.86-3.27-5.98-1.53-4.01-.87-8.62-2.54-12.56-1.97-4.65-6.79-7.46-11.61-8.93-2.6-.79-5.34-1.29-8.04-.95-3.18.41-6.09,1.95-9.17,2.84h0c-10.38,3-20.99-1.44-31.49-.51-7.88.69-17.42,6.9-13.5,16.13Z"/>
        </g>
        <path class="cls-20" d="m441.91-50c1.85,23.94,3.61,48.19,3.88,57.87.51,18.23-2.19,36.47-3.65,54.61-1.49,18.47-2.55,37-2.26,55.54.24,15.21,2.73,30.7,3,46.03-.16-.03-.33-.07-.5-.08-10.95-1.14-5.63,16.36-2.46,20.78.78,1.09,1.96,1.37,3.01,1.13,3.06,2.64,7.09,3.64,11.39,3.25,4.22-.39,8.69-2.21,9.11-7.01.4-4.59-3.55-7.82-7.91-7.69-1.62.05-3.76.34-5.9.91.06-.91.05-1.84-.09-2.78-.19-1.3-.63-2.69-1.29-3.97,0-12.87-1.8-25.7-2.43-38.6-.93-18.87-.25-37.78,1.06-56.62,1.29-18.55,3.89-37.1,4.47-55.68.61-19.33-1.89-38.86-3.34-58.12-.23-3.1-.71-9.47-.72-9.55h-5.36Zm-.62,221.05c.65-.42,1.16-.45,1.55-.26-.08,2.38-.21,4.75-.45,7.12-.24-.58-.46-1.18-.62-1.8-.25-.95-1.2-4.6-.48-5.05Zm10.08,12.61c-1.49-.13-2.83-.54-3.98-1.28,0-.06.01-.13.02-.19,1.38-.7,3.36-1.03,4.4-1.33.51-.14,1.03-.29,1.54-.43,1.87-.94,2.82-.02,2.86,2.78-.6.7-4.06.52-4.85.46Z"/>
      </g>
      <g>
        <path class="cls-12" d="m124.53,179.74s-9.53-8.49-10.71-10.2c-1.18-1.71-5.56,2.5-5.56,2.5l1.56,1.09s-9.8,4.15-10.19,6.78c-.39,2.63,7.53-2.25,11.14-1.74,3.61.52,10.15,4.45,11.85,5.89,1.7,1.44,1.92-4.32,1.92-4.32Z"/>
        <path class="cls-12" d="m169.41,268.57s-4.19,12.06-5.32,13.81c-1.12,1.75,4.44,4.18,4.44,4.18l.41-1.86s7.59,7.46,10.17,6.82-4.97-6.09-5.87-9.62c-.91-3.54.22-11.08.9-13.2.68-2.12-4.73-.12-4.73-.12Z"/>
        <path class="cls-24" d="m226.42,116.95h0c-3.42,3.59-8.36,5.85-13.3,5.5-1.86-.13-3.8-.6-5.52.12-1.52.64-2.53,2.09-3.44,3.46-.99,1.49-1.98,2.97-2.97,4.46-.79,1.18-1.6,2.38-2.75,3.21-1.15.83-2.73,1.22-4,.6-.96-.46-1.6-1.39-2.01-2.37-.98-2.32-.89-4.98-.2-7.4s1.95-4.63,3.26-6.78c.57-.94,1.2-1.91,2.15-2.45.8-.46,1.74-.57,2.64-.77,1.26-.28,2.49-.74,3.58-1.42,2.25-1.4,3.85-3.64,5.16-5.94s2.43-4.73,4.03-6.85,3.78-3.94,6.39-4.42c3.19-.58,6.36.91,9.23,2.42,1.09.58,2.21,1.18,3.02,2.12,1.87,2.19.45,5.84-.37,8.22-1.05,3.05-2.67,5.93-4.9,8.27Z"/>
        <path class="cls-11" d="m250.22,124.6h0c1.37-.05,2.76-.11,4.08-.51,1.66-.5,3.12-1.51,4.58-2.46,6.08-3.96,12.69-7.12,19.59-9.36,1.08-.35,2.21-.71,3.01-1.51.61-.61.97-1.42,1.4-2.18,1.96-3.43,5.72-5.76,9.66-6,1.27-.07,2.63.09,3.62.88s1.41,2.39.6,3.38c-2.11-.31-4.46-.56-6.22.65-1.91,1.31-2.44,3.84-3.49,5.91-2.34,4.61-7.41,7.01-11.36,10.35-1.28,1.08-2.46,2.27-3.73,3.35-5.28,4.48-12.08,6.86-18.93,7.87-6.85,1.02-13.81.76-20.73.5-.84-.03-1.76-.09-2.39-.65-.42-.37-.64-.91-.8-1.45-1.01-3.45.36-8.44,4.21-8.86,5.45-.6,11.37.29,16.88.09Z"/>
        <g>
          <polygon class="cls-32" points="393.68 159.46 385.58 164.46 273.79 159.46 265.7 103.08 273.79 98.08 393.68 98.08 393.68 159.46"/>
          <rect class="cls-43" x="265.7" y="103.08" width="119.88" height="61.38"/>
        </g>
        <path class="cls-37" d="m231.71,135.5l1.85.02s3.26-5.44,2.87-7.94c-.39-2.5-.85-3.23-.85-3.23l-1.65.08-3.48,7.25,1.25,3.83Z"/>
        <path class="cls-4" d="m226.7,119.54c2.42,1.21,7.65,3.18,8.22,4.52.27.63.35,1.33.38,2.02.11,3.06-.89,6.15-2.78,8.56-.53.67-1.17,1.32-2.01,1.5-.57.12-1.16.01-1.72-.12-2.36-.55-4.75-1.57-6.22-3.5-.47-.62-.84-1.35-.86-2.12-.03-.87.37-1.69.79-2.45h0c2.11-3.78-.23-10.63,4.19-8.41Z"/>
        <path class="cls-39" d="m176.02,162.58s4.4-1.89,1.61-2.11c-7.88-.61-10.51,8.68-13.69,21.27-2,7.92-5.81,11.88-8.79,19.49-.4,1.02-1.02,2.22-2.11,2.27-1.01.05-1.74-.93-2.28-1.78-3.83-6.03-8.49-11.52-13.82-16.28-3.14-2.8-6.67-5.43-10.81-6.19-2.13-.39-4.8.04-5.63,2.04-.63,1.54.13,3.26.92,4.72,6.22,11.53,14.87,21.73,25.22,29.76,2.61,2.02,5.62,4,8.91,3.76,3.06-.22,5.62-2.29,7.96-4.27,11.17-9.51,22.22-19.35,31.05-31.07,2.49-3.31,4.86-6.91,5.46-11,1.93-13.18-15.7-16.43-24-10.61Z"/>
        <g class="cls-47">
          <path class="cls-26" d="m150,211.62c-2.67-.63-5.65-2.54-9.16-6.38-8.56-9.37-19.6-24.8-19.71-24.95l1.07-.77c.11.15,11.11,15.52,19.62,24.83,8.42,9.22,13.08,6.64,18.73,1.99,3.4-2.8,12.28-15.88,18.76-25.44,8.71-12.85,8.82-12.8,9.62-12.42l-.56,1.19c.25.12.47.03.53-.01-.7.5-4.66,6.34-8.49,11.98-6.89,10.16-15.47,22.8-19.02,25.72-3.59,2.95-7.08,5.27-11.38,4.26Z"/>
        </g>
        <path class="cls-5" d="m174.96,172.81c-2.12,5.3-1.77,11.21-1.39,16.9.6,8.95,1.21,17.95,3.24,26.69.94,4.03,2.18,8.11,1.67,12.22-.6,4.89-3.59,9.08-5.81,13.47-4.09,8.07-5.74,17.35-4.69,26.34.13,1.1.31,2.24.93,3.16.62.92,1.78,1.57,2.84,1.25.83-.25,1.39-.99,1.89-1.69,7.76-10.98,13.07-23.53,16.93-36.41,3.86-12.88,6.31-26.13,8.76-39.35,1.18-6.39-1.25-15.62,1.5-22.82,7.79-20.34-.39-5.31-3.16-7.34h0c-7.24-9.5-19.28-.99-22.72,7.59Z"/>
        <g class="cls-45">
          <path class="cls-26" d="m169.52,271.85l-1.22-.52c.11-.27,11.44-26.94,15.3-36.6,2.31-5.79,1.92-16,1.5-26.81-.27-6.93-.54-14.09-.05-20.1.98-11.93,3.53-15.38,4.9-17.24.34-.46.58-.79.66-1.07l1.27.35c-.14.52-.46.95-.87,1.5-1.29,1.75-3.7,5.01-4.65,16.56-.49,5.93-.21,13.06.05,19.94.42,10.96.82,21.31-1.6,27.35-3.87,9.67-15.2,36.36-15.31,36.62Z"/>
        </g>
        <path class="cls-17" d="m201.03,174.2s5.29-18.51,11.88-22.51c3.74-2.27,7.22-5.11,9.86-8.59,4.36-5.75,4.24-13.62,3.92-20.83-.06-1.28-1.37-5.47-3.19-6.17-1.51-.59-2.34-1.79-2.56-.77-.22,1.02,1.8,8.12,1.16,8.95-1.33,1.73-4.32.61-5.33-1.32s-.85-4.25-1.33-6.38c-.48-2.13-2.14-4.39-4.31-4.11l-1.84.15c-10.57,6.2-16.43,15.84-19.87,27.6-1.1,3.75-18.69,16.9-20.9,20.11,0,0,11.37,11.95,32.51,13.88Z"/>
        <path class="cls-11" d="m234.43,152.15c1.81.81,3.66,1.59,5.62,1.91,2.44.4,4.93.08,7.37-.25,10.45-1.38,21.13-2.83,30.5-7.65,1.75-.9,4.01-1.88,5.52-.63,1.11.92,1.95,2.97,3.25,2.33,1.12-.56.44-2.28-.45-3.16-2.99-2.97-7.5-4.88-11.46-3.46-1.2.43-2.28,1.14-3.46,1.62-2.63,1.08-5.57,1.02-8.41.93-5.33-.16-10.66-.32-16-.47-2.41-.07-4.85-.14-7.2-.66-2.17-.48-4.24-1.32-6.25-2.27-3.72-1.75-7.28-3.87-10.59-6.31-2.41-1.77-4.81-3.77-7.73-4.4s-6.54.71-7.24,3.61h0c-1.09,4.5,7.91,8.55,10.94,10.46,4.99,3.16,10.21,5.96,15.6,8.38Z"/>
        <path class="cls-37" d="m211.55,139.31s1.88,1.56,2.62.29c1.14-1.96-1.83-5.4.17-6.29,1.96-.86,3.05-2.79,3.05-2.79l-1.99-1.26-5.95,4.93,2.09,5.11Z"/>
        <path class="cls-11" d="m223.59,112.75h0c-.87,1.04-1.52,2.31-1.59,3.67-.07,1.42.49,2.78.86,4.16.36,1.38.49,2.96-.34,4.11-.78,1.08-2.27,1.5-3.57,1.19-1.29-.31-2.37-1.25-3.07-2.38-.7-1.13-1.05-2.44-1.27-3.76-.82-4.92.16-10.12,2.73-14.4.43-.71.59-2.29,1.41-2.4.5-.06,1.39.96,1.84,1.16,2.06.94,3.92,2.31,5.42,4.01.73.82.92,1.6.07,2.33-.86.74-1.75,1.42-2.49,2.3Z"/>
        <path class="cls-37" d="m226.64,109.89c-.27.32-.54.64-.89.88-.35.24-.78.37-1.19.28-.42-.1-.75-.42-1.08-.71-.6-.53-1.31-1.01-2.11-1.1-.8-.09-1.7.3-1.97,1.06-.16.43-.1.91-.1,1.37,0,1.24-.5,2.47-1.36,3.36-.14.15-.34.3-.53.23-.16-.06-.23-.24-.28-.4-.5-1.6-.81-3.25-.92-4.92-.05-.77-.06-1.56.16-2.31.24-.84.75-1.58,1.09-2.39.21-.51.36-1.06.65-1.54.29-.48.76-.89,1.32-.92.44-.02.85.2,1.21.45.88.62,1.59,1.48,2.02,2.47.26.59.42,1.22.7,1.8.29.58.73,1.12,1.35,1.31.39.12.81.1,1.2.2.39.1.79.41.77.82"/>
        <path class="cls-11" d="m226.19,110.49c1.69.57,3.6,1.31,4.91.09,1.82-1.7,1.06-6.59,3.27-6.99.45-.08.98-.24,1.26-.59.58-.73-.04-1.66-.59-2.67-1.06-1.99-.12-4.74-.29-6.98-.24-3.14-1.86-6.26-4.59-7.81-2.73-1.56-6.56-1.22-8.65,1.13-1.2,1.35-1.74,3.16-2.23,4.91h0c-1.2,4.22-2.77,7.21-.92,11.51,1.45,3.38,4.3,6.26,7.82,7.43Z"/>
        <path class="cls-37" d="m218.07,103.08s1.41-1.7,3.34-2.43c1.92-.72,3-2.9,2.77-4.71-.23-1.81,1.06-2.12,2.27-2.41,1.21-.28,1.95-.54,2.37-1.17,0,0,3.31.83,4.41,1.04,1.1.2,1.78-.31,1.78-.31l-3.36-4.9s-2.62-.68-2.63-.69c-.01,0-3.81,1.72-3.81,1.72l-4.45,2.35-1.58,1.53-1.24,4.36-1.52,4.03,1.63,1.58Z"/>
        <path class="cls-28" d="m232.69,95.01c.06.42.07.94-.3,1.15-.27.15-.61.04-.9-.07-.76-.3-2.29-.61-3.1-.75-.81-.13-1.52.23-2.2.68.65-.82,1.41-1.46,2.45-1.49,1.04-.03,3,.23,4,.51"/>
        <path class="cls-12" d="m230.57,97.85c.05,0,.1,0,.16,0,.4.06.77.3.99.64l-.08-.16c-.4-.73-1.31-1.13-2.12-.94-.41.1-.78.33-1.2.4-.42.08-.93-.08-1.05-.49-.02.44.39.81.83.9.34.07.68,0,1.01-.08-.01.05-.02.1-.03.15-.04.46.29.87.75.91.46.04.87-.29.91-.75.02-.22-.05-.43-.18-.59Z"/>
        <path class="cls-14" d="m232.8,102.14c-.18.23-.22.55-.11.82.11.27.37.47.66.5.02,0,.05,0,.07-.02.02-.03-.02-.07-.05-.09-.42-.25-.56-.88-.28-1.29-.11-.01-.22.03-.29.12"/>
        <path class="cls-12" d="m229.3,105.33c.38.28.9.28,1.35.16.45-.12.88-.34,1.33-.46.25-.07.51-.12.77-.08s.51.18.64.4c.14.22.13.53-.05.73-.27.28-.72.19-1.11.18-.4-.01-.79.09-1.19.16-.39.07-.81.09-1.18-.07-.37-.16-.65-.56-.57-.95"/>
        <path class="cls-12" d="m229.58,106.07c.69.51,1.68.98,2.53.89.18-.02.38-.04.51.09.07.08.04.35,0,.46-.11.33-.27.5-.47.56-.62.19-1.39.11-1.9-.29-.51-.4-.81-.99-.68-1.62.03,0,0-.09,0-.09Z"/>
        <path class="cls-12" d="m225.66,89.58c-1.37-.05-2.75.52-3.67,1.53-.92,1.01-1.37,2.44-1.2,3.8.08.63.29,1.24.37,1.87.08.63,0,1.32-.41,1.8-.54.64-1.48.73-2.25,1.04-1.26.51-2.16,1.71-2.55,3.01-.39,1.3-.32,2.71-.06,4.04.32,1.62.9,3.34.24,4.85-.61,1.39-2.33,2.2-3.79,1.77,1.15-.08,2.18-1.01,2.37-2.14.23-1.33-.58-2.59-1.13-3.82-.74-1.67-1.03-3.58-.57-5.35s1.73-3.36,3.45-4c.5-.18,1.02-.29,1.5-.51.48-.22.93-.59,1.08-1.09.17-.59-.1-1.21-.25-1.8-.44-1.75.28-3.74,1.74-4.81,1.46-1.07,3.56-1.16,5.11-.22"/>
        <path class="cls-7" d="m223.49,92.83c2.1.57,4.52-.37,5.7-2.2.38.45.57,1.04.52,1.62,1.52.34,4.5,1.02,6.02,1.35,1.07-4.26-2.74-10.64-6.83-12.24s-12.72-1.19-16.18,1.52c-1.89,1.48-3.44,3.4-4.48,5.56-.94,1.94-1.99,5.43-2.93,7.37-2.01,4.14-5.82,7.69-10.2,9.09-2.27.73-7.67,1.93-11.86,4.57-4.39,2.76-6.47,11.16-7.18,12.7-1.24,2.7-2.61,6.17-4.82,8.72,1.58,2.93,5.37,9.89,5.92,10.12,0,0,2.6-1.08,4.02-.98-.57.95-1.76,2.57-1.76,2.57.82,1.26,7.1,8.52,7.1,8.52,0,0,2.87-2.27,3.86-3.96,1.65-2.82,3.01-5.81,4.04-8.91,1.1-3.34,1.84-6.81,3.31-10,1.47-3.19,3.84-6.17,7.14-7.38,2.47-.9,5.24-.74,7.7-1.68,3.28-1.26,5.66-4.58,5.79-8.09.11-2.99-1.17-6.34.6-8.75,1.26-1.71,3.88-2.57,4.12-4.68.1-.86-.26-1.69-.42-2.53-.16-.85-.04-1.87.69-2.32"/>
        <path class="cls-25" d="m198.22,135.58h0c1.32,3.44,4.85,5.83,8.53,6.07,1.69.11,3.7-.42,4.3-2.01.63-1.68-.65-3.67.11-5.3.94-2,4.38-2.14,4.75-4.32.14-.83-.27-1.65-.75-2.34-1.66-2.4-4.34-4.07-7.22-4.49-6.87-1-12.28,5.72-9.72,12.39Z"/>
      </g>
    </g>
  </g>
</svg>