<svg width="56" height="56" viewBox="0 0 56 56" fill="none" xmlns="http://www.w3.org/2000/svg">
<path fill-rule="evenodd" clip-rule="evenodd" d="M53.2363 18.5597C52.9227 28.2402 47.0053 38.2537 36.8818 40.0002C41.7295 34.9459 44.336 27.6205 43.9042 20.4818C39.5785 23.3838 32.3682 21.8326 31.6203 15.4698C31.2961 12.7052 32.622 10.1572 34.3929 8.13189C35.3542 7.03305 36.5209 6.08727 37.8612 5.50611C37.955 5.46536 38.0485 5.42457 38.1417 5.38391C39.5425 4.77269 40.8791 4.18949 42.4438 4.17082C50.2571 4.0806 53.454 11.8416 53.2363 18.5597ZM23.6651 18.5597C23.3516 28.2401 18.3596 39.7715 6.76746 39.7719C11.6158 34.7176 15.7772 27.1314 15.3454 19.9927C11.0191 22.8947 2.79581 21.8326 2.04915 15.4698C1.72435 12.7052 3.0503 10.1572 4.82115 8.13189C5.78248 7.03305 6.94977 6.08727 8.28941 5.50611C8.38326 5.46536 8.47674 5.42457 8.56993 5.38391C9.97077 4.77269 11.3074 4.18949 12.8721 4.17082C20.6853 4.0806 23.8823 11.8416 23.6651 18.5597Z" fill="#DF2826"/>
</svg>
