<svg width="56" height="56" viewBox="0 0 56 56" fill="none" xmlns="http://www.w3.org/2000/svg">
<path fill-rule="evenodd" clip-rule="evenodd" d="M1.76374 37.4405C2.07734 27.76 7.99467 17.7466 18.1182 16C13.2705 21.0543 10.664 28.3797 11.0958 35.5185C15.4215 32.6164 22.6318 34.1676 23.3797 40.5305C23.7039 43.295 22.378 45.843 20.6071 47.8684C19.6458 48.9672 18.4791 49.913 17.1388 50.4941C17.045 50.5349 16.9515 50.5757 16.8583 50.6163C15.4575 51.2276 14.1209 51.8108 12.5562 51.8294C4.74294 51.9196 1.54596 44.1587 1.76374 37.4405ZM31.3349 37.4405C31.6484 27.7602 36.6404 16.2288 48.2325 16.2284C43.3842 21.2827 39.2228 28.8688 39.6546 36.0076C43.9809 33.1055 52.2042 34.1676 52.9509 40.5305C53.2757 43.295 51.9497 45.843 50.1789 47.8684C49.2175 48.9672 48.0502 49.913 46.7106 50.4941C46.6167 50.5349 46.5233 50.5757 46.4301 50.6163C45.0292 51.2276 43.6926 51.8108 42.1279 51.8294C34.3147 51.9196 31.1177 44.1587 31.3349 37.4405Z" fill="#DF2826"/>
</svg>
