<svg width="24" height="24" viewBox="0 0 24 24" fill="none" xmlns="http://www.w3.org/2000/svg">
<path fill-rule="evenodd" clip-rule="evenodd" d="M12 2C10.6868 2 9.38642 2.25866 8.17317 2.7612C6.95991 3.26375 5.85752 4.00035 4.92893 4.92893C4.00035 5.85752 3.26375 6.95991 2.7612 8.17317C2.25866 9.38642 2 10.6868 2 12C2 13.3132 2.25866 14.6136 2.7612 15.8268C3.26375 17.0401 4.00035 18.1425 4.92893 19.0711C5.85752 19.9997 6.95991 20.7362 8.17317 21.2388C9.38642 21.7413 10.6868 22 12 22C13.3132 22 14.6136 21.7413 15.8268 21.2388C17.0401 20.7362 18.1425 19.9997 19.0711 19.0711C19.9997 18.1425 20.7362 17.0401 21.2388 15.8268C21.7413 14.6136 22 13.3132 22 12C22 10.6868 21.7413 9.38642 21.2388 8.17317C20.7362 6.95991 19.9997 5.85752 19.0711 4.92893C18.1425 4.00035 17.0401 3.26375 15.8268 2.7612C14.6136 2.25866 13.3132 2 12 2ZM8.76191 4.18256C9.78851 3.75733 10.8888 3.53846 12 3.53846C13.1112 3.53846 14.2115 3.75733 15.2381 4.18256C16.2647 4.60779 17.1975 5.23106 17.9832 6.01679C18.7689 6.80252 19.3922 7.73531 19.8174 8.76191C20.2427 9.78851 20.4615 10.8888 20.4615 12C20.4615 13.1112 20.2427 14.2115 19.8174 15.2381C19.3922 16.2647 18.7689 17.1975 17.9832 17.9832C17.1975 18.7689 16.2647 19.3922 15.2381 19.8174C14.2115 20.2427 13.1112 20.4615 12 20.4615C10.8888 20.4615 9.78851 20.2427 8.76191 19.8174C7.73531 19.3922 6.80252 18.7689 6.01679 17.9832C5.23106 17.1975 4.60779 16.2647 4.18256 15.2381C3.75733 14.2115 3.53846 13.1112 3.53846 12C3.53846 10.8888 3.75733 9.78851 4.18256 8.76191C4.60779 7.73531 5.23106 6.80252 6.01679 6.01679C6.80252 5.23106 7.73531 4.60779 8.76191 4.18256ZM15.6209 10.4926C15.9213 10.1922 15.9213 9.70519 15.6209 9.40479C15.3204 9.10439 14.8334 9.10439 14.533 9.40479L10.9744 12.9634L9.46701 11.4561C9.1666 11.1557 8.67955 11.1557 8.37915 11.4561C8.07875 11.7565 8.07875 12.2435 8.37915 12.5439L10.4304 14.5952C10.7308 14.8956 11.2179 14.8956 11.5183 14.5952L15.6209 10.4926Z" fill="#5B5B5B"/>
</svg>
