<svg width="24" height="25" viewBox="0 0 24 25" fill="none" xmlns="http://www.w3.org/2000/svg">
<path fill-rule="evenodd" clip-rule="evenodd" d="M17.9066 2.72741C18.2658 2.57727 18.6508 2.5 19.0396 2.5C19.4283 2.5 19.8133 2.57727 20.1725 2.72741C20.5316 2.87755 20.858 3.0976 21.1329 3.37502C21.4078 3.65244 21.6259 3.98178 21.7747 4.34424C21.9234 4.7067 22 5.09518 22 5.48751C22 5.87983 21.9234 6.26831 21.7747 6.63078C21.6259 6.99324 21.4078 7.32258 21.1329 7.59999L20.3085 8.43194L20.3056 8.43489L20.3027 8.43782L12.4462 16.3661C12.3299 16.4835 12.172 16.5495 12.0075 16.5495H8.69826C8.35558 16.5495 8.07778 16.2691 8.07778 15.9233V12.5839C8.07778 12.4178 8.14315 12.2585 8.25951 12.1411L16.1189 4.20992L16.9462 3.37502C17.2211 3.0976 17.5475 2.87755 17.9066 2.72741ZM20.2554 6.71448L19.8668 7.10662L17.4351 4.65266L17.8237 4.26053C17.9834 4.0994 18.1729 3.97159 18.3815 3.88438C18.5902 3.79718 18.8137 3.7523 19.0396 3.7523C19.2654 3.7523 19.489 3.79718 19.6976 3.88438C19.9062 3.97159 20.0957 4.0994 20.2554 4.26053C20.4151 4.42166 20.5417 4.61295 20.6282 4.82347C20.7146 5.034 20.759 5.25963 20.759 5.48751C20.759 5.71538 20.7146 5.94102 20.6282 6.15154C20.5417 6.36207 20.4151 6.55335 20.2554 6.71448ZM9.31873 12.8432L16.5576 5.53817L18.9893 7.99213L11.7505 15.2972H9.31873V12.8432ZM4.90676 7.03325C4.13584 7.03325 3.3965 7.3423 2.85137 7.8924C2.30625 8.44251 2 9.18861 2 9.96658V19.5666C2 20.3445 2.30625 21.0907 2.85137 21.6408C3.3965 22.1909 4.13584 22.4999 4.90676 22.4999H14.4198C15.1907 22.4999 15.9301 22.1909 16.4752 21.6408C17.0203 21.0907 17.3266 20.3446 17.3266 19.5666V18.4999C17.3266 18.0581 16.9716 17.6999 16.5338 17.6999C16.096 17.6999 15.7411 18.0581 15.7411 18.4999V19.5666C15.7411 19.9202 15.6019 20.2593 15.3541 20.5094C15.1063 20.7594 14.7702 20.8999 14.4198 20.8999H4.90676C4.55635 20.8999 4.22028 20.7594 3.97249 20.5094C3.72471 20.2593 3.58551 19.9202 3.58551 19.5666V9.96658C3.58551 9.61296 3.72471 9.27382 3.97249 9.02377C4.22028 8.77372 4.55634 8.63325 4.90676 8.63325H5.96377C6.40159 8.63325 6.75652 8.27508 6.75652 7.83325C6.75652 7.39142 6.40159 7.03325 5.96377 7.03325H4.90676Z" fill="#5B5B5B"/>
</svg>
