<svg width="20" height="20" viewBox="0 0 20 20" fill="none" xmlns="http://www.w3.org/2000/svg">
<path fill-rule="evenodd" clip-rule="evenodd" d="M8.13438 3.01065C8.17457 2.97058 8.22907 2.94806 8.2859 2.94806H11.7145C11.7713 2.94806 11.8258 2.97058 11.866 3.01065C11.9062 3.05072 11.9288 3.10507 11.9288 3.16174V5.08481H8.07162V3.16174C8.07162 3.10507 8.09419 3.05072 8.13438 3.01065ZM7.42955 6.36686C7.42929 6.36686 7.42902 6.36686 7.42876 6.36686C7.42849 6.36686 7.42823 6.36686 7.42797 6.36686H4.69889L5.49802 15.929C5.4995 15.9467 5.50024 15.9645 5.50024 15.9822C5.50024 16.2656 5.61312 16.5373 5.81405 16.7377C6.01498 16.9381 6.2875 17.0506 6.57166 17.0506H13.4288C13.713 17.0506 13.9855 16.9381 14.1864 16.7377C14.3874 16.5373 14.5002 16.2656 14.5002 15.9822C14.5002 15.9645 14.501 15.9467 14.5025 15.929L15.3016 6.36686H12.5724C12.5721 6.36686 12.5719 6.36686 12.5716 6.36686C12.5714 6.36686 12.5711 6.36686 12.5708 6.36686H7.42955ZM13.2145 5.08481V3.16174C13.2145 2.76505 13.0564 2.38461 12.7751 2.1041C12.4938 1.8236 12.1123 1.66602 11.7145 1.66602H8.2859C7.88808 1.66602 7.50655 1.8236 7.22524 2.1041C6.94394 2.38461 6.7859 2.76505 6.7859 3.16174V5.08481H4.00514H3.99677H3.14286C2.78782 5.08481 2.5 5.37181 2.5 5.72584C2.5 6.07986 2.78782 6.36686 3.14286 6.36686H3.40872L4.2147 16.011C4.22221 16.624 4.46967 17.2102 4.90491 17.6442C5.34696 18.085 5.94651 18.3327 6.57166 18.3327H13.4288C14.054 18.3327 14.6535 18.085 15.0956 17.6442C15.5308 17.2102 15.7783 16.624 15.7858 16.011L16.5918 6.36686H16.8571C17.2122 6.36686 17.5 6.07986 17.5 5.72584C17.5 5.37181 17.2122 5.08481 16.8571 5.08481H16.0037H15.9953H13.2145ZM8.28569 8.50358C8.64073 8.50358 8.92855 8.79058 8.92855 9.14461V14.2728C8.92855 14.6268 8.64073 14.9138 8.28569 14.9138C7.93065 14.9138 7.64284 14.6268 7.64284 14.2728V9.14461C7.64284 8.79058 7.93065 8.50358 8.28569 8.50358ZM12.3571 9.14461C12.3571 8.79058 12.0693 8.50358 11.7143 8.50358C11.3592 8.50358 11.0714 8.79058 11.0714 9.14461V14.2728C11.0714 14.6268 11.3592 14.9138 11.7143 14.9138C12.0693 14.9138 12.3571 14.6268 12.3571 14.2728V9.14461Z" fill="#5B5B5B"/>
</svg>
