<svg width="20" height="20" viewBox="0 0 20 20" fill="none" xmlns="http://www.w3.org/2000/svg">
<path fill-rule="evenodd" clip-rule="evenodd" d="M14.9225 1.85552C15.2218 1.73041 15.5426 1.66602 15.8666 1.66602C16.1906 1.66602 16.5114 1.73041 16.8107 1.85552C17.11 1.98064 17.382 2.16402 17.6111 2.3952C17.8402 2.62638 18.0219 2.90083 18.1459 3.20288C18.2698 3.50493 18.3337 3.82867 18.3337 4.1556C18.3337 4.48254 18.2698 4.80628 18.1459 5.10833C18.0219 5.41038 17.8402 5.68483 17.6111 5.91601L16.9241 6.60924L16.9217 6.61176L16.9192 6.61426L10.3722 13.2211C10.2752 13.3189 10.1437 13.3739 10.0066 13.3739H7.24887C6.96331 13.3739 6.73181 13.1403 6.73181 12.8521V10.0692C6.73181 9.93085 6.78628 9.79813 6.88325 9.70028L13.4327 3.09095L14.1222 2.3952C14.3512 2.16402 14.6232 1.98064 14.9225 1.85552ZM16.8798 5.17809L16.556 5.50486L14.5296 3.4599L14.8534 3.13312C14.9865 2.99885 15.1444 2.89234 15.3183 2.81967C15.4921 2.747 15.6784 2.7096 15.8666 2.7096C16.0548 2.7096 16.2411 2.747 16.415 2.81967C16.5888 2.89234 16.7468 2.99885 16.8798 3.13312C17.0129 3.2674 17.1184 3.4268 17.1905 3.60224C17.2625 3.77768 17.2995 3.96571 17.2995 4.1556C17.2995 4.3455 17.2625 4.53353 17.1905 4.70897C17.1184 4.8844 17.0129 5.04381 16.8798 5.17809ZM7.76594 10.2854L13.7983 4.19782L15.8248 6.24279L9.79238 12.3303H7.76594V10.2854ZM4.0893 5.44372C3.44686 5.44372 2.83074 5.70126 2.37647 6.15968C1.9222 6.61811 1.66699 7.23986 1.66699 7.88817V15.8882C1.66699 16.5365 1.9222 17.1582 2.37647 17.6167C2.83074 18.0751 3.44686 18.3326 4.0893 18.3326H12.0168C12.6593 18.3326 13.2754 18.0751 13.7297 17.6167C14.1839 17.1582 14.4391 16.5365 14.4391 15.8882V14.9993C14.4391 14.6311 14.1434 14.3326 13.7785 14.3326C13.4137 14.3326 13.1179 14.6311 13.1179 14.9993V15.8882C13.1179 16.1829 13.0019 16.4655 12.7954 16.6738C12.5889 16.8822 12.3088 16.9993 12.0168 16.9993H4.0893C3.79728 16.9993 3.51722 16.8822 3.31074 16.6738C3.10425 16.4655 2.98825 16.1829 2.98825 15.8882V7.88817C2.98825 7.59348 3.10425 7.31087 3.31074 7.10249C3.51722 6.89412 3.79728 6.77706 4.0893 6.77706H4.97013C5.33499 6.77706 5.63076 6.47858 5.63076 6.11039C5.63076 5.7422 5.33499 5.44372 4.97013 5.44372H4.0893Z" fill="#5B5B5B"/>
</svg>
