<svg width="20" height="20" viewBox="0 0 20 20" fill="none" xmlns="http://www.w3.org/2000/svg">
<path fill-rule="evenodd" clip-rule="evenodd" d="M8.13438 3.01162C8.17457 2.97155 8.22907 2.94904 8.2859 2.94904H11.7145C11.7713 2.94904 11.8258 2.97155 11.866 3.01162C11.9062 3.0517 11.9288 3.10605 11.9288 3.16272V5.08579H8.07162V3.16272C8.07162 3.10605 8.09419 3.0517 8.13438 3.01162ZM6.7859 5.08579V3.16272C6.7859 2.76602 6.94394 2.38558 7.22524 2.10508C7.50655 1.82458 7.88808 1.66699 8.2859 1.66699H11.7145C12.1123 1.66699 12.4938 1.82458 12.7751 2.10508C13.0564 2.38558 13.2145 2.76602 13.2145 3.16272V5.08579H15.9954H16.0037H16.8571C17.2122 5.08579 17.5 5.37278 17.5 5.72681C17.5 6.08084 17.2122 6.36784 16.8571 6.36784H16.5918L15.7858 16.012C15.7783 16.625 15.5308 17.2112 15.0956 17.6452C14.6535 18.086 14.054 18.3336 13.4288 18.3336H6.57166C5.94651 18.3336 5.34696 18.086 4.90491 17.6452C4.46967 17.2112 4.22222 16.625 4.2147 16.012L3.40872 6.36784H3.14286C2.78782 6.36784 2.5 6.08084 2.5 5.72681C2.5 5.37278 2.78782 5.08579 3.14286 5.08579H3.9968H4.00511H6.7859ZM12.5716 6.36784H7.42876H4.69889L5.49802 15.93C5.4995 15.9477 5.50024 15.9655 5.50024 15.9832C5.50024 16.2666 5.61312 16.5383 5.81405 16.7387C6.01498 16.939 6.2875 17.0516 6.57166 17.0516H13.4288C13.713 17.0516 13.9855 16.939 14.1864 16.7387C14.3874 16.5383 14.5002 16.2666 14.5002 15.9832C14.5002 15.9655 14.501 15.9477 14.5025 15.93L15.3016 6.36784H12.5716ZM8.28569 8.50456C8.64073 8.50456 8.92855 8.79155 8.92855 9.14558V14.2738C8.92855 14.6278 8.64073 14.9148 8.28569 14.9148C7.93065 14.9148 7.64284 14.6278 7.64284 14.2738V9.14558C7.64284 8.79155 7.93065 8.50456 8.28569 8.50456ZM12.3571 9.14558C12.3571 8.79155 12.0693 8.50456 11.7143 8.50456C11.3592 8.50456 11.0714 8.79155 11.0714 9.14558V14.2738C11.0714 14.6278 11.3592 14.9148 11.7143 14.9148C12.0693 14.9148 12.3571 14.6278 12.3571 14.2738V9.14558Z" fill="#2E2E2E"/>
</svg>
