<svg width="14" height="15" viewBox="0 0 14 15" fill="none" xmlns="http://www.w3.org/2000/svg">
<path fill-rule="evenodd" clip-rule="evenodd" d="M7.00016 0.833984C6.12468 0.833984 5.25778 1.00642 4.44894 1.34145C3.6401 1.67649 2.90517 2.16755 2.28612 2.78661C1.66706 3.40566 1.176 4.14059 0.840966 4.94943C0.505934 5.75827 0.333496 6.62517 0.333496 7.50065C0.333496 8.37613 0.505934 9.24304 0.840966 10.0519C1.176 10.8607 1.66706 11.5956 2.28612 12.2147C2.90517 12.8338 3.6401 13.3248 4.44894 13.6598C5.25778 13.9949 6.12468 14.1673 7.00016 14.1673C7.87564 14.1673 8.74255 13.9949 9.55139 13.6598C10.3602 13.3248 11.0952 12.8338 11.7142 12.2147C12.3333 11.5956 12.8243 10.8607 13.1594 10.0519C13.4944 9.24304 13.6668 8.37613 13.6668 7.50065C13.6668 6.62517 13.4944 5.75827 13.1594 4.94943C12.8243 4.14059 12.3333 3.40566 11.7142 2.78661C11.0952 2.16755 10.3602 1.67649 9.55139 1.34145C8.74255 1.00642 7.87564 0.833984 7.00016 0.833984ZM4.84144 2.28902C5.52584 2.00554 6.25937 1.85963 7.00016 1.85963C7.74095 1.85963 8.47449 2.00554 9.15889 2.28902C9.84329 2.57251 10.4652 2.98803 10.989 3.51184C11.5128 4.03566 11.9283 4.65752 12.2118 5.34192C12.4953 6.02632 12.6412 6.75986 12.6412 7.50065C12.6412 8.24144 12.4953 8.97498 12.2118 9.65938C11.9283 10.3438 11.5128 10.9656 10.989 11.4895C10.4652 12.0133 9.84329 12.4288 9.15889 12.7123C8.47449 12.9958 7.74095 13.1417 7.00016 13.1417C6.25937 13.1417 5.52584 12.9958 4.84144 12.7123C4.15704 12.4288 3.53517 12.0133 3.01136 11.4895C2.48754 10.9656 2.07202 10.3438 1.78853 9.65938C1.50505 8.97498 1.35914 8.24144 1.35914 7.50065C1.35914 6.75986 1.50505 6.02632 1.78853 5.34192C2.07202 4.65752 2.48754 4.03566 3.01136 3.51184C3.53517 2.98803 4.15703 2.57251 4.84144 2.28902ZM9.41406 6.49575C9.61433 6.29548 9.61433 5.97078 9.41406 5.77051C9.21379 5.57024 8.8891 5.57024 8.68883 5.77051L6.3164 8.14293L5.3115 7.13803C5.11123 6.93776 4.78653 6.93776 4.58626 7.13803C4.38599 7.3383 4.38599 7.663 4.58626 7.86327L5.95378 9.23079C6.15405 9.43106 6.47875 9.43106 6.67902 9.23079L9.41406 6.49575Z" fill="white"/>
</svg>
