<?xml version="1.0" encoding="UTF-8"?>
<svg xmlns="http://www.w3.org/2000/svg" xmlns:xlink="http://www.w3.org/1999/xlink" viewBox="0 0 600 450">
  <defs>
    <style>
      .cls-1 {
        fill: url(#linear-gradient);
        mix-blend-mode: color-dodge;
      }

      .cls-1, .cls-2, .cls-3, .cls-4, .cls-5, .cls-6, .cls-7, .cls-8, .cls-9, .cls-10, .cls-11, .cls-12, .cls-13, .cls-14, .cls-15, .cls-16 {
        stroke-width: 0px;
      }

      .cls-2, .cls-5 {
        fill: #c5dbfc;
      }

      .cls-2, .cls-17 {
        mix-blend-mode: soft-light;
      }

      .cls-3 {
        fill: #f48989;
      }

      .cls-18, .cls-19, .cls-20, .cls-21, .cls-22, .cls-23, .cls-24, .cls-25, .cls-26 {
        fill: none;
        stroke-miterlimit: 10;
      }

      .cls-18, .cls-22 {
        stroke: #fff;
      }

      .cls-27 {
        isolation: isolate;
      }

      .cls-19, .cls-23, .cls-24 {
        stroke: #6c00d3;
      }

      .cls-4 {
        fill: #310051;
      }

      .cls-20 {
        stroke: #4f008c;
        stroke-width: .75px;
      }

      .cls-28 {
        opacity: .39;
      }

      .cls-6 {
        fill: #ff5757;
      }

      .cls-29 {
        font-family: BebasNeueBold, 'Bebas Neue';
        font-size: 17.31px;
      }

      .cls-29, .cls-11 {
        fill: #c28dff;
      }

      .cls-21, .cls-25, .cls-26 {
        stroke: #c28dff;
      }

      .cls-22 {
        stroke-width: 2px;
      }

      .cls-7 {
        fill: #6c00d3;
      }

      .cls-30 {
        letter-spacing: .06em;
      }

      .cls-8 {
        mix-blend-mode: screen;
        opacity: .5;
      }

      .cls-8, .cls-9 {
        fill: #fff;
      }

      .cls-10 {
        fill: #e22d65;
      }

      .cls-31, .cls-23 {
        letter-spacing: .1em;
      }

      .cls-12 {
        fill: #f4cb45;
      }

      .cls-23 {
        stroke-width: .5px;
      }

      .cls-23, .cls-24 {
        font-family: Gotham-Bold, Gotham;
        font-size: 11.2px;
        font-weight: 700;
      }

      .cls-13 {
        fill: #f4a945;
      }

      .cls-14 {
        fill: #ff8080;
      }

      .cls-24 {
        stroke-width: .4px;
      }

      .cls-25 {
        stroke-width: 4px;
      }

      .cls-26 {
        stroke-width: 3px;
      }

      .cls-15 {
        fill: #4f008c;
      }

      .cls-16 {
        fill: #ffa9a8;
      }
    </style>
    <linearGradient id="linear-gradient" x1="309.43" y1="175.31" x2="309.43" y2="381.28" gradientUnits="userSpaceOnUse">
      <stop offset="0" stop-color="#fff" stop-opacity="0"/>
      <stop offset=".1" stop-color="#fafeff" stop-opacity=".02"/>
      <stop offset=".22" stop-color="#ecfeff" stop-opacity=".08"/>
      <stop offset=".36" stop-color="#d6feff" stop-opacity=".19"/>
      <stop offset=".51" stop-color="#b6fdff" stop-opacity=".33"/>
      <stop offset=".67" stop-color="#8efcff" stop-opacity=".52"/>
      <stop offset=".83" stop-color="#5cfbff" stop-opacity=".74"/>
      <stop offset="1" stop-color="#25faff"/>
    </linearGradient>
  </defs>
  <g class="cls-27">
    <g id="katman_1" data-name="katman 1">
      <g>
        <g class="cls-28">
          <line class="cls-20" x1="63.23" y1="105.73" x2="555.64" y2="105.73"/>
          <line class="cls-20" x1="63.23" y1="145.79" x2="555.64" y2="145.79"/>
          <line class="cls-20" x1="63.23" y1="185.86" x2="555.64" y2="185.86"/>
          <line class="cls-20" x1="63.23" y1="225.93" x2="555.64" y2="225.93"/>
          <line class="cls-20" x1="63.23" y1="266" x2="555.64" y2="266"/>
          <line class="cls-20" x1="63.23" y1="306.07" x2="555.64" y2="306.07"/>
          <line class="cls-20" x1="63.23" y1="346.14" x2="555.64" y2="346.14"/>
          <line class="cls-20" x1="104.27" y1="381.26" x2="104.27" y2="65.66"/>
          <line class="cls-20" x1="145.3" y1="381.26" x2="145.3" y2="65.66"/>
          <line class="cls-20" x1="186.33" y1="381.26" x2="186.33" y2="65.66"/>
          <line class="cls-20" x1="227.37" y1="381.26" x2="227.37" y2="65.66"/>
          <line class="cls-20" x1="268.4" y1="381.26" x2="268.4" y2="65.66"/>
          <line class="cls-20" x1="309.44" y1="381.26" x2="309.44" y2="65.66"/>
          <line class="cls-20" x1="350.47" y1="381.26" x2="350.47" y2="65.66"/>
          <line class="cls-20" x1="391.5" y1="381.26" x2="391.5" y2="65.66"/>
          <line class="cls-20" x1="432.54" y1="381.26" x2="432.54" y2="65.66"/>
          <line class="cls-20" x1="473.57" y1="381.26" x2="473.57" y2="65.66"/>
          <line class="cls-20" x1="514.6" y1="381.26" x2="514.6" y2="65.66"/>
          <polyline class="cls-20" points="555.64 381.26 555.64 65.66 63.23 65.66 63.23 381.26"/>
        </g>
        <g>
          <g>
            <path class="cls-3" d="m243.94,245.35s-9.85,55.58-9.12,58.41c4.88,18.99,15.73.48,17.25,4.18,0,0,13.27-51.33,12.72-56.24-2.1-18.95-14.5-22.72-20.85-6.34Z"/>
            <g>
              <path class="cls-16" d="m400.46,167.19s.84-5.95,6.05-3.04c0,0,3.24-.95,4.56,1.58,0,0,3.62,0,3.87,1.81.74,5.54-9.74,22.58-9.74,22.58l-14.18-4.86s-4.33-15.67-1.89-18.46c1.53-1.75,4.31,3.81,4.31,3.81,0,0-.14-10.97,2.19-13.01,2.45-2.15,8.31-4.04,9.06-4.05,1.38,0,5.29,1-2.8,6-1.43.88-1.43,7.64-1.43,7.64Z"/>
              <g>
                <g>
                  <path class="cls-7" d="m341.99,189.01c19.12,6.85,38.45,59.18,38.45,59.18l-28.25,6,.75-10.89-13.83-9.25,2.88-45.05Z"/>
                  <path class="cls-7" d="m276.88,189.01c-19.12,6.85-38.45,59.18-38.45,59.18l28.25,6-.75-10.89,13.83-9.25-2.88-45.05Z"/>
                  <path class="cls-6" d="m283.24,148.7s-6.88-19.88,3.84-22.62c0,0,2.09-6.38,13.34-7.25s9.01-7.38,9.01-7.38c0,0,4.11,1.62,3.61,6.88,0,0,5.67-8,2.09-13.88,0,0,13.59-.5,17.06,14.5,0,0,1.4-5.62,0-8.88,0,0,18.4,13,3.44,38.62h-52.39Z"/>
                  <rect class="cls-15" x="275.17" y="151.7" width="7.67" height="13.5" rx="3.84" ry="3.84"/>
                  <path class="cls-9" d="m281.42,148.7h5.25v19.5h-5.25c-1.33,0-2.42-1.08-2.42-2.42v-14.67c0-1.33,1.08-2.42,2.42-2.42Z"/>
                  <path class="cls-6" d="m283.24,148.7v16.06c0,1.9,1.54,3.44,3.44,3.44h0v-19.5h-3.44Z"/>
                  <path class="cls-15" d="m341.99,189.01c11.09,6.44,16.53,119.48,16.53,119.48h-49.09v-126.29s23.59,1.6,32.56,6.81Z"/>
                  <path class="cls-15" d="m276.88,189.01c-11.09,6.44-16.53,119.48-16.53,119.48h49.09v-126.29s-23.59,1.6-32.56,6.81Z"/>
                  <rect class="cls-15" x="336.03" y="151.7" width="7.67" height="13.5" rx="3.84" ry="3.84" transform="translate(679.73 316.89) rotate(180)"/>
                  <path class="cls-9" d="m334.61,148.7h5.25v19.5h-5.25c-1.33,0-2.42-1.08-2.42-2.42v-14.67c0-1.33,1.08-2.42,2.42-2.42Z" transform="translate(672.06 316.89) rotate(-180)"/>
                  <path class="cls-6" d="m335.63,164.76v-16.06s-3.44,0-3.44,0v19.5s0,0,0,0c1.9,0,3.44-1.54,3.44-3.44Z"/>
                  <path class="cls-22" d="m295.74,186.21s-4.94,20.08,11.67,21.42c16.6,1.35,18.12-13.85,16.86-20.72"/>
                  <path class="cls-16" d="m318.49,182.77l-9.07,2.09-9.07-2.09-1.05,8.08c-.79,6.1,3.96,11.52,10.12,11.52h0c6.16,0,10.91-5.41,10.12-11.52l-1.05-8.08Z"/>
                  <path class="cls-3" d="m318.65,183.97l-.16-1.2-9.07,2.09-9.07-2.09-1.05,8.08c-.11.83-.1,1.64-.02,2.43,16.21-.45,19.36-9.3,19.36-9.3Z"/>
                  <path class="cls-16" d="m332.17,148.7s-1.55-5.67-6.37-8.91c-2.08-1.4-9.23-2.1-16.37-2.1s-14.29.7-16.37,2.1c-4.82,3.24-6.37,8.91-6.37,8.91-2.19,9,0,19.5,0,19.5,3.58,9.48,12.23,17.25,22.75,19.17,10.52-1.92,19.2-9.69,22.77-19.17,0,0,2.16-10.5-.03-19.5Z"/>
                  <g>
                    <path class="cls-4" d="m300.49,160.23c-.75,0-1.35-.6-1.35-1.35,0-.49.26-.91.65-1.15-.34-.12-.69-.2-1.07-.2-1.72,0-3.12,1.4-3.12,3.12s1.4,3.12,3.12,3.12,3.12-1.4,3.12-3.12c0-.38-.08-.74-.2-1.07-.24.39-.66.65-1.15.65Z"/>
                    <path class="cls-4" d="m293.14,154.16l-.58-1.91c.35-.12,5.12-.98,11.15-.36l-.2,1.99c-5.86-.6-10.33.27-10.37.28Z"/>
                  </g>
                  <g>
                    <path class="cls-4" d="m321.89,160.23c-.75,0-1.35-.6-1.35-1.35,0-.49.26-.91.65-1.15-.34-.12-.69-.2-1.07-.2-1.72,0-3.12,1.4-3.12,3.12,0,1.72,1.4,3.12,3.12,3.12s3.12-1.4,3.12-3.12c0-.38-.08-.74-.2-1.07-.24.39-.66.65-1.15.65Z"/>
                    <rect class="cls-8" x="290.92" y="155.38" width="15.06" height="10.25" rx="1.41" ry="1.41"/>
                    <path class="cls-4" d="m325.7,154.16s-5.78-.6-11.64,0l1.07-2.27c6.02-.62,10.8.24,11.15.36l-.63,1.9.32-.95-.26.96Z"/>
                  </g>
                  <rect class="cls-9" x="283.24" y="156.79" width="7.68" height="3.86"/>
                  <rect class="cls-9" x="289.34" y="156.79" width="1.58" height="7.44"/>
                  <polyline class="cls-18" points="283.75 168.2 283.75 177.03 302.67 177.03"/>
                  <path class="cls-6" d="m287.08,147.54s15.17,3.65,26.01-5.51-3.67-17.5-3.67-17.5c0,0-28.02,5.86-22.34,23.01Z"/>
                  <path class="cls-6" d="m316.52,137.69s4.19,9.9,15.92,12.27l-.77-9.95s-3.19-5.31-4.5-6.06-8.58-3.17-10.17-3.56-3.33-.75-4.9-.31-5,1.38-5,1.38l9.41,6.24Z"/>
                  <rect class="cls-9" x="297.17" y="175.53" width="6.54" height="3"/>
                  <path class="cls-3" d="m309.83,160.51s-3.78,7.5-2.41,8.06,5,.31,5.38,0-2.97-8.06-2.97-8.06Z"/>
                  <path class="cls-9" d="m307.11,175.53s.7,0,1.75-.02c.5-.02,1.06-.05,1.63-.11.28-.04.57-.08.86-.13.28-.07.57-.1.84-.2.28-.06.55-.17.81-.27.28-.08.51-.24.77-.34.26-.1.47-.28.71-.4.24-.12.44-.29.64-.42.19-.15.41-.25.56-.39.16-.13.31-.24.44-.34.26-.19.42-.29.42-.29,0,0-.02.18-.09.5-.08.31-.17.79-.46,1.27-.14.24-.27.54-.49.78-.22.24-.43.54-.73.76-.3.22-.58.49-.95.64-.35.19-.71.34-1.1.44-.38.12-.77.16-1.16.2-.38.03-.76,0-1.12-.03-.71-.09-1.35-.3-1.85-.55-1.02-.48-1.5-1.09-1.5-1.09Z"/>
                  <path class="cls-14" d="m299.22,147.93s15.46.1,21.84-9.53,0-19.88,0-19.88c0,0,1.1,9.56-3.56,12.81,0,0,.5-4.12-1.73-6.31,0,0-1.68,17.3-16.55,22.9Z"/>
                </g>
                <g>
                  <path class="cls-16" d="m354.42,253.8s13.61,7.45,19.4,5.29c10.52-3.93,34.47-75.51,34.47-75.51l-17.27,1.7-23.96,44.25-12.63,24.28Z"/>
                  <path class="cls-3" d="m354.42,253.8l12.63-24.28-7.29,26.84c-3.07-1.32-5.35-2.56-5.35-2.56Z"/>
                </g>
              </g>
            </g>
          </g>
          <polygon class="cls-1" points="446.32 129.87 317 129.87 301.86 129.87 172.55 129.87 242.52 366.93 376.34 366.93 446.32 129.87"/>
          <g class="cls-17">
            <g>
              <path class="cls-5" d="m309.44,354.36c-38.07,0-69.03-30.97-69.03-69.03s30.97-69.03,69.03-69.03,69.03,30.97,69.03,69.03-30.97,69.03-69.03,69.03Zm0-136.44c-37.17,0-67.41,30.24-67.41,67.41s30.24,67.41,67.41,67.41,67.41-30.24,67.41-67.41-30.24-67.41-67.41-67.41Z"/>
              <path class="cls-5" d="m388.18,285.32h-4.41c0-40.99-33.35-74.34-74.34-74.34v-4.41c43.42,0,78.75,35.33,78.75,78.75Z"/>
              <path class="cls-5" d="m309.44,364.07c-43.42,0-78.75-35.33-78.75-78.75h4.41c0,40.99,33.35,74.34,74.34,74.34v4.41Z"/>
              <path class="cls-5" d="m309.44,251.5c-18.65,0-33.82,15.17-33.82,33.82s15.17,33.82,33.82,33.82,33.82-15.17,33.82-33.82-15.17-33.82-33.82-33.82Zm0,62.44c-15.78,0-28.62-12.84-28.62-28.62s12.84-28.62,28.62-28.62,28.62,12.84,28.62,28.62-12.84,28.62-28.62,28.62Z"/>
              <path class="cls-5" d="m309.44,235.95c-27.23,0-49.37,22.15-49.37,49.37s22.15,49.37,49.37,49.37,49.37-22.15,49.37-49.37-22.15-49.37-49.37-49.37Zm0,91.16c-23.04,0-41.79-18.75-41.79-41.79s18.75-41.79,41.79-41.79,41.79,18.75,41.79,41.79-18.75,41.79-41.79,41.79Z"/>
              <g>
                <path class="cls-5" d="m269.65,320.97c-7.44-8.3-12.36-18.89-13.46-30.61h-9.29c1.14,14.27,7.08,27.18,16.19,37.17l6.57-6.57Z"/>
                <path class="cls-5" d="m256.06,282.76c.58-12.06,5.11-23.1,12.41-31.79l-6.57-6.57c-8.96,10.39-14.54,23.73-15.13,38.35h9.29Z"/>
                <path class="cls-5" d="m273.79,245.53c8.59-7.7,19.64-12.66,31.84-13.53v-9.29c-14.76.89-28.13,6.88-38.41,16.25l6.57,6.57Z"/>
                <path class="cls-5" d="m313.24,222.72v9.29c12.2.86,23.26,5.82,31.84,13.53l6.57-6.57c-10.28-9.37-23.65-15.36-38.41-16.25Z"/>
                <path class="cls-5" d="m305.63,338.64c-11.58-.82-22.16-5.3-30.55-12.35l-6.57,6.57c10.1,8.71,22.98,14.22,37.11,15.07v-9.29Z"/>
                <path class="cls-5" d="m350.41,250.97c7.3,8.69,11.83,19.72,12.41,31.79h9.29c-.6-14.62-6.17-27.96-15.13-38.35l-6.57,6.57Z"/>
                <path class="cls-5" d="m362.69,290.37c-1.1,11.71-6.02,22.31-13.46,30.61l6.57,6.57c9.11-10,15.04-22.9,16.19-37.17h-9.29Z"/>
                <path class="cls-5" d="m343.79,326.29c-8.39,7.04-18.97,11.52-30.55,12.34v9.29c14.14-.85,27.01-6.36,37.11-15.07l-6.57-6.57Z"/>
              </g>
              <path class="cls-5" d="m320.46,366.93l-1.54-11.49c.71-.1,1.42-.2,2.12-.32l1.88,11.44c-.82.13-1.64.26-2.47.37Zm7.37-1.34l-2.59-11.3c.7-.16,1.39-.33,2.08-.51l2.94,11.21c-.8.21-1.62.41-2.43.6Zm7.22-2.01l-3.61-11.01c.68-.22,1.35-.46,2.03-.7l3.96,10.89c-.79.29-1.58.56-2.38.82Zm7.02-2.67l-4.61-10.63c.66-.29,1.31-.58,1.96-.89l4.93,10.49c-.75.35-1.51.7-2.28,1.03Zm6.74-3.3l-5.57-10.17c.63-.35,1.26-.7,1.87-1.06l5.86,10c-.72.42-1.44.83-2.17,1.23Zm6.41-3.89l-6.47-9.62c.6-.4,1.19-.81,1.77-1.23l6.74,9.43c-.68.48-1.36.96-2.05,1.42Zm6.02-4.45l-7.31-9c.55-.45,1.1-.91,1.64-1.38l7.58,8.77c-.63.55-1.27,1.08-1.92,1.61Zm5.6-4.98l-8.08-8.31c.51-.5,1.01-1,1.51-1.51l8.35,8.04c-.58.6-1.17,1.19-1.77,1.78Zm5.12-5.46l-8.8-7.55c.47-.54.92-1.09,1.37-1.65l9.02,7.28c-.52.65-1.05,1.29-1.6,1.92Zm4.61-5.89l-9.44-6.72c.41-.58.81-1.16,1.21-1.76l9.65,6.42c-.46.7-.94,1.38-1.42,2.06Zm4.06-6.29l-10.02-5.83c.36-.62.71-1.24,1.05-1.87l10.19,5.53c-.4.73-.8,1.45-1.22,2.17Zm3.47-6.62l-10.5-4.9c.3-.65.59-1.3.87-1.95l10.65,4.58c-.33.76-.67,1.52-1.02,2.27Zm2.85-6.91l-10.91-3.92c.24-.67.47-1.35.7-2.03l11.02,3.59c-.26.79-.53,1.58-.81,2.36Zm2.21-7.16l-11.22-2.9c.18-.69.35-1.39.51-2.09l11.3,2.57c-.19.81-.38,1.62-.59,2.42Zm1.54-7.33l-11.44-1.87c.11-.7.22-1.41.31-2.11l11.49,1.5c-.11.83-.23,1.66-.37,2.48Z"/>
              <path class="cls-5" d="m298.41,203.72l1.54,11.49c-.71.1-1.42.2-2.12.32l-1.88-11.44c.82-.13,1.64-.26,2.47-.37Zm-7.37,1.34l2.59,11.3c-.7.16-1.39.33-2.08.51l-2.94-11.21c.8-.21,1.62-.41,2.43-.6Zm-7.22,2.01l3.61,11.01c-.68.22-1.35.46-2.03.7l-3.96-10.89c.79-.29,1.58-.56,2.38-.82Zm-7.02,2.67l4.61,10.63c-.66.29-1.31.58-1.96.89l-4.93-10.49c.75-.35,1.51-.7,2.28-1.03Zm-6.74,3.3l5.57,10.17c-.63.35-1.26.7-1.87,1.06l-5.86-10c.72-.42,1.44-.83,2.17-1.23Zm-6.41,3.89l6.47,9.62c-.6.4-1.19.81-1.77,1.23l-6.74-9.43c.68-.48,1.36-.96,2.05-1.42Zm-6.02,4.45l7.31,9c-.55.45-1.1.91-1.64,1.38l-7.58-8.77c.63-.55,1.27-1.08,1.92-1.61Zm-5.6,4.98l8.08,8.31c-.51.5-1.01,1-1.51,1.51l-8.35-8.04c.58-.6,1.17-1.19,1.77-1.78Zm-5.12,5.46l8.8,7.55c-.47.54-.92,1.09-1.37,1.65l-9.02-7.28c.52-.65,1.05-1.29,1.6-1.92Zm-4.61,5.89l9.44,6.72c-.41.58-.81,1.16-1.21,1.76l-9.65-6.42c.46-.7.94-1.38,1.42-2.06Zm-4.06,6.29l10.02,5.83c-.36.62-.71,1.24-1.05,1.87l-10.19-5.53c.4-.73.8-1.45,1.22-2.17Zm-3.47,6.62l10.5,4.9c-.3.65-.59,1.3-.87,1.95l-10.65-4.58c.33-.76.67-1.52,1.02-2.27Zm-2.85,6.91l10.91,3.92c-.24.67-.47,1.35-.7,2.03l-11.02-3.59c.26-.79.53-1.58.81-2.36Zm-2.21,7.16l11.22,2.9c-.18.69-.35,1.39-.51,2.09l-11.3-2.57c.19-.81.38-1.62.59-2.42Zm-1.54,7.33l11.44,1.87c-.11.7-.22,1.41-.31,2.11l-11.49-1.5c.11-.83.23-1.66.37-2.48Z"/>
            </g>
          </g>
          <g class="cls-17">
            <g>
              <path class="cls-5" d="m298.68,166.37c-3.15,0-5.72-2.56-5.72-5.72s2.56-5.72,5.72-5.72,5.72,2.56,5.72,5.72-2.56,5.72-5.72,5.72Zm0-11.3c-3.08,0-5.58,2.5-5.58,5.58s2.5,5.58,5.58,5.58,5.58-2.5,5.58-5.58-2.5-5.58-5.58-5.58Z"/>
              <path class="cls-5" d="m305.2,160.65h-.37c0-3.39-2.76-6.16-6.16-6.16v-.37c3.6,0,6.52,2.93,6.52,6.52Z"/>
              <path class="cls-5" d="m298.68,167.17c-3.6,0-6.52-2.93-6.52-6.52h.37c0,3.39,2.76,6.16,6.16,6.16v.37Z"/>
              <g>
                <path class="cls-5" d="m295.39,163.6c-.62-.69-1.02-1.56-1.11-2.53h-.77c.09,1.18.59,2.25,1.34,3.08l.54-.54Z"/>
                <path class="cls-5" d="m294.26,160.44c.05-1,.42-1.91,1.03-2.63l-.54-.54c-.74.86-1.2,1.97-1.25,3.18h.77Z"/>
                <path class="cls-5" d="m295.73,157.35c.71-.64,1.63-1.05,2.64-1.12v-.77c-1.22.07-2.33.57-3.18,1.35l.54.54Z"/>
                <path class="cls-5" d="m299,155.46v.77c1.01.07,1.93.48,2.64,1.12l.54-.54c-.85-.78-1.96-1.27-3.18-1.35Z"/>
                <path class="cls-5" d="m298.37,165.06c-.96-.07-1.83-.44-2.53-1.02l-.54.54c.84.72,1.9,1.18,3.07,1.25v-.77Z"/>
                <path class="cls-5" d="m302.08,157.8c.6.72.98,1.63,1.03,2.63h.77c-.05-1.21-.51-2.32-1.25-3.18l-.54.54Z"/>
                <path class="cls-5" d="m303.09,161.07c-.09.97-.5,1.85-1.11,2.53l.54.54c.75-.83,1.25-1.9,1.34-3.08h-.77Z"/>
                <path class="cls-5" d="m301.53,164.04c-.69.58-1.57.95-2.53,1.02v.77c1.17-.07,2.24-.53,3.07-1.25l-.54-.54Z"/>
              </g>
              <path class="cls-5" d="m299.6,167.41l-.13-.95c.06,0,.12-.02.18-.03l.16.95c-.07.01-.14.02-.2.03Zm.61-.11l-.21-.94c.06-.01.12-.03.17-.04l.24.93c-.07.02-.13.03-.2.05Zm.6-.17l-.3-.91c.06-.02.11-.04.17-.06l.33.9c-.07.02-.13.05-.2.07Zm.58-.22l-.38-.88c.05-.02.11-.05.16-.07l.41.87c-.06.03-.13.06-.19.09Zm.56-.27l-.46-.84c.05-.03.1-.06.16-.09l.49.83c-.06.03-.12.07-.18.1Zm.53-.32l-.54-.8s.1-.07.15-.1l.56.78c-.06.04-.11.08-.17.12Zm.5-.37l-.6-.75s.09-.08.14-.11l.63.73c-.05.05-.11.09-.16.13Zm.46-.41l-.67-.69s.08-.08.12-.13l.69.67s-.1.1-.15.15Zm.42-.45l-.73-.62s.08-.09.11-.14l.75.6c-.04.05-.09.11-.13.16Zm.38-.49l-.78-.56s.07-.1.1-.15l.8.53c-.04.06-.08.11-.12.17Zm.34-.52l-.83-.48c.03-.05.06-.1.09-.15l.84.46c-.03.06-.07.12-.1.18Zm.29-.55l-.87-.41c.02-.05.05-.11.07-.16l.88.38c-.03.06-.06.13-.08.19Zm.24-.57l-.9-.32c.02-.06.04-.11.06-.17l.91.3c-.02.07-.04.13-.07.2Zm.18-.59l-.93-.24c.01-.06.03-.12.04-.17l.94.21c-.02.07-.03.13-.05.2Zm.13-.61l-.95-.15c0-.06.02-.12.03-.17l.95.12c0,.07-.02.14-.03.21Z"/>
              <path class="cls-5" d="m297.77,153.89l.13.95c-.06,0-.12.02-.18.03l-.16-.95c.07-.01.14-.02.2-.03Zm-.61.11l.21.94c-.06.01-.12.03-.17.04l-.24-.93c.07-.02.13-.03.2-.05Zm-.6.17l.3.91c-.06.02-.11.04-.17.06l-.33-.9c.07-.02.13-.05.2-.07Zm-.58.22l.38.88c-.05.02-.11.05-.16.07l-.41-.87c.06-.03.13-.06.19-.09Zm-.56.27l.46.84c-.05.03-.1.06-.16.09l-.49-.83c.06-.03.12-.07.18-.1Zm-.53.32l.54.8s-.1.07-.15.1l-.56-.78c.06-.04.11-.08.17-.12Zm-.5.37l.6.75s-.09.08-.14.11l-.63-.73c.05-.05.11-.09.16-.13Zm-.46.41l.67.69s-.08.08-.12.13l-.69-.67s.1-.1.15-.15Zm-.42.45l.73.62s-.08.09-.11.14l-.75-.6c.04-.05.09-.11.13-.16Zm-.38.49l.78.56s-.07.1-.1.15l-.8-.53c.04-.06.08-.11.12-.17Zm-.34.52l.83.48c-.03.05-.06.1-.09.15l-.84-.46c.03-.06.07-.12.1-.18Zm-.29.55l.87.41c-.02.05-.05.11-.07.16l-.88-.38c.03-.06.06-.13.08-.19Zm-.24.57l.9.32c-.02.06-.04.11-.06.17l-.91-.3c.02-.07.04-.13.07-.2Zm-.18.59l.93.24c-.01.06-.03.12-.04.17l-.94-.21c.02-.07.03-.13.05-.2Zm-.13.61l.95.15c0,.06-.02.12-.03.17l-.95-.12c0-.07.02-.14.03-.21Z"/>
            </g>
          </g>
          <g>
            <rect class="cls-15" x="240.8" y="375.23" width="137.26" height="6.03"/>
            <path class="cls-7" d="m389.78,307.47h-160.68c-2.06,0-3.54,1.98-2.95,3.95l18.83,63.8h128.92l18.83-63.8c.58-1.97-.9-3.95-2.95-3.95Z"/>
            <path class="cls-15" d="m226.41,312.33c.52-.94,1.5-1.61,2.69-1.61h160.68c1.19,0,2.17.67,2.69,1.61l.27-.91c.58-1.97-.9-3.95-2.95-3.95h-160.68c-2.06,0-3.54,1.98-2.95,3.95l.27.91Z"/>
            <g>
              <rect class="cls-9" x="255.6" y="372.73" width="9.5" height="5"/>
              <rect class="cls-9" x="353.77" y="372.73" width="9.5" height="5"/>
            </g>
            <circle class="cls-9" cx="309.44" cy="341.35" r="7.5"/>
          </g>
          <path class="cls-16" d="m232.21,312.28s-2.99-9.25,3.56-11,19.22-.88,21.29-.5,2.95,11.25.19,11.88-24.31,4.51-25.04-.38Z"/>
          <path class="cls-16" d="m257.05,304.55c-.02-.06,4.14-.94,6.06-.78s1.67,3.7,1.67,3.7h-7.73v-2.92Z"/>
          <rect class="cls-11" x="47.1" y="381.26" width="524.67" height="12.55"/>
          <rect class="cls-2" x="47.1" y="381.26" width="524.67" height="6.27"/>
          <path class="cls-19" d="m134.19,337.93v-37.7c0-4.59,3.72-8.3,8.3-8.3h46.85c4.59,0,8.3,3.72,8.3,8.3v69.71c0,4.59,3.72,8.3,8.3,8.3h34.86"/>
          <g>
            <path class="cls-7" d="m158.29,323.82h-48.91c-1.41,0-2.55,1.14-2.55,2.55l-2,23.94c0,3.16,2.57,5.73,5.73,5.73h0c2.12,0,4.09-1.09,5.22-2.88l3.81-6.05c1.13-1.79,3.1-2.88,5.22-2.88h18.05c2.12,0,4.09,1.09,5.22,2.88l3.81,6.05c1.13,1.79,3.1,2.88,5.22,2.88h0c3.16,0,5.73-2.57,5.73-5.73l-2-23.94c0-1.41-1.14-2.55-2.55-2.55Z"/>
            <g>
              <g>
                <rect class="cls-11" x="124.09" y="321.81" width="19.48" height="11.8" rx=".71" ry=".71"/>
                <g>
                  <rect class="cls-9" x="129.32" y="337.69" width="3.45" height="1.1"/>
                  <rect class="cls-9" x="134.88" y="337.69" width="3.45" height="1.1"/>
                </g>
                <path class="cls-11" d="m118.87,322.03h-7.12c-.48,0-.87.39-.87.87v.92s8.86,0,8.86,0v-.92c0-.48-.39-.87-.87-.87Z"/>
                <path class="cls-11" d="m148.79,322.03h7.12c.48,0,.87.39.87.87v.92h-8.86v-.92c0-.48.39-.87.87-.87Z"/>
              </g>
              <g>
                <circle class="cls-9" cx="152.35" cy="334.04" r="5.71"/>
                <circle class="cls-9" cx="115.31" cy="334.04" r="5.71"/>
                <polygon class="cls-7" points="119.38 335.08 116.33 335.08 116.33 338.1 114.27 338.1 114.27 335.08 111.24 335.08 111.24 333.02 114.27 333.02 114.27 329.98 116.33 329.98 116.33 333.02 119.38 333.02 119.38 335.08"/>
                <g>
                  <path class="cls-7" d="m152.35,330.02c.77,0,1.39.62,1.39,1.39s-.62,1.39-1.39,1.39-1.39-.62-1.39-1.39.62-1.39,1.39-1.39Z"/>
                  <path class="cls-7" d="m149.72,335.43c-.77,0-1.39-.62-1.39-1.39s.62-1.39,1.39-1.39,1.39.62,1.39,1.39-.62,1.39-1.39,1.39Z"/>
                  <path class="cls-7" d="m152.35,338.06c-.77,0-1.39-.62-1.39-1.39s.62-1.39,1.39-1.39,1.39.62,1.39,1.39-.62,1.39-1.39,1.39Z"/>
                  <path class="cls-7" d="m154.98,335.43c-.77,0-1.39-.62-1.39-1.39s.62-1.39,1.39-1.39,1.39.62,1.39,1.39-.62,1.39-1.39,1.39Z"/>
                </g>
              </g>
            </g>
          </g>
          <g>
            <rect class="cls-7" x="85.96" y="356.03" width="95.75" height="25.23"/>
            <rect class="cls-15" x="85.96" y="368.64" width="95.75" height="12.61"/>
            <rect class="cls-4" x="97.89" y="366.44" width="71.89" height="4.4"/>
          </g>
          <g>
            <g class="cls-17">
              <polygon class="cls-5" points="530.43 106.76 482.94 106.76 467.34 122.36 387.11 122.36 359.78 149.68 359.78 222.51 508.03 222.51 530.43 200.11 530.43 106.76"/>
            </g>
            <rect class="cls-2" x="370.44" y="192.95" width="62.9" height="19.74"/>
            <rect class="cls-2" x="445.11" y="192.95" width="27.03" height="19.74"/>
            <g>
              <g>
                <polygon class="cls-21" points="530.43 106.76 482.94 106.76 467.34 122.36 387.11 122.36 359.78 149.68 359.78 222.51 508.03 222.51 530.43 200.11 530.43 106.76"/>
                <g>
                  <polyline class="cls-25" points="414.42 122.36 387.11 122.36 359.78 149.68 359.78 171.98"/>
                  <polyline class="cls-25" points="488.75 222.51 508.03 222.51 530.43 200.11 530.43 175.25"/>
                </g>
              </g>
              <g>
                <polygon class="cls-11" points="445.29 105.03 433.33 116.99 439.74 116.99 451.7 105.03 445.29 105.03"/>
                <polygon class="cls-11" points="456 105.03 444.04 116.99 450.45 116.99 462.4 105.03 456 105.03"/>
                <polygon class="cls-11" points="466.7 105.03 454.75 116.99 461.16 116.99 473.11 105.03 466.7 105.03"/>
              </g>
            </g>
            <polygon class="cls-7" points="423.87 105.03 411.92 116.99 418.32 116.99 430.28 105.03 423.87 105.03"/>
            <polygon class="cls-7" points="434.58 105.03 422.62 116.99 429.03 116.99 440.99 105.03 434.58 105.03"/>
            <g class="cls-17">
              <path class="cls-5" d="m403.68,175.98c-10.79,0-19.57-8.78-19.57-19.57s8.78-19.57,19.57-19.57,19.57,8.78,19.57,19.57-8.78,19.57-19.57,19.57Zm0-38.68c-10.54,0-19.11,8.57-19.11,19.11s8.57,19.11,19.11,19.11,19.11-8.57,19.11-19.11-8.57-19.11-19.11-19.11Z"/>
              <path class="cls-5" d="m426,156.41h-1.25c0-11.62-9.45-21.07-21.07-21.07v-1.25c12.31,0,22.32,10.01,22.32,22.32Z"/>
              <path class="cls-5" d="m403.68,178.73c-12.31,0-22.32-10.01-22.32-22.32h1.25c0,11.62,9.45,21.07,21.07,21.07v1.25Z"/>
              <path class="cls-5" d="m403.68,146.82c-5.29,0-9.59,4.3-9.59,9.59s4.3,9.59,9.59,9.59,9.59-4.3,9.59-9.59-4.3-9.59-9.59-9.59Zm0,17.7c-4.47,0-8.11-3.64-8.11-8.11s3.64-8.11,8.11-8.11,8.11,3.64,8.11,8.11-3.64,8.11-8.11,8.11Z"/>
              <path class="cls-5" d="m403.68,142.41c-7.72,0-14,6.28-14,14s6.28,14,14,14,14-6.28,14-14-6.28-14-14-14Zm0,25.84c-6.53,0-11.85-5.31-11.85-11.85s5.31-11.85,11.85-11.85,11.85,5.31,11.85,11.85-5.31,11.85-11.85,11.85Z"/>
              <g>
                <path class="cls-5" d="m392.4,166.51c-2.11-2.35-3.5-5.36-3.82-8.68h-2.63c.32,4.05,2.01,7.7,4.59,10.54l1.86-1.86Z"/>
                <path class="cls-5" d="m388.55,155.68c.16-3.42,1.45-6.55,3.52-9.01l-1.86-1.86c-2.54,2.95-4.12,6.73-4.29,10.87h2.63Z"/>
                <path class="cls-5" d="m393.57,145.13c2.43-2.18,5.57-3.59,9.03-3.83v-2.63c-4.18.25-7.97,1.95-10.89,4.61l1.86,1.86Z"/>
                <path class="cls-5" d="m404.76,138.66v2.63c3.46.25,6.59,1.65,9.03,3.83l1.86-1.86c-2.92-2.66-6.71-4.35-10.89-4.61Z"/>
                <path class="cls-5" d="m402.6,171.52c-3.28-.23-6.28-1.5-8.66-3.5l-1.86,1.86c2.86,2.47,6.51,4.03,10.52,4.27v-2.63Z"/>
                <path class="cls-5" d="m415.29,146.67c2.07,2.46,3.35,5.59,3.52,9.01h2.63c-.17-4.15-1.75-7.93-4.29-10.87l-1.86,1.86Z"/>
                <path class="cls-5" d="m418.77,157.84c-.31,3.32-1.71,6.32-3.82,8.68l1.86,1.86c2.58-2.83,4.26-6.49,4.59-10.54h-2.63Z"/>
                <path class="cls-5" d="m413.42,168.02c-2.38,2-5.38,3.27-8.66,3.5v2.63c4.01-.24,7.66-1.8,10.52-4.27l-1.86-1.86Z"/>
              </g>
              <path class="cls-5" d="m406.8,179.54l-.44-3.26c.2-.03.4-.06.6-.09l.53,3.24c-.23.04-.47.07-.7.1Zm2.09-.38l-.73-3.2c.2-.05.39-.09.59-.14l.83,3.18c-.23.06-.46.12-.69.17Zm2.05-.57l-1.02-3.12c.19-.06.38-.13.57-.2l1.12,3.09c-.22.08-.45.16-.67.23Zm1.99-.76l-1.31-3.01c.19-.08.37-.16.56-.25l1.4,2.97c-.21.1-.43.2-.65.29Zm1.91-.93l-1.58-2.88c.18-.1.36-.2.53-.3l1.66,2.83c-.2.12-.41.24-.62.35Zm1.82-1.1l-1.83-2.73c.17-.11.34-.23.5-.35l1.91,2.67c-.19.14-.38.27-.58.4Zm1.71-1.26l-2.07-2.55c.16-.13.31-.26.47-.39l2.15,2.49c-.18.15-.36.31-.54.46Zm1.59-1.41l-2.29-2.35c.14-.14.29-.28.43-.43l2.37,2.28c-.16.17-.33.34-.5.5Zm1.45-1.55l-2.49-2.14c.13-.15.26-.31.39-.47l2.56,2.06c-.15.18-.3.36-.45.54Zm1.31-1.67l-2.68-1.91c.12-.16.23-.33.34-.5l2.74,1.82c-.13.2-.27.39-.4.58Zm1.15-1.78l-2.84-1.65c.1-.17.2-.35.3-.53l2.89,1.57c-.11.21-.23.41-.35.62Zm.98-1.88l-2.98-1.39c.09-.18.17-.37.25-.55l3.02,1.3c-.09.22-.19.43-.29.64Zm.81-1.96l-3.09-1.11c.07-.19.13-.38.2-.58l3.12,1.02c-.07.22-.15.45-.23.67Zm.63-2.03l-3.18-.82c.05-.2.1-.39.14-.59l3.2.73c-.05.23-.11.46-.17.69Zm.44-2.08l-3.24-.53c.03-.2.06-.4.09-.6l3.26.43c-.03.24-.07.47-.1.7Z"/>
              <path class="cls-5" d="m400.55,133.27l.44,3.26c-.2.03-.4.06-.6.09l-.53-3.24c.23-.04.47-.07.7-.1Zm-2.09.38l.73,3.2c-.2.05-.39.09-.59.14l-.83-3.18c.23-.06.46-.12.69-.17Zm-2.05.57l1.02,3.12c-.19.06-.38.13-.57.2l-1.12-3.09c.22-.08.45-.16.67-.23Zm-1.99.76l1.31,3.01c-.19.08-.37.16-.56.25l-1.4-2.97c.21-.1.43-.2.65-.29Zm-1.91.93l1.58,2.88c-.18.1-.36.2-.53.3l-1.66-2.83c.2-.12.41-.24.62-.35Zm-1.82,1.1l1.83,2.73c-.17.11-.34.23-.5.35l-1.91-2.67c.19-.14.38-.27.58-.4Zm-1.71,1.26l2.07,2.55c-.16.13-.31.26-.47.39l-2.15-2.49c.18-.15.36-.31.54-.46Zm-1.59,1.41l2.29,2.35c-.14.14-.29.28-.43.43l-2.37-2.28c.16-.17.33-.34.5-.5Zm-1.45,1.55l2.49,2.14c-.13.15-.26.31-.39.47l-2.56-2.06c.15-.18.3-.36.45-.54Zm-1.31,1.67l2.68,1.91c-.12.16-.23.33-.34.5l-2.74-1.82c.13-.2.27-.39.4-.58Zm-1.15,1.78l2.84,1.65c-.1.17-.2.35-.3.53l-2.89-1.57c.11-.21.23-.41.35-.62Zm-.98,1.88l2.98,1.39c-.09.18-.17.37-.25.55l-3.02-1.3c.09-.22.19-.43.29-.64Zm-.81,1.96l3.09,1.11c-.07.19-.13.38-.2.58l-3.12-1.02c.07-.22.15-.45.23-.67Zm-.63,2.03l3.18.82c-.05.2-.1.39-.14.59l-3.2-.73c.05-.23.11-.46.17-.69Zm-.44,2.08l3.24.53c-.03.2-.06.4-.09.6l-3.26-.43c.03-.24.07-.47.1-.7Z"/>
            </g>
            <g>
              <rect class="cls-2" x="445.11" y="158.99" width="69.89" height="3.99"/>
              <rect class="cls-2" x="445.11" y="166.86" width="69.89" height="3.99"/>
              <rect class="cls-2" x="445.11" y="174.73" width="69.89" height="3.99"/>
              <rect class="cls-2" x="472.13" y="131.98" width="21.43" height="3.99"/>
              <rect class="cls-2" x="472.13" y="139.85" width="42.87" height="3.99"/>
              <rect class="cls-2" x="472.13" y="147.73" width="42.87" height="3.99"/>
              <rect class="cls-2" x="481.53" y="192.95" width="12.03" height="3.99"/>
              <rect class="cls-2" x="481.53" y="200.82" width="24.07" height="3.99"/>
              <rect class="cls-2" x="481.53" y="208.7" width="24.07" height="3.99"/>
              <rect class="cls-2" x="445.11" y="182.61" width="69.89" height="3.99"/>
            </g>
            <circle class="cls-2" cx="456.23" cy="141.85" r="11.12"/>
            <g class="cls-17">
              <circle class="cls-5" cx="490.94" cy="115.16" r="2"/>
              <circle class="cls-5" cx="502.81" cy="115.16" r="2"/>
              <circle class="cls-5" cx="514.69" cy="115.16" r="2"/>
            </g>
          </g>
          <g>
            <g class="cls-17">
              <polygon class="cls-5" points="239.83 209.85 239.83 162.36 224.22 146.76 224.22 66.53 196.9 39.21 124.08 39.21 124.08 187.45 146.47 209.85 239.83 209.85"/>
            </g>
            <rect class="cls-2" x="136.18" y="116.44" width="18.85" height="19.74" transform="translate(271.91 -19.3) rotate(90)"/>
            <g>
              <rect class="cls-2" x="134.48" y="82.03" width="69.89" height="3.99"/>
              <rect class="cls-2" x="134.48" y="89.9" width="69.89" height="3.99"/>
              <rect class="cls-2" x="134.48" y="97.78" width="69.89" height="3.99"/>
              <rect class="cls-2" x="161.51" y="55.02" width="21.43" height="3.99"/>
              <rect class="cls-2" x="161.51" y="62.9" width="42.87" height="3.99"/>
              <rect class="cls-2" x="161.51" y="70.77" width="42.87" height="3.99"/>
              <rect class="cls-2" x="162.08" y="115.99" width="16.45" height="3.99"/>
              <rect class="cls-2" x="162.08" y="123.87" width="32.9" height="3.99"/>
              <rect class="cls-2" x="162.08" y="131.74" width="32.9" height="3.99"/>
              <rect class="cls-2" x="134.48" y="105.65" width="69.89" height="3.99"/>
              <rect class="cls-2" x="134.48" y="171.02" width="82.05" height="2"/>
              <rect class="cls-2" x="134.48" y="174.96" width="82.05" height="2"/>
            </g>
            <circle class="cls-2" cx="145.61" cy="64.89" r="11.12"/>
            <g>
              <g>
                <polygon class="cls-21" points="239.83 209.85 239.83 162.36 224.22 146.76 224.22 66.53 196.9 39.21 124.08 39.21 124.08 187.45 146.47 209.85 239.83 209.85"/>
                <g>
                  <polyline class="cls-25" points="224.22 93.84 224.22 66.53 196.9 39.21 174.6 39.21"/>
                  <polyline class="cls-25" points="124.08 168.17 124.08 187.45 146.47 209.85 171.34 209.85"/>
                </g>
              </g>
              <g>
                <polygon class="cls-11" points="241.55 124.71 229.6 112.75 229.6 119.16 241.55 131.12 241.55 124.71"/>
                <polygon class="cls-11" points="241.55 135.42 229.6 123.46 229.6 129.87 241.55 141.83 241.55 135.42"/>
                <polygon class="cls-11" points="241.55 146.13 229.6 134.17 229.6 140.58 241.55 152.53 241.55 146.13"/>
              </g>
            </g>
            <polygon class="cls-7" points="241.55 103.29 229.6 91.34 229.6 97.75 241.55 109.7 241.55 103.29"/>
            <polygon class="cls-7" points="241.55 114 229.6 102.05 229.6 108.45 241.55 120.41 241.55 114"/>
            <g class="cls-17">
              <circle class="cls-5" cx="229.43" cy="170.36" r="2"/>
              <circle class="cls-5" cx="229.43" cy="182.23" r="2"/>
              <circle class="cls-5" cx="229.43" cy="194.11" r="2"/>
            </g>
          </g>
          <g>
            <g class="cls-17">
              <rect class="cls-5" x="154.96" y="148.22" width="2.49" height="15.13"/>
              <rect class="cls-5" x="135.05" y="154.01" width="17.74" height="3.55"/>
              <rect class="cls-5" x="130.44" y="152.83" width="2.77" height="5.91"/>
            </g>
            <g>
              <polygon class="cls-2" points="159.07 152.36 204.14 150.25 211.24 155.35 159.07 155.35 159.07 152.36"/>
              <polygon class="cls-2" points="159.07 159.21 204.14 161.33 211.24 156.22 159.07 156.22 159.07 159.21"/>
            </g>
          </g>
          <g>
            <path class="cls-15" d="m413.41,346.55h100.93c3.57,0,6.46,2.9,6.46,6.46v28.25h-113.86v-28.25c0-3.57,2.9-6.46,6.46-6.46Z"/>
            <path class="cls-7" d="m437.6,346.55h100.93c3.57,0,6.46,2.9,6.46,6.46v28.25h-113.86v-28.25c0-3.57,2.9-6.46,6.46-6.46Z"/>
            <circle class="cls-4" cx="453.66" cy="363.9" r="12.52"/>
            <circle class="cls-7" cx="453.66" cy="363.9" r="5.33"/>
            <circle class="cls-4" cx="488.07" cy="363.9" r="12.52"/>
            <circle class="cls-7" cx="488.07" cy="363.9" r="5.33"/>
            <circle class="cls-4" cx="522.47" cy="363.9" r="12.52"/>
            <circle class="cls-7" cx="522.47" cy="363.9" r="5.33"/>
          </g>
          <g>
            <g>
              <rect class="cls-7" x="452.87" y="310.79" width="3.99" height="15.54"/>
              <rect class="cls-7" x="459.92" y="310.79" width="3.99" height="15.54"/>
              <rect class="cls-7" x="466.96" y="310.79" width="3.99" height="15.54"/>
              <rect class="cls-7" x="474" y="310.79" width="3.99" height="15.54"/>
              <rect class="cls-7" x="481.04" y="310.79" width="3.99" height="15.54"/>
              <rect class="cls-7" x="488.09" y="310.79" width="3.99" height="15.54"/>
              <rect class="cls-7" x="495.13" y="310.79" width="3.99" height="15.54"/>
              <rect class="cls-15" x="502.17" y="310.79" width="3.99" height="15.54"/>
              <rect class="cls-15" x="509.21" y="310.79" width="3.99" height="15.54"/>
              <rect class="cls-15" x="516.26" y="310.79" width="3.99" height="15.54"/>
              <rect class="cls-15" x="523.3" y="310.79" width="3.99" height="15.54"/>
              <rect class="cls-15" x="530.34" y="310.79" width="3.99" height="15.54"/>
              <rect class="cls-15" x="537.38" y="310.79" width="3.99" height="15.54"/>
            </g>
            <path class="cls-15" d="m544,308.92v19.27h-93.75v-19.27h93.75m1-1h-95.75v21.27h95.75v-21.27h0Z"/>
          </g>
          <g>
            <g>
              <rect class="cls-11" x="452.87" y="277.55" width="3.99" height="15.54"/>
              <rect class="cls-11" x="459.92" y="277.55" width="3.99" height="15.54"/>
              <rect class="cls-11" x="466.96" y="277.55" width="3.99" height="15.54"/>
              <rect class="cls-11" x="474" y="277.55" width="3.99" height="15.54"/>
              <rect class="cls-11" x="481.04" y="277.55" width="3.99" height="15.54"/>
              <rect class="cls-11" x="488.09" y="277.55" width="3.99" height="15.54"/>
              <rect class="cls-11" x="495.13" y="277.55" width="3.99" height="15.54"/>
              <rect class="cls-15" x="502.17" y="277.55" width="3.99" height="15.54"/>
              <rect class="cls-15" x="509.21" y="277.55" width="3.99" height="15.54"/>
              <rect class="cls-15" x="516.26" y="277.55" width="3.99" height="15.54"/>
              <rect class="cls-15" x="523.3" y="277.55" width="3.99" height="15.54"/>
              <rect class="cls-15" x="530.34" y="277.55" width="3.99" height="15.54"/>
              <rect class="cls-15" x="537.38" y="277.55" width="3.99" height="15.54"/>
            </g>
            <path class="cls-15" d="m544,275.69v19.27h-93.75v-19.27h93.75m1-1h-95.75v21.27h95.75v-21.27h0Z"/>
          </g>
          <rect class="cls-2" x="92.44" y="184.23" width="92.33" height="50.38"/>
          <rect class="cls-2" x="155.27" y="218.67" width="65.83" height="35.92"/>
          <rect class="cls-2" x="212.19" y="54.72" width="86.18" height="50.38"/>
          <rect class="cls-2" x="394.09" y="96.75" width="92.33" height="59.66"/>
          <rect class="cls-2" x="478.85" y="189.01" width="66.59" height="71.26"/>
          <rect class="cls-2" x="268.86" y="89.16" width="65.83" height="35.92"/>
          <g>
            <g>
              <path class="cls-21" d="m121.79,234.12c0,16.21-13.14,29.35-29.35,29.35-16.21,0-29.35-13.14-29.35-29.35,0-16.21,13.14-29.35,29.35-29.35s29.35,13.14,29.35,29.35Z"/>
              <path class="cls-26" d="m92.44,204.77c16.21,0,29.35,13.14,29.35,29.35,0,16.21-13.14,29.35-29.35,29.35-16.21,0-29.35-13.14-29.35-29.35"/>
            </g>
            <text class="cls-29" transform="translate(79.92 240.09)"><tspan x="0" y="0">85%</tspan></text>
            <g>
              <path class="cls-21" d="m115.37,234.12c0,12.66-10.27,22.93-22.93,22.93-12.66,0-22.93-10.27-22.93-22.93,0-12.66,10.27-22.93,22.93-22.93s22.93,10.27,22.93,22.93Z"/>
              <path class="cls-26" d="m92.44,211.19c12.66,0,22.93,10.27,22.93,22.93,0,12.66-10.27,22.93-22.93,22.93-12.66,0-22.93-10.27-22.93-22.93"/>
            </g>
          </g>
          <polyline class="cls-21" points="121.79 234.12 199.08 234.12 199.08 209.85"/>
          <g>
            <polygon class="cls-12" points="401.42 57.7 402.96 62.44 407.94 62.44 403.91 65.37 405.45 70.11 401.42 67.18 397.39 70.11 398.93 65.37 394.9 62.44 399.88 62.44 401.42 57.7"/>
            <polygon class="cls-12" points="417.38 57.7 418.92 62.44 423.9 62.44 419.87 65.37 421.41 70.11 417.38 67.18 413.35 70.11 414.89 65.37 410.85 62.44 415.84 62.44 417.38 57.7"/>
            <polygon class="cls-12" points="433.33 57.7 434.87 62.44 439.85 62.44 435.82 65.37 437.36 70.11 433.33 67.18 429.3 70.11 430.84 65.37 426.81 62.44 431.79 62.44 433.33 57.7"/>
            <polygon class="cls-15" points="449.29 57.7 450.83 62.44 455.81 62.44 451.78 65.37 453.32 70.11 449.29 67.18 445.26 70.11 446.8 65.37 442.76 62.44 447.75 62.44 449.29 57.7"/>
            <polygon class="cls-15" points="465.24 57.7 466.78 62.44 471.77 62.44 467.73 65.37 469.27 70.11 465.24 67.18 461.21 70.11 462.75 65.37 458.72 62.44 463.7 62.44 465.24 57.7"/>
          </g>
          <g>
            <polygon class="cls-12" points="401.42 73.74 402.96 78.48 407.94 78.48 403.91 81.41 405.45 86.15 401.42 83.22 397.39 86.15 398.93 81.41 394.9 78.48 399.88 78.48 401.42 73.74"/>
            <polygon class="cls-12" points="417.38 73.74 418.92 78.48 423.9 78.48 419.87 81.41 421.41 86.15 417.38 83.22 413.35 86.15 414.89 81.41 410.85 78.48 415.84 78.48 417.38 73.74"/>
            <polygon class="cls-15" points="433.33 73.74 434.87 78.48 439.85 78.48 435.82 81.41 437.36 86.15 433.33 83.22 429.3 86.15 430.84 81.41 426.81 78.48 431.79 78.48 433.33 73.74"/>
            <polygon class="cls-15" points="449.29 73.74 450.83 78.48 455.81 78.48 451.78 81.41 453.32 86.15 449.29 83.22 445.26 86.15 446.8 81.41 442.76 78.48 447.75 78.48 449.29 73.74"/>
            <polygon class="cls-15" points="465.24 73.74 466.78 78.48 471.77 78.48 467.73 81.41 469.27 86.15 465.24 83.22 461.21 86.15 462.75 81.41 458.72 78.48 463.7 78.48 465.24 73.74"/>
          </g>
          <g>
            <polygon class="cls-10" points="81.79 281.22 68.4 292.65 73.8 292.65 67.09 302.64 83.49 289.77 76.04 289.77 81.79 281.22"/>
            <polygon class="cls-10" points="98.7 281.22 85.31 292.65 90.71 292.65 84 302.64 100.4 289.77 92.95 289.77 98.7 281.22"/>
            <polygon class="cls-10" points="115.61 281.22 102.22 292.65 107.61 292.65 100.91 302.64 117.31 289.77 109.86 289.77 115.61 281.22"/>
          </g>
          <text class="cls-23" transform="translate(323.89 62.39)"><tspan x="0" y="0">LEVEL UP</tspan></text>
          <text class="cls-23" transform="translate(141.38 284.22)"><tspan x="0" y="0">UPGRADE</tspan></text>
          <g>
            <text class="cls-24" transform="translate(448.33 250.9)"><tspan class="cls-31" x="0" y="0">P</tspan><tspan class="cls-30" x="8.6" y="0">O</tspan><tspan class="cls-31" x="18.8" y="0">WER</tspan></text>
            <rect class="cls-7" x="449.25" y="255.49" width="61.96" height="2.01"/>
            <rect class="cls-7" x="449.25" y="260.28" width="61.96" height="2.01"/>
            <rect class="cls-7" x="449.25" y="265.07" width="61.96" height="2.01"/>
          </g>
          <g>
            <polygon class="cls-12" points="401.42 41.66 402.96 46.39 407.94 46.39 403.91 49.32 405.45 54.06 401.42 51.13 397.39 54.06 398.93 49.32 394.9 46.39 399.88 46.39 401.42 41.66"/>
            <polygon class="cls-12" points="417.38 41.66 418.92 46.39 423.9 46.39 419.87 49.32 421.41 54.06 417.38 51.13 413.35 54.06 414.89 49.32 410.85 46.39 415.84 46.39 417.38 41.66"/>
            <polygon class="cls-12" points="433.33 41.66 434.87 46.39 439.85 46.39 435.82 49.32 437.36 54.06 433.33 51.13 429.3 54.06 430.84 49.32 426.81 46.39 431.79 46.39 433.33 41.66"/>
            <polygon class="cls-12" points="449.29 41.66 450.83 46.39 455.81 46.39 451.78 49.32 453.32 54.06 449.29 51.13 445.26 54.06 446.8 49.32 442.76 46.39 447.75 46.39 449.29 41.66"/>
            <polygon class="cls-12" points="465.24 41.66 466.78 46.39 471.77 46.39 467.73 49.32 469.27 54.06 465.24 51.13 461.21 54.06 462.75 49.32 458.72 46.39 463.7 46.39 465.24 41.66"/>
          </g>
          <path class="cls-10" d="m502.3,76.05c-1.31-1.01-3.86-1.02-5.06.93-1.2-1.95-3.75-1.94-5.06-.93-1.17.9-1.36,2.37-1.2,3.43.32,2.1,2.02,3.58,6.26,6.67,4.24-3.09,5.94-4.57,6.26-6.67.16-1.06-.03-2.53-1.2-3.43Z"/>
          <path class="cls-10" d="m519.66,76.05c-1.31-1.01-3.86-1.02-5.06.93-1.2-1.95-3.75-1.94-5.06-.93-1.17.9-1.36,2.37-1.2,3.43.32,2.1,2.02,3.58,6.26,6.67,4.24-3.09,5.94-4.57,6.26-6.67.16-1.06-.03-2.53-1.2-3.43Z"/>
          <path class="cls-10" d="m537.02,76.05c-1.31-1.01-3.86-1.02-5.06.93-1.2-1.95-3.75-1.94-5.06-.93-1.17.9-1.36,2.37-1.2,3.43.32,2.1,2.02,3.58,6.26,6.67,4.24-3.09,5.94-4.57,6.26-6.67.16-1.06-.03-2.53-1.2-3.43Z"/>
          <path class="cls-10" d="m514.6,41.66c-7.49,0-13.56,6.07-13.56,13.56v14.43h4.45v-2.66h3.78v2.66h3.48v-2.66h3.78v2.66h3.48v-2.66h3.78v2.66h4.37v-14.43c0-7.49-6.07-13.56-13.56-13.56Zm-3.66,16.88h-3.8v-7.5h3.8v7.5Zm11.11,0h-3.8v-7.5h3.8v7.5Z"/>
          <g>
            <path class="cls-11" d="m436.1,287.56l3.48-.42v-3.62l-3.48-.42s0,0,0,0c-.25-1.08-.67-2.09-1.24-3,0,0,0,0,0,0l2.16-2.76-2.56-2.56-2.76,2.16s0,0,0,0c-.91-.57-1.92-.99-3-1.24,0,0,0,0,0,0,0-.05-.42-3.48-.42-3.48h-3.62l-.42,3.48s0,0,0,0c-1.08.25-2.09.67-3,1.24,0,0,0,0,0,0l-2.76-2.16-2.56,2.56,2.16,2.76s0,0,0,0c-.57.91-.99,1.92-1.24,3,0,0,0,0,0,0l-3.48.42v3.62h0l3.48.42s0,0,0,0c.25,1.08.67,2.09,1.24,3,0,0,0,0,0,0l-2.16,2.76,2.56,2.56,2.76-2.16s0,0,0,0c.91.57,1.92.99,3,1.24,0,0,0,0,0,0l.42,3.48h3.62l.42-3.48s0,0,0,0c1.08-.25,2.09-.67,3-1.24,0,0,0,0,0,0l2.76,2.16,2.56-2.56-2.16-2.76s0,0,0,0c.57-.91.99-1.92,1.24-3,0,0,0,0,0,0Zm-2.35,1.16c-.73,1.7-2.12,3.09-3.82,3.82-1.15.49-2.34.73-3.49.73-2.11,0-4.12-.8-5.67-2.35-2.39-2.39-3.01-5.9-1.62-9.16.73-1.7,2.12-3.09,3.82-3.82,3.26-1.4,6.77-.78,9.16,1.62,2.39,2.39,3.01,5.9,1.62,9.16Z"/>
            <path class="cls-11" d="m426.45,279.15c-.89,0-1.79.19-2.68.57-1.27.54-2.31,1.58-2.85,2.85-1.07,2.49-.6,5.17,1.22,6.98,1.82,1.82,4.49,2.28,6.98,1.22h0c1.27-.54,2.31-1.58,2.85-2.85,1.07-2.49.6-5.17-1.22-6.98-1.17-1.17-2.7-1.78-4.31-1.78Zm4.1,8.06c-.41.95-1.18,1.73-2.13,2.13-3.98,1.7-7.78-2.1-6.08-6.08.41-.95,1.18-1.73,2.13-2.13,3.98-1.7,7.78,2.1,6.08,6.08Z"/>
          </g>
          <g>
            <path class="cls-7" d="m439.57,316.75l-3.48-.42s0,0,0,0c-.25-1.08-.67-2.09-1.24-3,0,0,0,0,0,0l2.16-2.76-2.56-2.56-2.76,2.16s0,0,0,0c-.91-.57-1.92-.99-3-1.24,0,0,0,0,0,0,0-.05-.42-3.48-.42-3.48h-3.62l-.42,3.48s0,0,0,0c-1.08.25-2.09.67-3,1.24,0,0,0,0,0,0l-2.76-2.16-2.56,2.56,2.16,2.76s0,0,0,0c-.57.91-.99,1.92-1.24,3,0,0,0,0,0,0l-3.48.42v3.62h0s3.48.42,3.48.42c0,0,0,0,0,0,.25,1.08.67,2.09,1.24,3,0,0,0,0,0,0l-2.16,2.76,2.56,2.56,2.76-2.16s0,0,0,0c.91.57,1.92.99,3,1.24,0,0,0,0,0,0l.42,3.48h3.62l.42-3.48s0,0,0,0c1.08-.25,2.09-.67,3-1.24,0,0,0,0,0,0l2.76,2.16,2.56-2.56-2.16-2.76s0,0,0,0c.57-.91.99-1.92,1.24-3,0,0,0,0,0,0l3.48-.42v-3.62Zm-10.52,7.17c-5.27,2.26-10.31-2.78-8.05-8.05.54-1.26,1.57-2.29,2.83-2.83,5.27-2.26,10.31,2.78,8.05,8.05-.54,1.26-1.57,2.29-2.83,2.83Z"/>
            <path class="cls-7" d="m427.49,320.66c-2.12.91-4.14-1.12-3.23-3.23.22-.51.63-.92,1.14-1.14,2.12-.91,4.14,1.12,3.23,3.23-.22.51-.63.92-1.14,1.14Z"/>
          </g>
          <g>
            <g>
              <path class="cls-11" d="m349.73,109.23l3.29,3.29c4.55-4.55,11.93-4.55,16.47,0l3.29-3.29c-6.37-6.37-16.69-6.37-23.06,0Z"/>
              <path class="cls-11" d="m343.14,102.64l3.29,3.29c8.19-8.19,21.46-8.19,29.65,0l3.29-3.29c-10.01-10.01-26.23-10.01-36.24,0Z"/>
            </g>
            <circle class="cls-11" cx="361.26" cy="115.82" r="3.3"/>
          </g>
        </g>
        <g>
          <g>
            <rect class="cls-12" x="89.06" y="130.37" width="6.28" height="35.51"/>
            <path class="cls-13" d="m92.2,148.13h0c-7.41,0-13.42-6.01-13.42-13.42v-20.69s26.84,0,26.84,0v20.69c0,7.41-6.01,13.42-13.42,13.42Z"/>
            <rect class="cls-12" x="77.82" y="161.65" width="28.76" height="11.04"/>
            <rect class="cls-13" x="85.67" y="164.11" width="13.06" height="6.11"/>
            <rect class="cls-13" x="74.56" y="172.69" width="35.27" height="3.07"/>
            <rect class="cls-12" x="75.83" y="110.95" width="32.73" height="3.07"/>
          </g>
          <g>
            <path class="cls-13" d="m89.73,133.59h-15.02c-1.67,0-3.02-1.36-3.02-3.03v-9.93c0-1.67,1.36-3.03,3.02-3.03h15.02v15.98Zm-15.02-14.03c-.59,0-1.07.48-1.07,1.07v9.93c0,.59.48,1.07,1.07,1.07h13.07v-12.08h-13.07Z"/>
            <path class="cls-13" d="m109.69,133.59h-15.02v-15.98h15.02c1.67,0,3.02,1.36,3.02,3.03v9.93c0,1.67-1.36,3.03-3.02,3.03Zm-13.07-1.95h13.07c.59,0,1.07-.48,1.07-1.07v-9.93c0-.59-.48-1.07-1.07-1.07h-13.07v12.08Z"/>
          </g>
        </g>
      </g>
    </g>
  </g>
</svg>