<svg width="20" height="20" viewBox="0 0 20 20" fill="none" xmlns="http://www.w3.org/2000/svg">
<path fill-rule="evenodd" clip-rule="evenodd" d="M9.93598 1.66675C8.85925 1.66675 7.82661 2.09448 7.06525 2.85584C6.30388 3.61721 5.87615 4.64984 5.87615 5.72658C5.87615 6.80331 6.30388 7.83594 7.06525 8.59731C7.82661 9.35868 8.85925 9.78641 9.93598 9.78641C11.0127 9.78641 12.0453 9.35868 12.8067 8.59731C13.5681 7.83594 13.9958 6.80331 13.9958 5.72658C13.9958 4.64984 13.5681 3.61721 12.8067 2.85584C12.0453 2.09448 11.0127 1.66675 9.93598 1.66675ZM7.97179 3.76239C8.49273 3.24146 9.19927 2.9488 9.93598 2.9488C10.6727 2.9488 11.3792 3.24146 11.9002 3.76239C12.4211 4.28333 12.7138 4.98986 12.7138 5.72658C12.7138 6.46329 12.4211 7.16983 11.9002 7.69076C11.3792 8.2117 10.6727 8.50435 9.93598 8.50435C9.19927 8.50435 8.49273 8.2117 7.97179 7.69076C7.45086 7.16983 7.1582 6.46329 7.1582 5.72658C7.1582 4.98986 7.45086 4.28333 7.97179 3.76239ZM6.26239 14.0188C6.78333 13.4979 7.48987 13.2052 8.22658 13.2052H11.6454C12.3821 13.2052 13.0886 13.4979 13.6096 14.0188C14.1305 14.5397 14.4232 15.2463 14.4232 15.983V17.6924C14.4232 18.0464 14.7102 18.3334 15.0642 18.3334C15.4182 18.3334 15.7052 18.0464 15.7052 17.6924V15.983C15.7052 14.9063 15.2775 13.8736 14.5161 13.1123C13.7547 12.3509 12.7221 11.9232 11.6454 11.9232H8.22658C7.14984 11.9232 6.11721 12.3509 5.35584 13.1123C4.59448 13.8736 4.16675 14.9063 4.16675 15.983V17.6924C4.16675 18.0464 4.45375 18.3334 4.80777 18.3334C5.1618 18.3334 5.4488 18.0464 5.4488 17.6924V15.983C5.4488 15.2463 5.74146 14.5397 6.26239 14.0188Z" fill="#222D68"/>
</svg>
