<?xml version="1.0" encoding="UTF-8"?>
<svg xmlns="http://www.w3.org/2000/svg" xmlns:xlink="http://www.w3.org/1999/xlink" viewBox="0 0 160 160">
  <defs>
    <style>
      .cls-1 {
        fill: url(#New_swatch_452);
      }

      .cls-1, .cls-2, .cls-3, .cls-4, .cls-5, .cls-6, .cls-7, .cls-8, .cls-9, .cls-10, .cls-11, .cls-12, .cls-13, .cls-14, .cls-15, .cls-16, .cls-17, .cls-18, .cls-19, .cls-20, .cls-21, .cls-22, .cls-23, .cls-24, .cls-25, .cls-26, .cls-27, .cls-28, .cls-29, .cls-30, .cls-31, .cls-32, .cls-33, .cls-34, .cls-35, .cls-36, .cls-37, .cls-38, .cls-39, .cls-40, .cls-41, .cls-42, .cls-43, .cls-44, .cls-45, .cls-46 {
        stroke-width: 0px;
      }

      .cls-1, .cls-4, .cls-13, .cls-16, .cls-25, .cls-29, .cls-41, .cls-44, .cls-45 {
        mix-blend-mode: multiply;
      }

      .cls-2 {
        fill: url(#New_swatch_447-5);
      }

      .cls-3 {
        fill: url(#linear-gradient-3);
      }

      .cls-3, .cls-8, .cls-17, .cls-18, .cls-21, .cls-24, .cls-27, .cls-32, .cls-33, .cls-38, .cls-42, .cls-43 {
        mix-blend-mode: screen;
      }

      .cls-3, .cls-8, .cls-29, .cls-41 {
        opacity: .35;
      }

      .cls-47, .cls-35 {
        fill: #fcf2eb;
      }

      .cls-4 {
        fill: url(#New_swatch_447-2);
        opacity: .9;
      }

      .cls-5 {
        fill: url(#linear-gradient-6);
      }

      .cls-6 {
        fill: url(#New_swatch_448-2);
      }

      .cls-48 {
        isolation: isolate;
      }

      .cls-7 {
        fill: url(#New_swatch_450);
      }

      .cls-8 {
        fill: url(#linear-gradient-13);
      }

      .cls-9 {
        fill: url(#New_swatch_450-2);
      }

      .cls-10 {
        fill: url(#New_swatch_450-6);
      }

      .cls-11 {
        fill: url(#New_swatch_448-4);
      }

      .cls-12 {
        fill: url(#New_swatch_447-6);
      }

      .cls-13 {
        fill: url(#New_swatch_450-3);
        opacity: .6;
      }

      .cls-14 {
        fill: url(#New_swatch_450-7);
      }

      .cls-15 {
        fill: url(#New_swatch_450-8);
      }

      .cls-16 {
        fill: url(#New_swatch_109-3);
      }

      .cls-16, .cls-25, .cls-44 {
        opacity: .68;
      }

      .cls-17 {
        fill: url(#linear-gradient-10);
      }

      .cls-17, .cls-21, .cls-24, .cls-32, .cls-33, .cls-38, .cls-42, .cls-43 {
        opacity: .49;
      }

      .cls-18 {
        fill: url(#New_swatch_351-2);
      }

      .cls-19 {
        fill: url(#New_swatch_447-7);
      }

      .cls-20 {
        fill: url(#New_swatch_351-4);
      }

      .cls-21 {
        fill: url(#linear-gradient-12);
      }

      .cls-22 {
        fill: #fff;
      }

      .cls-23 {
        fill: url(#New_swatch_450-4);
      }

      .cls-24 {
        fill: url(#linear-gradient-7);
      }

      .cls-25 {
        fill: url(#New_swatch_351-6);
      }

      .cls-26 {
        fill: url(#New_swatch_450-5);
      }

      .cls-27 {
        fill: url(#New_swatch_351-5);
      }

      .cls-28 {
        fill: url(#New_swatch_448);
      }

      .cls-29 {
        fill: url(#linear-gradient-14);
      }

      .cls-30 {
        fill: url(#New_swatch_109-4);
      }

      .cls-49 {
        clip-path: url(#clippath);
      }

      .cls-31 {
        fill: url(#New_swatch_447-4);
      }

      .cls-32 {
        fill: url(#linear-gradient-5);
      }

      .cls-33 {
        fill: url(#linear-gradient-11);
      }

      .cls-34 {
        fill: url(#New_swatch_447);
      }

      .cls-36 {
        fill: url(#New_swatch_351);
      }

      .cls-37 {
        fill: url(#New_swatch_109);
      }

      .cls-38 {
        fill: url(#linear-gradient-9);
      }

      .cls-39 {
        fill: url(#New_swatch_447-3);
      }

      .cls-40 {
        fill: url(#New_swatch_109-2);
      }

      .cls-41 {
        fill: url(#linear-gradient-2);
      }

      .cls-42 {
        fill: url(#linear-gradient-8);
      }

      .cls-43 {
        fill: url(#linear-gradient-4);
      }

      .cls-44 {
        fill: url(#New_swatch_351-3);
      }

      .cls-45 {
        fill: url(#linear-gradient);
        opacity: .76;
      }

      .cls-46 {
        fill: url(#New_swatch_448-3);
      }
    </style>
    <clipPath id="clippath">
      <circle class="cls-35" cx="80.12" cy="80.35" r="115.35"/>
    </clipPath>
    <linearGradient id="New_swatch_450" data-name="New swatch 450" x1="122.17" y1="32.36" x2="103.16" y2="61.52" gradientUnits="userSpaceOnUse">
      <stop offset="0" stop-color="#a86fb3"/>
      <stop offset="1" stop-color="#39263a"/>
    </linearGradient>
    <linearGradient id="New_swatch_450-2" data-name="New swatch 450" x1="84.02" y1="167.62" x2="72.08" y2="59.78" xlink:href="#New_swatch_450"/>
    <linearGradient id="New_swatch_450-3" data-name="New swatch 450" x1="88.7" y1="196.25" x2="72.45" y2="49.59" xlink:href="#New_swatch_450"/>
    <linearGradient id="New_swatch_109" data-name="New swatch 109" x1="88.49" y1="59.87" x2="79.51" y2="92.81" gradientUnits="userSpaceOnUse">
      <stop offset="0" stop-color="#b8cd18"/>
      <stop offset="1" stop-color="#7ea538"/>
    </linearGradient>
    <linearGradient id="linear-gradient" x1="77.56" y1="85" x2="77.56" y2="102.97" gradientUnits="userSpaceOnUse">
      <stop offset="0" stop-color="#b8cd18" stop-opacity=".01"/>
      <stop offset="1" stop-color="#7ea538"/>
    </linearGradient>
    <linearGradient id="New_swatch_109-2" data-name="New swatch 109" x1="70.53" y1="-5.25" x2="80.26" y2="151.18" xlink:href="#New_swatch_109"/>
    <linearGradient id="New_swatch_109-3" data-name="New swatch 109" x1="74.52" y1="51.61" x2="78.58" y2="116.97" xlink:href="#New_swatch_109"/>
    <linearGradient id="New_swatch_447" data-name="New swatch 447" x1="79.14" y1="136.14" x2="79.14" y2="71.12" gradientUnits="userSpaceOnUse">
      <stop offset="0" stop-color="#fcb786"/>
      <stop offset=".2" stop-color="#f6af80"/>
      <stop offset=".5" stop-color="#e5996f"/>
      <stop offset=".86" stop-color="#cb7655"/>
      <stop offset="1" stop-color="#c0684a"/>
    </linearGradient>
    <linearGradient id="New_swatch_447-2" data-name="New swatch 447" x1="77.66" y1="124.49" x2="77.66" y2="75.28" xlink:href="#New_swatch_447"/>
    <linearGradient id="New_swatch_109-4" data-name="New swatch 109" x1="100.75" y1="105.75" x2="106.48" y2="146.22" xlink:href="#New_swatch_109"/>
    <linearGradient id="linear-gradient-2" x1="100.54" y1="112.04" x2="116.33" y2="132.28" gradientUnits="userSpaceOnUse">
      <stop offset="0" stop-color="#b8cd18"/>
      <stop offset=".24" stop-color="#b2c91a"/>
      <stop offset=".54" stop-color="#a3be23"/>
      <stop offset=".87" stop-color="#8aad31"/>
      <stop offset="1" stop-color="#7ea538"/>
    </linearGradient>
    <linearGradient id="linear-gradient-3" x1="93.85" y1="105.78" x2="100.44" y2="114.22" xlink:href="#linear-gradient-2"/>
    <linearGradient id="New_swatch_447-3" data-name="New swatch 447" x1="81.99" y1="35.82" x2="81.99" y2="216.36" xlink:href="#New_swatch_447"/>
    <linearGradient id="New_swatch_447-4" data-name="New swatch 447" x1="77.29" y1="67.02" x2="75.97" y2="53.14" xlink:href="#New_swatch_447"/>
    <linearGradient id="New_swatch_447-5" data-name="New swatch 447" x1="101.25" y1="75.64" x2="101.25" y2="43.4" xlink:href="#New_swatch_447"/>
    <linearGradient id="New_swatch_448" data-name="New swatch 448" x1="107.06" y1="63.35" x2="107.61" y2="66.26" gradientUnits="userSpaceOnUse">
      <stop offset="0" stop-color="#3d3535"/>
      <stop offset="1" stop-color="#1c1c1c"/>
    </linearGradient>
    <linearGradient id="New_swatch_351" data-name="New swatch 351" x1="72.89" y1="63.9" x2="81.44" y2="63.9" gradientUnits="userSpaceOnUse">
      <stop offset="0" stop-color="#222a36"/>
      <stop offset="1" stop-color="#445c74"/>
    </linearGradient>
    <linearGradient id="New_swatch_351-2" data-name="New swatch 351" x1="73.54" y1="65.51" x2="80.78" y2="65.51" xlink:href="#New_swatch_351"/>
    <linearGradient id="New_swatch_351-3" data-name="New swatch 351" x1="-2424.04" y1="-83.73" x2="-2428.06" y2="-84.44" gradientTransform="translate(-2326.56 -274.47) rotate(-170) scale(1 -1)" xlink:href="#New_swatch_351"/>
    <linearGradient id="New_swatch_448-2" data-name="New swatch 448" x1="75.03" y1="59.5" x2="76.1" y2="65.2" xlink:href="#New_swatch_448"/>
    <linearGradient id="New_swatch_448-3" data-name="New swatch 448" x1="68.45" y1="62.3" x2="69.3" y2="66.8" xlink:href="#New_swatch_448"/>
    <linearGradient id="New_swatch_351-4" data-name="New swatch 351" x1="95.71" y1="64.66" x2="103.59" y2="64.66" xlink:href="#New_swatch_351"/>
    <linearGradient id="New_swatch_351-5" data-name="New swatch 351" x1="95.82" y1="66.19" x2="102.93" y2="66.19" xlink:href="#New_swatch_351"/>
    <linearGradient id="New_swatch_351-6" data-name="New swatch 351" x1="-2445.95" y1="-87.09" x2="-2449.97" y2="-87.79" gradientTransform="translate(-2326.56 -274.47) rotate(-170) scale(1 -1)" xlink:href="#New_swatch_351"/>
    <linearGradient id="New_swatch_448-4" data-name="New swatch 448" x1="98.41" y1="59.51" x2="100.22" y2="69.12" xlink:href="#New_swatch_448"/>
    <linearGradient id="New_swatch_447-6" data-name="New swatch 447" x1="92.23" y1="56.9" x2="93.89" y2="83.62" xlink:href="#New_swatch_447"/>
    <linearGradient id="New_swatch_450-4" data-name="New swatch 450" x1="102.84" y1="50.85" x2="101.77" y2="57.76" xlink:href="#New_swatch_450"/>
    <linearGradient id="New_swatch_450-5" data-name="New swatch 450" x1="124.78" y1="27.81" x2="71.25" y2="58.38" xlink:href="#New_swatch_450"/>
    <linearGradient id="linear-gradient-4" x1="96.89" y1="28.06" x2="108.36" y2="59.18" gradientUnits="userSpaceOnUse">
      <stop offset="0" stop-color="#a86fb3"/>
      <stop offset="1" stop-color="#39263a" stop-opacity="0"/>
    </linearGradient>
    <linearGradient id="linear-gradient-5" x1="95.83" y1="23.85" x2="110.91" y2="41.87" gradientUnits="userSpaceOnUse">
      <stop offset="0" stop-color="#a86fb3"/>
      <stop offset="1" stop-color="#39263a" stop-opacity=".01"/>
    </linearGradient>
    <linearGradient id="linear-gradient-6" x1="48.37" y1="96.7" x2="104.41" y2="168.49" xlink:href="#linear-gradient-2"/>
    <linearGradient id="New_swatch_450-6" data-name="New swatch 450" x1="40.46" y1="72.18" x2="40.44" y2="72.29" xlink:href="#New_swatch_450"/>
    <linearGradient id="New_swatch_450-7" data-name="New swatch 450" x1="77" y1="5.12" x2="55.6" y2="92.11" xlink:href="#New_swatch_450"/>
    <linearGradient id="New_swatch_450-8" data-name="New swatch 450" x1="72.22" y1="51.26" x2="99.66" y2="66.19" xlink:href="#New_swatch_450"/>
    <linearGradient id="linear-gradient-7" x1="88.6" y1="22.81" x2="52.45" y2="71.1" xlink:href="#linear-gradient-4"/>
    <linearGradient id="linear-gradient-8" x1="89.81" y1="14.63" x2="44.54" y2="59.68" xlink:href="#linear-gradient-4"/>
    <linearGradient id="linear-gradient-9" x1="99.08" y1="24.05" x2="98.76" y2="24.37" xlink:href="#linear-gradient-4"/>
    <linearGradient id="linear-gradient-10" x1="73.74" y1="15.3" x2="48.16" y2="41.67" xlink:href="#linear-gradient-4"/>
    <linearGradient id="linear-gradient-11" x1="84.03" y1="30.9" x2="84.2" y2="31.34" xlink:href="#linear-gradient-4"/>
    <linearGradient id="linear-gradient-12" x1="117.68" y1="42.44" x2="121.53" y2="47.03" xlink:href="#linear-gradient-5"/>
    <linearGradient id="New_swatch_447-7" data-name="New swatch 447" x1="53.71" y1="57.64" x2="53.71" y2="76.05" xlink:href="#New_swatch_447"/>
    <linearGradient id="New_swatch_452" data-name="New swatch 452" x1="57.22" y1="63.63" x2="52.82" y2="72.14" gradientUnits="userSpaceOnUse">
      <stop offset="0" stop-color="#ffae76" stop-opacity="0"/>
      <stop offset="1" stop-color="#c0684a"/>
    </linearGradient>
    <linearGradient id="linear-gradient-13" x1="57.56" y1="89.38" x2="112.34" y2="159.57" xlink:href="#linear-gradient-2"/>
    <linearGradient id="linear-gradient-14" x1="54.32" y1="104.32" x2="99.53" y2="162.24" xlink:href="#linear-gradient-2"/>
  </defs>
  <g class="cls-48">
    <g id="katman_1" data-name="katman 1">
      <g>
        <circle class="cls-47" cx="80.12" cy="80.35" r="115.35"/>
        <g class="cls-49">
          <g>
            <path class="cls-7" d="m114.81,58.03c-1.64,6.24-5.75,11.79-11.24,15.19.73-8.75.1-17.61-1.88-26.16,5.6.83,10.6,4.91,13.12,10.97Z"/>
            <path class="cls-9" d="m110.25,110.21c-8.17.48-16.27,2.21-23.93,5.1-2.31.87-4.57,1.85-6.79,2.93-1.13-.31-2.26-.61-3.39-.91-11.75-3.11-23.6-5.81-35.53-8.11-1.03-15.68-.84-31.44.55-47.09,8.09-3.44,19.21-5.41,30.41-6.73,1.7-.2,3.55-.36,5.03.51,2.19,1.29,2.65,4.2,2.89,6.73.2,2.1.41,4.21.63,6.31,2.54-4.16,5.97-7.79,9.5-11.19,5.08-4.9,10.99-9.69,18.03-10.27l-7.34,4.44c.58,19.76,3.94,39.44,9.94,58.28Z"/>
            <path class="cls-13" d="m42.05,47.62c-1.58,12.82,1.58,26.18,8.6,36.97,1.78,13.29,3.56,26.59,5.34,39.88.28,2.13.69,4.48,2.39,5.79,1.76,1.36,4.24,1.1,6.44.76,10.21-1.54,20.42-3.09,30.63-4.63.32-9.6,1.73-19.16,4.2-28.44.1.52.19,1.05.29,1.57,3.6-5.11,4.47-11.6,5.24-17.81.72-5.77,1.43-11.64.52-17.38-1.69-10.7-9.38-20.24-19.46-24.17-10.09-3.93-22.21-2.11-30.69,4.62l-13.49,2.84Z"/>
            <path class="cls-37" d="m107.27,95.61c-19.35-4.92-42.45-6.11-62.11-2.62,9.19,6.94,19.11,14.94,29.55,19.8,5.56,2.59,11.55,4.79,17.66,4.35,6.92-.5,13.48-4.61,17.58-10.21-1.36-3.47-.25-8.15-2.68-11.32Z"/>
            <path class="cls-45" d="m107.27,95.61c-19.35-4.92-42.45-6.11-62.11-2.62,9.19,6.94,19.11,14.94,29.55,19.8,5.56,2.59,11.55,4.79,17.66,4.35,6.92-.5,13.48-4.61,17.58-10.21-1.36-3.47-.25-8.15-2.68-11.32Z"/>
            <path class="cls-40" d="m13.58,149.43c6.16-9.63,13.04-18.8,20.55-27.4,2.05-2.34,4.27-4.73,7.19-5.76,2.98-1.05,6.25-.54,9.4-.18,21.38,2.42,41.7.55,63.82-7.84,14.38,9.75,25.73,23.96,32.12,40.2-17.49,17.56-42.33,27.42-67,26.58-24.66-.84-48.79-12.35-66.08-25.6Z"/>
            <path class="cls-16" d="m35.91,120.08c30.13,13.45,74.91,5.93,85.31-6.81-16.45-5.6-30.17-13.6-47.53-13.02s-29.44,8.24-37.78,19.83Z"/>
            <path class="cls-22" d="m77.87,116.71c-1.07,14.49-1.5,29.04-1.27,43.57.05,3.51.35,7.46,3.03,9.72-1.66-17.7-1.71-35.55-.16-53.26-.46.22-.91.45-1.6-.03Z"/>
            <path class="cls-22" d="m102.11,114.58c.22,17.66.44,35.32.67,52.97.55.48,1.49.14,1.87-.48s.38-1.41.36-2.14c-.39-16.79-.78-33.58-1.17-50.37-.35.21-.7.42-1.73.01Z"/>
            <path class="cls-34" d="m96.98,117.52c-12.05-.49-24.05-2.37-35.67-5.59.02-12.99.04-25.99.06-38.98,0-1.33,0-2.67,0-4,0-3.15,0-6.29.01-9.44,3.58,2.55,6.93,4.87,10.14,6.99,6.64,4.39,12.69,7.99,18.91,11.27-.73,10.99.63,22.12,3.95,32.63.76,2.41,1.62,4.79,2.59,7.12Z"/>
            <path class="cls-4" d="m94.39,110.39c-10.61.15-30.08-4.93-33.08-24.99-.18-1.23.92-4.97.06-12.46-.15-1.34-.3-2.68-.43-4.01h.44s6.18.21,6.18.21c1.25-.99,2.59-1.88,3.98-2.65,6.64,4.39,12.69,7.99,18.91,11.27-.73,10.99.63,22.12,3.95,32.63Z"/>
            <path class="cls-30" d="m121.06,113.71c-.25.48-.68.75-1.08.98-3.24,1.86-6.67,3.02-10.12,4.05-3.98,1.19-16.91,4.26-23.4,3.3-1.63-.24-2.85-.74-3.43-1.59,0,0-.01-.02-.02-.03,8.51-6.05,16.1-14.34,22.2-24.22.97-.59,2.08-.74,3.12-.43.19.06.38.13.57.22,1.19.57,2.19,1.78,3.07,3.55,2.43.1,4.81,1.46,6.53,3.74,1.34,1.77,2.26,4.07,2.65,6.52.11.7.18,1.41.19,2.13.02.62-.01,1.28-.28,1.78Z"/>
            <path class="cls-41" d="m121.06,113.71c-.25.48-.68.75-1.08.98-3.24,1.86-6.67,3.02-10.12,4.05-3.98,1.19-16.91,4.26-23.4,3.3-.22-.08-.43-.15-.65-.24,8.1-1.06,16.22-2.5,23.79-5.54,4.1-1.64,8.04-3.79,11.55-6.47.11.7.18,1.41.19,2.13.02.62-.01,1.28-.28,1.78Z"/>
            <path class="cls-3" d="m108.32,95.77c-2.21,5.43-6.01,10.17-10.39,14.11-4.54,4.08-9.7,7.38-14.91,10.57,0,0-.01-.02-.02-.03,8.51-6.05,16.1-14.34,22.2-24.22.97-.59,2.08-.74,3.12-.43Z"/>
            <path class="cls-39" d="m108.2,38.69c-.09,7.36-.18,14.72-.28,22.08-.03,2.03-.05,4.07.13,6.09.18,1.96.56,3.9.66,5.87.37,6.78-2.52,13.42-6.67,18.8-2.77,3.59-6.08,6.71-9.6,9.8-3.27,2.87-7.99,3.37-11.81,1.29-3.26-1.77-6.44-3.7-9.38-5.96-4.86-3.74-9.1-8.49-11.32-14.21-3.17-8.17-2.85-15.31-4.15-24.63-.32-2.29-1-5.94-.16-8.1.63-1.64,2.06-2.81,3.48-3.84,13.62-9.89,31.99-12.87,49.09-7.18Z"/>
            <path class="cls-31" d="m69.6,66c-1.24-3.78-1.65-7.82-1.2-11.77.09-.79.27-1.66.91-2.13.44-.32,1.01-.39,1.56-.42,3.4-.19,6.78.46,10.12,1.12,1.03.2,2.14.45,2.82,1.25.67.79.74,1.91.78,2.94.15,3.99.3,7.99.44,11.98-2.34-1.5-4.75-2.93-7.38-3.81s-5.53-1.19-8.04.84Z"/>
            <path class="cls-2" d="m95.27,70.03c.04-2.53-.5-5.04-.57-7.58s.41-5.24,2.13-7.09c1.76-1.89,4.5-2.55,7.08-2.68,1.21-.06,2.61.04,3.35,1.01.65.84.55,2.02.42,3.08-.37,3.01-.74,6.02-1.11,9.02-3.94-.11-7.91.51-11.32,4.25Z"/>
            <path class="cls-28" d="m106.2,66.53c1.44-.98,2.08-1.94,2.44-3.47-.45,1.14-1.75,1.87-2.95,1.65.1.7.21,1.4.51,1.82Z"/>
            <path class="cls-22" d="m85.03,69.69c-1.61-.83-3.3-1.52-5.03-2.06-.25-.08-.5-.15-.75-.22-1.68-.48-3.39-.81-5.13-1-.26-.03-.52-.05-.79-.08-1.33-.11-2.67-.14-4.01-.08.56-1.06,1.11-2.12,1.67-3.18.4-.77.83-1.57,1.53-2.09.65-.49,1.48-.68,2.29-.75.54-.05,1.09-.04,1.63.01,1.31.13,2.6.54,3.74,1.2.72.42,1.39.93,1.97,1.53,1.88,1.94,2.82,4.75,2.87,6.73Z"/>
            <g>
              <path class="cls-36" d="m81.37,65.18c-.18.98-.67,1.83-1.37,2.45-.25-.08-.5-.15-.75-.22-1.68-.48-3.39-.81-5.13-1-.26-.03-.52-.05-.79-.08-.39-.78-.54-1.7-.38-2.63.32-1.83,1.76-3.18,3.49-3.47.47-.08.96-.08,1.46,0,.9.16,1.69.59,2.29,1.19.95.95,1.43,2.33,1.18,3.75Z"/>
              <path class="cls-18" d="m80.78,64.66c0,.14-.03.27-.05.41-.17.98-.73,1.8-1.48,2.34-1.68-.48-3.39-.81-5.13-1-.48-.74-.69-1.65-.52-2.59.01-.07.03-.13.04-.2.33,0,.65,0,.98.01-.23,1.35.68,2.64,2.04,2.88,1.36.24,2.66-.67,2.9-2.03,0-.04.01-.09.02-.13,0,0,0-.02,0-.03.23.06.45.12.67.18.18.05.35.1.53.16Z"/>
              <circle class="cls-44" cx="77.24" cy="63.99" r="2.04"/>
              <ellipse class="cls-22" cx="80.13" cy="63.49" rx="1.02" ry="1.02" transform="translate(3.69 131.38) rotate(-80)"/>
            </g>
            <path class="cls-6" d="m69.31,66.48c.96-2.6,3.73-5.15,6.46-5.64s5.29.83,7.1,2.93c-.18-1.02-.5-2.27-1.07-3.1-1.5-1.17-4.56-1.79-6.95-1.11s-4.36,2.68-5.53,6.92Z"/>
            <path class="cls-46" d="m69.85,66.7l-2.73-4.15c.7.98,1.85,1.62,3.06,1.69,0-.08,0-.16-.01-.24-.21.68-.42,1.35-.31,2.7Z"/>
            <path class="cls-22" d="m106.22,66.54c-1-.06-2-.03-2.99.1-.26.03-.53.07-.79.12-1.64.29-3.2.81-4.56,1.51-.24.12-.47.25-.69.38-.73.43-1.38.9-1.94,1.41.27-.92.38-1.87.45-2.83.04-.45.07-.9.11-1.36.04-.47.09-.94.17-1.41.02-.12.04-.23.07-.35.22-1.08.65-2.15,1.33-2.98.42-.51.95-.92,1.59-1.17,1.73-.66,3.74.19,4.96,1.58s1.8,3.21,2.29,5Z"/>
            <g>
              <path class="cls-20" d="m103.52,65.68c-.06.34-.16.66-.29.96-.26.03-.53.07-.79.12-1.64.29-3.2.81-4.56,1.51-.24.12-.47.25-.69.38-.61-.35-1.12-.84-1.48-1.42.04-.45.07-.9.11-1.36.04-.47.09-.94.17-1.41.02-.12.04-.23.07-.35.22-1.08.65-2.15,1.33-2.98.79-.41,1.72-.57,2.67-.4,2.32.41,3.87,2.63,3.46,4.95Z"/>
              <path class="cls-27" d="m102.93,65.16c0,.14-.02.27-.05.41-.08.43-.23.83-.44,1.19-1.64.29-3.2.81-4.56,1.51-1.03-.44-1.79-1.34-2.07-2.4.04-.47.09-.94.17-1.41.02-.12.04-.23.07-.35.24,0,.48,0,.72.01-.23,1.35.68,2.64,2.04,2.88,1.36.24,2.66-.67,2.9-2.03,0-.04.01-.09.02-.13,0,0,0-.02,0-.03.22.06.45.12.67.18.18.05.35.1.53.16Z"/>
              <circle class="cls-25" cx="99.4" cy="64.49" r="2.04"/>
              <ellipse class="cls-22" cx="102.28" cy="63.99" rx="1.02" ry="1.02" transform="translate(21.51 153.61) rotate(-80)"/>
            </g>
            <path class="cls-11" d="m95.26,70.06c.4-1.78.4-3.36,1-5.12s1.77-4.04,3.54-4.59c1.62-.5,2.84.11,4.13,1.2-.43-.81-.25-1.73-.68-2.57-2.18-.35-4.52.51-5.95,2.19s-2.18,4.38-2.05,8.89Z"/>
            <path class="cls-12" d="m94.28,58.76c-.73,6.04.48,12.3,3.41,17.64.19.35.4.75.28,1.13-.14.46-.66.66-1.11.8-1.42.43-2.85.82-4.28,1.18-.77.19-1.69.35-2.29-.17-.42-.37-.55-.96-.66-1.51-.57-2.97-1.14-5.97-1.1-9s.73-6.12,5.75-10.06Z"/>
            <path class="cls-22" d="m94.12,84.84c-6.23-.59-12.76-1.28-17.92-4.81,3.55,5.08,9.63,8.3,15.83,8.37-.32-.94-1.05-.91,2.09-3.56Z"/>
            <path class="cls-23" d="m95.71,56.82c.43-1.26.86-3.07,1.28-4.33v.44c1.49-.21,2.88-.81,4.31-1.26s2.98-.75,4.42-.34,2.72,2.26,2.67,3.75c-.23-.94-1.05-1.64-1.96-1.95s-1.9-.27-2.86-.14c-2.9.4-5.68,1.62-7.86,3.81Z"/>
            <path class="cls-26" d="m120.51,48.56s0,.1,0,.15t0,0c-.17,3.89-1.37,7.71-3.38,11.04-.43.71-.89,1.4-1.39,2.06-1.54,2.04-3.4,3.84-5.52,5.27.89-6.31-1.51-12.73-5.23-17.91-3.71-5.18-8.66-9.32-13.56-13.4-1.41-1.18-2.49-2.55-3.33-4.04-.24-.43-.46-.87-.66-1.31-.21-.46-.39-.92-.57-1.39-.01-.04-.03-.07-.04-.11-.81-2.26-1.24-4.66-1.56-6.98-.02-.15-.04-.3-.06-.44-.09-.65-.16-1.29-.24-1.93,8.59-.4,17.45,1.71,24.33,6.86,6.24,4.67,10.64,12,11.17,19.73h0c.05.8.07,1.59.04,2.39Z"/>
            <path class="cls-43" d="m115.74,61.82c.21-4.19-.3-8.45-2.02-12.26-2.39-5.29-6.7-9.62-11.61-12.7-6.04-3.78-9.99-4.54-14-5.12-.24-.43-.46-.87-.66-1.31.89-.31,1.78-.63,2.52-.79-2.39-.22-2.9-.41-3.08-.6-.04-.04-.06-.08-.09-.11.02,0,.03,0,.05,0,10.74.43,21.06,6.74,26.32,16.11,2.52,4.48,3.84,9.59,3.96,14.72-.43.71-.89,1.4-1.39,2.06Z"/>
            <path class="cls-32" d="m117.21,38.63c.15.29.3.57.45.87-1.12-1.92-2.46-3.7-3.98-5.29-6.49-6.79-15.75-10.37-25.04-11.78-1.33-.33-2.56-.42-3.36-.47-1.07-.07-1.35-.06-.06-.44,2.93-.88,23.36.99,31.99,17.13Z"/>
            <path class="cls-5" d="m98.08,121.37c-.53.26-6.18.78-6.38.77-18.17,3.34-36.98,1.78-55.17-1.42-.65-2.33-.77-4.79-.43-7.18.66-4.58,3.03-8.93,6.68-11.79-.61-3.03.24-6.23,2.18-8.53.07-.08.13-.15.2-.23.56.14,1.12.29,1.67.44.59.16,1.19.33,1.8.5,16.87,4.85,32.68,13.17,46.48,24.04-.29.14,1.25,1.45,2.23,2.4.04.04.08.08.12.12.46.45.75.8.61.87Z"/>
            <path class="cls-10" d="m40.43,72.23s.03-.02.04-.03c0,.09-.02.1-.04.03Z"/>
            <path class="cls-14" d="m95.44,42.96c-1.96,5.34-7.08,8.49-11.92,11.01-8.18,4.27-16.29,6.82-24.22,13.11-5.67,2.55-13.45,1.91-18.82,5.11,0-.06,0-.15,0-.27h0c0-.47-.06-1.37-.14-2.47h0c-.05-.71-.11-1.51-.18-2.33-.12-1.5-.25-3.08-.36-4.34-.12-1.37-.22-2.36-.24-2.5-.6-3.24-.84-6.4-.75-9.45h0c.02-.74.06-1.47.13-2.2h0c.69-8.05,3.8-15.22,9.04-20.96,4.69-5.14,11.02-8.4,17.6-9.91,4.38-1,8.88-1.26,13.78-.46h0c.2.03.4.07.61.11,2.27.41,4.63,1.05,7.1,1.96.73.88,1.45,1.76,2.16,2.65.65.82,1.29,1.65,1.9,2.5,1.16,1.62,2.22,3.3,3.08,5.12.07.15.14.29.2.44.25.56.49,1.14.7,1.73,1.27,3.59,1.63,7.6.33,11.15Z"/>
            <path class="cls-15" d="m87.07,55.36c-2.14-.71-4.83-1.57-7.5-2.32-2.68-.75-5.45-1.4-8.21-1.11-1.89.2-3.79.91-5.22,2.13.96-1.66,1.65-3.55,3.37-4.25,1.13-.46,2.4-.26,3.61-.04,3.82.69,7.65,1.39,11.46,2.12.83,1.16,1.66,2.32,2.49,3.48Z"/>
            <path class="cls-24" d="m95.11,31.82c-3.66,6.07-8.87,11.22-15.05,14.7-6.07,3.42-12.88,5.24-19.33,7.87-6.45,2.63-12.82,6.36-16.42,12.32-1.28,1.74-2.55,3.48-3.83,5.22,0-.46-.06-1.37-.14-2.47h0c2.98-5.05,7.89-9.05,13.09-11.96,7.08-3.98,14.92-6.46,21.97-10.49,7.48-4.27,13.94-10.27,18.81-17.36.07.15.14.29.2.44.25.56.49,1.14.7,1.73Z"/>
            <path class="cls-42" d="m91.13,24.53c-10.85,1-21.43,5.05-30.1,11.65-10.07,7.67-17.51,18.74-20.86,30.95-.12-1.5-.25-3.08-.36-4.34.15-.44.3-.87.46-1.29,3.46-9.14,8.7-17.67,15.74-24.45,7.04-6.78,15.9-11.76,25.49-13.65,2.53-.5,5.19-.83,7.74-1.38.65.82,1.29,1.65,1.9,2.5Z"/>
            <path class="cls-38" d="m99.24,24.37c-.2-.01-.39-.02-.59-.03.06-.16.12-.33.17-.49.13.18.27.35.42.52Z"/>
            <path class="cls-17" d="m79.97,17.43c-7.94,1.11-15.62,4.06-22.21,8.64-8.68,6.03-15.37,14.84-18.95,24.78.02-.74.06-1.47.13-2.2h0c3.21-9.69,10.22-18.11,18.92-23.59,6.63-4.17,14.14-6.74,21.5-7.74h0c.2.03.4.07.61.11Z"/>
            <path class="cls-33" d="m83.56,31.04c.38.07.76.14,1.13.2-.51.07-.92.03-1.13-.2Z"/>
            <path class="cls-21" d="m120.51,48.56s0,.1,0,.15c-.47-3.2-1.42-6.32-2.85-9.21,1.22,2.1,2.18,4.35,2.82,6.67h0c.05.8.07,1.59.04,2.39Z"/>
            <path class="cls-19" d="m59.8,67.1c-2.03-4.94-5.52-9.82-8.99-9.44-1.44.51-2.46,1.72-2.89,3.01s-.36,2.69-.1,4.02c.7,3.66,2.71,7.12,5.69,9.77,1.12,1,2.74,1.96,4.24,1.44,1.3-.45,1.65-.91,1.85-3.04.04-.43.29-5.27.22-5.76Z"/>
            <path class="cls-1" d="m59.41,70.6l-4.03-7.01c-.54-.93-1.33-2-2.4-1.87-.41,1.02-1.08,1.93-1.93,2.63,1.56.19,3,1.21,3.69,2.62-.83-.34-1.77-.42-2.65-.23.6,1.59,1.2,3.18,1.8,4.76.28.74.62,1.55,1.34,1.89.85.4,1.9-.07,2.47-.82s.76-1.7,1.71-1.97Z"/>
            <path class="cls-8" d="m97.34,120.38c-1.64-.87-3.22-1.68-3.37-1.51-16.24-8.73-32.58-17.28-49.01-25.65.07-.08.13-.15.2-.23.56.14,1.12.29,1.67.44.59.16,1.19.33,1.8.5,16.87,4.85,32.68,13.17,46.48,24.04-.29.14,1.25,1.45,2.23,2.4Z"/>
            <path class="cls-29" d="m98.08,121.37c-.53.26-6.18.78-6.38.77-18.17,3.34-36.98,1.78-55.17-1.42-.65-2.33-.77-4.79-.43-7.18,2.57,1.54,5.46,2.59,8.39,3.27,4.58,1.06,9.3,1.26,14,1.46,12.38.52,24.77,1.04,37.11,2.32.62-.05,1.25-.08,1.87-.08.46.45.75.8.61.87Z"/>
          </g>
        </g>
      </g>
    </g>
  </g>
</svg>