<svg width="20" height="20" viewBox="0 0 20 20" fill="none" xmlns="http://www.w3.org/2000/svg">
<g id="icon/youtube">
<path id="Union" fill-rule="evenodd" clip-rule="evenodd" d="M3.76227 5.42865C4.2832 4.90772 4.98974 4.61506 5.72646 4.61506H14.2735C15.0102 4.61506 15.7167 4.90772 16.2376 5.42865C16.7586 5.94959 17.0512 6.65612 17.0512 7.39284V12.521C17.0512 13.2578 16.7586 13.9643 16.2376 14.4852C15.7167 15.0062 15.0102 15.2988 14.2735 15.2988H5.72646C4.98974 15.2988 4.2832 15.0062 3.76227 14.4852C3.24134 13.9643 2.94868 13.2578 2.94868 12.521V7.39284C2.94868 6.65612 3.24134 5.94959 3.76227 5.42865ZM5.72646 3.33301C4.64972 3.33301 3.61709 3.76074 2.85572 4.5221C2.09436 5.28347 1.66663 6.3161 1.66663 7.39284V12.521C1.66663 13.5978 2.09436 14.6304 2.85572 15.3918C3.61709 16.1531 4.64972 16.5809 5.72646 16.5809H14.2735C15.3502 16.5809 16.3828 16.1531 17.1442 15.3918C17.9056 14.6304 18.3333 13.5978 18.3333 12.521V7.39284C18.3333 6.3161 17.9056 5.28347 17.1442 4.5221C16.3828 3.76074 15.3502 3.33301 14.2735 3.33301H5.72646ZM8.62036 6.84316C8.42233 6.72434 8.17569 6.72123 7.97473 6.83502C7.77376 6.9488 7.64953 7.16189 7.64953 7.39284V12.521C7.64953 12.752 7.77376 12.9651 7.97473 13.0789C8.17569 13.1926 8.42233 13.1895 8.62036 13.0707L12.8939 10.5066C13.0869 10.3908 13.2051 10.1821 13.2051 9.95694C13.2051 9.73177 13.0869 9.52311 12.8939 9.40726L8.62036 6.84316ZM8.93158 11.3889V8.52501L11.3181 9.95694L8.93158 11.3889Z" fill="#222D68"/>
</g>
</svg>
